<svg width="18" height="17" viewBox="0 0 18 17" fill="none" xmlns="http://www.w3.org/2000/svg">
<g id="Aktivitas">
<mask id="mask0_7855_199822" style="mask-type:alpha" maskUnits="userSpaceOnUse" x="0" y="0" width="18" height="17">
<rect id="Mask" width="18" height="17" fill="#D9D9D9"/>
</mask>
<g mask="url(#mask0_7855_199822)">
<path id="Aktivitas_2" d="M4.25135 16.9973H0.751809C0.341889 16.9973 0.00195312 16.6573 0.00195312 16.2474L0.00195313 0.749856C0.00195313 0.329951 0.341889 -4.76837e-07 0.751809 -4.76837e-07H4.25125C4.66117 -4.76837e-07 5.00115 0.329951 5.00115 0.749856V16.2474C5.00115 16.6573 4.66131 16.9973 4.25135 16.9973ZM1.50176 15.4975H3.50144V1.49976H1.50176V15.4975ZM17.2493 16.9973H13.7498C13.3399 16.9973 12.9999 16.6573 12.9999 16.2474V8.2501C12.9999 7.84018 13.3399 7.50024 13.7498 7.50024H17.2492C17.6591 7.50024 17.9991 7.84018 17.9991 8.2501V16.2474C17.9991 16.6573 17.6592 16.9973 17.2493 16.9973ZM14.4997 15.4975H16.4994V9H14.4997V15.4975ZM10.7503 16.9973H7.25087C6.84095 16.9973 6.50101 16.6573 6.50101 16.2474V4.74922C6.50101 4.3393 6.84095 3.99936 7.25087 3.99936H10.7503C11.1602 3.99936 11.5002 4.3393 11.5002 4.74922V16.2474C11.5002 16.6573 11.1602 16.9973 10.7503 16.9973ZM8.00072 15.4975H10.0004V5.49912H8.00072V15.4975Z" fill="#A9B9CC"/>
</g>
</g>
</svg>
