<svg width="24" height="24" viewBox="0 0 24 24" fill="none" xmlns="http://www.w3.org/2000/svg">
<path d="M7.25135 20.9973H3.75181C3.34189 20.9973 3.00195 20.6573 3.00195 20.2474V14C3.00195 13.5801 3.34189 13.2501 3.75181 13.2501H7.25125C7.66117 13.2501 8.00115 13.5801 8.00115 14V20.2474C8.00115 20.6573 7.66131 20.9973 7.25135 20.9973ZM20.2493 20.9973H16.7498C16.3399 20.9973 15.9999 20.6573 15.9999 20.2474V4.74986C15.9999 4.33994 16.3399 4 16.7498 4H20.2492C20.6591 4 20.9991 4.33994 20.9991 4.74986V20.2474C20.9991 20.6573 20.6592 20.9973 20.2493 20.9973ZM13.7503 20.9973H10.2509C9.84095 20.9973 9.50101 20.6573 9.50101 20.2474V8.74922C9.50101 8.3393 9.84095 7.99936 10.2509 7.99936H13.7503C14.1602 7.99936 14.5002 8.3393 14.5002 8.74922V20.2474C14.5002 20.6573 14.1602 20.9973 13.7503 20.9973Z" fill="#001767"/>
<path d="M7.25135 20.9973H3.75181C3.34189 20.9973 3.00195 20.6573 3.00195 20.2474V13.7502C3.00195 13.3303 3.34189 13.0003 3.75181 13.0003H7.25125C7.66117 13.0003 8.00115 13.3303 8.00115 13.7502V20.2474C8.00115 20.6573 7.66131 20.9973 7.25135 20.9973ZM4.50176 19.4975H6.50144V14.5001H4.50176V19.4975ZM20.2493 20.9973H16.7498C16.3399 20.9973 15.9999 20.6573 15.9999 20.2474V4.74986C15.9999 4.33994 16.3399 4 16.7498 4H20.2492C20.6591 4 20.9991 4.33994 20.9991 4.74986V20.2474C20.9991 20.6573 20.6592 20.9973 20.2493 20.9973ZM17.4997 19.4975H19.4994V5.50008H17.4997V19.4975ZM13.7503 20.9973H10.2509C9.84095 20.9973 9.50101 20.6573 9.50101 20.2474V8.74922C9.50101 8.3393 9.84095 7.99936 10.2509 7.99936H13.7503C14.1602 7.99936 14.5002 8.3393 14.5002 8.74922V20.2474C14.5002 20.6573 14.1602 20.9973 13.7503 20.9973ZM11.0007 19.4975H13.0004V9.49912H11.0007V19.4975Z" fill="#001767"/>
</svg>
