<svg width="22" height="22" viewBox="0 0 22 22" fill="none" xmlns="http://www.w3.org/2000/svg">
<g id="Akun">
<mask id="mask0_7855_199787" style="mask-type:alpha" maskUnits="userSpaceOnUse" x="0" y="0" width="23" height="22">
<path id="Mask" d="M18.5904 3.03847C16.4567 1.01475 13.6741 -0.0630925 10.7375 0.00285666C7.80086 0.0688587 5.0622 1.28968 3.03847 3.41241C1.01475 5.54613 -0.0630925 8.32877 0.00285666 11.2654C0.0688587 14.202 1.28968 16.9407 3.41241 18.9644C5.48012 20.9331 8.15278 22 10.9904 22H11.2653C14.2019 21.934 16.9406 20.7132 18.9643 18.5904C20.9881 16.4677 22.0659 13.6741 21.9999 10.7375C21.923 7.80086 20.7132 5.0622 18.5904 3.03847Z" fill="#A9B9CC"/>
</mask>
<g mask="url(#mask0_7855_199787)">
<path id="head" d="M10.7261 3.30249H11.2761C13.2448 3.30249 14.8506 4.90829 14.8506 6.87705V9.07677C14.8506 11.0455 13.2448 12.6513 11.2761 12.6513H7.97651C7.52558 12.6513 7.15159 12.2773 7.15159 11.8264V6.87705C7.15159 4.90829 8.75734 3.30249 10.7261 3.30249ZM8.80137 11.0015H11.2761C12.3319 11.0015 13.2008 10.1326 13.2008 9.07677V6.87705C13.2008 5.82118 12.3319 4.95228 11.2761 4.95228H10.7261C9.67027 4.95228 8.80137 5.81014 8.80137 6.87705V11.0015Z" fill="#A9B9CC"/>
<path id="head-2" d="M10.7261 -8.79785H11.2761C13.2448 -8.79785 14.8506 -7.19205 14.8506 -5.22329V-3.02357C14.8506 -1.05487 13.2448 0.550933 11.2761 0.550933H7.97651C7.52558 0.550933 7.15159 0.176994 7.15159 -0.273931V-5.22329C7.15159 -7.19205 8.75734 -8.79785 10.7261 -8.79785ZM8.80137 -1.09885H11.2761C12.3319 -1.09885 13.2008 -1.96775 13.2008 -3.02357V-5.22329C13.2008 -6.27916 12.3319 -7.14807 11.2761 -7.14807H10.7261C9.67027 -7.14807 8.80137 -6.2902 8.80137 -5.22329V-1.09885Z" fill="#A9B9CC"/>
<path id="Akun_2" d="M18.5904 3.03847C16.4567 1.01475 13.6741 -0.0630925 10.7375 0.00285666C7.80086 0.0688587 5.0622 1.28968 3.03847 3.41241C1.01475 5.54613 -0.0630925 8.32877 0.00285666 11.2654C0.0688587 14.202 1.28968 16.9407 3.41241 18.9644C5.48012 20.9331 8.15278 22 10.9904 22H11.2653C14.2019 21.934 16.9406 20.7132 18.9643 18.5904C20.9881 16.4677 22.0659 13.6741 21.9999 10.7375C21.923 7.80086 20.7132 5.0622 18.5904 3.03847ZM11.2324 20.3502C9.02169 20.4052 6.89896 19.6903 5.1942 18.3155C5.7001 16.9297 7.03096 15.9618 8.53776 15.9618H13.4871C14.9939 15.9618 16.3247 16.9296 16.8307 18.3045C15.2359 19.5803 13.2891 20.2952 11.2324 20.3502ZM18.0735 17.1056C17.1826 15.4339 15.4339 14.312 13.4761 14.312H8.52672C6.569 14.312 4.80923 15.4339 3.92934 17.1166C2.51056 15.4778 1.70761 13.4211 1.66363 11.2324C1.59762 8.73571 2.51056 6.36001 4.23728 4.55625C5.9641 2.7525 8.28479 1.71864 10.7815 1.66363H11.0124C13.4211 1.66363 15.6978 2.57656 17.4576 4.24826C19.2613 5.97509 20.2952 8.29577 20.3502 10.7925C20.4052 13.1131 19.5913 15.3458 18.0735 17.1056Z" fill="#A9B9CC"/>
</g>
</g>
</svg>
