<svg width="24" height="24" viewBox="0 0 24 24" fill="none" xmlns="http://www.w3.org/2000/svg">
<path d="M17.5015 16.9518C15.3014 15.8517 10.9012 15.3018 6.50107 16.9519C4.85103 18.602 5.95111 20.2519 5.95111 20.2519C9.80122 23.002 14.7514 22.4518 19.1515 19.7017C19.1515 19.7017 18.5121 17.6916 17.5015 16.9518Z" fill="#001767"/>
<path d="M12.2765 4.30252H11.7265C9.75776 4.30252 8.15196 5.90832 8.15196 7.87708V10.0768C8.15196 12.0455 9.75776 13.6513 11.7265 13.6513H15.026C15.477 13.6513 15.851 13.2774 15.851 12.8264V7.87708C15.851 5.90832 14.2452 4.30252 12.2765 4.30252Z" fill="#001767"/>
<path d="M12.2765 4.30252H11.7265C9.75776 4.30252 8.15196 5.90832 8.15196 7.87708V10.0768C8.15196 12.0455 9.75776 13.6513 11.7265 13.6513H15.026C15.477 13.6513 15.851 13.2774 15.851 12.8264V7.87708C15.851 5.90832 14.2452 4.30252 12.2765 4.30252ZM14.2012 12.0015H11.7265C10.6706 12.0015 9.80175 11.1326 9.80175 10.0768V7.87708C9.80175 6.82121 10.6706 5.9523 11.7265 5.9523H12.2764C13.3323 5.9523 14.2012 6.81017 14.2012 7.87708V12.0015Z" fill="#001767"/>
<path d="M19.5904 4.03847C17.4567 2.01475 14.6741 0.936907 11.7375 1.00286C8.80086 1.06886 6.0622 2.28968 4.03847 4.41241C2.01475 6.54613 0.936907 9.32877 1.00286 12.2654C1.06886 15.202 2.28968 17.9407 4.41241 19.9644C6.48012 21.9331 9.15278 23 11.9904 23H12.2653C15.2019 22.934 17.9406 21.7132 19.9643 19.5904C21.9881 17.4677 23.0659 14.6741 22.9999 11.7375C22.923 8.80086 21.7132 6.0622 19.5904 4.03847ZM12.2324 21.3502C10.0217 21.4052 7.89896 20.6903 6.1942 19.3155C6.7001 17.9297 8.03096 16.9618 9.53776 16.9618H14.4871C15.9939 16.9618 17.3247 17.9296 17.8307 19.3045C16.2359 20.5803 14.2891 21.2952 12.2324 21.3502ZM19.0735 18.1056C18.1826 16.4339 16.4339 15.312 14.4761 15.312H9.52672C7.569 15.312 5.80923 16.4339 4.92934 18.1166C3.51056 16.4778 2.70761 14.4211 2.66363 12.2324C2.59762 9.73571 3.51056 7.36001 5.23728 5.55625C6.9641 3.7525 9.28479 2.71864 11.7815 2.66363H12.0124C14.4211 2.66363 16.6978 3.57656 18.4576 5.24826C20.2613 6.97509 21.2952 9.29577 21.3502 11.7925C21.4052 14.1131 20.5913 16.3458 19.0735 18.1056Z" fill="#001767"/>
</svg>
