<svg width="228" height="228" viewBox="0 0 228 228" fill="none" xmlns="http://www.w3.org/2000/svg">
<path d="M21.7695 206.573L44.8249 206.463L67.8848 206.422L114 206.345L160.115 206.422L183.175 206.459L206.231 206.573L183.175 206.682L160.115 206.723L114 206.801L67.8848 206.723L44.8249 206.682L21.7695 206.573Z" fill="#323A43"/>
<path d="M126.229 32.2347H49.1378C48.1042 32.2442 47.0826 32.4573 46.1314 32.8616C45.1801 33.266 44.3178 33.8538 43.5937 34.5914C42.8696 35.329 42.2979 36.2021 41.9113 37.1607C41.5246 38.1192 41.3306 39.1446 41.3402 40.1782V198.866C41.322 200.953 42.133 202.962 43.5951 204.452C45.0572 205.941 47.0507 206.789 49.1378 206.81H126.229C128.317 206.789 130.312 205.941 131.775 204.452C133.239 202.963 134.052 200.954 134.036 198.866V40.1782C134.053 38.0899 133.24 36.0803 131.776 34.5908C130.313 33.1014 128.317 32.2539 126.229 32.2347ZM129.157 193.964C129.157 198.141 126.029 201.52 122.171 201.52H53.2053C49.3384 201.52 46.2103 198.141 46.2103 193.964V46.1928C46.2103 37.6839 49.3384 37.2689 53.2053 37.2689H67.0312C67.8338 37.2689 68.4904 38.1809 68.4904 39.3118V39.7997C68.4904 42.4491 69.9405 42.4582 71.7189 42.4582H103.666C105.463 42.4582 106.904 42.4582 106.904 39.7997V39.3118C106.904 38.1809 107.551 37.2689 108.368 37.2689H122.18C126.038 37.2689 129.166 38.3998 129.166 46.1928L129.157 193.964Z" fill="#CBD5E0"/>
<path d="M129.161 46.3206V194.092C129.161 198.269 126.033 201.648 122.175 201.648H53.2099C49.343 201.648 46.2148 198.269 46.2148 194.092V46.3206C46.2148 37.8116 49.343 37.3967 53.2099 37.3967H67.0312C67.8338 37.3967 68.4904 38.3087 68.4904 39.4396V39.9275C68.4904 42.5768 69.9405 42.586 71.7189 42.586H103.666C105.463 42.586 106.904 42.586 106.904 39.9275V39.4396C106.904 38.3087 107.551 37.3967 108.368 37.3967H122.18C126.033 37.3921 129.161 38.5276 129.161 46.3206Z" fill="white"/>
<path opacity="0.05" d="M129.161 65.1761V194.092C129.161 198.269 126.033 201.648 122.175 201.648H53.2099C49.343 201.648 46.2148 198.269 46.2148 194.092V97.3743C64.3728 95.0441 82.6082 121.542 99.4984 113.745C114.966 106.586 114.268 83.9406 120.018 73.6167C122.067 69.8835 125.277 66.9202 129.161 65.1761Z" fill="#CBD5E0"/>
<path opacity="0.05" d="M129.161 150.061V194.092C129.161 198.269 126.033 201.648 122.175 201.648H53.2099C49.343 201.648 46.2148 198.269 46.2148 194.092V136.526C56.0644 153.736 67.0814 158.693 77.1225 156.134C88.5772 153.23 104.97 138.396 120.397 143.549C123.927 144.751 126.992 147.028 129.161 150.061Z" fill="#CBD5E0"/>
<path d="M92.0433 39.1477H83.3291C83.1864 39.1477 83.0495 39.091 82.9486 38.9901C82.8477 38.8892 82.791 38.7523 82.791 38.6096C82.791 38.4669 82.8477 38.33 82.9486 38.2291C83.0495 38.1282 83.1864 38.0715 83.3291 38.0715H92.0433C92.1836 38.0751 92.317 38.1334 92.4149 38.2339C92.5129 38.3344 92.5677 38.4692 92.5677 38.6096C92.5677 38.75 92.5129 38.8848 92.4149 38.9853C92.317 39.0859 92.1836 39.1441 92.0433 39.1477Z" fill="#CBD5E0"/>
<path d="M64.6372 40.5841L64.5004 40.7163L64.4274 40.7893C64.0855 40.4481 63.6222 40.2566 63.1392 40.2566C62.6562 40.2566 62.193 40.4481 61.851 40.7893L61.7826 40.7117C61.737 40.6661 61.6914 40.6251 61.6504 40.5795L61.8191 40.429C61.94 40.3323 62.0716 40.2497 62.2113 40.1828C62.3739 40.1007 62.5474 40.0423 62.7266 40.0095C62.8125 39.9929 62.8993 39.9807 62.9865 39.973H63.2099H63.3877C63.5435 39.994 63.6965 40.0322 63.8437 40.087C63.9558 40.1278 64.0641 40.1782 64.1675 40.2375C64.275 40.3006 64.3771 40.3722 64.473 40.4518L64.6144 40.5795L64.6372 40.5841Z" fill="#CBD5E0"/>
<path d="M62.2742 41.2134L62.0645 41.0037C62.2985 40.7739 62.6011 40.6266 62.9263 40.5841C63.16 40.5478 63.399 40.5677 63.6234 40.6423C63.8479 40.7168 64.0513 40.8438 64.2168 41.0128L64.007 41.2225C63.8947 41.1083 63.7605 41.0179 63.6124 40.9568C63.4643 40.8957 63.3054 40.8651 63.1452 40.8669C62.9842 40.8637 62.8243 40.8927 62.6747 40.9522C62.5252 41.0118 62.389 41.1006 62.2742 41.2134Z" fill="#CBD5E0"/>
<path d="M63.7944 41.4231L63.5847 41.6329C63.5245 41.5739 63.4532 41.5274 63.3749 41.4961C63.2966 41.4648 63.2129 41.4493 63.1287 41.4505C63.0439 41.4488 62.9597 41.4646 62.8813 41.4967C62.8029 41.5289 62.7318 41.5768 62.6727 41.6374L62.4629 41.4277C62.5479 41.3363 62.6507 41.2633 62.7651 41.2132C62.8794 41.1632 63.0028 41.1371 63.1277 41.1367C63.2525 41.1363 63.3761 41.1615 63.4908 41.2107C63.6054 41.26 63.7088 41.3323 63.7944 41.4231Z" fill="#CBD5E0"/>
<path d="M63.3277 41.8244C63.3283 41.8494 63.3239 41.8742 63.3148 41.8974C63.3057 41.9206 63.292 41.9418 63.2746 41.9596C63.2572 41.9774 63.2363 41.9916 63.2134 42.0013C63.1904 42.011 63.1657 42.016 63.1407 42.016C63.0899 42.016 63.0412 41.9958 63.0053 41.9599C62.9694 41.9239 62.9492 41.8752 62.9492 41.8244C62.9492 41.7995 62.9542 41.7748 62.9639 41.7518C62.9736 41.7288 62.9877 41.708 63.0056 41.6906C63.0234 41.6732 63.0446 41.6595 63.0678 41.6504C63.091 41.6413 63.1158 41.6369 63.1407 41.6375C63.1903 41.6375 63.2379 41.6572 63.2729 41.6922C63.308 41.7273 63.3277 41.7749 63.3277 41.8244Z" fill="#CBD5E0"/>
<path d="M51.6192 40.9899C51.6192 40.8808 51.6515 40.7741 51.7121 40.6834C51.7728 40.5926 51.859 40.5219 51.9598 40.4801C52.0606 40.4384 52.1715 40.4275 52.2786 40.4487C52.3856 40.47 52.4839 40.5226 52.5611 40.5997C52.6382 40.6769 52.6908 40.7752 52.7121 40.8823C52.7334 40.9893 52.7224 41.1002 52.6807 41.2011C52.6389 41.3019 52.5682 41.388 52.4775 41.4487C52.3867 41.5093 52.28 41.5417 52.1709 41.5417C52.0983 41.5423 52.0263 41.5284 51.9591 41.5009C51.8918 41.4734 51.8308 41.4328 51.7794 41.3814C51.7281 41.3301 51.6874 41.269 51.6599 41.2018C51.6324 41.1346 51.6186 41.0625 51.6192 40.9899Z" fill="#CBD5E0"/>
<path d="M53.3516 40.9899C53.3516 40.8808 53.3839 40.7741 53.4446 40.6834C53.5052 40.5926 53.5914 40.5219 53.6922 40.4801C53.793 40.4384 53.904 40.4275 54.011 40.4487C54.118 40.47 54.2163 40.5226 54.2935 40.5997C54.3707 40.6769 54.4232 40.7752 54.4445 40.8823C54.4658 40.9893 54.4549 41.1002 54.4131 41.2011C54.3713 41.3019 54.3006 41.388 54.2099 41.4487C54.1191 41.5093 54.0125 41.5417 53.9033 41.5417C53.8307 41.5423 53.7587 41.5284 53.6915 41.5009C53.6243 41.4734 53.5632 41.4328 53.5118 41.3814C53.4605 41.3301 53.4199 41.269 53.3923 41.2018C53.3648 41.1346 53.351 41.0625 53.3516 40.9899Z" fill="#CBD5E0"/>
<path d="M55.084 40.9899C55.084 40.8806 55.1165 40.7737 55.1773 40.6829C55.2381 40.592 55.3246 40.5213 55.4257 40.4797C55.5268 40.4381 55.6379 40.4274 55.7451 40.4491C55.8522 40.4707 55.9505 40.5238 56.0275 40.6014C56.1045 40.679 56.1567 40.7777 56.1775 40.8851C56.1982 40.9924 56.1867 41.1035 56.1442 41.2042C56.1017 41.305 56.0303 41.3908 55.939 41.4509C55.8476 41.511 55.7405 41.5425 55.6312 41.5416C55.559 41.5416 55.4874 41.5273 55.4207 41.4996C55.3541 41.4718 55.2935 41.4311 55.2427 41.3798C55.1918 41.3285 55.1516 41.2676 55.1243 41.2007C55.0971 41.1338 55.0834 41.0621 55.084 40.9899Z" fill="#CBD5E0"/>
<path d="M56.8125 40.9899C56.8125 40.8808 56.8449 40.7741 56.9055 40.6834C56.9661 40.5926 57.0523 40.5219 57.1531 40.4801C57.254 40.4384 57.3649 40.4275 57.4719 40.4487C57.579 40.47 57.6773 40.5226 57.7544 40.5997C57.8316 40.6769 57.8842 40.7752 57.9054 40.8823C57.9267 40.9893 57.9158 41.1002 57.874 41.2011C57.8323 41.3019 57.7616 41.388 57.6708 41.4487C57.5801 41.5093 57.4734 41.5417 57.3643 41.5417C57.2917 41.5423 57.2196 41.5284 57.1524 41.5009C57.0852 41.4734 57.0241 41.4328 56.9728 41.3814C56.9214 41.3301 56.8808 41.269 56.8533 41.2018C56.8258 41.1346 56.8119 41.0625 56.8125 40.9899Z" fill="#CBD5E0"/>
<path d="M58.5449 40.9899C58.5449 40.8808 58.5773 40.7741 58.6379 40.6834C58.6986 40.5926 58.7847 40.5219 58.8855 40.4801C58.9864 40.4384 59.0973 40.4275 59.2043 40.4487C59.3114 40.47 59.4097 40.5226 59.4869 40.5997C59.564 40.6769 59.6166 40.7752 59.6379 40.8823C59.6591 40.9893 59.6482 41.1002 59.6065 41.2011C59.5647 41.3019 59.494 41.388 59.4032 41.4487C59.3125 41.5093 59.2058 41.5417 59.0967 41.5417C59.0241 41.5423 58.9521 41.5284 58.8848 41.5009C58.8176 41.4734 58.7565 41.4328 58.7052 41.3814C58.6538 41.3301 58.6132 41.269 58.5857 41.2018C58.5582 41.1346 58.5443 41.0625 58.5449 40.9899Z" fill="#CBD5E0"/>
<path d="M122.937 42.1892H118.459V40.1281H122.937V42.1892ZM118.687 41.9612H122.709V40.347H118.687V41.9612Z" fill="#CBD5E0"/>
<path d="M121.719 40.4701H118.832V41.8381H121.719V40.4701Z" fill="#CBD5E0"/>
<path d="M123.334 40.5978H122.938V41.7059H123.334V40.5978Z" fill="#CBD5E0"/>
<path d="M118.372 193.978C117.72 193.979 117.074 193.85 116.471 193.601C115.868 193.352 115.321 192.986 114.859 192.525C114.398 192.064 114.032 191.516 113.783 190.913C113.534 190.31 113.406 189.664 113.406 189.012C113.406 187.695 113.929 186.432 114.861 185.501C115.792 184.569 117.055 184.046 118.372 184.046C119.689 184.047 120.951 184.571 121.882 185.502C122.813 186.433 123.337 187.695 123.338 189.012C123.338 190.329 122.815 191.592 121.883 192.523C120.952 193.455 119.689 193.978 118.372 193.978Z" fill="#CBD5E0"/>
<path d="M121.399 187.516H115.344V191.215H121.399V187.516Z" fill="#E2E8F0"/>
<path d="M119.877 187.516H116.867L117.164 186.81H119.576L119.877 187.516Z" fill="#E2E8F0"/>
<path d="M119.778 189.368C119.778 189.646 119.695 189.917 119.541 190.148C119.387 190.379 119.167 190.559 118.911 190.665C118.654 190.772 118.372 190.799 118.099 190.745C117.827 190.691 117.577 190.557 117.38 190.361C117.184 190.164 117.05 189.914 116.996 189.642C116.942 189.369 116.969 189.087 117.076 188.83C117.182 188.574 117.362 188.354 117.593 188.2C117.824 188.046 118.095 187.963 118.373 187.963C118.746 187.963 119.103 188.111 119.366 188.375C119.63 188.638 119.778 188.995 119.778 189.368Z" fill="#CBD5E0"/>
<path d="M119.471 189.368C119.471 189.583 119.407 189.794 119.287 189.973C119.167 190.152 118.997 190.292 118.798 190.375C118.599 190.457 118.38 190.479 118.168 190.437C117.957 190.395 117.763 190.291 117.61 190.138C117.458 189.986 117.354 189.792 117.312 189.58C117.27 189.369 117.291 189.15 117.374 188.951C117.456 188.752 117.596 188.581 117.775 188.462C117.955 188.342 118.165 188.278 118.381 188.278C118.67 188.278 118.947 188.393 119.151 188.597C119.356 188.801 119.471 189.079 119.471 189.368Z" fill="#E2E8F0"/>
<path d="M121.045 187.831H120.461V188.164H121.045V187.831Z" fill="#CBD5E0"/>
<path d="M116.123 187.243H115.549V187.411H116.123V187.243Z" fill="#E2E8F0"/>
<path d="M56.585 193.978C55.268 193.978 54.0049 193.455 53.0736 192.523C52.1423 191.592 51.6191 190.329 51.6191 189.012C51.6203 187.695 52.1439 186.433 53.0749 185.502C54.006 184.571 55.2683 184.047 56.585 184.046C57.2377 184.046 57.8842 184.174 58.4874 184.423C59.0907 184.672 59.639 185.038 60.1009 185.499C60.5629 185.96 60.9295 186.507 61.1798 187.11C61.4302 187.713 61.5593 188.359 61.5599 189.012C61.5599 189.665 61.4312 190.311 61.1811 190.915C60.9309 191.518 60.5643 192.065 60.1023 192.527C59.6402 192.988 59.0917 193.353 58.4881 193.603C57.8846 193.852 57.2379 193.979 56.585 193.978Z" fill="#CBD5E0"/>
<path d="M57.7749 188.301H55.3398V192.368H57.7749V188.301Z" fill="#E2E8F0"/>
<path d="M58.4449 186.417V187.357L57.8248 188.091H55.2894L54.6738 187.357V186.417H58.4449Z" fill="#E2E8F0"/>
<path d="M58.4449 185.656H54.6738V186.194H58.4449V185.656Z" fill="#E2E8F0"/>
<path d="M121.355 93.6761H49.166V114.251H121.355V93.6761Z" fill="#E2E8F0"/>
<path d="M121.356 114.251L49.1667 114.347H49.0664V114.251V93.6761V93.5621H49.1804L121.37 93.6259H121.42V93.6761L121.356 114.251ZM121.356 114.251L121.297 93.6761L121.347 93.7262L49.1576 93.7901L49.2716 93.6761V114.251L49.1758 114.155L121.356 114.251Z" fill="#A9B9CC"/>
<path d="M66.8952 96.7814H52.627V111.05H66.8952V96.7814Z" fill="#A9B9CC"/>
<path d="M59.7645 107.657C62.3408 107.657 64.4294 105.846 64.4294 103.612C64.4294 101.378 62.3408 99.5675 59.7645 99.5675C57.1881 99.5675 55.0996 101.378 55.0996 103.612C55.0996 105.846 57.1881 107.657 59.7645 107.657Z" fill="#E2E8F0"/>
<path d="M56.3801 105.906L55.541 108.254L58.5096 107.333L56.3801 105.906Z" fill="#E2E8F0"/>
<path d="M104.389 97.2283H70.9004V97.8622H104.389V97.2283Z" fill="#CBD5E0"/>
<path d="M113.856 102.167H70.9004V102.801H113.856V102.167Z" fill="#E2E8F0"/>
<path d="M113.856 104.191H70.9004V104.825H113.856V104.191Z" fill="#E2E8F0"/>
<path d="M123.782 90.8169H118.926V95.6733H123.782V90.8169Z" fill="#A9B9CC"/>
<path d="M120.364 91.8576L119.961 92.2606L122.35 94.6499L122.753 94.2469L120.364 91.8576Z" fill="#E2E8F0"/>
<path d="M119.952 94.2398L120.355 94.6428L122.745 92.2535L122.342 91.8505L119.952 94.2398Z" fill="#E2E8F0"/>
<path d="M123.781 117.611H51.5918V138.186H123.781V117.611Z" fill="#E2E8F0"/>
<path d="M123.786 138.168L51.5919 138.268H51.4961V138.168V117.593V117.479H51.6101L123.804 117.543H123.85V117.593L123.786 138.168ZM123.786 138.168L123.736 117.593L123.786 117.643L51.5919 117.707L51.7059 117.593V138.168L51.6101 138.072L123.786 138.168Z" fill="#A9B9CC"/>
<path d="M69.3268 120.717H55.0586V134.985H69.3268V120.717Z" fill="#A9B9CC"/>
<path d="M66.5356 128.697C66.4266 128.633 66.3377 128.539 66.2789 128.427C66.2201 128.315 66.1937 128.189 66.2027 128.063C66.2027 127.99 66.2027 127.922 66.2027 127.849C66.2027 127.776 66.2027 127.707 66.2027 127.634C66.1945 127.509 66.2213 127.384 66.2801 127.273C66.3389 127.162 66.4273 127.069 66.5356 127.005L67.3016 126.549L65.8652 124.055L65.0992 124.511C64.9881 124.573 64.8622 124.603 64.7351 124.598C64.608 124.593 64.4847 124.554 64.3787 124.483C64.2598 124.405 64.1365 124.333 64.0093 124.269C63.8964 124.213 63.8013 124.126 63.7345 124.019C63.6677 123.912 63.6319 123.789 63.6308 123.663V122.778H60.7489V123.663C60.7479 123.789 60.712 123.912 60.6452 124.019C60.5784 124.126 60.4833 124.213 60.3704 124.269C60.2433 124.333 60.12 124.405 60.0011 124.483C59.8958 124.553 59.7732 124.593 59.647 124.598C59.5207 124.602 59.3955 124.572 59.2852 124.511L58.5191 124.055L57.0781 126.549L57.8488 127.005C57.9578 127.069 58.0467 127.163 58.1055 127.275C58.1643 127.387 58.1907 127.513 58.1816 127.639C58.1816 127.707 58.1816 127.78 58.1816 127.849C58.1816 127.917 58.1816 127.99 58.1816 128.063C58.1907 128.19 58.1639 128.316 58.1042 128.429C58.0445 128.541 57.9544 128.634 57.8442 128.697L57.0781 129.153L58.5191 131.647L59.2806 131.191C59.3912 131.129 59.517 131.098 59.644 131.102C59.7711 131.106 59.8946 131.145 60.0011 131.214C60.1199 131.294 60.2432 131.367 60.3704 131.433C60.4843 131.488 60.5803 131.574 60.6473 131.681C60.7143 131.789 60.7495 131.913 60.7489 132.039V132.919H63.6308V132.039C63.6313 131.913 63.667 131.789 63.7339 131.682C63.8007 131.575 63.8961 131.489 64.0093 131.433C64.138 131.367 64.2628 131.294 64.3832 131.214C64.4888 131.144 64.6116 131.105 64.738 131.101C64.8644 131.097 64.9894 131.128 65.0992 131.191L65.8652 131.647L67.3016 129.153L66.5356 128.697ZM62.1899 130.211C61.7225 130.212 61.2654 130.074 60.8763 129.815C60.4873 129.556 60.1838 129.187 60.0044 128.756C59.8249 128.324 59.7775 127.849 59.8681 127.391C59.9587 126.932 60.1833 126.511 60.5135 126.18C60.8436 125.849 61.2645 125.624 61.7228 125.532C62.1811 125.441 62.6563 125.487 63.0882 125.666C63.5201 125.845 63.8893 126.147 64.149 126.536C64.4088 126.925 64.5474 127.381 64.5474 127.849C64.5474 128.474 64.2992 129.075 63.8572 129.517C63.4152 129.96 62.8156 130.21 62.1899 130.211Z" fill="#E2E8F0"/>
<path d="M63.8405 127.849C63.8405 128.172 63.7445 128.489 63.5646 128.758C63.3847 129.027 63.129 129.237 62.8299 129.361C62.5308 129.485 62.2016 129.517 61.8841 129.454C61.5665 129.391 61.2748 129.235 61.0459 129.006C60.8169 128.777 60.661 128.486 60.5979 128.168C60.5347 127.85 60.5671 127.521 60.691 127.222C60.8149 126.923 61.0247 126.667 61.294 126.487C61.5632 126.308 61.8797 126.212 62.2035 126.212C62.4186 126.211 62.6317 126.253 62.8306 126.335C63.0295 126.417 63.2102 126.538 63.3624 126.69C63.5145 126.842 63.635 127.023 63.7171 127.221C63.7992 127.42 63.8411 127.633 63.8405 127.849Z" fill="#E2E8F0"/>
<path d="M106.815 121.164H73.3262V121.798H106.815V121.164Z" fill="#CBD5E0"/>
<path d="M116.281 126.107H73.3262V126.741H116.281V126.107Z" fill="#E2E8F0"/>
<path d="M116.281 128.131H73.3262V128.765H116.281V128.131Z" fill="#E2E8F0"/>
<path d="M123.781 141.552H51.5918V162.126H123.781V141.552Z" fill="#E2E8F0"/>
<path d="M123.786 162.126L51.5919 162.222H51.4961V162.126V141.551V141.438H51.6101L123.804 141.501H123.85V141.551L123.786 162.126ZM123.786 162.126L123.736 141.551L123.786 141.602L51.5919 141.665L51.7059 141.551V162.126L51.6101 162.03L123.786 162.126Z" fill="#A9B9CC"/>
<path d="M69.3268 144.652H55.0586V158.921H69.3268V144.652Z" fill="#A9B9CC"/>
<path d="M67.1837 148.62H57.1973V154.953H67.1837V148.62Z" fill="#E2E8F0"/>
<path d="M67.1823 148.62C66.7811 149.007 66.3707 149.376 65.9648 149.755L64.7519 150.868C64.3232 151.251 63.89 151.629 63.4568 152.008L63.4203 152.044L62.2712 153.043L62.2119 153.088L62.1572 153.043L61.0081 152.04L60.9671 152.008C60.5111 151.629 60.1007 151.251 59.672 150.863C59.2434 150.475 58.8512 150.129 58.4408 149.755C58.0304 149.381 57.6246 149.007 57.2188 148.62C57.6474 148.952 58.0715 149.299 58.4955 149.636C58.9196 149.974 59.3391 150.325 59.7587 150.676C60.1782 151.027 60.698 151.46 61.1631 151.857L62.2119 152.769L63.2607 151.857C63.7167 151.46 64.1727 151.064 64.6607 150.676C65.1486 150.288 65.5043 149.978 65.9238 149.636C66.3433 149.294 66.7537 148.952 67.1823 148.62Z" fill="#A9B9CC"/>
<path d="M61.154 152.003L60.999 152.135C60.7482 152.35 60.4928 152.55 60.2329 152.746C59.973 152.942 59.5854 153.202 59.2616 153.453C58.9379 153.704 58.6004 153.909 58.263 154.119C57.9255 154.329 57.5881 154.547 57.2324 154.744C57.5379 154.475 57.8526 154.228 58.1718 153.987C58.491 153.745 58.8147 153.531 59.1385 153.28C59.4623 153.029 59.7997 152.824 60.1371 152.614C60.4746 152.404 60.6798 152.272 60.9579 152.112C61.0218 152.071 61.0856 152.039 61.154 152.003Z" fill="#A9B9CC"/>
<path d="M67.1599 154.753C66.8088 154.557 66.4668 154.347 66.1293 154.128C65.7919 153.909 65.4636 153.672 65.1307 153.462C64.7978 153.252 64.4786 153.006 64.164 152.755C63.8493 152.505 63.6441 152.359 63.3979 152.149L63.2383 152.012L63.4298 152.126C63.7125 152.286 63.9816 152.454 64.2506 152.628C64.588 152.842 64.9209 153.084 65.2492 153.293C65.5776 153.503 65.9013 153.749 66.216 154C66.5306 154.251 66.8589 154.484 67.1599 154.753Z" fill="#A9B9CC"/>
<path d="M106.815 145.104H73.3262V145.738H106.815V145.104Z" fill="#CBD5E0"/>
<path d="M116.281 150.042H73.3262V150.676H116.281V150.042Z" fill="#E2E8F0"/>
<path d="M116.281 152.067H73.3262V152.701H116.281V152.067Z" fill="#E2E8F0"/>
<path d="M189.505 206.568L123.677 206.851C107.676 194.288 106.026 175.674 117.439 164.393C124.348 157.553 133.121 158.943 141.475 157.858H141.498C144.449 157.547 147.319 156.705 149.97 155.373C158.57 150.813 163.422 140.129 170.654 131.127C171.566 129.996 172.512 128.901 173.491 127.84C179.442 121.488 191.275 121.282 197.476 130.215C213.217 152.91 206.008 186.691 189.505 206.568Z" fill="#2F80ED"/>
<path opacity="0.1" d="M190.965 154.643C189.241 181.648 158.051 191.73 138.57 183.64C121.634 176.604 127.17 160.548 141.475 157.863H141.498C144.449 157.551 147.319 156.709 149.97 155.377C158.57 150.817 163.422 140.133 170.654 131.132C181.434 125.528 192.232 134.867 190.965 154.643Z" fill="#202327"/>
<path d="M130.243 210.827C131.26 210.453 154.201 192.131 154.635 190.868C154.799 190.412 152.327 186.896 149.213 182.756C148.542 181.844 147.845 180.932 147.129 180.02C142.491 173.978 137.43 167.676 137.43 167.676L122.049 179.897L132.172 191.903L134.388 194.539C134.388 194.539 128.747 205.483 128.419 206.91C128.091 208.337 129.226 211.196 130.243 210.827Z" fill="#F7A9A0"/>
<path d="M106.514 156.408C107.572 164.397 127.262 187.466 129.537 190.115L130.057 190.717L146.35 178.196L146.158 177.954L131.813 159.144C131.813 159.144 155.525 172.988 167.408 166.704C172.734 163.882 176.688 158.866 176.688 158.866L161.184 150.608C161.184 150.608 156.897 151.976 154.157 151.593C144.713 150.225 123.554 142.176 118.534 142.381C112.068 142.66 105.547 149.062 106.514 156.408Z" fill="#323A43"/>
<path d="M126.665 152.176C127.197 152.776 127.691 153.41 128.142 154.073C128.648 154.739 129.164 155.396 129.67 156.061C129.579 155.865 129.492 155.674 129.396 155.478C129.077 154.817 128.822 154.133 128.443 153.499C128.443 153.462 128.48 153.426 128.502 153.462C128.89 154.092 129.341 154.689 129.674 155.35C129.829 155.66 129.98 155.975 130.13 156.299C130.208 156.472 130.285 156.645 130.354 156.828C130.381 156.905 130.422 156.992 130.445 157.083C130.673 157.388 130.901 157.698 131.115 158.018C131.599 158.715 132.027 159.454 132.511 160.147C132.538 160.188 132.479 160.22 132.451 160.184C131.959 159.532 131.403 158.925 130.901 158.278C130.399 157.63 129.902 156.942 129.424 156.258C128.945 155.574 128.512 154.917 128.028 154.251C127.517 153.594 127.046 152.905 126.619 152.19C126.62 152.185 126.623 152.181 126.626 152.177C126.629 152.174 126.633 152.171 126.638 152.17C126.643 152.169 126.648 152.168 126.652 152.169C126.657 152.171 126.661 152.173 126.665 152.176Z" fill="#323A43"/>
<path d="M143.084 175.336C142.172 176.166 141.228 176.932 140.284 177.708C139.34 178.483 138.382 179.254 137.429 180.02C135.514 181.547 133.613 183.093 131.679 184.58C130.617 185.405 129.545 186.221 128.437 186.992C128.391 187.028 128.332 186.946 128.378 186.91C130.202 185.259 132.121 183.754 134.032 182.227C135.943 180.699 137.867 179.171 139.805 177.667C140.863 176.846 141.921 175.998 143.029 175.245C143.075 175.232 143.125 175.3 143.084 175.336Z" fill="#323A43"/>
<path d="M168.503 135.022C165.023 143.261 154.18 151.488 150.655 151.711C146.551 151.966 136.063 146.964 132.127 141.15C131.193 139.782 140.057 133.576 141.498 134.62C144.458 136.768 150.062 139.727 150.55 139.778C151.517 139.878 158.302 136.207 163.555 132.742C170.089 128.432 169.889 131.738 168.503 135.022Z" fill="#F7A9A0"/>
<path d="M133.336 142.696C133.336 142.696 129.688 138.711 129.387 135.044C129.182 132.509 129.629 125.81 135.835 121.433C137.308 120.398 140.139 119.964 138.352 122.532C137.08 124.356 135.721 125.126 135.16 126.321C135.16 126.321 138.831 126.198 139.811 127.712C140.667 129.039 141.429 130.424 142.091 131.857C141.855 132.038 141.608 132.204 141.352 132.354C141.352 132.354 142.137 133.854 141.494 136.353L133.336 142.696Z" fill="#F7A9A0"/>
<path d="M142.97 119.016L146.778 132.377C146.933 132.769 146.746 133.093 146.354 133.106L139.409 133.321C139.196 133.311 138.991 133.241 138.817 133.119C138.643 132.997 138.506 132.828 138.424 132.632L134.621 119.276C134.461 118.884 134.653 118.555 135.04 118.546L141.985 118.332C142.197 118.341 142.402 118.41 142.577 118.531C142.751 118.652 142.888 118.82 142.97 119.016Z" fill="#4A5568"/>
<path d="M142.146 119.043L145.954 132.404C146.109 132.796 145.922 133.12 145.53 133.134L138.585 133.348C138.372 133.338 138.167 133.268 137.993 133.146C137.818 133.024 137.682 132.856 137.6 132.659L133.797 119.303C133.752 119.229 133.728 119.145 133.727 119.059C133.725 118.972 133.747 118.887 133.79 118.813C133.833 118.738 133.895 118.676 133.97 118.633C134.045 118.59 134.13 118.568 134.216 118.569L141.161 118.359C141.373 118.368 141.578 118.438 141.753 118.559C141.927 118.68 142.063 118.848 142.146 119.043Z" fill="#323A43"/>
<path d="M140.262 119.718C140.268 119.836 140.308 119.949 140.379 120.043C140.449 120.137 140.545 120.209 140.656 120.248C140.767 120.288 140.887 120.293 141.001 120.264C141.115 120.235 141.217 120.173 141.296 120.086C141.374 119.998 141.425 119.889 141.441 119.773C141.458 119.656 141.439 119.538 141.388 119.432C141.337 119.326 141.256 119.238 141.154 119.178C141.053 119.119 140.936 119.091 140.819 119.098C140.663 119.107 140.517 119.178 140.413 119.294C140.309 119.41 140.255 119.562 140.262 119.718Z" fill="#323A43"/>
<path d="M129.852 131.46C130.645 130.389 132.364 128.145 134.412 126.795C136.692 125.3 141.457 123.033 142.547 124.721C143.34 125.956 141.594 127.001 141.594 127.001C141.594 127.001 143.764 126.481 144.243 127.753C144.676 128.916 143.276 129.632 143.276 129.632C143.276 129.632 144.644 129.54 144.849 130.74C145.091 132.185 142.177 132.135 141.16 133.809C140.932 134.169 129.852 131.46 129.852 131.46Z" fill="#F7A9A0"/>
<path d="M135.588 129.458C137.273 128.039 139.35 127.166 141.543 126.955C141.598 126.955 141.63 126.996 141.58 127.01C139.495 127.588 137.489 128.418 135.606 129.481C135.606 129.481 135.579 129.467 135.588 129.458Z" fill="#323A43"/>
<path d="M137.166 131.706C138.967 130.457 141.072 129.717 143.258 129.563C143.313 129.563 143.345 129.604 143.295 129.618C141.184 130.09 139.133 130.798 137.18 131.729C137.18 131.729 137.157 131.716 137.166 131.706Z" fill="#323A43"/>
<path d="M141.648 133.216C141.612 134.018 141.584 134.803 141.489 135.578C141.443 135.965 141.37 136.349 141.288 136.732C141.195 137.115 141.079 137.493 140.941 137.862C141.457 137.221 141.774 136.443 141.853 135.623C141.901 135.219 141.91 134.812 141.881 134.406C141.852 134.001 141.774 133.602 141.648 133.216Z" fill="#323A43"/>
<path d="M163.859 143.521L157.648 136.189C157.648 136.189 162.865 131.966 166.6 130.416C170.334 128.866 170.79 131.26 169.067 134.803C167.343 138.346 163.859 143.521 163.859 143.521Z" fill="#4A5568"/>
<path d="M162.963 143.231L166.617 144.327C166.617 144.327 167.349 138.35 169.073 134.803C170.363 132.14 170.441 130.124 168.79 129.946L162.963 143.231Z" fill="#323A43"/>
<path d="M159.514 135.154C161.44 137.078 163.237 139.128 164.89 141.292C164.89 141.292 164.853 141.346 164.84 141.337C163.276 139.75 160.398 136.358 159.441 135.218C159.422 135.195 159.491 135.136 159.514 135.154Z" fill="#323A43"/>
<path d="M184.125 162.491C183.213 162.783 157.316 155.291 157.316 155.291C157.316 155.291 162.26 148.935 162.962 146.154C164.789 141.769 167.38 130.799 167.918 130.443C170.089 129.002 172.123 129.025 173.919 129.987C181.407 133.959 184.125 162.491 184.125 162.491Z" fill="#4A5568"/>
<path d="M171.097 147.366C170.229 147.019 169.341 146.723 168.438 146.481C167.982 146.358 167.526 146.267 167.07 146.184C166.851 146.143 166.614 146.107 166.409 146.075C166.204 146.043 165.917 146.039 165.675 145.997C165.652 145.997 165.638 146.034 165.675 146.039C165.903 146.08 166.131 146.162 166.35 146.221L167.025 146.39C167.481 146.504 167.937 146.627 168.393 146.736C169.305 146.955 170.208 147.189 171.101 147.438C171.124 147.452 171.142 147.384 171.097 147.366Z" fill="#323A43"/>
<path d="M175.606 136.239C173.832 147.092 168.843 155.026 166.773 155.364C161.205 156.276 151.789 147.179 148.989 145.04C147.853 144.178 157.115 136.426 158.209 137.489C160.795 139.987 164.215 143.334 164.397 143.334C164.794 143.334 166.121 140.635 170.968 134.265C175.013 128.939 176.331 131.784 175.606 136.239Z" fill="#F7A9A0"/>
<path d="M143.828 127.023C143.057 128.195 146.108 129.846 146.108 129.846C145.503 129.851 144.919 130.067 144.457 130.457C143.677 131.182 144.457 132.737 144.457 132.737C143.831 132.87 143.259 133.187 142.815 133.649C142.136 134.42 142.715 136.093 142.715 136.093C142.224 136.544 141.903 137.149 141.803 137.808C141.447 140.772 147.927 145.017 150.011 145.833L158.516 138.168C158.516 138.168 155.365 131.123 152.797 129.303C151.393 128.286 145.009 125.231 143.828 127.023Z" fill="#F7A9A0"/>
<path d="M146.154 129.832C147.966 130.453 149.693 131.296 151.298 132.34C151.334 132.34 151.298 132.418 151.261 132.395C149.661 131.41 147.755 130.831 146.118 129.914C146.109 129.908 146.102 129.899 146.099 129.889C146.096 129.879 146.097 129.868 146.102 129.858C146.106 129.848 146.114 129.84 146.123 129.836C146.133 129.831 146.144 129.83 146.154 129.832Z" fill="#323A43"/>
<path d="M144.589 132.632C144.992 132.798 145.372 133.016 145.72 133.28C146.103 133.535 146.481 133.799 146.855 134.069C147.603 134.607 148.342 135.163 149.062 135.737C149.094 135.765 149.062 135.82 149.03 135.792C148.283 135.259 147.526 134.734 146.75 134.233L145.588 133.485C145.204 133.279 144.846 133.03 144.521 132.742C144.506 132.733 144.496 132.718 144.492 132.701C144.488 132.685 144.491 132.667 144.5 132.653C144.509 132.638 144.524 132.628 144.54 132.624C144.557 132.62 144.574 132.623 144.589 132.632Z" fill="#323A43"/>
<path d="M142.76 136.107C143.124 136.262 143.459 136.478 143.75 136.745L144.762 137.498C145.441 137.995 146.13 138.487 146.814 138.961C146.851 138.984 146.814 139.043 146.782 139.016C146.071 138.56 145.355 138.072 144.653 137.589C144.306 137.352 143.959 137.133 143.617 136.873C143.283 136.684 142.985 136.437 142.737 136.143C142.734 136.14 142.733 136.135 142.732 136.13C142.732 136.126 142.733 136.121 142.736 136.117C142.738 136.113 142.742 136.11 142.746 136.108C142.751 136.106 142.756 136.106 142.76 136.107Z" fill="#323A43"/>
<path d="M142.131 136.836C141.813 137.292 141.671 137.848 141.73 138.4C141.8 138.956 142.012 139.483 142.346 139.933C142.974 140.83 143.704 141.651 144.521 142.381C145.327 143.115 146.19 143.785 147.102 144.383C148.013 144.983 148.978 145.498 149.984 145.92H149.956C150.595 146.444 154.79 150.07 155.46 150.343C154.867 149.769 150.7 146.326 150.088 145.783C149.115 145.291 148.179 144.727 147.289 144.096C146.401 143.49 145.554 142.828 144.753 142.112C143.944 141.408 143.205 140.628 142.546 139.782C142.214 139.371 141.986 138.886 141.88 138.369C141.788 137.844 141.877 137.304 142.131 136.836Z" fill="#323A43"/>
<path d="M174.193 145.373L165.816 140.676C165.816 140.676 169.223 134.894 172.2 132.14C175.178 129.385 176.423 131.465 176.049 135.386C175.675 139.308 174.193 145.373 174.193 145.373Z" fill="#4A5568"/>
<path d="M167.226 139.08C169.705 140.206 172.105 141.499 174.408 142.951C174.408 142.951 174.408 143.015 174.376 143.011C172.356 142.071 168.476 139.901 167.18 139.162C167.158 139.126 167.199 139.044 167.226 139.08Z" fill="#323A43"/>
<path d="M173.371 144.917C173.658 145.04 173.937 145.181 174.219 145.314L174.114 145.359C174.31 144.064 174.548 142.783 174.826 141.506C174.963 140.872 175.108 140.234 175.282 139.6C175.455 138.966 175.61 138.337 175.806 137.707C175.733 138.36 175.633 139.002 175.519 139.645C175.405 140.288 175.295 140.936 175.163 141.574C174.902 142.854 174.598 144.126 174.251 145.391L174.224 145.487L174.146 145.437C173.886 145.263 173.626 145.099 173.371 144.917Z" fill="#323A43"/>
<path d="M175.324 140.142C175.417 139.888 175.526 139.639 175.653 139.399C175.781 139.16 175.925 138.93 176.086 138.711C175.898 139.22 175.642 139.702 175.324 140.142Z" fill="#323A43"/>
<path d="M166.126 140.904C165.998 140.854 165.884 140.79 165.766 140.731L165.711 140.703L165.743 140.635C166.197 139.671 166.726 138.744 167.325 137.862C167.908 136.969 168.58 136.138 169.332 135.382L167.603 138.045C167.029 138.934 166.459 139.823 165.871 140.703L165.848 140.612C165.944 140.712 166.039 140.804 166.126 140.904Z" fill="#323A43"/>
<path d="M167.809 137.329C167.87 137.065 167.951 136.806 168.05 136.554C168.149 136.301 168.265 136.056 168.397 135.82C168.336 136.084 168.255 136.343 168.155 136.595C168.058 136.848 167.942 137.093 167.809 137.329Z" fill="#323A43"/>
<path d="M70.7714 190.047C71.1499 191.059 89.554 213.941 90.808 214.37C91.264 214.539 94.7707 212.049 98.902 208.925C99.814 208.251 100.726 207.557 101.638 206.832C107.666 202.177 113.95 197.097 113.95 197.097L101.688 181.752L89.7182 191.912L87.0962 194.137C87.0962 194.137 76.1294 188.529 74.7067 188.209C73.284 187.89 70.3975 189.03 70.7714 190.047Z" fill="#F7A9A0"/>
<path d="M90.3477 189.596L103.116 206.823L146.203 176.928L150.357 174.042C150.357 174.042 151.534 174.835 153.303 175.815C155.765 177.183 159.368 178.893 162.555 179.363C167.904 180.156 176.837 180.07 181.342 174.042C185.136 168.966 183.08 162.336 183.08 162.336L177.207 159.814C177.207 159.814 163.308 148.232 154.306 147.885C150.48 147.73 144.913 150.621 139.755 153.658C134.598 156.695 90.3477 189.596 90.3477 189.596Z" fill="#323A43"/>
<path d="M150.357 174.041C150.357 174.041 151.534 174.835 153.303 175.815C156.436 172.067 163.062 165.259 163.262 165.017L150.357 174.041Z" fill="#202327"/>
<path d="M172.113 155.952C172.943 156.527 173.75 157.138 174.566 157.73C175.382 158.323 176.208 158.861 176.974 159.5C177.74 160.138 178.492 160.836 179.226 161.533C179.577 161.866 179.928 162.208 180.27 162.555C180.632 162.891 180.967 163.254 181.274 163.64C181.301 163.677 181.246 163.722 181.21 163.699C180.82 163.42 180.448 163.115 180.097 162.787C179.71 162.464 179.327 162.131 178.939 161.798C178.191 161.164 177.43 160.548 176.659 159.91C175.888 159.272 175.236 158.588 174.502 157.945C173.768 157.302 172.888 156.622 172.076 155.97L172.113 155.952Z" fill="#323A43"/>
<path d="M94.7268 187.84C95.4974 188.784 96.2042 189.792 96.9201 190.781C97.636 191.771 98.3474 192.769 99.0542 193.773C100.463 195.774 101.891 197.767 103.272 199.792C104.034 200.9 104.782 202.017 105.484 203.171C105.516 203.221 105.434 203.271 105.397 203.225C103.86 201.319 102.479 199.295 101.07 197.297C99.6607 195.3 98.2516 193.28 96.87 191.255C96.113 190.147 95.3332 189.044 94.6447 187.89C94.6173 187.845 94.6903 187.799 94.7268 187.84Z" fill="#202327"/>
<path d="M128.706 189.153C130.85 187.466 133.07 185.87 135.296 184.283C137.521 182.696 139.714 181.128 141.962 179.6C142.605 179.144 143.257 178.729 143.905 178.296C144.552 177.863 145.227 177.471 145.861 177.024C145.898 176.996 145.934 177.056 145.898 177.083C145.314 177.503 144.762 177.995 144.188 178.405C143.613 178.816 143.098 179.235 142.546 179.646C141.47 180.444 140.385 181.224 139.299 182.008C137.095 183.601 134.876 185.168 132.642 186.709C131.369 187.58 130.102 188.456 128.802 189.286C128.725 189.336 128.633 189.213 128.706 189.153Z" fill="#202327"/>
<path d="M114.914 171.378C116.897 169.737 119.018 168.259 121.097 166.746C123.177 165.232 125.283 163.658 127.395 162.135L133.669 157.598C135.698 156.134 137.714 154.643 139.857 153.344C141.029 152.637 142.228 151.976 143.464 151.383C144.662 150.77 145.91 150.26 147.194 149.86C147.202 149.859 147.209 149.861 147.216 149.865C147.223 149.869 147.228 149.875 147.231 149.882C147.234 149.889 147.235 149.897 147.233 149.904C147.231 149.912 147.227 149.919 147.221 149.924C146.164 150.512 145.055 151.009 143.988 151.579C142.921 152.149 141.891 152.733 140.869 153.353C138.744 154.643 136.738 156.089 134.718 157.557C130.532 160.567 126.35 163.595 122.132 166.563C119.775 168.228 117.463 169.979 115.01 171.506C114.946 171.556 114.859 171.456 114.914 171.378Z" fill="#202327"/>
<path d="M102.633 207.348C102.633 207.348 99.216 209.685 99.2056 209.693C96.0209 211.896 93.1968 213.769 91.6441 214.598C91.6374 214.605 91.6291 214.611 91.6199 214.616C91.2586 214.809 90.8756 214.958 90.479 215.061L90.4429 215.056C89.1475 214.552 70.8186 189.653 70.4725 188.567C70.1263 187.482 73.1854 186.413 74.6693 186.81C76.1532 187.207 86.9999 193.156 86.9999 193.156L90.4428 190.731L102.633 207.348Z" fill="white"/>
<path d="M70.4899 188.533C70.8575 189.619 89.7334 214.419 91.0557 214.909C91.5428 215.084 95.3262 212.563 99.7932 209.367L99.9316 209.265L87.9316 193.127L87.6547 193.331C87.6547 193.331 76.1835 187.067 74.6788 186.685C73.1742 186.304 70.1093 187.451 70.4899 188.533Z" fill="#323A43"/>
<path d="M86.5979 192.027C88.1663 193.43 89.4397 195.644 89.236 197.781C89.2293 197.866 89.1218 197.865 89.0846 197.786C88.3944 195.828 87.4984 193.949 86.4117 192.18C86.4033 192.155 86.4027 192.129 86.4099 192.103C86.4171 192.078 86.4318 192.056 86.452 192.039C86.4722 192.023 86.497 192.013 86.523 192.01C86.5491 192.008 86.5752 192.014 86.5979 192.027Z" fill="white"/>
<path d="M84.9777 191.382C86.5486 192.788 87.816 195.001 87.5985 197.149C87.5918 197.234 87.4842 197.233 87.4531 197.154C86.7628 195.195 85.8647 193.316 84.7742 191.548C84.7588 191.521 84.7536 191.489 84.7595 191.458C84.7653 191.427 84.7819 191.399 84.8062 191.379C84.8305 191.36 84.861 191.349 84.8924 191.349C84.9238 191.35 84.954 191.361 84.9777 191.382Z" fill="white"/>
<path d="M83.3588 190.743C84.9272 192.146 86.198 194.356 85.9969 196.497C85.9876 196.579 85.8826 196.581 85.8455 196.502C85.1549 194.544 84.259 192.665 83.1726 190.896C83.1642 190.871 83.1636 190.845 83.1708 190.82C83.178 190.794 83.1927 190.772 83.2129 190.755C83.233 190.739 83.2578 190.729 83.2839 190.726C83.31 190.724 83.3361 190.73 83.3588 190.743Z" fill="white"/>
<path d="M71.0902 187.477C70.581 187.163 69.1643 188.394 69.2899 188.803C69.4155 189.213 90.1312 216.183 90.5711 216.548C91.011 216.913 92.5436 215.506 92.2226 214.904C91.9017 214.301 71.0902 187.477 71.0902 187.477Z" fill="#202327"/>
<path d="M94.0431 207.278C96.3106 208.39 94.5831 211.918 92.313 210.802C90.0429 209.686 91.773 206.162 94.0431 207.278Z" fill="#4A5568"/>
<path d="M146.845 179.426C146.845 179.426 149.323 182.743 149.331 182.753C151.665 185.842 153.655 188.586 154.549 190.102C154.556 190.109 154.563 190.117 154.567 190.126C154.776 190.478 154.941 190.855 155.06 191.247L155.056 191.283C154.607 192.599 130.499 211.955 129.428 212.346C128.358 212.737 127.162 209.726 127.497 208.227C127.831 206.727 133.32 195.641 133.32 195.641L130.753 192.303L146.845 179.426Z" fill="white"/>
<path d="M129.394 212.33C130.463 211.917 154.451 192.018 154.884 190.677C155.039 190.183 152.361 186.508 148.981 182.179L148.873 182.045L133.253 194.711L133.468 194.979C133.468 194.979 127.69 206.703 127.372 208.222C127.054 209.741 128.329 212.755 129.394 212.33Z" fill="#323A43"/>
<path d="M132.209 196.09C133.545 194.465 135.704 193.099 137.848 193.213C137.933 193.217 137.937 193.324 137.859 193.365C135.932 194.136 134.092 195.11 132.37 196.27C132.346 196.279 132.319 196.281 132.294 196.275C132.268 196.269 132.245 196.255 132.228 196.236C132.21 196.216 132.199 196.192 132.196 196.166C132.193 196.14 132.197 196.114 132.209 196.09Z" fill="white"/>
<path d="M131.634 197.735C132.974 196.106 135.131 194.747 137.286 194.875C137.372 194.878 137.375 194.985 137.298 195.02C135.37 195.791 133.529 196.768 131.809 197.931C131.782 197.948 131.75 197.954 131.719 197.95C131.688 197.945 131.66 197.93 131.639 197.906C131.618 197.883 131.606 197.853 131.605 197.821C131.604 197.79 131.615 197.759 131.634 197.735Z" fill="white"/>
<path d="M131.062 199.38C132.398 197.754 134.553 196.391 136.701 196.503C136.783 196.509 136.79 196.613 136.712 196.654C134.785 197.426 132.945 198.4 131.223 199.559C131.199 199.569 131.172 199.57 131.147 199.564C131.121 199.558 131.098 199.544 131.081 199.525C131.063 199.505 131.052 199.481 131.049 199.455C131.046 199.429 131.05 199.403 131.062 199.38Z" fill="white"/>
<path d="M128.313 211.775C128.021 212.297 129.31 213.661 129.714 213.518C130.118 213.376 156.197 191.548 156.543 191.093C156.889 190.638 155.419 189.166 154.831 189.512C154.242 189.858 128.313 211.775 128.313 211.775Z" fill="#202327"/>
<path d="M147.135 188.011C148.151 185.699 151.748 187.277 150.728 189.592C149.709 191.907 146.115 190.326 147.135 188.011Z" fill="#4A5568"/>
<path fill-rule="evenodd" clip-rule="evenodd" d="M94.1909 79.4998V74.9H95.289V76.5939H97.0852V74.9H98.1765V79.4998H97.0852V77.5715H95.289V79.4998H94.1909ZM104.27 71.7598L106.297 61.817H106.466L110.147 68.084L113.617 61.817H113.787L115.827 71.7598H113.617L112.79 67.3608L110.174 72.1146H110.018L107.205 67.2939L106.351 71.7598H104.27ZM95.899 66.9457C95.899 67.7827 96.1498 68.4857 96.6446 69.0481C97.1394 69.6105 97.7495 69.8984 98.4747 69.8984C99.2068 69.8984 99.8168 69.6172 100.312 69.0548C100.806 68.4857 101.05 67.7827 101.05 66.9457C101.05 66.0954 100.806 65.3924 100.312 64.83C99.8168 64.2608 99.2068 63.9796 98.4747 63.9796C97.7495 63.9796 97.1394 64.2608 96.6446 64.83C96.1498 65.3924 95.899 66.0954 95.899 66.9457ZM93.5063 66.9457C93.5063 66.2293 93.6283 65.5665 93.8791 64.9438C94.1299 64.3211 94.4959 63.7654 94.9772 63.2699C95.4381 62.8012 95.9668 62.4397 96.5768 62.1919C97.1801 61.9375 97.8105 61.817 98.4747 61.817C99.139 61.817 99.7761 61.9442 100.386 62.1919C100.989 62.4464 101.532 62.8079 101.999 63.2833C102.481 63.7587 102.84 64.3077 103.084 64.9304C103.328 65.5531 103.45 66.2226 103.45 66.9457C103.45 67.5483 103.362 68.1174 103.192 68.6464C103.023 69.1753 102.772 69.6641 102.433 70.0993C101.959 70.722 101.376 71.2108 100.678 71.5522C99.9862 71.9004 99.2542 72.0745 98.4747 72.0745C97.8172 72.0745 97.1869 71.9473 96.5836 71.6928C95.9804 71.4451 95.4449 71.0768 94.9772 70.6015C94.4959 70.1127 94.1299 69.557 93.8791 68.941C93.6283 68.325 93.5063 67.6554 93.5063 66.9457ZM92.293 65.1781C91.8728 64.7496 91.4458 64.4282 91.012 64.2207C90.5782 64.0131 90.124 63.9127 89.6496 63.9127C88.8294 63.9127 88.1516 64.1939 87.6297 64.7563C87.101 65.3187 86.8434 66.0418 86.8434 66.9189C86.8434 67.8027 87.101 68.5125 87.6229 69.0615C88.138 69.6105 88.8158 69.885 89.6563 69.885C90.1444 69.885 90.6392 69.7779 91.1272 69.5771C91.622 69.3762 92.11 69.0682 92.5981 68.6598L92.4489 71.2175C92.0287 71.492 91.5746 71.7062 91.0798 71.8535C90.5849 72.0008 90.0698 72.0745 89.5343 72.0745C88.965 72.0745 88.4159 71.9874 87.8872 71.8067C87.3585 71.6326 86.8705 71.3714 86.4299 71.0233C85.7996 70.5345 85.3183 69.9453 84.9862 69.2423C84.6541 68.5393 84.4846 67.7693 84.4846 66.9457C84.4846 66.2293 84.6066 65.5598 84.8574 64.9371C85.1014 64.3144 85.4607 63.7587 85.9351 63.2833C86.4096 62.8012 86.9586 62.4397 87.5822 62.1852C88.199 61.9308 88.8565 61.8036 89.5479 61.8036C90.0969 61.8036 90.6188 61.8772 91.1204 62.0312C91.6152 62.1785 92.0897 62.4062 92.5438 62.7142L92.293 65.1781ZM62.3743 61.0202C62.3743 61.0202 59.3173 60.8127 58.7344 61.288C58.7344 61.288 63.2012 54.0502 70.5487 54.077C76.9405 54.1038 79.9568 57.6792 81.0278 59.0116C81.2175 59.2459 81.1904 59.4468 80.8719 59.1589C78.9333 57.4113 69.471 51.8407 62.3743 61.0202ZM77.9301 72.7105C77.9301 72.7105 80.9803 72.9181 81.5632 72.4427C81.5632 72.4427 77.0964 79.6806 69.7557 79.6538C63.3639 79.627 60.3408 76.0583 59.2699 74.7192C59.0869 74.4848 59.1072 74.284 59.4326 74.5719C61.3711 76.3261 70.8334 81.8901 77.9301 72.7105ZM70.0607 62.0379H70.4674C70.9012 62.0379 71.2604 62.3928 71.2604 62.8213V63.5444C71.2604 63.9729 70.9012 64.3211 70.4674 64.3211H70.0607C69.6269 64.3211 69.2744 63.9729 69.2744 63.5444V62.8213C69.2744 62.3928 69.6269 62.0379 70.0607 62.0379ZM70.1488 65.7673H70.3928C70.8673 65.7673 71.2604 66.1557 71.2604 66.6243V71.1773C71.2604 71.6527 70.8673 72.041 70.3928 72.041H70.1488C69.6676 72.041 69.2744 71.6527 69.2744 71.1773V66.6243C69.2744 66.1557 69.6676 65.7673 70.1488 65.7673ZM61.1746 62.0513H62.2658H63.6147H67.1664C66.7869 63.3636 65.56 64.3345 64.1095 64.3345H63.6147H62.2658H61.1746H57.3652C57.7448 63.0222 58.9717 62.0513 60.4222 62.0513H61.1746ZM60.5374 69.7578C59.0937 69.7578 57.8668 70.722 57.4872 72.041H64.6856C66.1294 72.041 67.3562 71.0701 67.7358 69.7578C67.8171 69.4833 67.8578 69.1954 67.8578 68.9008C67.8578 67.3073 66.6377 65.9883 65.0788 65.7941C64.95 65.774 64.8144 65.7673 64.6856 65.7673H57.3652C57.6228 67.0796 58.4497 68.0505 59.4258 68.0505H63.025H64.3738C64.8483 68.0505 65.2414 68.4321 65.2414 68.9008C65.2414 69.3695 64.8483 69.7578 64.3738 69.7578H60.5374ZM75.856 69.7578C74.4123 69.7578 73.1787 70.722 72.7991 72.041H79.9975C81.448 72.041 82.6748 71.0701 83.0544 69.7578C83.129 69.4833 83.1764 69.1954 83.1764 68.9008C83.1764 67.3073 81.9564 65.9883 80.3974 65.7941C80.2686 65.774 80.133 65.7673 79.9975 65.7673H72.6839C72.9346 67.0796 73.7684 68.0505 74.7444 68.0505H78.3368H79.6925C80.1669 68.0505 80.5533 68.4321 80.5533 68.9008C80.5533 69.3695 80.1669 69.7578 79.6925 69.7578H75.856ZM76.4864 62.0513H77.5845H78.9265H82.4783C82.1055 63.3636 80.8719 64.3345 79.4281 64.3345H78.9265H77.5845H76.4864H72.6839C73.0634 63.0222 74.2903 62.0513 75.734 62.0513H76.4864ZM112.804 78.2008C113.088 78.3749 113.332 78.4954 113.536 78.5691C113.732 78.6361 113.929 78.6695 114.119 78.6695C114.308 78.6695 114.464 78.6294 114.58 78.5423C114.695 78.462 114.756 78.3548 114.756 78.2209C114.756 78.0335 114.552 77.8259 114.132 77.5916C114.064 77.5514 114.017 77.5246 113.976 77.5045L113.665 77.3237C113.36 77.1564 113.129 76.9622 112.987 76.7479C112.838 76.527 112.763 76.2859 112.763 76.0114C112.763 75.6432 112.905 75.3419 113.19 75.1008C113.468 74.8665 113.834 74.746 114.281 74.746C114.444 74.746 114.627 74.7661 114.817 74.8062C115.013 74.8397 115.224 74.9 115.461 74.9803V76.0583C115.237 75.9177 115.02 75.8106 114.824 75.7369C114.62 75.6633 114.451 75.6231 114.308 75.6231C114.153 75.6231 114.031 75.6566 113.936 75.7235C113.848 75.7905 113.8 75.8775 113.8 75.9913C113.8 76.0717 113.827 76.152 113.881 76.219C113.936 76.2859 114.017 76.3529 114.125 76.4065L114.668 76.7078C115.129 76.9555 115.434 77.1898 115.59 77.3974C115.752 77.6116 115.827 77.8594 115.827 78.154C115.827 78.6026 115.671 78.9641 115.366 79.2386C115.054 79.5132 114.647 79.6538 114.132 79.6538C113.956 79.6538 113.773 79.6337 113.57 79.6002C113.366 79.56 113.143 79.5065 112.899 79.4328L112.804 78.2008ZM108.364 79.4998V74.9H109.476V79.4998H108.364ZM102.962 75.7436H102.779V77.0157H103.016C103.294 77.0157 103.511 76.9555 103.66 76.8484C103.809 76.7345 103.877 76.5738 103.877 76.3663C103.877 76.1453 103.809 75.9846 103.667 75.8909C103.524 75.7905 103.287 75.7436 102.962 75.7436ZM101.701 79.4998V74.9H102.901C103.28 74.9 103.579 74.9268 103.789 74.9803C104.006 75.0272 104.189 75.1075 104.351 75.228C104.528 75.3486 104.663 75.5026 104.758 75.6833C104.853 75.8641 104.9 76.0516 104.9 76.2525C104.9 76.5404 104.826 76.7948 104.677 77.0157C104.528 77.23 104.311 77.4041 104.033 77.5246L105.449 79.4998H104.182L102.942 77.6987H102.779V79.4998H101.701Z" fill="#A9B9CC"/>
<path d="M166.9 136.347C168.929 136.191 171.248 132.28 171.783 129.538C171.818 129.346 169.11 123.165 168.702 121.884C168.619 121.62 161.277 126.403 161.277 126.403C161.277 126.403 162.926 128.837 163.625 131.077C163.68 131.267 164.94 136.497 166.9 136.347Z" fill="#F7A9A0"/>
<path d="M161.277 126.403C161.277 126.403 162.926 128.837 163.626 131.075C163.638 131.121 168.825 131.254 169.994 125.127C169.416 123.723 168.868 122.404 168.702 121.884C168.617 121.62 161.277 126.403 161.277 126.403Z" fill="#323A43"/>
<path d="M172.725 115.309C173.095 118.42 170.002 126.656 167.564 128.177C164.027 130.383 159.004 129.75 157.323 125.674C155.694 121.722 159.911 111.061 162.564 109.757C166.473 107.836 172.18 110.714 172.725 115.309Z" fill="#F7A9A0"/>
<path d="M163.105 124.551C162.927 124.64 162.733 124.776 162.527 124.726C162.318 124.655 162.127 124.539 161.967 124.387C161.963 124.385 161.959 124.384 161.955 124.384C161.951 124.384 161.947 124.385 161.943 124.387C161.94 124.389 161.937 124.393 161.935 124.396C161.934 124.4 161.933 124.404 161.934 124.408C161.978 124.546 162.058 124.668 162.166 124.763C162.275 124.858 162.407 124.922 162.548 124.948C162.673 124.955 162.797 124.925 162.905 124.862C163.013 124.799 163.1 124.706 163.155 124.593C163.17 124.564 163.132 124.537 163.105 124.551Z" fill="#323A43"/>
<path d="M163.961 119.15C163.973 119.129 163.994 119.192 163.984 119.213C163.763 119.764 163.599 120.43 164.034 120.8C164.048 120.812 164.034 120.839 164.017 120.829C163.436 120.517 163.661 119.633 163.961 119.15Z" fill="#323A43"/>
<path d="M164.672 118.751C165.59 119.015 164.997 120.833 164.146 120.59C163.295 120.348 163.902 118.532 164.672 118.751Z" fill="#323A43"/>
<path d="M160.782 118.174C160.782 118.151 160.728 118.187 160.723 118.21C160.557 118.778 160.27 119.402 159.7 119.423C159.683 119.423 159.675 119.454 159.7 119.456C160.338 119.577 160.723 118.751 160.782 118.174Z" fill="#323A43"/>
<path d="M160.47 117.426C159.587 117.063 158.93 118.857 159.742 119.194C160.555 119.531 161.212 117.733 160.47 117.426Z" fill="#323A43"/>
<path d="M165.656 118.174C165.434 118.02 165.257 117.842 165.053 117.669C164.849 117.496 164.624 117.34 164.539 117.036C164.524 116.948 164.539 116.857 164.581 116.778C164.623 116.7 164.69 116.637 164.772 116.6C165.13 116.464 165.469 116.635 165.754 116.86C166.052 117.076 166.258 117.396 166.332 117.756C166.407 118.125 165.946 118.366 165.656 118.174Z" fill="#323A43"/>
<path d="M160.06 116.339C160.322 116.341 160.583 116.329 160.844 116.304C161.144 116.287 161.387 116.304 161.637 116.111C161.703 116.051 161.746 115.97 161.76 115.881C161.774 115.793 161.759 115.703 161.716 115.624C161.514 115.299 161.139 115.228 160.778 115.239C160.412 115.232 160.056 115.363 159.781 115.605C159.49 115.846 159.706 116.323 160.06 116.339Z" fill="#323A43"/>
<path d="M163.062 122.672C162.847 122.848 162.597 122.978 162.329 123.052C162.061 123.127 161.78 123.146 161.504 123.107C161.263 123.077 161.026 123.012 160.803 122.914C160.76 122.898 160.717 122.879 160.676 122.856L160.559 122.797C160.531 122.781 160.509 122.756 160.496 122.727C160.483 122.697 160.48 122.664 160.488 122.633C160.492 122.613 160.5 122.595 160.511 122.577L160.528 122.527C160.657 122.09 160.913 121.445 160.913 121.445C160.73 121.472 159.802 121.572 159.891 121.349C160.613 119.51 161.418 117.465 162.527 115.786C162.535 115.776 162.546 115.769 162.558 115.766C162.571 115.763 162.584 115.764 162.595 115.77C162.607 115.776 162.616 115.785 162.622 115.797C162.627 115.809 162.628 115.822 162.625 115.834C161.999 117.631 161.061 119.3 160.405 121.097C160.696 121.083 161.175 121.039 161.4 121.118C161.456 121.154 160.88 122.358 160.838 122.558C160.837 122.565 160.837 122.572 160.838 122.579C161.535 122.91 162.157 122.87 163.024 122.61C163.077 122.585 163.11 122.637 163.062 122.672Z" fill="#323A43"/>
<path d="M161.221 122.999C161.391 123.341 161.647 123.634 161.964 123.848C162.14 123.96 162.347 124.014 162.555 124.002C163.009 123.973 163.098 123.579 163.085 123.222C163.076 123.034 163.045 122.847 162.992 122.666C162.452 122.963 161.832 123.08 161.221 122.999Z" fill="#323A43"/>
<path d="M161.965 123.848C162.141 123.96 162.348 124.014 162.556 124.002C163.01 123.973 163.099 123.579 163.085 123.222C162.612 123.18 162.092 123.405 161.965 123.848Z" fill="#FF98B9"/>
<path d="M171.662 120.879C169.996 120.751 170.226 116.68 170.226 116.68C170.226 116.68 167.689 116.181 166.499 112.669C166.499 112.669 163.195 114.669 160.461 114.123C156.169 113.275 156.377 107.683 158.006 106.574C160.315 104.996 164.329 107.412 164.329 107.412C164.329 107.412 170.509 105.801 172.271 109.99C173.067 110.058 173.807 110.426 174.343 111.02C174.878 111.613 175.168 112.387 175.154 113.186C175.302 116.226 172.907 120.973 171.662 120.879Z" fill="#323A43"/>
<path d="M170.817 117.166C169.583 116.934 168.462 116.299 167.629 115.36C167.184 114.849 166.868 114.238 166.708 113.579C166.547 112.92 166.547 112.233 166.706 111.574C166.719 111.506 166.615 111.482 166.596 111.554C166.392 112.24 166.341 112.962 166.446 113.67C166.552 114.378 166.813 115.054 167.209 115.65C167.612 116.214 168.155 116.662 168.785 116.95C169.415 117.239 170.109 117.356 170.799 117.292C170.816 117.295 170.833 117.29 170.846 117.28C170.86 117.27 170.869 117.255 170.871 117.238C170.873 117.221 170.869 117.204 170.859 117.191C170.849 117.177 170.834 117.168 170.817 117.166Z" fill="#323A43"/>
<path d="M175.415 111.421C174.584 110.329 173.291 110.14 172.013 110.164C171.945 110.151 171.947 110.287 172.019 110.278C172.655 110.265 173.283 110.422 173.837 110.735C174.391 111.048 174.851 111.504 175.168 112.055C175.796 113.078 175.632 114.348 175.353 115.458C174.824 117.605 173.517 119.481 171.686 120.721C171.68 120.725 171.675 120.731 171.673 120.739C171.671 120.746 171.672 120.754 171.676 120.76C171.68 120.766 171.686 120.771 171.693 120.773C171.701 120.775 171.708 120.774 171.715 120.77C172.755 120.139 173.656 119.302 174.362 118.31C175.068 117.319 175.564 116.194 175.819 115.004C176.066 113.84 176.175 112.424 175.415 111.421Z" fill="#323A43"/>
<path d="M169.195 121.64C169.195 121.64 171.666 119.281 172.773 120.215C173.88 121.149 171.639 124.836 170.067 125.088C169.868 125.134 169.662 125.139 169.46 125.104C169.259 125.068 169.067 124.991 168.896 124.879C168.725 124.767 168.578 124.622 168.465 124.451C168.351 124.281 168.274 124.09 168.236 123.889L169.195 121.64Z" fill="#F7A9A0"/>
<path d="M172.111 121.254C172.115 121.256 172.119 121.259 172.121 121.262C172.124 121.266 172.125 121.27 172.125 121.275C172.125 121.279 172.124 121.284 172.121 121.287C172.119 121.291 172.115 121.294 172.111 121.295C171.003 121.505 170.272 122.346 169.696 123.255C170.081 122.937 170.534 122.814 170.969 123.278C170.992 123.303 170.969 123.34 170.93 123.328C170.762 123.234 170.568 123.195 170.377 123.216C170.185 123.236 170.004 123.316 169.86 123.444C169.62 123.66 169.404 123.901 169.215 124.162C169.149 124.243 168.993 124.162 169.049 124.062L169.062 124.041C169.299 122.737 170.682 121.112 172.111 121.254Z" fill="#323A43"/>
<path d="M129.494 100.253C129.644 100.617 129.796 100.976 129.953 101.331L129.497 101.491L129.036 100.397L129.494 100.253Z" fill="#A9B9CC"/>
<path d="M179.639 63.4153L180.004 63.6665L179.716 64.0068C179.049 63.5277 178.352 63.0845 177.627 62.6798L177.875 62.3116C178.459 62.6554 179.065 63.0212 179.639 63.4153ZM175.555 61.1996L175.355 61.5867C174.582 61.2668 173.783 60.9989 172.965 60.7854L173.097 60.3735C173.936 60.5971 174.754 60.8762 175.547 61.2087L175.555 61.1996ZM170.526 59.9L170.464 60.324C169.622 60.2277 168.773 60.1923 167.926 60.2182L167.901 59.7921C168.779 59.7605 169.658 59.7951 170.53 59.8954L170.526 59.9ZM165.31 60.0521L165.394 60.4754C164.558 60.61 163.735 60.7984 162.931 61.0389L162.778 60.6321C163.607 60.3805 164.456 60.1836 165.318 60.0431L165.31 60.0521ZM160.372 61.5362L160.594 61.9186C159.841 62.2663 159.124 62.672 158.449 63.1311L158.161 62.7892C158.856 62.3127 159.598 61.8919 160.376 61.5317L160.372 61.5362ZM156.228 64.3771L156.586 64.6659C156.378 64.911 156.131 65.1362 155.927 65.3767C155.643 65.7143 155.38 66.0658 155.139 66.4295C155.514 66.7247 155.87 67.0388 156.205 67.3703L155.854 67.6607C155.319 67.1348 154.734 66.6514 154.106 66.216L153.974 66.1253L154.263 65.785L154.4 65.8791L154.781 66.1407C155.019 65.7842 155.278 65.44 155.559 65.1095C155.761 64.861 155.996 64.6128 156.232 64.3726L156.228 64.3771ZM151.983 64.5784L151.789 64.969C151.018 64.6586 150.21 64.4315 149.381 64.2923L149.466 63.8696C150.334 64.0142 151.18 64.2506 151.987 64.5739L151.983 64.5784ZM157.811 69.2485C158.288 69.9111 158.706 70.6064 159.061 71.3278L158.623 71.4938C158.279 70.796 157.874 70.1237 157.411 69.4835L157.811 69.2485ZM154.063 68.5702C153.805 69.2906 153.637 70.0352 153.563 70.7902L153.089 70.752C153.162 69.9641 153.335 69.187 153.606 68.436L154.063 68.5702ZM146.831 63.7182L146.855 64.1443C146.01 64.1794 145.172 64.289 144.352 64.4716L144.238 64.056C145.09 63.8606 145.962 63.7428 146.842 63.7046L146.831 63.7182ZM159.898 73.554L159.928 73.718C160.096 74.4578 160.082 75.2206 159.889 75.9531L159.425 75.8361C159.602 75.1652 159.613 74.4667 159.457 73.7897L159.425 73.6382L159.898 73.554ZM141.767 64.7717L141.942 65.1719C141.14 65.4542 140.352 65.7675 139.613 66.0997L139.394 65.7128C140.147 65.375 140.947 65.0561 141.767 64.7717ZM153.654 73.0428C153.777 73.763 153.986 74.4697 154.277 75.151L154.315 75.2487L153.87 75.4031L153.828 75.302C153.532 74.5938 153.322 73.8598 153.201 73.1124L153.654 73.0428ZM157.954 77.3819L158.107 77.7888C157.658 77.9125 157.182 77.9364 156.719 77.8586C156.256 77.7807 155.82 77.6034 155.449 77.3417L155.738 77.0014C156.048 77.2175 156.411 77.3646 156.797 77.4308C157.182 77.4969 157.579 77.4802 157.954 77.3819ZM137.136 66.8691L137.392 67.2313C136.673 67.6393 135.98 68.081 135.314 68.5544L135.017 68.2216C135.691 67.7323 136.397 67.2796 137.131 66.8657L137.136 66.8691ZM133.069 69.7704L133.412 70.0773C132.811 70.617 132.244 71.187 131.715 71.7845L131.334 71.5229C131.876 70.9101 132.455 70.325 133.069 69.7704ZM130.247 73.6486C129.792 74.2997 129.375 74.972 128.998 75.6627L128.564 75.4727C128.947 74.7737 129.369 74.0928 129.828 73.4324L130.247 73.6486ZM128.01 77.7562C127.718 78.4606 127.458 79.1938 127.238 79.947L126.774 79.83C126.999 79.0722 127.255 78.3149 127.56 77.6049L128.01 77.7562ZM126.667 82.1835C126.522 82.9237 126.408 83.6929 126.332 84.4739L125.857 84.4277C125.942 83.6456 126.058 82.8639 126.211 82.1145L126.667 82.1835ZM126.166 86.765C126.141 87.5237 126.151 88.2987 126.188 89.0706L125.709 89.0862C125.671 88.3062 125.663 87.5186 125.687 86.7519L126.166 86.765ZM126.373 91.3734C126.45 92.1446 126.58 92.9015 126.724 93.6608L126.253 93.7325C126.107 92.9572 125.972 92.1682 125.902 91.4165L126.373 91.3734ZM127.226 95.9303C127.407 96.6648 127.637 97.4262 127.873 98.1624L127.419 98.2812C127.173 97.538 126.951 96.7756 126.763 96.0216L127.226 95.9303Z" fill="#A9B9CC"/>
<path d="M181.864 66.0802C182.182 66.3593 182.482 66.6536 182.764 66.9617L182.383 67.2359C182.383 67.2359 182.079 66.8952 181.52 66.3877L181.864 66.0802Z" fill="#A9B9CC"/>
<path d="M186.559 70.4194C188.365 68.7503 185.015 64.8289 182.648 67.0139C180.28 69.1989 184.742 72.1023 186.559 70.4194Z" fill="#4A5568"/>
<path d="M183.51 63.5857C184.498 63.1588 185.98 64.0201 186.663 65.9068C187.078 67.2453 187.204 68.6399 187.035 70.0159C185.717 69.2915 184.563 68.3494 183.635 67.2402C182.361 65.5554 182.492 64.0075 183.51 63.5857Z" fill="#CBD5E0"/>
<path d="M187.053 70.0177C186.509 69.1234 186.005 68.212 185.496 67.3053C184.988 66.3985 184.51 65.4757 184.054 64.5462C184.597 65.4404 185.102 66.3518 185.61 67.2585C186.119 68.1653 186.597 69.0881 187.053 70.0177Z" fill="#A9B9CC"/>
<path d="M185.366 64.909C185.388 65.2242 185.39 65.5402 185.37 65.8552C185.35 66.167 185.307 66.4771 185.244 66.7839C185.222 66.4687 185.22 66.1527 185.24 65.8377C185.259 65.5258 185.301 65.2155 185.366 64.909Z" fill="#A9B9CC"/>
<path d="M185.806 67.7057C185.459 67.574 185.121 67.4255 184.791 67.2608C184.461 67.0928 184.14 66.909 183.831 66.7102C184.525 66.9811 185.186 67.3146 185.806 67.7057Z" fill="#A9B9CC"/>
<path d="M186.522 67.7533C186.532 68.0672 186.465 68.3789 186.326 68.6662C186.316 68.3522 186.383 68.0406 186.522 67.7533Z" fill="#A9B9CC"/>
<path d="M178.859 67.856C178.412 68.7623 179.424 70.0593 181.556 70.6101C183.072 70.9381 184.642 71.0037 186.181 70.8032C185.315 69.6373 184.209 68.6293 182.923 67.834C181.055 66.7584 179.322 66.9229 178.859 67.856Z" fill="#CBD5E0"/>
<path d="M186.192 70.8327C185.172 70.3693 184.125 69.9474 183.088 69.5244C182.051 69.1013 181.001 68.6925 179.953 68.3218C180.968 68.7816 182.014 69.2035 183.052 69.6266C184.089 70.0496 185.128 70.4512 186.192 70.8327Z" fill="#A9B9CC"/>
<path d="M180.422 69.4882C180.767 69.5003 181.113 69.4949 181.457 69.4721C181.808 69.4413 182.156 69.3942 182.501 69.331C182.155 69.3146 181.809 69.3201 181.465 69.3472C181.114 69.376 180.766 69.4231 180.422 69.4882Z" fill="#A9B9CC"/>
<path d="M183.545 69.7796C183.224 69.1697 182.833 68.5915 182.377 68.0546C182.695 68.6657 183.087 69.2442 183.545 69.7796Z" fill="#A9B9CC"/>
<path d="M183.597 70.4195C183.772 70.4218 183.947 70.4057 184.117 70.3716C184.289 70.3346 184.456 70.2822 184.616 70.2151C184.439 70.2144 184.264 70.232 184.092 70.2676C183.919 70.2969 183.753 70.348 183.597 70.4195Z" fill="#A9B9CC"/>
<path d="M186.586 70.4934C186.451 70.377 186.358 70.2279 186.317 70.0649C186.276 69.9019 186.291 69.7323 186.358 69.5775C186.425 69.4226 186.542 69.2895 186.694 69.1949C186.847 69.1003 187.027 69.0485 187.214 69.046C187.4 69.0434 187.583 69.0903 187.741 69.1806C187.898 69.271 188.023 69.4008 188.099 69.5537C188.175 69.7065 188.199 69.8756 188.167 70.0396C188.136 70.2036 188.051 70.3552 187.923 70.4752C187.75 70.6355 187.512 70.7273 187.261 70.7308C187.011 70.7342 186.768 70.6489 186.586 70.4934Z" fill="#323A43"/>
<path d="M185.331 71.6807C185.241 71.603 185.169 71.5104 185.119 71.4083C185.069 71.3061 185.042 71.1962 185.039 71.0851C185.037 70.9739 185.058 70.8636 185.103 70.7604C185.148 70.6572 185.216 70.5631 185.302 70.4836C185.388 70.4041 185.49 70.3406 185.604 70.2969C185.718 70.2531 185.84 70.2299 185.965 70.2286C186.089 70.2273 186.212 70.2478 186.328 70.2892C186.444 70.3305 186.55 70.3917 186.64 70.4694C186.821 70.6262 186.926 70.8405 186.932 71.065C186.937 71.2895 186.843 71.5058 186.669 71.6665C186.496 71.8271 186.257 71.9188 186.006 71.9215C185.755 71.9242 185.512 71.8375 185.331 71.6807Z" fill="#323A43"/>
<path d="M125.408 102.81C125.643 105.061 126.499 107.202 127.88 108.995C129.261 110.787 131.113 112.161 133.23 112.962C135.346 113.763 137.644 113.96 139.866 113.532C142.088 113.103 144.147 112.066 145.814 110.535L151.924 111.447L148.864 106.162C149.564 104.443 149.862 102.587 149.737 100.735C149.612 98.8836 149.067 97.0847 148.142 95.4754C147.218 93.866 145.938 92.4886 144.402 91.4478C142.865 90.407 141.111 89.7301 139.274 89.4686C137.436 89.2072 135.563 89.368 133.797 89.9388C132.031 90.5097 130.419 91.4755 129.082 92.7631C127.745 94.0506 126.72 95.6259 126.083 97.3692C125.446 99.1126 125.215 100.978 125.408 102.824V102.81Z" fill="#E2E8F0"/>
<path d="M129.066 92.7237C131.089 90.717 133.746 89.4744 136.583 89.2078C139.421 88.9413 142.263 89.6672 144.625 91.2619C146.986 92.8566 148.722 95.2212 149.535 97.9525C150.348 100.684 150.189 103.613 149.084 106.24V106.03L152.125 111.324L152.349 111.712L151.893 111.648L145.787 110.708L145.933 110.663C144.235 112.199 142.143 113.234 139.891 113.65C139.332 113.751 138.767 113.809 138.199 113.823C137.634 113.853 137.067 113.843 136.503 113.791C135.376 113.682 134.27 113.418 133.215 113.007C132.161 112.601 131.169 112.049 130.269 111.365C129.354 110.706 128.546 109.909 127.875 109.003C126.045 106.615 125.155 103.638 125.374 100.637C125.594 97.6361 126.907 94.8202 129.066 92.7237ZM127.912 108.971C128.253 109.416 128.623 109.838 129.02 110.234C129.427 110.62 129.858 110.979 130.31 111.31C131.208 111.983 132.201 112.518 133.256 112.897C134.829 113.494 136.513 113.739 138.19 113.618C138.746 113.596 139.3 113.529 139.845 113.417C142.037 112.976 144.062 111.934 145.696 110.407L145.755 110.348H145.837L151.952 111.205L151.738 111.525L148.66 106.253L148.601 106.153L148.646 106.048C149.327 104.361 149.621 102.542 149.508 100.727C149.389 98.9092 148.859 97.1427 147.958 95.5601C147.046 93.9821 145.801 92.622 144.31 91.5746C142.794 90.5331 141.059 89.8558 139.239 89.5956C137.421 89.319 135.564 89.4578 133.808 90.0014C131.144 90.8405 128.852 92.5734 127.318 94.9071C125.785 97.2409 125.104 100.033 125.39 102.81C125.644 105.058 126.517 107.191 127.912 108.971Z" fill="#323A43"/>
<path d="M139.034 107.826C139.033 108.142 138.939 108.45 138.763 108.712C138.587 108.974 138.337 109.178 138.045 109.298C137.754 109.418 137.433 109.449 137.124 109.387C136.814 109.325 136.53 109.172 136.308 108.949C136.085 108.725 135.933 108.441 135.872 108.132C135.811 107.822 135.843 107.501 135.964 107.21C136.085 106.919 136.289 106.67 136.552 106.494C136.814 106.319 137.122 106.226 137.438 106.226C137.648 106.226 137.856 106.267 138.05 106.348C138.244 106.428 138.42 106.546 138.568 106.695C138.716 106.844 138.834 107.02 138.914 107.214C138.994 107.408 139.034 107.616 139.034 107.826Z" fill="#2F80ED"/>
<path opacity="0.1" d="M139.038 107.822L135.846 107.972C135.846 107.918 135.846 107.863 135.846 107.808C135.876 107.406 136.058 107.03 136.353 106.755C136.649 106.481 137.038 106.328 137.442 106.328C137.845 106.328 138.234 106.481 138.53 106.755C138.826 107.03 139.007 107.406 139.038 107.808V107.822Z" fill="#202327"/>
<path d="M144.414 107.293H130.465L130.647 106.308C130.771 105.699 131.091 105.148 131.559 104.739L132.293 104.078L134.14 96.9691C134.318 96.2655 134.732 95.6445 135.313 95.2102C135.894 94.7759 136.607 94.5549 137.332 94.5842H137.574C138.299 94.554 139.012 94.7747 139.594 95.2091C140.175 95.6435 140.589 96.2651 140.766 96.9691L142.613 104.078L143.347 104.739C143.818 105.145 144.139 105.698 144.259 106.308L144.414 107.293Z" fill="#2F80ED"/>
<path d="M137.319 96.098C137.02 96.0989 136.726 96.0109 136.477 95.8451C136.227 95.6793 136.033 95.4432 135.917 95.1666C135.802 94.8901 135.771 94.5855 135.829 94.2916C135.887 93.9976 136.031 93.7274 136.243 93.5152C136.454 93.303 136.724 93.1584 137.018 93.0996C137.311 93.0408 137.616 93.0705 137.893 93.185C138.17 93.2994 138.407 93.4935 138.573 93.7425C138.74 93.9916 138.829 94.2845 138.829 94.5841C138.829 94.9848 138.67 95.3692 138.387 95.653C138.104 95.9368 137.72 96.0968 137.319 96.098ZM137.319 93.9822C137.2 93.9813 137.083 94.0158 136.984 94.0814C136.884 94.147 136.806 94.2407 136.76 94.3506C136.714 94.4605 136.701 94.5817 136.724 94.6987C136.747 94.8158 136.803 94.9234 136.887 95.0081C136.971 95.0927 137.079 95.1505 137.196 95.1741C137.312 95.1977 137.434 95.1861 137.544 95.1406C137.654 95.0952 137.749 95.0181 137.815 94.919C137.881 94.8199 137.917 94.7033 137.917 94.5841C137.917 94.4253 137.854 94.2728 137.742 94.1601C137.63 94.0473 137.478 93.9834 137.319 93.9822Z" fill="#2F80ED"/>
</svg>
