<svg width="117" height="234" viewBox="0 0 117 234" fill="none" xmlns="http://www.w3.org/2000/svg">
<path d="M106.536 233.184C105.106 233.646 64.4456 233.122 62.9155 232.111C62.2935 231.743 62.0571 225.79 61.9389 218.595C61.9389 218.52 61.9389 218.445 61.9389 218.37C61.9389 216.885 61.8954 215.356 61.8892 213.809C61.8892 213.597 61.8892 213.384 61.8892 213.185L63.8485 192L91.0485 192.275L88.3677 213.235L88.3366 214.065L88.1687 218.433V218.882C88.1687 218.882 103.638 226.07 105.211 227.356C106.785 228.641 107.961 232.741 106.536 233.184Z" fill="#F7A9A0"/>
<path d="M106.536 233.184C105.106 233.646 64.4456 233.122 62.9155 232.111C62.2935 231.743 62.0571 225.79 61.9389 218.595C61.9389 218.52 61.9389 218.445 61.9389 218.37C61.9389 216.885 61.8954 215.356 61.8892 213.809C61.8892 213.597 61.8892 213.384 61.8892 213.185L88.3801 213.26L88.349 214.09L88.1811 218.458V218.907C88.1811 218.907 103.65 226.095 105.224 227.381C106.798 228.666 107.961 232.741 106.536 233.184Z" fill="#E2E8F0"/>
<path d="M106.536 233.184C105.802 233.421 94.7553 233.396 83.9574 233.184C81.7866 233.14 79.6034 233.091 77.5695 233.034C69.8691 232.822 63.5061 232.504 62.9152 232.117C62.3243 231.73 62.063 225.964 61.9448 218.901C61.9448 218.801 61.9448 218.701 61.9448 218.601C61.9448 218.501 61.9448 218.445 61.9448 218.37H61.9759L88.1808 218.42V218.87C88.1808 218.87 103.656 226.052 105.224 227.337C106.791 228.623 107.96 232.741 106.536 233.184Z" fill="#2F80ED"/>
<path d="M106.095 231.612C99.2526 231.356 71.5798 230.988 64.7876 231.231C64.7316 231.231 64.7316 231.268 64.7876 231.275C71.5736 231.674 99.2402 231.842 106.095 231.724C106.238 231.724 106.238 231.618 106.095 231.612Z" fill="#202327"/>
<path d="M83.9325 233.184C81.7617 233.14 79.5785 233.091 77.5446 233.034C69.8442 232.822 63.4811 232.504 62.8902 232.117C62.2993 231.73 62.0381 225.964 61.9199 218.901C61.9199 218.801 61.9199 218.701 61.9199 218.601C61.9199 218.501 61.9199 218.445 61.9199 218.37H61.951C65.5524 220.904 78.2039 229.353 83.9325 233.184Z" fill="#202327"/>
<path d="M91.0918 218.545C88.3985 218.002 85.0957 218.377 83.0058 220.274C82.9249 220.348 83.0058 220.461 83.1239 220.436C85.7115 219.638 88.3761 219.117 91.0731 218.882C91.1176 218.885 91.1613 218.869 91.1946 218.839C91.2278 218.809 91.2479 218.768 91.2504 218.723C91.2528 218.678 91.2375 218.634 91.2078 218.601C91.178 218.568 91.1363 218.548 91.0918 218.545Z" fill="#202327"/>
<path d="M94.9544 220.947C92.2611 220.405 88.9583 220.779 86.8684 222.682C86.7875 222.757 86.8684 222.869 86.9803 222.844C89.5664 222.04 92.2316 221.519 94.9295 221.291C94.9702 221.286 95.0081 221.268 95.0366 221.239C95.0652 221.209 95.0824 221.17 95.0854 221.13C95.0884 221.089 95.0769 221.048 95.0529 221.015C95.0289 220.981 94.994 220.958 94.9544 220.947Z" fill="#202327"/>
<path d="M93.0201 219.743C90.3331 219.206 87.024 219.575 84.9341 221.478C84.8533 221.553 84.9341 221.665 85.0461 221.64C87.6368 220.836 90.3059 220.313 93.0077 220.08C93.0449 220.071 93.0783 220.051 93.1026 220.021C93.1269 219.991 93.1409 219.955 93.1423 219.916C93.1437 219.878 93.1325 219.84 93.1104 219.809C93.0883 219.778 93.0566 219.755 93.0201 219.743Z" fill="#202327"/>
<path d="M75.5107 233.59C74.0863 234.058 33.4262 233.677 31.8899 232.679C31.2679 232.304 31.0066 226.358 30.8636 219.163C30.8636 219.088 30.8636 219.013 30.8636 218.938C30.8636 217.453 30.8076 215.93 30.8014 214.383C30.8014 214.165 30.8014 213.952 30.8014 213.759C30.7081 203.376 31.4234 192.599 31.4234 192.599L58.0014 192.774L57.2612 213.74V214.57L57.112 218.907V219.356C57.112 219.356 72.6122 226.482 74.1859 227.768C75.7595 229.053 76.9351 233.134 75.5107 233.59Z" fill="#F7A9A0"/>
<path d="M75.5106 233.59C74.0862 234.058 33.4261 233.677 31.8898 232.679C31.2678 232.304 31.0065 226.357 30.8635 219.163C30.8635 219.088 30.8635 219.013 30.8635 218.938C30.8635 217.453 30.8075 215.93 30.8013 214.383C30.8013 214.165 30.8013 213.952 30.8013 213.759H57.2922V214.589L57.143 218.926V219.375C57.143 219.375 72.6432 226.501 74.2169 227.786C75.7905 229.072 76.935 233.134 75.5106 233.59Z" fill="#E2E8F0"/>
<path d="M75.5109 233.59C74.0866 234.058 33.4264 233.677 31.8901 232.679C31.2681 232.304 31.0068 226.357 30.8638 219.163C30.8638 219.088 30.8638 219.013 30.8638 218.938L57.0997 218.888V219.337C57.0997 219.337 72.6 226.464 74.1736 227.749C75.7473 229.034 76.9353 233.134 75.5109 233.59Z" fill="#2F80ED"/>
<path d="M75.0692 232.005C68.2272 231.774 40.5544 231.481 33.7622 231.774C33.7062 231.774 33.7062 231.818 33.7622 231.818C40.5482 232.198 68.2086 232.261 75.0692 232.117C75.2247 232.117 75.2247 232.011 75.0692 232.005Z" fill="#202327"/>
<path d="M60.0167 218.994C57.3234 218.464 54.0206 218.845 51.9307 220.754C51.8498 220.829 51.9307 220.941 52.0427 220.916C54.6264 220.105 57.2892 219.574 59.9856 219.331C60.0301 219.335 60.0745 219.322 60.1089 219.293C60.1433 219.264 60.165 219.223 60.1691 219.178C60.1732 219.134 60.1595 219.089 60.1309 219.055C60.1023 219.02 60.0612 218.999 60.0167 218.994Z" fill="#202327"/>
<path d="M61.9511 220.186C59.2579 219.656 55.955 220.043 53.8651 221.952C53.7843 222.027 53.8651 222.139 53.9771 222.108C56.5637 221.301 59.2283 220.772 61.9262 220.529C61.967 220.525 62.0049 220.507 62.0334 220.477C62.0619 220.448 62.0792 220.409 62.0821 220.368C62.0851 220.327 62.0736 220.287 62.0497 220.253C62.0257 220.22 61.9908 220.196 61.9511 220.186Z" fill="#202327"/>
<path d="M63.8855 221.384C61.1923 220.854 57.8895 221.235 55.7995 223.144C55.7187 223.219 55.7995 223.331 55.9115 223.306C58.4967 222.494 61.162 221.965 63.8607 221.727C63.9014 221.723 63.9393 221.705 63.9678 221.675C63.9964 221.646 64.0136 221.607 64.0166 221.566C64.0195 221.525 64.008 221.485 63.9841 221.451C63.9601 221.418 63.9252 221.394 63.8855 221.384Z" fill="#202327"/>
<path d="M89.9537 219H60.67C60.67 219 66.5665 150.36 66.3364 149.187C66.0441 147.652 64.3149 140.707 62.0135 131.634C61.292 128.795 60.5145 125.75 59.7059 122.592C57.5227 114.056 55.1155 104.727 53.0194 96.6091C49.8721 84.4474 47.4214 75 47.4214 75H72.2392C72.2392 75 75.1315 84.1978 78.7764 96.1661C84.7165 115.616 92.6532 142.386 93.4369 148.894C94.6996 159.408 89.9537 219 89.9537 219Z" fill="#323A43"/>
<path d="M71.8473 144.994C70.8894 140.745 69.4526 136.583 68.2023 132.414C65.6646 123.944 63.1123 115.481 60.5455 107.024C59.2642 102.793 57.9767 98.5622 56.6829 94.3315C56.0236 92.1974 55.3705 90.0634 54.7049 87.9355C54.0394 85.8077 53.3117 83.7797 52.727 81.6955C52.4844 80.8406 52.3538 81.3086 52.6586 82.3944C53.2806 84.5909 53.9026 86.7624 54.5246 88.9651C55.7686 93.2957 57.0374 97.6221 58.3312 101.944C60.869 110.556 63.4295 119.156 66.0129 127.747L69.8942 140.688C70.5533 142.734 71.0872 144.818 71.4927 146.928C71.8376 149.141 71.9253 151.385 71.754 153.618C71.4741 158.117 70.9516 162.603 70.5411 167.09C70.1305 171.576 69.7076 176.076 69.2971 180.568C68.4677 189.512 67.6488 198.456 66.8402 207.4C66.7406 208.53 66.6411 209.665 66.554 210.801C66.554 211.182 67.0952 211.151 67.1387 210.801C68.1028 201.959 68.843 193.086 69.6703 184.225C70.4975 175.364 71.3186 166.603 72.1583 157.786C72.3635 155.577 72.5937 153.362 72.5999 151.134C72.5795 149.066 72.327 147.006 71.8473 144.994Z" fill="#202327"/>
<path d="M69.4152 75C67.6922 88.3723 64.4081 113.445 62.0134 131.634C56.4154 109.595 47.415 75 47.415 75H69.4152Z" fill="#202327"/>
<path d="M71.4306 75C71.4306 75 70.8583 86.9122 68.1402 96.347C67.9225 97.127 67.6862 97.8946 67.4311 98.6309C64.94 99.6394 62.5457 100.874 60.2781 102.319C60.2781 102.319 59.992 111.903 59.7059 122.592C59.3887 134.542 59.0839 147.871 59.1274 150.672C59.3762 161.28 57.8088 219.431 57.8088 219.431L28.5312 219.55C28.5312 219.55 33.8245 154.604 33.7872 150.729C33.7312 144.489 35.2053 116.976 36.3436 96.9024C37.0402 84.5347 37.5876 75 37.5876 75H71.4306Z" fill="#323A43"/>
<path d="M56.8074 214.208C52.3352 214.133 53.6166 214.09 49.1444 214.065C46.9549 214.065 32.5743 213.99 30.5279 214.339C30.5164 214.339 30.5053 214.344 30.4971 214.352C30.489 214.36 30.4844 214.371 30.4844 214.383C30.4844 214.395 30.489 214.406 30.4971 214.414C30.5053 214.422 30.5164 214.427 30.5279 214.427C32.5743 214.764 46.9612 214.576 49.1506 214.545C53.6228 214.483 52.3352 214.452 56.8074 214.339C56.8883 214.321 56.8883 214.208 56.8074 214.208Z" fill="#202327"/>
<path d="M40.0753 79.2558C39.5342 95.642 38.9619 112.035 38.2093 128.408C37.4567 144.782 36.4864 161.274 35.0993 177.673C34.3343 186.833 33.6127 199.719 32.6113 208.873C32.6113 208.935 32.6984 208.96 32.7046 208.873C34.8381 192.649 36.0261 172.519 37.0586 156.158C38.0911 139.796 38.8189 123.416 39.3725 107.036C39.6835 97.7761 39.926 88.5035 40.2059 79.2371C40.2806 79.1123 40.0753 79.1248 40.0753 79.2558Z" fill="#202327"/>
<path d="M68.6503 97.9944C65.7388 99.2044 62.9376 100.666 60.2782 102.362C60.1724 102.425 60.2782 102.593 60.3652 102.537C63.1891 101.158 66.0752 99.8351 68.8182 98.3001C68.8424 98.2712 68.8573 98.2356 68.8609 98.198C68.8646 98.1604 68.8568 98.1226 68.8386 98.0895C68.8205 98.0565 68.7928 98.0297 68.7591 98.0127C68.7255 97.9957 68.6876 97.9893 68.6503 97.9944Z" fill="#202327"/>
<path d="M88.6598 214.065C84.1876 213.971 85.4689 213.934 80.9968 213.89C78.8073 213.89 64.4267 213.74 62.3803 214.083C62.3368 214.083 62.3368 214.164 62.3803 214.177C64.4267 214.514 78.8073 214.389 80.9968 214.364C85.4689 214.327 84.1876 214.289 88.6598 214.196C88.7407 214.189 88.7407 214.065 88.6598 214.065Z" fill="#202327"/>
<path d="M109.052 41.5632C109.347 40.6926 112.152 33.7511 111.994 29.7305C111.914 27.5999 111.03 21.7752 109.727 21.6607C108.548 21.5633 108.406 23.2185 108.406 23.2185C108.406 23.2185 107.976 20.624 106.338 20.5038C104.7 20.3835 104.598 23.1899 104.598 23.1899C104.598 23.1899 103.963 20.561 102.331 20.5553C100.699 20.5496 101.056 23.419 101.056 23.419C101.056 23.419 100.586 20.9849 99.2312 21.5576C97.6047 22.2449 98.9705 26.632 98.6645 28.9688C98.5965 29.5014 96.4316 39.6159 96.4316 39.6159L109.052 41.5632Z" fill="#F7A9A0"/>
<path d="M101.019 23.396C101.814 26.6231 101.723 28.2108 101.046 31.4207C101.044 31.4271 101.043 31.4339 101.043 31.4406C101.044 31.4474 101.045 31.4541 101.047 31.4602C101.05 31.4663 101.053 31.4718 101.057 31.4763C101.061 31.4809 101.065 31.4843 101.07 31.4866C101.075 31.4889 101.081 31.4898 101.086 31.4895C101.092 31.4891 101.097 31.4874 101.102 31.4845C101.106 31.4816 101.111 31.4775 101.114 31.4724C101.118 31.4674 101.121 31.4615 101.122 31.4551C102.026 28.3828 102.351 26.411 101.122 23.3272C101.082 23.1897 100.982 23.2412 101.019 23.396Z" fill="#202327"/>
<path d="M104.679 23.3705C105.403 26.784 105.298 28.4908 104.679 31.9044C104.679 31.9499 104.751 31.9726 104.762 31.9044C105.651 28.6103 106.021 26.6532 104.861 23.3306C104.795 23.2112 104.646 23.2169 104.679 23.3705Z" fill="#202327"/>
<path d="M108.536 23.4092C109.06 26.7638 109.011 28.6369 107.884 31.861C107.881 31.8688 107.879 31.8771 107.879 31.8855C107.88 31.8939 107.882 31.9021 107.885 31.9098C107.889 31.9174 107.894 31.9243 107.901 31.93C107.907 31.9358 107.915 31.9403 107.923 31.9433C107.932 31.9463 107.941 31.9477 107.95 31.9474C107.959 31.9472 107.968 31.9453 107.976 31.9419C107.984 31.9384 107.991 31.9335 107.998 31.9275C108.004 31.9214 108.009 31.9142 108.012 31.9064C109.505 28.7221 109.578 26.3835 108.621 23.3922C108.572 23.1992 108.493 23.1935 108.536 23.4092Z" fill="#202327"/>
<path d="M93.9712 41.5633C93.9712 41.5633 92.7518 36.7204 92.7689 34.8429C92.7859 32.9655 95.4175 25.9971 96.9602 26.4763C98.9623 27.0965 98.2363 31.4207 97.6011 33.4899C97.6011 33.4899 102.223 34.9219 102.382 38.1355C102.541 41.3491 93.9712 41.5633 93.9712 41.5633Z" fill="#F7A9A0"/>
<path d="M97.5676 26.7753C99.0055 28.6925 97.9834 31.3951 97.5098 33.526C97.5012 33.5567 97.5002 33.5891 97.507 33.6203C97.5137 33.6514 97.5279 33.6805 97.5484 33.7049C97.5688 33.7294 97.595 33.7485 97.6245 33.7606C97.654 33.7727 97.686 33.7774 97.7177 33.7743C99.6465 34.5193 102.159 36.1362 102.678 38.2614C102.682 38.2716 102.688 38.2804 102.697 38.2866C102.706 38.2929 102.717 38.2963 102.727 38.2963C102.738 38.2963 102.749 38.2929 102.757 38.2866C102.766 38.2804 102.773 38.2716 102.776 38.2614C102.528 35.911 100.195 34.1208 98.0238 33.4394C98.5435 31.2912 99.4502 28.5077 97.5849 26.7753C97.5676 26.7522 97.5329 26.7637 97.5676 26.7753Z" fill="#202327"/>
<path d="M67.4148 41.8295C72.4217 51.1908 83.5357 63.3034 88.0606 63.2982C90.2153 63.2982 94.0655 63.7207 96.8553 61.4383C102.951 56.4614 107.964 47.0125 108.939 41.6388C109.285 39.7223 98.9987 35.7088 97.5074 37.2802C94.0258 40.9639 90.0225 48.1614 89.3931 48.1253C87.0739 47.9965 77.922 41.2524 71.5315 36.5022C63.7688 30.737 65.4189 38.0839 67.4148 41.8295Z" fill="#F7A9A0"/>
<path d="M42.3489 90.7209C43.8449 90.705 45.3331 90.5032 46.7794 90.1202C47.4457 89.9497 48.1041 89.7346 48.7599 89.5221C49.4076 89.3412 50.0143 89.0366 50.5462 88.625C51.5535 87.7568 52.023 86.3875 52.4585 85.1756C52.9386 83.804 53.3268 82.4018 53.6205 80.9786C53.6363 80.9078 53.7386 80.9314 53.7386 80.9969C53.7754 82.6032 53.573 84.206 53.1379 85.7527C52.7759 87.0643 52.2906 88.5306 51.2309 89.4513C50.1134 90.4193 48.6077 90.7629 47.1702 90.9334C45.5662 91.1201 43.9447 91.0981 42.3463 90.8678C42.3325 90.861 42.321 90.8504 42.313 90.8372C42.305 90.8241 42.3009 90.8089 42.3012 90.7935C42.3014 90.7782 42.3061 90.7632 42.3145 90.7503C42.323 90.7375 42.3349 90.7273 42.3489 90.7209Z" fill="#202327"/>
<path d="M71.6649 54.7448L88.6733 47.0669C88.6733 47.0669 72.5148 34.4128 66.7098 32.0337C60.1808 29.3554 60.2385 33.2796 62.7751 39.4912C65.3117 45.7028 71.6649 54.7448 71.6649 54.7448Z" fill="#2F80ED"/>
<path d="M88.6736 47.0669L71.6626 54.7448C71.6626 54.7448 65.312 45.7028 62.7806 39.4912C60.2493 33.2796 60.1863 29.3554 66.7153 32.0337C67.0432 32.1701 67.4078 32.3379 67.8039 32.5347L68.2866 32.797C70.4612 33.9485 73.365 35.8582 76.3003 37.9042L76.4603 38.017C78.7739 39.6381 81.1032 41.3405 83.0968 42.8252L83.9336 43.4548C86.7246 45.5402 88.6736 47.0669 88.6736 47.0669Z" fill="#2F80ED"/>
<path d="M88.6736 47.0669L71.6626 54.7448C71.6626 54.7448 65.312 45.7028 62.7806 39.4912C60.2493 33.2796 60.1863 29.3554 66.7153 32.0337C67.0432 32.1701 67.4078 32.3379 67.8039 32.5347L68.2866 32.797C70.4612 33.9485 73.365 35.8582 76.3003 37.9042L76.4603 38.017C78.7739 39.6381 81.1032 41.3405 83.0968 42.8252L83.9336 43.4548C86.7246 45.5402 88.6736 47.0669 88.6736 47.0669Z" fill="#2F80ED"/>
<path d="M85.465 44.601C85.2817 44.5554 85.096 44.5195 84.9089 44.4935C85.3987 44.9099 85.9466 45.2527 86.5352 45.5112L86.8238 45.6345L85.465 44.601ZM62.426 31.3201C62.2344 31.3833 62.0564 31.4821 61.9014 31.6112C62.0089 31.6689 62.1165 31.7214 62.2266 31.7739C62.8083 32.0505 63.4267 32.2421 64.0628 32.3431C63.5685 31.9262 63.0173 31.5818 62.426 31.3201ZM74.1199 48.1685C73.903 47.5635 73.6019 46.9922 73.2255 46.4713C73.3442 47.7545 73.7964 48.9843 74.537 50.0388C74.489 49.3985 74.3485 48.7685 74.1199 48.1685ZM69.157 38.6255C68.5514 38.8399 67.9799 39.1403 67.4598 39.5174C68.1004 39.4647 68.7302 39.3207 69.3301 39.0898C69.936 38.875 70.5076 38.5737 71.0273 38.1953C70.3865 38.2486 69.7566 38.3935 69.157 38.6255Z" fill="white"/>
<path d="M84.9171 45.1256C84.2875 45.3014 78.9495 47.6098 77.8005 48.137C76.6516 48.6643 71.9326 50.7602 70.7889 51.4186C70.7777 51.4231 70.7689 51.4318 70.7642 51.4429C70.7595 51.454 70.7594 51.4664 70.7639 51.4776C70.7685 51.4887 70.7772 51.4976 70.7883 51.5023C70.7994 51.5069 70.8118 51.507 70.823 51.5025C72.0611 51.088 76.8273 48.9738 78.0077 48.4623C79.1882 47.9508 84.4213 45.5454 84.9617 45.2017C85.0063 45.1729 84.9617 45.1152 84.9171 45.1256Z" fill="#202327"/>
<path opacity="0.1" d="M76.2662 52.6672L71.6626 54.7448C71.6626 54.7448 65.312 45.7028 62.7807 39.4912C60.9104 34.9086 60.3884 31.5693 62.8646 31.21L76.2662 52.6672Z" fill="black"/>
<path d="M75.8436 79.8061L35.8513 80.8554C35.8513 80.8554 33.8813 78.8172 34.1803 76.4144C35.2847 67.5403 49.3945 36.4378 54.8821 32.6998C57.34 31.0263 62.6046 29.7173 65.5321 31.9129C70.0806 35.323 74.5976 59.6893 77.1762 73.4424C77.9133 77.3797 75.8698 79.7668 75.8436 79.8061Z" fill="#2F80ED"/>
<path opacity="0.25" d="M75.8436 79.8061L35.8513 80.8554C35.8513 80.8554 33.8813 78.8172 34.1803 76.4144C35.2847 67.5403 49.3945 36.4378 54.8821 32.6998C57.34 31.0263 62.6046 29.7173 65.5321 31.9129C70.0806 35.323 74.5976 59.6893 77.1762 73.4424C77.9133 77.3797 75.8698 79.7668 75.8436 79.8061Z" fill="black"/>
<path d="M55.1233 34.7039C56.5136 36.9886 58.4259 38.9481 60.6005 40.1757C61.6996 40.7974 62.8852 41.2617 64.0892 41.2591C64.7238 41.2953 65.3524 41.119 65.8756 40.7581C66.3637 40.3296 66.7309 39.7806 66.9406 39.1658C67.2077 38.4521 67.372 37.704 67.4285 36.944C67.5033 36.077 67.5217 35.206 67.4836 34.3366C67.4836 34.3025 67.5282 34.3078 67.5282 34.3366C67.5675 35.1629 67.6646 35.9866 67.6462 36.8129C67.6427 37.5367 67.5502 38.2574 67.3708 38.9586C67.2032 39.6107 66.9002 40.2203 66.4815 40.7476C66.0502 41.2538 65.4426 41.5773 64.7817 41.6526C63.5226 41.8388 62.2163 41.4716 61.0254 40.8656C59.8404 40.2481 58.7575 39.4518 57.8147 38.5048C56.7064 37.3955 55.7764 36.1213 55.0578 34.7275C55.0315 34.6908 55.0945 34.6593 55.1233 34.7039Z" fill="#202327"/>
<path d="M56.0129 31.1757C56.0129 31.1757 57.6917 45.6501 57.8805 52.368C58.0694 59.0858 56.0129 97.1685 56.0129 97.1685C56.0129 97.1685 39.6419 94.0549 37.5984 93.5145C35.555 92.9742 30.0071 87.602 30.0071 87.602C30.0071 87.602 42.8237 41.3324 56.0129 31.1757Z" fill="#2F80ED"/>
<path d="M54.3154 37.0254C54.0397 37.6072 53.8489 38.2256 53.7488 38.8616C54.5677 37.8657 55.1144 36.6745 55.3358 35.4043C54.9208 35.8937 54.5772 36.4395 54.3154 37.0254ZM46.7083 60.77C46.4316 61.3517 46.2399 61.9701 46.1391 62.6062C46.5557 62.1161 46.8994 61.5683 47.1595 60.9799C47.434 60.3976 47.6248 59.7794 47.7261 59.1437C47.31 59.6348 46.9656 60.1824 46.703 60.77H46.7083ZM41.2259 86.12C40.9493 86.7017 40.7576 87.3201 40.6567 87.9562C41.0745 87.4669 41.4183 86.9189 41.6771 86.3299C41.9528 85.7481 42.1436 85.1297 42.2437 84.4937C41.8272 84.9845 41.4828 85.5321 41.2207 86.12H41.2259ZM55.9024 84.3888C55.6269 84.9707 55.4361 85.589 55.3358 86.225C55.7513 85.7345 56.0941 85.1868 56.3536 84.5986C56.4903 84.2977 56.6102 83.9894 56.7129 83.6753C56.7129 83.4471 56.7339 83.2162 56.747 82.9828C56.4119 83.4181 56.1268 83.8897 55.8971 84.3888H55.9024ZM41.4568 70.6855C40.8755 70.4084 40.2569 70.2176 39.6206 70.1189C40.6175 70.9352 41.81 71.4777 43.0805 71.6928C42.5876 71.2821 42.0392 70.943 41.4515 70.6855H41.4568ZM47.9595 48.1685C47.7425 47.5636 47.4414 46.9922 47.065 46.4713C47.1186 47.1121 47.2635 47.7419 47.4952 48.3416C47.71 48.9475 48.0113 49.5191 48.3897 50.0388C48.3344 49.3978 48.1878 48.768 47.9543 48.1685H47.9595ZM55.8289 69.0408C55.612 68.4359 55.3108 67.8645 54.9344 67.3436C54.987 67.9829 55.1291 68.6116 55.3568 69.2113C55.5716 69.8172 55.8729 70.3888 56.2512 70.9085C56.1983 70.2687 56.0543 69.6398 55.8237 69.0408H55.8289ZM35.8931 91.9014C35.9096 92.1591 35.9456 92.4151 36.0006 92.6674C36.1895 92.7933 36.3679 92.9087 36.541 93.0136C36.3652 92.6198 36.1461 92.2468 35.8878 91.9014H35.8931ZM33.5926 78.7202C33.4467 78.3271 33.2714 77.9457 33.068 77.5791C33.0103 77.7653 32.9499 77.9516 32.8922 78.1326C32.9604 78.3949 33.0417 78.6415 33.1309 78.8933C33.3479 79.4982 33.649 80.0696 34.0254 80.5905C33.9709 79.9491 33.8233 79.319 33.5873 78.7202H33.5926ZM48.7543 92.7933C48.1494 93.0103 47.5781 93.3114 47.0572 93.6878C47.6979 93.6342 48.3277 93.4893 48.9275 93.2576C49.5333 93.0428 50.105 92.7415 50.6246 92.3631C49.9821 92.4159 49.3504 92.5608 48.7491 92.7933H48.7543ZM48.3031 78.1037C47.697 78.318 47.1253 78.6193 46.606 78.9982C47.2457 78.9434 47.8744 78.7986 48.4736 78.568C49.0806 78.3538 49.6532 78.0525 50.1734 77.6735C49.5304 77.7297 48.8987 77.8781 48.2979 78.1142L48.3031 78.1037ZM56.2434 53.8869C55.6385 54.1039 55.0671 54.405 54.5462 54.7814C55.1867 54.7277 55.8163 54.5838 56.4165 54.3538C56.9372 54.1648 57.4345 53.9166 57.8986 53.6141V53.4777C57.33 53.5493 56.7724 53.6902 56.2381 53.8974L56.2434 53.8869Z" fill="white"/>
<path d="M47.1123 38.5206C35.9036 52.0533 23.365 71.1996 26.7043 76.2675C30.4265 81.9125 46.6008 68.9883 47.0388 68.0597C47.5294 67.0104 52.091 54.7788 54.7876 42.5707C57.7465 29.1769 49.8823 35.1682 47.1123 38.5206Z" fill="#F7A9A0"/>
<path d="M65.5321 31.9075C67.4837 34.3365 70.3902 48.5224 70.5895 49.9704C70.7889 51.4184 76.6831 95.474 76.6831 95.474C76.6831 95.474 80.2873 91.8934 80.5653 90.7208C80.8434 89.5483 77.0451 68.3245 75.2876 60.4262C73.3045 51.5076 70.2328 38.5309 68.1579 35.4566C66.7151 33.3004 65.5321 31.9075 65.5321 31.9075Z" fill="#2F80ED"/>
<path d="M69.5482 38.4919C69.4171 38.5365 69.2859 38.5785 69.1574 38.6257C68.811 38.7542 68.4736 38.9058 68.1475 39.0795L68.234 39.41C68.6062 39.3277 68.9725 39.2208 69.3305 39.09L69.7082 38.9379L69.5482 38.4919ZM74.4614 78.1144L74.3591 78.1538C74.3827 78.319 74.4063 78.4843 74.4273 78.6496L74.6345 78.5787C75.2406 78.3644 75.8123 78.0631 76.3317 77.6842C75.6909 77.7378 75.0611 77.8827 74.4614 78.1144ZM76.2661 92.4236C76.2661 92.5155 76.2923 92.602 76.3028 92.686C76.4702 92.5876 76.6314 92.4789 76.7855 92.3607C76.6113 92.3723 76.4379 92.3933 76.2661 92.4236ZM72.856 60.7702C72.5801 61.352 72.3893 61.9704 72.2894 62.6064C73.1042 61.6085 73.6464 60.4165 73.8633 59.1465C73.4569 59.6386 73.1214 60.1852 72.8665 60.7702H72.856Z" fill="white"/>
<path d="M51.5009 57.9319L33.1389 54.6819C33.1389 54.6819 45.6749 38.442 50.7139 34.7067C56.3852 30.5096 57.2928 34.3237 56.3642 40.9681C55.4356 47.6125 51.5009 57.9319 51.5009 57.9319Z" fill="#2F80ED"/>
<path d="M47.9544 48.1685C47.7374 47.5636 47.4363 46.9922 47.0599 46.4713C47.1135 47.1121 47.2583 47.7419 47.4901 48.3416C47.7049 48.9475 48.0062 49.5191 48.3846 50.0388C48.331 49.398 48.1861 48.7682 47.9544 48.1685ZM37.0107 49.7817C36.8169 50.0883 36.6417 50.4063 36.486 50.7339C36.2102 51.3157 36.0194 51.9341 35.9194 52.5701C36.3344 52.0792 36.6771 51.5316 36.9372 50.9438C37.2028 50.3825 37.3907 49.7877 37.4959 49.1758L37.0107 49.7817ZM54.3234 37.0254C54.0476 37.6072 53.8568 38.2256 53.7568 38.8616C54.5756 37.8657 55.1224 36.6745 55.3438 35.4043C54.926 35.8932 54.5798 36.4391 54.3155 37.0254H54.3234Z" fill="white"/>
<path d="M36.2868 51.7437C36.9399 51.7437 42.682 52.6827 43.9253 52.9109C45.1687 53.1392 50.2628 54.0205 51.5324 54.3642C51.5427 54.3666 51.5519 54.3725 51.5585 54.3808C51.565 54.3892 51.5686 54.3995 51.5686 54.4101C51.5686 54.4207 51.565 54.431 51.5585 54.4393C51.5519 54.4476 51.5427 54.4535 51.5324 54.456C50.2209 54.3563 45.0926 53.4802 43.8204 53.2756C42.5482 53.071 36.8875 52.027 36.2815 51.8276C36.2186 51.8092 36.2474 51.7437 36.2868 51.7437Z" fill="#202327"/>
<path d="M50.664 57.7428C51.2254 57.8005 51.5716 57.8215 51.5716 57.8215C52.2038 55.2928 53.0144 52.7038 53.7541 50.2144C54.5069 47.67 55.328 45.1544 56.1149 42.6073C56.1149 42.568 56.1857 42.5863 56.1753 42.6257C55.8211 44.0894 55.4644 45.5479 55.0945 47.0011C55.1732 46.828 55.2519 46.6548 55.328 46.4765C55.606 45.86 55.8972 45.2515 56.1543 44.6245C56.1753 44.5721 56.2566 44.5957 56.2382 44.6508C56.0457 45.3049 55.81 45.9454 55.5326 46.5683C55.3306 47.0063 55.1024 47.4234 54.8663 47.8405C54.6486 48.6746 54.4387 49.5062 54.1974 50.3377C53.4629 52.8795 52.8439 55.7545 51.9127 58.2334C51.4731 58.1409 51.0409 58.0164 50.6194 57.8609C50.608 57.8524 50.5996 57.8404 50.5956 57.8267C50.5915 57.813 50.5921 57.7984 50.5971 57.785C50.6022 57.7716 50.6114 57.7603 50.6235 57.7527C50.6356 57.7451 50.6498 57.7416 50.664 57.7428Z" fill="#202327"/>
<path d="M26.2455 76.1373C29.7998 79.4316 40.5741 82.2607 59.7737 81.8779C62.4361 81.8252 60.0091 62.9889 57.1702 62.8949C53.5937 62.7823 39.6899 63.1109 38.6744 63.2751C30.1177 64.5741 23.8362 73.9013 26.2455 76.1373Z" fill="#F7A9A0"/>
<path d="M52.1297 63.6495C52.1297 63.6495 53.3175 63.4696 59.4323 61.5009C63.6588 60.14 74.8302 59.5268 82.7229 69.1963C85.7489 72.9026 84.4711 76.6334 80.6441 73.3526C77.9582 71.034 76.2802 69.2005 75.1895 68.6841C75.1895 68.6841 76.2073 74.0307 74.0111 76.3029C73.0363 77.32 70.3078 80.0301 67.8807 81.8392C67.4797 81.5119 67.0998 81.1597 66.7431 80.7847C65.8009 81.606 64.6456 82.1442 63.4107 82.3374C62.1757 82.5305 60.9113 82.3707 59.7633 81.8763L52.1297 63.6495Z" fill="#F7A9A0"/>
<path d="M63.6743 60.8458C65.8121 61.7657 70.3137 63.7918 73.4187 66.73C76.8665 69.9919 82.6333 77.2064 80.1975 79.7229C78.4121 81.5702 75.9705 79.0107 75.9705 79.0107C75.9705 79.0107 77.7251 82.4939 75.7455 83.8121C73.9434 85.0118 72.168 82.9164 72.168 82.9164C72.168 82.9164 72.8745 85.2128 70.908 86.0341C68.5519 87.0234 67.4708 82.0518 64.2195 80.9862C63.4928 80.7597 63.6743 60.8458 63.6743 60.8458Z" fill="#F7A9A0"/>
<path d="M69.3641 69.7974C71.2338 70.9918 74.7836 74.795 75.9958 78.9189C76.0211 79.013 75.9702 79.0848 75.9244 79.0034C74.1074 75.6894 71.8938 72.6089 69.3325 69.8297C69.3142 69.811 69.3423 69.7835 69.3641 69.7974Z" fill="#202327"/>
<path d="M66.1826 73.3771C67.6884 74.5735 71.173 78.6613 72.2569 82.8768C72.2822 82.9709 72.2317 83.0401 72.1807 82.9579C70.5371 79.5566 68.5136 76.3523 66.1489 73.4064C66.1228 73.3864 66.1535 73.3593 66.1826 73.3771Z" fill="#202327"/>
<path d="M72.1703 82.9563C73.1981 84.0337 75.0838 84.7129 76.1786 83.3666C77.0659 82.0917 76.4616 80.3181 75.855 79.0404L75.6343 78.6134C76.2359 79.2374 76.9217 79.8318 77.7343 80.138C79.1556 80.7825 80.6015 79.7401 80.6424 78.2228C80.6949 76.0305 79.2441 74.1869 78.0714 72.4501C77.0386 70.9246 75.8911 69.48 74.6388 68.1288C75.9417 69.0144 77.1846 69.9852 78.3593 71.0348C79.236 71.8021 79.9347 72.7596 80.8658 73.4663C83.5485 75.6172 85.2708 74.1609 83.8152 71.0956C81.9556 67.4503 77.139 63.6687 73.3124 62.2726C77.2525 63.6385 82.0399 67.2828 83.9987 71.0072C84.3746 71.8033 84.7069 72.7094 84.5088 73.613C84.2658 74.7035 83.1883 74.943 82.2582 74.5549C80.552 73.9168 79.4854 72.4034 78.1873 71.2205C77.3214 70.4433 76.4133 69.7145 75.4672 69.0373L75.6442 68.8364C76.5854 69.9427 77.4644 71.1003 78.2771 72.3041C79.5679 74.2556 81.6335 76.8605 80.5797 79.3147C79.7275 80.8949 77.972 80.7295 76.7122 79.7623C76.4115 79.5498 76.1304 79.3109 75.8723 79.0484L75.9976 78.959C76.6184 80.2999 77.2005 82.0966 76.2537 83.4127C75.1146 84.7707 73.201 84.066 72.1767 82.9493L72.1703 82.9563Z" fill="#202327"/>
<path d="M31.9434 66.81C32.7068 66.2326 34.9899 64.3774 38.1817 63.528C40.9664 62.7881 48.8749 62.7452 50.796 62.9043C50.8452 62.912 50.8527 62.9662 50.8041 62.9719C49.0746 63.1875 41.4599 63.321 38.4852 64.0713C36.1932 64.6766 34.0032 65.6169 31.9858 66.8617C31.9451 66.8846 31.9054 66.8492 31.9434 66.81Z" fill="#202327"/>
<path d="M63.5407 40.9532C61.0341 40.736 58.2156 35.8746 57.5868 32.4791C57.5463 32.2407 60.9666 24.6336 61.4865 23.0558C61.592 22.7308 70.6094 28.7306 70.6094 28.7306C70.6094 28.7306 68.543 31.719 67.6522 34.4785C67.5809 34.7135 65.9617 41.1623 63.5407 40.9532Z" fill="#F7A9A0"/>
<path d="M70.6094 28.7306C70.6094 28.7306 68.543 31.719 67.6498 34.4761C67.635 34.5331 61.2219 34.6351 59.8507 27.0481C60.5815 25.3201 61.2756 23.6964 61.4865 23.0558C61.5944 22.7308 70.6094 28.7306 70.6094 28.7306Z" fill="#323A43"/>
<path d="M56.0267 15.0024C55.5325 18.844 59.2559 29.0601 62.2507 30.9694C66.5962 33.7393 72.813 33.0165 74.9396 27.9983C77.0004 23.1342 71.9162 9.90593 68.6523 8.26289C63.844 5.84084 56.7554 9.33042 56.0267 15.0024Z" fill="#F7A9A0"/>
<path d="M67.8065 26.5419C68.0244 26.6535 68.2631 26.8248 68.5183 26.7654C68.7774 26.6795 69.015 26.5389 69.215 26.3532C69.2193 26.3504 69.2243 26.3489 69.2294 26.3489C69.2345 26.3489 69.2396 26.3504 69.2439 26.3532C69.2481 26.356 69.2515 26.3601 69.2535 26.3648C69.2555 26.3695 69.2561 26.3747 69.2552 26.3798C69.1991 26.5486 69.0983 26.6991 68.9635 26.8152C68.8286 26.9312 68.6648 27.0085 68.4895 27.0388C68.3352 27.0464 68.1821 27.0082 68.0494 26.929C67.9168 26.8498 67.8105 26.7331 67.7441 26.5936C67.7254 26.5577 67.7733 26.5249 67.8065 26.5419Z" fill="#323A43"/>
<path d="M66.8119 19.8556C66.7979 19.8293 66.7709 19.9076 66.7826 19.9339C67.0497 20.6172 67.244 21.4426 66.7017 21.8943C66.6849 21.9085 66.7012 21.9419 66.7228 21.9303C67.4453 21.5517 67.1774 20.4566 66.8119 19.8556Z" fill="#323A43"/>
<path d="M65.9385 19.3544C64.8001 19.6695 65.5113 21.9232 66.5662 21.6336C67.621 21.3439 66.8931 19.0924 65.9385 19.3544Z" fill="#323A43"/>
<path d="M70.7529 18.6871C70.7531 18.6585 70.8193 18.7044 70.8262 18.733C71.0241 19.4371 71.3712 20.2116 72.0754 20.2446C72.0968 20.2449 72.106 20.283 72.075 20.2851C71.2858 20.4274 70.8197 19.4018 70.7529 18.6871Z" fill="#323A43"/>
<path d="M71.1474 17.7674C72.2442 17.3282 73.0342 19.5542 72.0258 19.9609C71.0175 20.3676 70.2275 18.1369 71.1474 17.7674Z" fill="#323A43"/>
<path d="M64.7293 18.6287C65.0048 18.4409 65.2259 18.2241 65.4802 18.0123C65.7346 17.8006 66.0149 17.6105 66.1233 17.2355C66.1425 17.1268 66.1251 17.0148 66.074 16.917C66.0228 16.8192 65.9407 16.7411 65.8405 16.6948C65.3995 16.5216 64.9786 16.7293 64.6236 17.0044C64.253 17.2673 63.9944 17.6598 63.8989 18.1041C63.8017 18.5602 64.3676 18.8632 64.7293 18.6287Z" fill="#323A43"/>
<path d="M71.6673 16.4277C71.3439 16.427 71.0207 16.4095 70.6991 16.3755C70.3281 16.3504 70.028 16.3689 69.7209 16.128C69.6408 16.0519 69.5883 15.9513 69.5717 15.8421C69.5551 15.7329 69.5753 15.6213 69.6292 15.5249C69.8829 15.1251 70.3479 15.0415 70.7928 15.0601C71.2459 15.0557 71.6842 15.2214 72.0212 15.5243C72.3777 15.8253 72.1054 16.4129 71.6673 16.4277Z" fill="#323A43"/>
<path d="M67.8812 24.2193C68.1454 24.4397 68.4524 24.603 68.7829 24.6988C69.1134 24.7946 69.4602 24.8208 69.8013 24.7758C70.1005 24.742 70.3931 24.6646 70.6699 24.5463C70.7243 24.5273 70.7771 24.504 70.8277 24.4764L70.9736 24.404C71.0084 24.3848 71.0361 24.3547 71.0523 24.3184C71.0686 24.282 71.0725 24.2414 71.0636 24.2026C71.058 24.1782 71.0486 24.1548 71.0357 24.1333L71.0149 24.0712C70.8607 23.5294 70.5519 22.729 70.5519 22.729C70.7777 22.7646 71.9236 22.8994 71.8168 22.6223C70.9464 20.3408 69.9761 17.8037 68.6254 15.7151C68.6158 15.7024 68.6021 15.6935 68.5866 15.6897C68.5712 15.686 68.555 15.6877 68.5406 15.6946C68.5263 15.7014 68.5148 15.713 68.508 15.7273C68.5012 15.7417 68.4996 15.758 68.5034 15.7734C69.2553 18.0014 70.3944 20.076 71.1844 22.3044C70.8252 22.2842 70.2331 22.2237 69.9537 22.3186C69.8842 22.3632 70.5814 23.8575 70.6314 24.1056C70.6322 24.1143 70.6322 24.123 70.6311 24.1317C69.7656 24.5327 68.9974 24.4753 67.9295 24.1436C67.8632 24.112 67.8221 24.1759 67.8812 24.2193Z" fill="#323A43"/>
<path d="M70.153 24.6457C69.938 25.0667 69.6181 25.4251 69.2241 25.6864C69.0052 25.8226 68.749 25.8867 68.4917 25.8697C67.9303 25.8285 67.8256 25.3396 67.8465 24.8995C67.8595 24.6666 67.9001 24.4361 67.9674 24.2128C68.6311 24.5865 69.3969 24.7383 70.153 24.6457Z" fill="#323A43"/>
<path d="M69.2234 25.6863C69.0044 25.8226 68.7482 25.8867 68.4909 25.8697C67.9296 25.8285 67.8248 25.3396 67.8458 24.8994C68.4317 24.8527 69.0716 25.1374 69.2234 25.6863Z" fill="#FE4F87"/>
<path d="M57.2734 21.9001C59.3341 21.7617 59.0984 16.7273 59.0984 16.7273C59.0984 16.7273 62.2402 16.1412 63.7528 11.8153C63.7528 11.8153 67.8127 14.3267 71.198 13.6849C76.513 12.6878 76.3236 5.77369 74.3234 4.38296C71.4885 2.40467 66.4977 5.34364 66.4977 5.34364C66.4977 5.34364 58.8786 3.27782 56.651 8.43401C55.6661 8.50898 54.7464 8.95505 54.0778 9.68205C53.4092 10.4091 53.0415 11.3628 53.049 12.3505C52.8292 16.1053 55.7324 22.0015 57.2734 21.9001Z" fill="#323A43"/>
<path d="M58.3621 17.3214C59.8892 17.0495 61.2827 16.2778 62.3234 15.1275C62.8795 14.5005 63.2774 13.7495 63.4838 12.9372C63.6903 12.125 63.6992 11.2751 63.51 10.4586C63.4954 10.3746 63.6236 10.3456 63.6458 10.435C63.8905 11.2853 63.9451 12.179 63.8057 13.0527C63.6664 13.9264 63.3365 14.7588 62.8395 15.4907C62.3352 16.1828 61.6583 16.7304 60.8762 17.0791C60.0942 17.4278 59.2343 17.5652 58.3826 17.4777C58.3618 17.4804 58.3409 17.4748 58.3243 17.462C58.3077 17.4493 58.2969 17.4305 58.2942 17.4098C58.2914 17.3891 58.2971 17.3681 58.3098 17.3515C58.3225 17.335 58.3413 17.3241 58.3621 17.3214Z" fill="#323A43"/>
<path d="M52.7483 10.1649C53.7876 8.82532 55.3882 8.60704 56.9679 8.65215C57.052 8.63754 57.0478 8.80479 56.9592 8.79354C56.1731 8.76919 55.3949 8.95678 54.7063 9.33665C54.0176 9.71651 53.4438 10.2747 53.0451 10.9526C52.2576 12.2084 52.4444 13.7812 52.7766 15.1555C53.4047 17.8164 54.9968 20.15 57.2454 21.7053C57.2533 21.7101 57.259 21.7179 57.2612 21.7268C57.2634 21.7358 57.2619 21.7453 57.2571 21.7532C57.2523 21.7611 57.2445 21.7668 57.2355 21.769C57.2265 21.7712 57.217 21.7697 57.2091 21.7649C55.9305 20.9723 54.8272 19.927 53.9668 18.6931C53.1063 17.4591 52.5069 16.0625 52.2051 14.5887C51.9146 13.1473 51.7967 11.396 52.7483 10.1649Z" fill="#323A43"/>
<path d="M60.3141 22.8701C60.3141 22.8701 57.2889 19.9251 55.9093 21.066C54.5296 22.207 57.2556 26.7915 59.1947 27.1221C59.4404 27.1814 59.6957 27.1904 59.945 27.1485C60.1943 27.1065 60.4326 27.0145 60.6454 26.878C60.8582 26.7415 61.0412 26.5634 61.1833 26.3543C61.3254 26.1452 61.4238 25.9095 61.4724 25.6614L60.3141 22.8701Z" fill="#F7A9A0"/>
<path d="M56.7153 22.3589C56.7099 22.3605 56.7053 22.3637 56.7019 22.3682C56.6986 22.3727 56.6967 22.3781 56.6967 22.3837C56.6966 22.3892 56.6984 22.3947 56.7016 22.3992C56.7049 22.4038 56.7095 22.4071 56.7148 22.4088C58.0808 22.6815 58.975 23.7303 59.6757 24.8606C59.2036 24.4633 58.6458 24.3055 58.1023 24.8739C58.0735 24.9045 58.1016 24.95 58.1493 24.9362C58.3587 24.8222 58.5983 24.7759 58.835 24.8038C59.0718 24.8317 59.294 24.9323 59.4712 25.0918C59.7649 25.3617 60.0292 25.6619 60.2599 25.9873C60.3398 26.088 60.5336 25.9899 60.4657 25.8655L60.4493 25.8392C60.1722 24.2251 58.4829 22.1999 56.7153 22.3589Z" fill="#323A43"/>
</svg>
