<svg width="312" height="312" viewBox="0 0 312 312" fill="none" xmlns="http://www.w3.org/2000/svg">
<path d="M22.1333 287.197L55.5984 287.047L89.0635 286.991L156 286.891L222.936 286.991L256.402 287.047L289.867 287.197L256.402 287.353L222.936 287.409L156 287.509L89.0635 287.409L55.5984 287.353L22.1333 287.197Z" fill="#202327"/>
<path d="M220 65.9011H289.776C289.776 65.9011 282.86 47 272.209 47C261.558 47 258.233 60.0454 258.233 60.0454C258.233 60.0454 251.051 52.9583 245.147 52.9583C239.243 52.9583 234.113 62.3234 234.113 62.3234C234.113 62.3234 225.774 57.2886 220 65.9011Z" fill="#E2E8F0"/>
<path opacity="0.5" d="M166 44.5554H198.589C198.589 44.5554 191.311 34 185.558 34C179.805 34 178.122 41.0392 178.122 41.0392C178.122 41.0392 174.072 37.7488 170.316 38.3029C166.561 38.857 166 44.5554 166 44.5554Z" fill="#E2E8F0"/>
<path opacity="0.5" d="M81.1167 134.341H113.727C113.727 134.341 106.441 123.786 100.695 123.786C94.9488 123.786 93.2591 130.818 93.2591 130.818C93.2591 130.818 89.2094 127.534 85.4538 128.123C81.6982 128.711 81.1167 134.341 81.1167 134.341Z" fill="#E2E8F0"/>
<path opacity="0.5" d="M197.492 85.3812H240.404C240.404 85.3812 233.03 71.3097 225.012 71.1044C216.995 70.8992 212.836 81.7556 212.836 81.7556C212.836 81.7556 200.386 71.7748 197.492 85.3812Z" fill="#E2E8F0"/>
<path d="M128.55 152.319H154.053V286.015H128.55V152.319Z" fill="#CBD5E0"/>
<path d="M145.132 156.662H150.092V161.766H145.132V156.662Z" fill="#E2E8F0"/>
<path d="M138.791 156.662H143.75V161.766H138.791V156.662Z" fill="#E2E8F0"/>
<path d="M145.132 165.33H150.092V170.433H145.132V165.33Z" fill="#E2E8F0"/>
<path d="M138.791 165.33H143.75V170.433H138.791V165.33Z" fill="#E2E8F0"/>
<path d="M145.132 173.997H150.092V179.1H145.132V173.997Z" fill="#E2E8F0"/>
<path d="M138.791 173.997H143.75V179.1H138.791V173.997Z" fill="#E2E8F0"/>
<path d="M145.132 182.664H150.092V187.768H145.132V182.664Z" fill="#E2E8F0"/>
<path d="M138.791 182.664H143.75V187.768H138.791V182.664Z" fill="#E2E8F0"/>
<path d="M145.132 191.332H150.092V196.435H145.132V191.332Z" fill="#E2E8F0"/>
<path d="M138.791 191.332H143.75V196.435H138.791V191.332Z" fill="#E2E8F0"/>
<path d="M145.132 199.999H150.092V205.102H145.132V199.999Z" fill="#E2E8F0"/>
<path d="M138.791 199.999H143.75V205.102H138.791V199.999Z" fill="#E2E8F0"/>
<path d="M145.132 208.666H150.092V213.77H145.132V208.666Z" fill="#E2E8F0"/>
<path d="M138.791 208.666H143.75V213.77H138.791V208.666Z" fill="#E2E8F0"/>
<path d="M145.132 217.334H150.092V222.437H145.132V217.334Z" fill="#E2E8F0"/>
<path d="M138.791 217.334H143.75V222.437H138.791V217.334Z" fill="#E2E8F0"/>
<path d="M145.132 226.001H150.092V231.104H145.132V226.001Z" fill="#E2E8F0"/>
<path d="M138.791 226.001H143.75V231.104H138.791V226.001Z" fill="#E2E8F0"/>
<path d="M145.132 234.668H150.092V239.771H145.132V234.668Z" fill="#E2E8F0"/>
<path d="M138.791 234.668H143.75V239.771H138.791V234.668Z" fill="#E2E8F0"/>
<path d="M145.132 243.336H150.092V248.439H145.132V243.336Z" fill="#E2E8F0"/>
<path d="M138.791 243.336H143.75V248.439H138.791V243.336Z" fill="#E2E8F0"/>
<path d="M145.132 252.003H150.092V257.106H145.132V252.003Z" fill="#E2E8F0"/>
<path d="M138.791 252.003H143.75V257.106H138.791V252.003Z" fill="#E2E8F0"/>
<path d="M145.132 260.67H150.092V265.773H145.132V260.67Z" fill="#E2E8F0"/>
<path d="M138.791 260.67H143.75V265.773H138.791V260.67Z" fill="#E2E8F0"/>
<path d="M145.132 269.337H150.092V274.441H145.132V269.337Z" fill="#E2E8F0"/>
<path d="M137.471 274.434H132.511V269.33H137.471V274.434Z" fill="#E2E8F0"/>
<path d="M137.471 265.766H132.511V260.663H137.471V265.766Z" fill="#E2E8F0"/>
<path d="M137.471 257.099H132.511V251.996H137.471V257.099Z" fill="#E2E8F0"/>
<path d="M137.471 248.438H132.511V243.335H137.471V248.438Z" fill="#E2E8F0"/>
<path d="M137.471 239.771H132.511V234.668H137.471V239.771Z" fill="#E2E8F0"/>
<path d="M137.471 231.104H132.511V226.001H137.471V231.104Z" fill="#E2E8F0"/>
<path d="M137.471 222.437H132.511V217.334H137.471V222.437Z" fill="#E2E8F0"/>
<path d="M137.471 213.769H132.511V208.666H137.471V213.769Z" fill="#E2E8F0"/>
<path d="M137.471 205.102H132.511V199.999H137.471V205.102Z" fill="#E2E8F0"/>
<path d="M137.471 196.435H132.511V191.332H137.471V196.435Z" fill="#E2E8F0"/>
<path d="M137.471 187.768H132.511V182.665H137.471V187.768Z" fill="#E2E8F0"/>
<path d="M137.471 179.1H132.511V173.997H137.471V179.1Z" fill="#E2E8F0"/>
<path d="M137.471 170.433H132.511V165.33H137.471V170.433Z" fill="#E2E8F0"/>
<path d="M137.471 161.766H132.511V156.662H137.471V161.766Z" fill="#E2E8F0"/>
<path d="M138.791 269.337H143.75V274.441H138.791V269.337Z" fill="#E2E8F0"/>
<path d="M108.439 152.319H128.551V286.015H108.439V152.319Z" fill="#A9B9CC"/>
<path d="M114.609 274.434H110.511V269.33H114.609V274.434Z" fill="#CBD5E0"/>
<path d="M119.842 274.434H115.751V269.33H119.842V274.434Z" fill="#CBD5E0"/>
<path d="M114.609 265.766H110.511V260.663H114.609V265.766Z" fill="#CBD5E0"/>
<path d="M119.842 265.766H115.751V260.663H119.842V265.766Z" fill="#CBD5E0"/>
<path d="M114.609 257.099H110.511V251.996H114.609V257.099Z" fill="#CBD5E0"/>
<path d="M119.842 257.099H115.751V251.996H119.842V257.099Z" fill="#CBD5E0"/>
<path d="M114.609 248.438H110.511V243.335H114.609V248.438Z" fill="#CBD5E0"/>
<path d="M119.842 248.438H115.751V243.335H119.842V248.438Z" fill="#CBD5E0"/>
<path d="M114.609 239.771H110.511V234.668H114.609V239.771Z" fill="#CBD5E0"/>
<path d="M119.842 239.771H115.751V234.668H119.842V239.771Z" fill="#CBD5E0"/>
<path d="M114.609 231.104H110.511V226.001H114.609V231.104Z" fill="#CBD5E0"/>
<path d="M119.842 231.104H115.751V226.001H119.842V231.104Z" fill="#CBD5E0"/>
<path d="M114.609 222.437H110.511V217.334H114.609V222.437Z" fill="#CBD5E0"/>
<path d="M119.842 222.437H115.751V217.334H119.842V222.437Z" fill="#CBD5E0"/>
<path d="M114.609 213.769H110.511V208.666H114.609V213.769Z" fill="#CBD5E0"/>
<path d="M119.842 213.769H115.751V208.666H119.842V213.769Z" fill="#CBD5E0"/>
<path d="M114.609 205.102H110.511V199.999H114.609V205.102Z" fill="#CBD5E0"/>
<path d="M119.842 205.102H115.751V199.999H119.842V205.102Z" fill="#CBD5E0"/>
<path d="M114.609 196.435H110.511V191.332H114.609V196.435Z" fill="#CBD5E0"/>
<path d="M119.842 196.435H115.751V191.332H119.842V196.435Z" fill="#CBD5E0"/>
<path d="M114.609 187.768H110.511V182.665H114.609V187.768Z" fill="#CBD5E0"/>
<path d="M119.842 187.768H115.751V182.665H119.842V187.768Z" fill="#CBD5E0"/>
<path d="M114.609 179.1H110.511V173.997H114.609V179.1Z" fill="#CBD5E0"/>
<path d="M119.842 179.1H115.751V173.997H119.842V179.1Z" fill="#CBD5E0"/>
<path d="M114.609 170.433H110.511V165.33H114.609V170.433Z" fill="#CBD5E0"/>
<path d="M119.842 170.433H115.751V165.33H119.842V170.433Z" fill="#CBD5E0"/>
<path d="M114.609 161.766H110.511V156.662H114.609V161.766Z" fill="#CBD5E0"/>
<path d="M120.943 156.662H125.034V161.766H120.943V156.662Z" fill="#CBD5E0"/>
<path d="M120.943 165.33H125.034V170.433H120.943V165.33Z" fill="#CBD5E0"/>
<path d="M120.943 173.997H125.034V179.1H120.943V173.997Z" fill="#CBD5E0"/>
<path d="M120.943 182.664H125.034V187.768H120.943V182.664Z" fill="#CBD5E0"/>
<path d="M120.943 191.332H125.034V196.435H120.943V191.332Z" fill="#CBD5E0"/>
<path d="M120.943 199.999H125.034V205.102H120.943V199.999Z" fill="#CBD5E0"/>
<path d="M120.943 208.666H125.034V213.77H120.943V208.666Z" fill="#CBD5E0"/>
<path d="M120.943 217.334H125.034V222.437H120.943V217.334Z" fill="#CBD5E0"/>
<path d="M120.943 226.001H125.034V231.104H120.943V226.001Z" fill="#CBD5E0"/>
<path d="M120.943 234.668H125.034V239.771H120.943V234.668Z" fill="#CBD5E0"/>
<path d="M120.943 243.336H125.034V248.439H120.943V243.336Z" fill="#CBD5E0"/>
<path d="M120.943 252.003H125.034V257.106H120.943V252.003Z" fill="#CBD5E0"/>
<path d="M120.943 260.67H125.034V265.773H120.943V260.67Z" fill="#CBD5E0"/>
<path d="M120.943 269.337H125.034V274.441H120.943V269.337Z" fill="#CBD5E0"/>
<path d="M119.842 161.766H115.751V156.662H119.842V161.766Z" fill="#CBD5E0"/>
<path d="M220.251 149.404H246.855V286.015H220.251V149.404Z" fill="#E2E8F0"/>
<path d="M220.245 146.682H247.492V149.405H220.245V146.682Z" fill="#CBD5E0"/>
<path d="M241.752 153.413H244.447V286.015H241.752V153.413Z" fill="white"/>
<path d="M236.977 153.413H239.672V286.015H236.977V153.413Z" fill="white"/>
<path d="M232.202 153.413H234.898V286.015H232.202V153.413Z" fill="white"/>
<path d="M227.427 153.413H230.123V286.015H227.427V153.413Z" fill="white"/>
<path d="M222.652 153.413H225.348V286.015H222.652V153.413Z" fill="white"/>
<path d="M241.752 156.847H244.447V162.217H241.752V156.847Z" fill="#E2E8F0"/>
<path d="M236.977 156.847H239.672V162.217H236.977V156.847Z" fill="#E2E8F0"/>
<path d="M232.202 156.847H234.898V162.217H232.202V156.847Z" fill="#E2E8F0"/>
<path d="M227.427 156.847H230.123V162.217H227.427V156.847Z" fill="#E2E8F0"/>
<path d="M222.652 156.847H225.348V162.217H222.652V156.847Z" fill="#E2E8F0"/>
<path d="M241.752 165.576H244.447V170.946H241.752V165.576Z" fill="#E2E8F0"/>
<path d="M236.977 165.576H239.672V170.946H236.977V165.576Z" fill="#E2E8F0"/>
<path d="M232.202 165.576H234.898V170.946H232.202V165.576Z" fill="#E2E8F0"/>
<path d="M227.427 165.576H230.123V170.946H227.427V165.576Z" fill="#E2E8F0"/>
<path d="M222.652 165.576H225.348V170.946H222.652V165.576Z" fill="#E2E8F0"/>
<path d="M241.752 174.305H244.447V179.675H241.752V174.305Z" fill="#E2E8F0"/>
<path d="M236.977 174.305H239.672V179.675H236.977V174.305Z" fill="#E2E8F0"/>
<path d="M232.202 174.305H234.898V179.675H232.202V174.305Z" fill="#E2E8F0"/>
<path d="M227.427 174.305H230.123V179.675H227.427V174.305Z" fill="#E2E8F0"/>
<path d="M222.652 174.305H225.348V179.675H222.652V174.305Z" fill="#E2E8F0"/>
<path d="M241.752 183.034H244.447V188.404H241.752V183.034Z" fill="#E2E8F0"/>
<path d="M236.977 183.034H239.672V188.404H236.977V183.034Z" fill="#E2E8F0"/>
<path d="M232.202 183.034H234.898V188.404H232.202V183.034Z" fill="#E2E8F0"/>
<path d="M227.427 183.034H230.123V188.404H227.427V183.034Z" fill="#E2E8F0"/>
<path d="M222.652 183.034H225.348V188.404H222.652V183.034Z" fill="#E2E8F0"/>
<path d="M241.752 191.763H244.447V197.133H241.752V191.763Z" fill="#E2E8F0"/>
<path d="M236.977 191.763H239.672V197.133H236.977V191.763Z" fill="#E2E8F0"/>
<path d="M232.202 191.763H234.898V197.133H232.202V191.763Z" fill="#E2E8F0"/>
<path d="M227.427 191.763H230.123V197.133H227.427V191.763Z" fill="#E2E8F0"/>
<path d="M222.652 191.763H225.348V197.133H222.652V191.763Z" fill="#E2E8F0"/>
<path d="M241.752 200.485H244.447V205.855H241.752V200.485Z" fill="#E2E8F0"/>
<path d="M236.977 200.485H239.672V205.855H236.977V200.485Z" fill="#E2E8F0"/>
<path d="M232.202 200.485H234.898V205.855H232.202V200.485Z" fill="#E2E8F0"/>
<path d="M227.427 200.485H230.123V205.855H227.427V200.485Z" fill="#E2E8F0"/>
<path d="M222.652 200.485H225.348V205.855H222.652V200.485Z" fill="#E2E8F0"/>
<path d="M241.752 209.214H244.447V214.584H241.752V209.214Z" fill="#E2E8F0"/>
<path d="M236.977 209.214H239.672V214.584H236.977V209.214Z" fill="#E2E8F0"/>
<path d="M232.202 209.214H234.898V214.584H232.202V209.214Z" fill="#E2E8F0"/>
<path d="M227.427 209.214H230.123V214.584H227.427V209.214Z" fill="#E2E8F0"/>
<path d="M222.652 209.214H225.348V214.584H222.652V209.214Z" fill="#E2E8F0"/>
<path d="M241.752 217.943H244.447V223.313H241.752V217.943Z" fill="#E2E8F0"/>
<path d="M236.977 217.943H239.672V223.313H236.977V217.943Z" fill="#E2E8F0"/>
<path d="M232.202 217.943H234.898V223.313H232.202V217.943Z" fill="#E2E8F0"/>
<path d="M227.427 217.943H230.123V223.313H227.427V217.943Z" fill="#E2E8F0"/>
<path d="M222.652 217.943H225.348V223.313H222.652V217.943Z" fill="#E2E8F0"/>
<path d="M241.752 226.671H244.447V232.041H241.752V226.671Z" fill="#E2E8F0"/>
<path d="M236.977 226.671H239.672V232.041H236.977V226.671Z" fill="#E2E8F0"/>
<path d="M232.202 226.671H234.898V232.041H232.202V226.671Z" fill="#E2E8F0"/>
<path d="M227.427 226.671H230.123V232.041H227.427V226.671Z" fill="#E2E8F0"/>
<path d="M222.652 226.671H225.348V232.041H222.652V226.671Z" fill="#E2E8F0"/>
<path d="M241.752 235.4H244.447V240.77H241.752V235.4Z" fill="#E2E8F0"/>
<path d="M236.977 235.4H239.672V240.77H236.977V235.4Z" fill="#E2E8F0"/>
<path d="M232.202 235.4H234.898V240.77H232.202V235.4Z" fill="#E2E8F0"/>
<path d="M227.427 235.4H230.123V240.77H227.427V235.4Z" fill="#E2E8F0"/>
<path d="M222.652 235.4H225.348V240.77H222.652V235.4Z" fill="#E2E8F0"/>
<path d="M241.752 244.129H244.447V249.499H241.752V244.129Z" fill="#E2E8F0"/>
<path d="M236.977 244.129H239.672V249.499H236.977V244.129Z" fill="#E2E8F0"/>
<path d="M232.202 244.129H234.898V249.499H232.202V244.129Z" fill="#E2E8F0"/>
<path d="M227.427 244.129H230.123V249.499H227.427V244.129Z" fill="#E2E8F0"/>
<path d="M222.652 244.129H225.348V249.499H222.652V244.129Z" fill="#E2E8F0"/>
<path d="M241.752 252.851H244.447V258.221H241.752V252.851Z" fill="#E2E8F0"/>
<path d="M236.977 252.851H239.672V258.221H236.977V252.851Z" fill="#E2E8F0"/>
<path d="M232.202 252.851H234.898V258.221H232.202V252.851Z" fill="#E2E8F0"/>
<path d="M227.427 252.851H230.123V258.221H227.427V252.851Z" fill="#E2E8F0"/>
<path d="M222.652 252.851H225.348V258.221H222.652V252.851Z" fill="#E2E8F0"/>
<path d="M241.752 261.58H244.447V266.95H241.752V261.58Z" fill="#E2E8F0"/>
<path d="M236.977 261.58H239.672V266.95H236.977V261.58Z" fill="#E2E8F0"/>
<path d="M232.202 261.58H234.898V266.95H232.202V261.58Z" fill="#E2E8F0"/>
<path d="M227.427 261.58H230.123V266.95H227.427V261.58Z" fill="#E2E8F0"/>
<path d="M222.652 261.58H225.348V266.95H222.652V261.58Z" fill="#E2E8F0"/>
<path d="M241.752 270.309H244.447V286.015H241.752V270.309Z" fill="#E2E8F0"/>
<path d="M236.977 270.309H239.672V286.015H236.977V270.309Z" fill="#E2E8F0"/>
<path d="M232.202 270.309H234.898V286.015H232.202V270.309Z" fill="#E2E8F0"/>
<path d="M227.427 270.309H230.123V286.015H227.427V270.309Z" fill="#E2E8F0"/>
<path d="M222.652 270.309H225.348V286.015H222.652V270.309Z" fill="#E2E8F0"/>
<path d="M203.163 149.404H220.244V286.015H203.163V149.404Z" fill="#CBD5E0"/>
<path d="M202.424 146.682H220.244V149.405H202.424V146.682Z" fill="#CBD5E0"/>
<path d="M215.148 153.413H217.843V286.015H215.148V153.413Z" fill="#CBD5E0"/>
<path d="M210.373 153.413H213.069V286.015H210.373V153.413Z" fill="#CBD5E0"/>
<path d="M205.598 153.413H208.293V286.015H205.598V153.413Z" fill="#CBD5E0"/>
<path d="M215.148 156.847H217.843V162.217H215.148V156.847Z" fill="#CBD5E0"/>
<path d="M210.373 156.847H213.069V162.217H210.373V156.847Z" fill="#CBD5E0"/>
<path d="M205.598 156.847H208.293V162.217H205.598V156.847Z" fill="#CBD5E0"/>
<path d="M215.148 165.576H217.843V170.946H215.148V165.576Z" fill="#CBD5E0"/>
<path d="M210.373 165.576H213.069V170.946H210.373V165.576Z" fill="#CBD5E0"/>
<path d="M205.598 165.576H208.293V170.946H205.598V165.576Z" fill="#CBD5E0"/>
<path d="M215.148 174.305H217.843V179.675H215.148V174.305Z" fill="#CBD5E0"/>
<path d="M210.373 174.305H213.069V179.675H210.373V174.305Z" fill="#CBD5E0"/>
<path d="M205.598 174.305H208.293V179.675H205.598V174.305Z" fill="#CBD5E0"/>
<path d="M215.148 183.034H217.843V188.404H215.148V183.034Z" fill="#CBD5E0"/>
<path d="M210.373 183.034H213.069V188.404H210.373V183.034Z" fill="#CBD5E0"/>
<path d="M205.598 183.034H208.293V188.404H205.598V183.034Z" fill="#CBD5E0"/>
<path d="M215.148 191.763H217.843V197.133H215.148V191.763Z" fill="#CBD5E0"/>
<path d="M210.373 191.763H213.069V197.133H210.373V191.763Z" fill="#CBD5E0"/>
<path d="M205.598 191.763H208.293V197.133H205.598V191.763Z" fill="#CBD5E0"/>
<path d="M215.148 200.485H217.843V205.855H215.148V200.485Z" fill="#CBD5E0"/>
<path d="M210.373 200.485H213.069V205.855H210.373V200.485Z" fill="#CBD5E0"/>
<path d="M205.598 200.485H208.293V205.855H205.598V200.485Z" fill="#CBD5E0"/>
<path d="M215.148 209.214H217.843V214.584H215.148V209.214Z" fill="#CBD5E0"/>
<path d="M210.373 209.214H213.069V214.584H210.373V209.214Z" fill="#CBD5E0"/>
<path d="M205.598 209.214H208.293V214.584H205.598V209.214Z" fill="#CBD5E0"/>
<path d="M215.148 217.943H217.843V223.313H215.148V217.943Z" fill="#CBD5E0"/>
<path d="M210.373 217.943H213.069V223.313H210.373V217.943Z" fill="#CBD5E0"/>
<path d="M205.598 217.943H208.293V223.313H205.598V217.943Z" fill="#CBD5E0"/>
<path d="M215.148 226.671H217.843V232.041H215.148V226.671Z" fill="#CBD5E0"/>
<path d="M210.373 226.671H213.069V232.041H210.373V226.671Z" fill="#CBD5E0"/>
<path d="M205.598 226.671H208.293V232.041H205.598V226.671Z" fill="#CBD5E0"/>
<path d="M215.148 235.4H217.843V240.77H215.148V235.4Z" fill="#CBD5E0"/>
<path d="M210.373 235.4H213.069V240.77H210.373V235.4Z" fill="#CBD5E0"/>
<path d="M205.598 235.4H208.293V240.77H205.598V235.4Z" fill="#CBD5E0"/>
<path d="M215.148 244.129H217.843V249.499H215.148V244.129Z" fill="#CBD5E0"/>
<path d="M210.373 244.129H213.069V249.499H210.373V244.129Z" fill="#CBD5E0"/>
<path d="M205.598 244.129H208.293V249.499H205.598V244.129Z" fill="#CBD5E0"/>
<path d="M215.148 252.851H217.843V258.221H215.148V252.851Z" fill="#CBD5E0"/>
<path d="M210.373 252.851H213.069V258.221H210.373V252.851Z" fill="#CBD5E0"/>
<path d="M205.598 252.851H208.293V258.221H205.598V252.851Z" fill="#CBD5E0"/>
<path d="M215.148 261.58H217.843V266.95H215.148V261.58Z" fill="#CBD5E0"/>
<path d="M210.373 261.58H213.069V266.95H210.373V261.58Z" fill="#CBD5E0"/>
<path d="M205.598 261.58H208.293V266.95H205.598V261.58Z" fill="#CBD5E0"/>
<path d="M215.148 270.309H217.843V286.015H215.148V270.309Z" fill="#CBD5E0"/>
<path d="M210.373 270.309H213.069V286.015H210.373V270.309Z" fill="#CBD5E0"/>
<path d="M205.598 270.309H208.293V286.015H205.598V270.309Z" fill="#CBD5E0"/>
<path d="M85.8024 190.319H111.038V286.015H85.8024V190.319Z" fill="#E2E8F0"/>
<path d="M85.8025 183.971H107.447V190.319H85.8025V183.971Z" fill="#CBD5E0"/>
<path d="M88.5734 193.63H108.275V265.171H88.5734V193.63Z" fill="#CBD5E0"/>
<path d="M88.5734 200.457H108.275V202.147H88.5734V200.457Z" fill="white"/>
<path d="M88.5734 207.462H108.275V209.152H88.5734V207.462Z" fill="white"/>
<path d="M88.5734 214.46H108.275V216.15H88.5734V214.46Z" fill="white"/>
<path d="M88.5734 221.465H108.275V223.155H88.5734V221.465Z" fill="white"/>
<path d="M88.5734 228.47H108.275V230.16H88.5734V228.47Z" fill="white"/>
<path d="M88.5734 235.469H108.275V237.158H88.5734V235.469Z" fill="white"/>
<path d="M88.5734 242.474H108.275V244.163H88.5734V242.474Z" fill="white"/>
<path d="M88.5734 249.479H108.275V251.168H88.5734V249.479Z" fill="white"/>
<path d="M88.5734 256.477H108.275V258.167H88.5734V256.477Z" fill="white"/>
<path d="M88.5734 263.482H108.275V265.171H88.5734V263.482Z" fill="white"/>
<path d="M70 190.319H85.8022V286.015H70V190.319Z" fill="#CBD5E0"/>
<path d="M72.3669 183.971H85.8022V190.319H72.3669V183.971Z" fill="#A9B9CC"/>
<path d="M71.4779 193.63H83.6272V265.171H71.4779V193.63Z" fill="#CBD5E0"/>
<path d="M71.4779 200.457H83.6272V202.147H71.4779V200.457Z" fill="white"/>
<path d="M71.4779 207.462H83.6272V209.152H71.4779V207.462Z" fill="white"/>
<path d="M71.4779 214.46H83.6272V216.15H71.4779V214.46Z" fill="white"/>
<path d="M71.4779 221.465H83.6272V223.155H71.4779V221.465Z" fill="white"/>
<path d="M71.4779 228.47H83.6272V230.16H71.4779V228.47Z" fill="white"/>
<path d="M71.4779 235.469H83.6272V237.158H71.4779V235.469Z" fill="white"/>
<path d="M71.4779 242.474H83.6272V244.163H71.4779V242.474Z" fill="white"/>
<path d="M71.4779 249.479H83.6272V251.168H71.4779V249.479Z" fill="white"/>
<path d="M71.4779 256.477H83.6272V258.167H71.4779V256.477Z" fill="white"/>
<path d="M71.4779 263.482H83.6272V265.171H71.4779V263.482Z" fill="white"/>
<path d="M51.8032 192.988H65.2795V208.907H51.8032V192.988Z" fill="#CBD5E0"/>
<path d="M43.2588 192.988H51.803V209.495H43.2588V192.988Z" fill="#CBD5E0"/>
<path d="M42.691 200.014H51.1736V209.488H42.691V200.014Z" fill="#CBD5E0"/>
<path d="M37.4037 200.014H42.6917V209.488H37.4037V200.014Z" fill="#CBD5E0"/>
<path d="M48.6559 207.874H70.4507V287.077H48.6559V207.874Z" fill="#E2E8F0"/>
<path d="M61.1062 211.274H67.9607V214.072H61.1062V211.274Z" fill="white"/>
<path d="M52.3362 211.274H59.1907V214.072H52.3362V211.274Z" fill="white"/>
<path d="M61.1062 216.028H67.9607V218.826H61.1062V216.028Z" fill="white"/>
<path d="M52.3362 216.028H59.1907V218.826H52.3362V216.028Z" fill="white"/>
<path d="M61.1062 220.783H67.9607V223.58H61.1062V220.783Z" fill="white"/>
<path d="M52.3362 220.783H59.1907V223.58H52.3362V220.783Z" fill="white"/>
<path d="M61.1062 225.537H67.9607V228.335H61.1062V225.537Z" fill="white"/>
<path d="M52.3362 225.537H59.1907V228.335H52.3362V225.537Z" fill="white"/>
<path d="M61.1062 230.291H67.9607V233.089H61.1062V230.291Z" fill="white"/>
<path d="M52.3362 230.291H59.1907V233.089H52.3362V230.291Z" fill="white"/>
<path d="M61.1062 235.046H67.9607V237.843H61.1062V235.046Z" fill="white"/>
<path d="M52.3362 235.046H59.1907V237.843H52.3362V235.046Z" fill="white"/>
<path d="M61.1062 239.8H67.9607V242.598H61.1062V239.8Z" fill="white"/>
<path d="M52.3362 239.8H59.1907V242.598H52.3362V239.8Z" fill="white"/>
<path d="M61.1062 244.554H67.9607V247.352H61.1062V244.554Z" fill="white"/>
<path d="M52.3362 244.554H59.1907V247.352H52.3362V244.554Z" fill="white"/>
<path d="M61.1062 249.309H67.9607V252.107H61.1062V249.309Z" fill="white"/>
<path d="M52.3362 249.309H59.1907V252.107H52.3362V249.309Z" fill="white"/>
<path d="M61.1062 254.063H67.9607V256.861H61.1062V254.063Z" fill="white"/>
<path d="M52.3362 254.063H59.1907V256.861H52.3362V254.063Z" fill="white"/>
<path d="M61.1062 258.811H67.9607V261.609H61.1062V258.811Z" fill="white"/>
<path d="M52.3362 258.811H59.1907V261.609H52.3362V258.811Z" fill="white"/>
<path d="M61.1062 263.565H67.9607V266.363H61.1062V263.565Z" fill="white"/>
<path d="M52.3362 263.565H59.1907V266.363H52.3362V263.565Z" fill="white"/>
<path d="M61.1062 268.319H67.9607V271.117H61.1062V268.319Z" fill="white"/>
<path d="M52.3362 268.319H59.1907V271.117H52.3362V268.319Z" fill="white"/>
<path d="M61.1062 273.074H67.9607V275.871H61.1062V273.074Z" fill="white"/>
<path d="M52.3362 273.074H59.1907V275.871H52.3362V273.074Z" fill="white"/>
<path d="M31.0001 207.874H48.6562V287.077H31.0001V207.874Z" fill="#CBD5E0"/>
<path d="M38.3954 275.878H32.7722V273.08H38.3954V275.878Z" fill="#E2E8F0"/>
<path d="M45.5914 275.878H39.9683V273.08H45.5914V275.878Z" fill="#E2E8F0"/>
<path d="M38.3954 271.124H32.7722V268.326H38.3954V271.124Z" fill="#E2E8F0"/>
<path d="M45.5914 271.124H39.9683V268.326H45.5914V271.124Z" fill="#E2E8F0"/>
<path d="M38.3954 266.37H32.7722V263.572H38.3954V266.37Z" fill="#E2E8F0"/>
<path d="M45.5914 266.37H39.9683V263.572H45.5914V266.37Z" fill="#E2E8F0"/>
<path d="M38.3954 261.615H32.7722V258.817H38.3954V261.615Z" fill="#E2E8F0"/>
<path d="M45.5914 261.615H39.9683V258.817H45.5914V261.615Z" fill="#E2E8F0"/>
<path d="M38.3954 256.854H32.7722V254.056H38.3954V256.854Z" fill="#E2E8F0"/>
<path d="M45.5914 256.854H39.9683V254.056H45.5914V256.854Z" fill="#E2E8F0"/>
<path d="M38.3954 252.106H32.7722V249.309H38.3954V252.106Z" fill="#E2E8F0"/>
<path d="M45.5914 252.106H39.9683V249.309H45.5914V252.106Z" fill="#E2E8F0"/>
<path d="M38.3954 247.352H32.7722V244.554H38.3954V247.352Z" fill="#E2E8F0"/>
<path d="M45.5914 247.352H39.9683V244.554H45.5914V247.352Z" fill="#E2E8F0"/>
<path d="M38.3954 242.598H32.7722V239.8H38.3954V242.598Z" fill="#E2E8F0"/>
<path d="M45.5914 242.598H39.9683V239.8H45.5914V242.598Z" fill="#E2E8F0"/>
<path d="M38.3954 237.844H32.7722V235.046H38.3954V237.844Z" fill="#E2E8F0"/>
<path d="M45.5914 237.844H39.9683V235.046H45.5914V237.844Z" fill="#E2E8F0"/>
<path d="M38.3954 233.089H32.7722V230.291H38.3954V233.089Z" fill="#E2E8F0"/>
<path d="M45.5914 233.089H39.9683V230.291H45.5914V233.089Z" fill="#E2E8F0"/>
<path d="M38.3954 228.335H32.7722V225.537H38.3954V228.335Z" fill="#E2E8F0"/>
<path d="M45.5914 228.335H39.9683V225.537H45.5914V228.335Z" fill="#E2E8F0"/>
<path d="M38.3954 223.587H32.7722V220.79H38.3954V223.587Z" fill="#E2E8F0"/>
<path d="M45.5914 223.587H39.9683V220.79H45.5914V223.587Z" fill="#E2E8F0"/>
<path d="M38.3954 218.833H32.7722V216.035H38.3954V218.833Z" fill="#E2E8F0"/>
<path d="M45.5914 218.833H39.9683V216.035H45.5914V218.833Z" fill="#E2E8F0"/>
<path d="M38.3954 214.079H32.7722V211.281H38.3954V214.079Z" fill="#E2E8F0"/>
<path d="M45.5914 214.079H39.9683V211.281H45.5914V214.079Z" fill="#E2E8F0"/>
<path d="M174.826 191.933H188.302V207.852H174.826V191.933Z" fill="#CBD5E0"/>
<path d="M166.281 191.933H174.825V208.44H166.281V191.933Z" fill="#CBD5E0"/>
<path d="M165.706 198.959H174.189V208.434H165.706V198.959Z" fill="#CBD5E0"/>
<path d="M160.426 198.959H165.714V208.434H160.426V198.959Z" fill="#CBD5E0"/>
<path d="M171.679 206.819H193.474V286.022H171.679V206.819Z" fill="#E2E8F0"/>
<path d="M184.129 210.219H190.984V213.017H184.129V210.219Z" fill="white"/>
<path d="M175.359 210.219H182.214V213.017H175.359V210.219Z" fill="white"/>
<path d="M184.129 214.973H190.984V217.771H184.129V214.973Z" fill="white"/>
<path d="M175.359 214.973H182.214V217.771H175.359V214.973Z" fill="white"/>
<path d="M184.129 219.728H190.984V222.526H184.129V219.728Z" fill="white"/>
<path d="M175.359 219.728H182.214V222.526H175.359V219.728Z" fill="white"/>
<path d="M184.129 224.482H190.984V227.28H184.129V224.482Z" fill="white"/>
<path d="M175.359 224.482H182.214V227.28H175.359V224.482Z" fill="white"/>
<path d="M184.129 229.237H190.984V232.034H184.129V229.237Z" fill="white"/>
<path d="M175.359 229.237H182.214V232.034H175.359V229.237Z" fill="white"/>
<path d="M184.129 233.991H190.984V236.789H184.129V233.991Z" fill="white"/>
<path d="M175.359 233.991H182.214V236.789H175.359V233.991Z" fill="white"/>
<path d="M184.129 238.745H190.984V241.543H184.129V238.745Z" fill="white"/>
<path d="M175.359 238.745H182.214V241.543H175.359V238.745Z" fill="white"/>
<path d="M184.129 243.5H190.984V246.298H184.129V243.5Z" fill="white"/>
<path d="M175.359 243.5H182.214V246.298H175.359V243.5Z" fill="white"/>
<path d="M184.129 248.254H190.984V251.052H184.129V248.254Z" fill="white"/>
<path d="M175.359 248.254H182.214V251.052H175.359V248.254Z" fill="white"/>
<path d="M184.129 253.008H190.984V255.806H184.129V253.008Z" fill="white"/>
<path d="M175.359 253.008H182.214V255.806H175.359V253.008Z" fill="white"/>
<path d="M184.129 257.756H190.984V260.554H184.129V257.756Z" fill="white"/>
<path d="M175.359 257.756H182.214V260.554H175.359V257.756Z" fill="white"/>
<path d="M184.129 262.51H190.984V265.308H184.129V262.51Z" fill="white"/>
<path d="M175.359 262.51H182.214V265.308H175.359V262.51Z" fill="white"/>
<path d="M184.129 267.265H190.984V270.063H184.129V267.265Z" fill="white"/>
<path d="M175.359 267.265H182.214V270.063H175.359V267.265Z" fill="white"/>
<path d="M184.129 272.019H190.984V274.817H184.129V272.019Z" fill="white"/>
<path d="M175.359 272.019H182.214V274.817H175.359V272.019Z" fill="white"/>
<path d="M154.023 206.819H171.679V286.022H154.023V206.819Z" fill="#CBD5E0"/>
<path d="M161.417 274.823H155.794V272.026H161.417V274.823Z" fill="#E2E8F0"/>
<path d="M168.614 274.823H162.991V272.026H168.614V274.823Z" fill="#E2E8F0"/>
<path d="M161.417 270.069H155.794V267.271H161.417V270.069Z" fill="#E2E8F0"/>
<path d="M168.614 270.069H162.991V267.271H168.614V270.069Z" fill="#E2E8F0"/>
<path d="M161.417 265.315H155.794V262.517H161.417V265.315Z" fill="#E2E8F0"/>
<path d="M168.614 265.315H162.991V262.517H168.614V265.315Z" fill="#E2E8F0"/>
<path d="M161.417 260.561H155.794V257.763H161.417V260.561Z" fill="#E2E8F0"/>
<path d="M168.614 260.561H162.991V257.763H168.614V260.561Z" fill="#E2E8F0"/>
<path d="M161.417 255.8H155.794V253.002H161.417V255.8Z" fill="#E2E8F0"/>
<path d="M168.614 255.8H162.991V253.002H168.614V255.8Z" fill="#E2E8F0"/>
<path d="M161.417 251.052H155.794V248.254H161.417V251.052Z" fill="#E2E8F0"/>
<path d="M168.614 251.052H162.991V248.254H168.614V251.052Z" fill="#E2E8F0"/>
<path d="M161.417 246.298H155.794V243.5H161.417V246.298Z" fill="#E2E8F0"/>
<path d="M168.614 246.298H162.991V243.5H168.614V246.298Z" fill="#E2E8F0"/>
<path d="M161.417 241.543H155.794V238.745H161.417V241.543Z" fill="#E2E8F0"/>
<path d="M168.614 241.543H162.991V238.745H168.614V241.543Z" fill="#E2E8F0"/>
<path d="M161.417 236.789H155.794V233.991H161.417V236.789Z" fill="#E2E8F0"/>
<path d="M168.614 236.789H162.991V233.991H168.614V236.789Z" fill="#E2E8F0"/>
<path d="M161.417 232.035H155.794V229.237H161.417V232.035Z" fill="#E2E8F0"/>
<path d="M168.614 232.035H162.991V229.237H168.614V232.035Z" fill="#E2E8F0"/>
<path d="M161.417 227.28H155.794V224.482H161.417V227.28Z" fill="#E2E8F0"/>
<path d="M168.614 227.28H162.991V224.482H168.614V227.28Z" fill="#E2E8F0"/>
<path d="M161.417 222.533H155.794V219.735H161.417V222.533Z" fill="#E2E8F0"/>
<path d="M168.614 222.533H162.991V219.735H168.614V222.533Z" fill="#E2E8F0"/>
<path d="M161.417 217.778H155.794V214.98H161.417V217.778Z" fill="#E2E8F0"/>
<path d="M168.614 217.778H162.991V214.98H168.614V217.778Z" fill="#E2E8F0"/>
<path d="M161.417 213.024H155.794V210.226H161.417V213.024Z" fill="#E2E8F0"/>
<path d="M168.614 213.024H162.991V210.226H168.614V213.024Z" fill="#E2E8F0"/>
<path d="M265 226.493H235V286.733H265V226.493Z" fill="#4A5568"/>
<path d="M245.029 231.708H239.719V235.397H245.029V231.708Z" fill="#68778D"/>
<path d="M245.029 239.589H239.719V243.278H245.029V239.589Z" fill="#68778D"/>
<path d="M245.029 247.47H239.719V251.159H245.029V247.47Z" fill="#68778D"/>
<path d="M245.029 255.359H239.719V259.049H245.029V255.359Z" fill="#68778D"/>
<path d="M245.029 263.241H239.719V266.93H245.029V263.241Z" fill="#68778D"/>
<path d="M245.029 271.122H239.719V274.812H245.029V271.122Z" fill="#68778D"/>
<path d="M245.029 279.004H239.719V282.693H245.029V279.004Z" fill="#68778D"/>
<path d="M252.663 231.708H247.353V235.397H252.663V231.708Z" fill="#68778D"/>
<path d="M252.663 239.589H247.353V243.278H252.663V239.589Z" fill="#68778D"/>
<path d="M252.663 247.47H247.353V251.159H252.663V247.47Z" fill="#68778D"/>
<path d="M252.663 255.359H247.353V259.049H252.663V255.359Z" fill="#68778D"/>
<path d="M252.663 263.241H247.353V266.93H252.663V263.241Z" fill="#68778D"/>
<path d="M252.663 271.122H247.353V274.812H252.663V271.122Z" fill="#68778D"/>
<path d="M252.663 279.004H247.353V282.693H252.663V279.004Z" fill="#68778D"/>
<path d="M260.289 231.708H254.979V235.397H260.289V231.708Z" fill="#68778D"/>
<path d="M260.289 239.589H254.979V243.278H260.289V239.589Z" fill="#68778D"/>
<path d="M260.289 247.47H254.979V251.159H260.289V247.47Z" fill="#68778D"/>
<path d="M260.289 255.359H254.979V259.049H260.289V255.359Z" fill="#68778D"/>
<path d="M260.289 263.241H254.979V266.93H260.289V263.241Z" fill="#68778D"/>
<path d="M260.289 271.122H254.979V274.812H260.289V271.122Z" fill="#68778D"/>
<path d="M260.289 279.004H254.979V282.693H260.289V279.004Z" fill="#68778D"/>
<path d="M265.008 220.217H245.029V226.493H265.008V220.217Z" fill="#68778D"/>
<path d="M265 216.328H252.335V220.217H265V216.328Z" fill="#4A5568"/>
<path d="M286.05 226.493H265.001V286.733H286.05V226.493Z" fill="#323A43"/>
<path d="M279.573 282.102H283.893V278.413H279.573V282.102Z" fill="#4A5568"/>
<path d="M279.573 274.229H283.893V270.54H279.573V274.229Z" fill="#4A5568"/>
<path d="M279.573 266.347H283.893V262.658H279.573V266.347Z" fill="#4A5568"/>
<path d="M279.573 258.458H283.893V254.769H279.573V258.458Z" fill="#4A5568"/>
<path d="M279.573 250.577H283.893V246.888H279.573V250.577Z" fill="#4A5568"/>
<path d="M279.573 242.687H283.893V238.998H279.573V242.687Z" fill="#4A5568"/>
<path d="M279.573 234.814H283.893V231.124H279.573V234.814Z" fill="#4A5568"/>
<path d="M273.36 282.102H277.68V278.413H273.36V282.102Z" fill="#4A5568"/>
<path d="M273.36 274.229H277.68V270.54H273.36V274.229Z" fill="#4A5568"/>
<path d="M273.36 266.347H277.68V262.658H273.36V266.347Z" fill="#4A5568"/>
<path d="M273.36 258.458H277.68V254.769H273.36V258.458Z" fill="#4A5568"/>
<path d="M273.36 250.577H277.68V246.888H273.36V250.577Z" fill="#4A5568"/>
<path d="M273.36 242.687H277.68V238.998H273.36V242.687Z" fill="#4A5568"/>
<path d="M273.36 234.814H277.68V231.124H273.36V234.814Z" fill="#4A5568"/>
<path d="M267.164 282.102H271.484V278.413H267.164V282.102Z" fill="#4A5568"/>
<path d="M267.164 274.229H271.484V270.54H267.164V274.229Z" fill="#4A5568"/>
<path d="M267.164 266.347H271.484V262.658H267.164V266.347Z" fill="#4A5568"/>
<path d="M267.164 258.458H271.484V254.769H267.164V258.458Z" fill="#4A5568"/>
<path d="M267.164 250.577H271.484V246.888H267.164V250.577Z" fill="#4A5568"/>
<path d="M267.164 242.687H271.484V238.998H267.164V242.687Z" fill="#4A5568"/>
<path d="M267.164 234.814H271.484V231.124H267.164V234.814Z" fill="#4A5568"/>
<path d="M282.864 220.217H265.001V226.493H282.864V220.217Z" fill="#4A5568"/>
<path d="M274.679 216.328H265.001V220.217H274.679V216.328Z" fill="#323A43"/>
<path d="M261.568 190.189H262.84C260.041 190.189 257.773 192.493 257.773 195.334C257.773 198.175 260.04 200.481 262.84 200.481H261.568C258.769 200.481 256.501 198.177 256.501 195.334C256.501 192.49 258.769 190.189 261.568 190.189Z" fill="#2F80ED"/>
<g opacity="0.1">
<path d="M261.568 190.189H262.84C260.041 190.189 257.773 192.493 257.773 195.334C257.773 198.175 260.04 200.481 262.84 200.481H261.568C258.769 200.481 256.501 198.177 256.501 195.334C256.501 192.49 258.769 190.189 261.568 190.189Z" fill="black"/>
</g>
<path d="M262.84 215.08H261.568C266.712 209.087 271.531 202.517 270.823 195.263C270.362 190.565 267.171 185.885 261.568 185.885H262.84C268.444 185.885 271.634 190.565 272.093 195.263C272.807 202.517 267.989 209.087 262.84 215.08Z" fill="#2F80ED"/>
<g opacity="0.1">
<path d="M262.84 215.08H261.568C266.712 209.087 271.531 202.517 270.823 195.263C270.362 190.565 267.171 185.885 261.568 185.885H262.84C268.444 185.885 271.634 190.565 272.093 195.263C272.807 202.517 267.989 209.087 262.84 215.08Z" fill="black"/>
</g>
<path d="M270.822 195.263C271.531 202.517 266.713 209.087 261.568 215.081C256.43 209.087 251.612 202.517 252.32 195.263C252.781 190.565 255.972 185.886 261.568 185.886C267.165 185.886 270.362 190.565 270.822 195.263ZM261.568 200.481C264.374 200.481 266.642 198.177 266.642 195.334C266.642 192.49 264.375 190.19 261.568 190.19C258.761 190.19 256.501 192.493 256.501 195.334C256.501 198.175 258.768 200.481 261.568 200.481Z" fill="#2F80ED"/>
<path fill-rule="evenodd" clip-rule="evenodd" d="M186.14 135.386V117.042H190.497V123.797H197.626V117.042H201.956V135.386H197.626V127.696H190.497V135.386H186.14ZM226.138 104.519L234.181 64.8671H234.853L249.459 89.8597L263.231 64.8671H263.904L272 104.519H263.231L259.949 86.9759L249.567 105.934H248.948L237.785 86.7089L234.396 104.519H226.138ZM192.918 85.3204C192.918 88.6581 193.914 91.4617 195.877 93.7047C197.841 95.9476 200.262 97.0957 203.14 97.0957C206.045 97.0957 208.466 95.9743 210.429 93.7314C212.393 91.4617 213.361 88.6581 213.361 85.3204C213.361 81.9293 212.393 79.1257 210.429 76.8828C208.466 74.6131 206.045 73.4917 203.14 73.4917C200.262 73.4917 197.841 74.6131 195.877 76.8828C193.914 79.1257 192.918 81.9293 192.918 85.3204ZM183.423 85.3204C183.423 82.4634 183.907 79.8199 184.902 77.3367C185.898 74.8535 187.35 72.6372 189.26 70.6613C191.089 68.7922 193.187 67.3504 195.608 66.3624C198.002 65.3478 200.504 64.8671 203.14 64.8671C205.776 64.8671 208.304 65.3745 210.725 66.3624C213.119 67.3771 215.271 68.8189 217.127 70.7147C219.037 72.6105 220.462 74.8001 221.431 77.2833C222.399 79.7665 222.883 82.4367 222.883 85.3204C222.883 87.7235 222.534 89.9932 221.861 92.1026C221.189 94.212 220.193 96.1612 218.848 97.8968C216.966 100.38 214.652 102.329 211.882 103.691C209.138 105.079 206.233 105.774 203.14 105.774C200.531 105.774 198.029 105.266 195.635 104.252C193.241 103.264 191.116 101.795 189.26 99.8994C187.35 97.9502 185.898 95.734 184.902 93.2774C183.907 90.8209 183.423 88.1508 183.423 85.3204ZM178.608 78.2712C176.941 76.5624 175.246 75.2807 173.524 74.4529C171.803 73.6252 170.001 73.2247 168.118 73.2247C164.863 73.2247 162.173 74.3461 160.102 76.5891C158.004 78.832 156.982 81.7157 156.982 85.2136C156.982 88.7382 158.004 91.5685 160.075 93.7581C162.119 95.9476 164.809 97.0423 168.145 97.0423C170.081 97.0423 172.045 96.6151 173.982 95.8141C175.945 95.013 177.882 93.7848 179.819 92.156L179.227 102.356C177.559 103.451 175.757 104.305 173.793 104.893C171.83 105.48 169.786 105.774 167.661 105.774C165.401 105.774 163.222 105.427 161.124 104.706C159.026 104.011 157.089 102.97 155.341 101.582C152.839 99.6324 150.93 97.2826 149.612 94.479C148.294 91.6753 147.621 88.6047 147.621 85.3204C147.621 82.4634 148.105 79.7932 149.101 77.31C150.069 74.8268 151.494 72.6105 153.377 70.7147C155.26 68.7922 157.439 67.3504 159.914 66.3357C162.362 65.3211 164.971 64.8137 167.714 64.8137C169.893 64.8137 171.964 65.1074 173.955 65.7216C175.918 66.309 177.801 67.2169 179.603 68.4451L178.608 78.2712ZM59.878 61.6897C59.878 61.6897 47.7468 60.8619 45.4335 62.7577C45.4335 62.7577 63.1597 33.8935 92.3177 34.0003C117.683 34.1071 129.653 48.3657 133.903 53.6792C134.656 54.6138 134.548 55.4148 133.284 54.2667C125.591 47.2976 88.0408 25.082 59.878 61.6897ZM121.61 108.31C121.61 108.31 133.715 109.138 136.028 107.242C136.028 107.242 118.302 136.107 89.1706 136C63.8052 135.893 51.8085 121.661 47.5585 116.321C46.8322 115.386 46.9129 114.585 48.2041 115.733C55.897 122.729 93.4474 144.918 121.61 108.31ZM90.381 65.7483H91.9949C93.7164 65.7483 95.142 67.1635 95.142 68.8723V71.7561C95.142 73.465 93.7164 74.8535 91.9949 74.8535H90.381C88.6595 74.8535 87.2608 73.465 87.2608 71.7561V68.8723C87.2608 67.1635 88.6595 65.7483 90.381 65.7483ZM90.7307 80.621H91.699C93.5819 80.621 95.142 82.1696 95.142 84.0387V102.196C95.142 104.092 93.5819 105.64 91.699 105.64H90.7307C88.8209 105.64 87.2608 104.092 87.2608 102.196V84.0387C87.2608 82.1696 88.8209 80.621 90.7307 80.621ZM55.117 65.8017H59.4477H64.8005H78.8953C77.389 71.0352 72.5203 74.9069 66.7641 74.9069H64.8005H59.4477H55.117H40C41.5063 69.6734 46.375 65.8017 52.1312 65.8017H55.117ZM52.5885 96.535C46.8591 96.535 41.9905 100.38 40.4842 105.64H69.0504C74.7798 105.64 79.6485 101.768 81.1548 96.535C81.4776 95.4403 81.639 94.2921 81.639 93.1172C81.639 86.7623 76.7972 81.5021 70.6106 80.7278C70.0995 80.6477 69.5615 80.621 69.0504 80.621H40C41.0221 85.8544 44.3038 89.7261 48.1772 89.7261H62.4603H67.8131C69.696 89.7261 71.2561 91.2481 71.2561 93.1172C71.2561 94.9863 69.696 96.535 67.8131 96.535H52.5885ZM113.379 96.535C107.65 96.535 102.754 100.38 101.248 105.64H129.814C135.571 105.64 140.439 101.768 141.946 96.535C142.241 95.4403 142.43 94.2921 142.43 93.1172C142.43 86.7623 137.588 81.5021 131.401 80.7278C130.89 80.6477 130.352 80.621 129.814 80.621H100.791C101.786 85.8544 105.094 89.7261 108.968 89.7261H123.224H128.604C130.487 89.7261 132.02 91.2481 132.02 93.1172C132.02 94.9863 130.487 96.535 128.604 96.535H113.379ZM115.881 65.8017H120.238H125.564H139.659C138.18 71.0352 133.284 74.9069 127.555 74.9069H125.564H120.238H115.881H100.791C102.297 69.6734 107.166 65.8017 112.895 65.8017H115.881ZM260.003 130.205C261.133 130.9 262.101 131.38 262.908 131.674C263.688 131.941 264.468 132.075 265.222 132.075C265.975 132.075 266.593 131.914 267.051 131.567C267.508 131.247 267.75 130.82 267.75 130.286C267.75 129.538 266.943 128.71 265.275 127.776C265.006 127.615 264.818 127.509 264.657 127.429L263.419 126.708C262.209 126.04 261.294 125.266 260.73 124.411C260.138 123.53 259.842 122.569 259.842 121.474C259.842 120.006 260.407 118.804 261.536 117.843C262.639 116.908 264.092 116.428 265.867 116.428C266.513 116.428 267.239 116.508 267.992 116.668C268.772 116.801 269.606 117.042 270.547 117.362V121.661C269.66 121.1 268.799 120.673 268.019 120.379C267.212 120.086 266.54 119.925 265.975 119.925C265.356 119.925 264.872 120.059 264.495 120.326C264.146 120.593 263.957 120.94 263.957 121.394C263.957 121.714 264.065 122.035 264.28 122.302C264.495 122.569 264.818 122.836 265.248 123.05L267.4 124.251C269.229 125.239 270.44 126.174 271.059 127.001C271.704 127.856 272 128.844 272 130.019C272 131.808 271.381 133.249 270.171 134.344C268.934 135.439 267.32 136 265.275 136C264.576 136 263.85 135.92 263.043 135.786C262.236 135.626 261.348 135.412 260.38 135.119L260.003 130.205ZM242.385 135.386V117.042H246.796V135.386H242.385ZM220.947 120.406H220.22V125.479H221.162C222.265 125.479 223.125 125.239 223.717 124.812C224.309 124.358 224.578 123.717 224.578 122.889C224.578 122.008 224.309 121.367 223.744 120.994C223.179 120.593 222.238 120.406 220.947 120.406ZM215.943 135.386V117.042H220.704C222.211 117.042 223.394 117.149 224.228 117.362C225.089 117.549 225.815 117.869 226.461 118.35C227.16 118.831 227.698 119.445 228.075 120.166C228.451 120.887 228.64 121.634 228.64 122.435C228.64 123.584 228.344 124.598 227.752 125.479C227.16 126.334 226.299 127.028 225.197 127.509L230.818 135.386H225.788L220.866 128.203H220.22V135.386H215.943Z" fill="#001158"/>
</svg>
