<svg width="117" height="234" viewBox="0 0 117 234" fill="none" xmlns="http://www.w3.org/2000/svg">
<path d="M105.536 233.184C104.106 233.646 63.4456 233.122 61.9155 232.111C61.2935 231.743 61.0571 225.79 60.9389 218.595C60.9389 218.52 60.9389 218.445 60.9389 218.37C60.9389 216.885 60.8954 215.356 60.8892 213.809C60.8892 213.597 60.8892 213.384 60.8892 213.185L62.8485 192L90.0485 192.275L87.3677 213.235L87.3366 214.065L87.1687 218.433V218.882C87.1687 218.882 102.638 226.07 104.211 227.356C105.785 228.641 106.961 232.741 105.536 233.184Z" fill="#F7A9A0"/>
<path d="M105.536 233.184C104.106 233.646 63.4456 233.122 61.9155 232.111C61.2935 231.743 61.0571 225.79 60.9389 218.595C60.9389 218.52 60.9389 218.445 60.9389 218.37C60.9389 216.885 60.8954 215.356 60.8892 213.809C60.8892 213.597 60.8892 213.384 60.8892 213.185L87.3801 213.26L87.349 214.09L87.1811 218.458V218.907C87.1811 218.907 102.65 226.095 104.224 227.381C105.798 228.666 106.961 232.741 105.536 233.184Z" fill="#E2E8F0"/>
<path d="M105.536 233.184C104.802 233.421 93.7553 233.396 82.9574 233.184C80.7866 233.14 78.6034 233.091 76.5695 233.034C68.8691 232.822 62.5061 232.504 61.9152 232.117C61.3243 231.73 61.063 225.964 60.9448 218.901C60.9448 218.801 60.9448 218.701 60.9448 218.601C60.9448 218.501 60.9448 218.445 60.9448 218.37H60.9759L87.1808 218.42V218.87C87.1808 218.87 102.656 226.052 104.224 227.337C105.791 228.623 106.96 232.741 105.536 233.184Z" fill="#2F80ED"/>
<path d="M105.095 231.612C98.2526 231.356 70.5798 230.988 63.7876 231.231C63.7316 231.231 63.7316 231.268 63.7876 231.275C70.5736 231.674 98.2402 231.842 105.095 231.724C105.238 231.724 105.238 231.618 105.095 231.612Z" fill="#202327"/>
<path d="M82.9325 233.184C80.7617 233.14 78.5785 233.091 76.5446 233.034C68.8442 232.822 62.4811 232.504 61.8902 232.117C61.2993 231.73 61.0381 225.964 60.9199 218.901C60.9199 218.801 60.9199 218.701 60.9199 218.601C60.9199 218.501 60.9199 218.445 60.9199 218.37H60.951C64.5524 220.904 77.2039 229.353 82.9325 233.184Z" fill="#202327"/>
<path d="M90.0918 218.545C87.3985 218.002 84.0957 218.377 82.0058 220.274C81.9249 220.348 82.0058 220.461 82.1239 220.436C84.7115 219.638 87.3761 219.117 90.0731 218.882C90.1176 218.885 90.1613 218.869 90.1946 218.839C90.2278 218.809 90.2479 218.768 90.2504 218.723C90.2528 218.678 90.2375 218.634 90.2078 218.601C90.178 218.568 90.1363 218.548 90.0918 218.545Z" fill="#202327"/>
<path d="M93.9544 220.947C91.2611 220.405 87.9583 220.779 85.8684 222.682C85.7875 222.757 85.8684 222.869 85.9803 222.844C88.5664 222.04 91.2316 221.519 93.9295 221.291C93.9702 221.286 94.0081 221.268 94.0366 221.239C94.0652 221.209 94.0824 221.17 94.0854 221.13C94.0884 221.089 94.0769 221.048 94.0529 221.015C94.0289 220.981 93.994 220.958 93.9544 220.947Z" fill="#202327"/>
<path d="M92.0201 219.743C89.3331 219.206 86.024 219.575 83.9341 221.478C83.8533 221.553 83.9341 221.665 84.0461 221.64C86.6368 220.836 89.3059 220.313 92.0077 220.08C92.0449 220.071 92.0783 220.051 92.1026 220.021C92.1269 219.991 92.1409 219.955 92.1423 219.916C92.1437 219.878 92.1325 219.84 92.1104 219.809C92.0883 219.778 92.0566 219.755 92.0201 219.743Z" fill="#202327"/>
<path d="M74.5107 233.59C73.0863 234.058 32.4262 233.677 30.8899 232.679C30.2679 232.304 30.0066 226.358 29.8636 219.163C29.8636 219.088 29.8636 219.013 29.8636 218.938C29.8636 217.453 29.8076 215.93 29.8014 214.383C29.8014 214.165 29.8014 213.952 29.8014 213.759C29.7081 203.376 30.4234 192.599 30.4234 192.599L57.0014 192.774L56.2612 213.74V214.57L56.112 218.907V219.356C56.112 219.356 71.6122 226.482 73.1859 227.768C74.7595 229.053 75.9351 233.134 74.5107 233.59Z" fill="#F7A9A0"/>
<path d="M74.5106 233.59C73.0862 234.058 32.4261 233.677 30.8898 232.679C30.2678 232.304 30.0065 226.357 29.8635 219.163C29.8635 219.088 29.8635 219.013 29.8635 218.938C29.8635 217.453 29.8075 215.93 29.8013 214.383C29.8013 214.165 29.8013 213.952 29.8013 213.759H56.2922V214.589L56.143 218.926V219.375C56.143 219.375 71.6432 226.501 73.2169 227.786C74.7905 229.072 75.935 233.134 74.5106 233.59Z" fill="#E2E8F0"/>
<path d="M74.5109 233.59C73.0866 234.058 32.4264 233.677 30.8901 232.679C30.2681 232.304 30.0068 226.357 29.8638 219.163C29.8638 219.088 29.8638 219.013 29.8638 218.938L56.0997 218.888V219.337C56.0997 219.337 71.6 226.464 73.1736 227.749C74.7473 229.034 75.9353 233.134 74.5109 233.59Z" fill="#2F80ED"/>
<path d="M74.0692 232.005C67.2272 231.774 39.5544 231.481 32.7622 231.774C32.7062 231.774 32.7062 231.818 32.7622 231.818C39.5482 232.198 67.2086 232.261 74.0692 232.117C74.2247 232.117 74.2247 232.011 74.0692 232.005Z" fill="#202327"/>
<path d="M59.0167 218.994C56.3234 218.464 53.0206 218.845 50.9307 220.754C50.8498 220.829 50.9307 220.941 51.0427 220.916C53.6264 220.105 56.2892 219.574 58.9856 219.331C59.0301 219.335 59.0745 219.322 59.1089 219.293C59.1433 219.264 59.165 219.223 59.1691 219.178C59.1732 219.134 59.1595 219.089 59.1309 219.055C59.1023 219.02 59.0612 218.999 59.0167 218.994Z" fill="#202327"/>
<path d="M60.9511 220.186C58.2579 219.656 54.955 220.043 52.8651 221.952C52.7843 222.027 52.8651 222.139 52.9771 222.108C55.5637 221.301 58.2283 220.772 60.9262 220.529C60.967 220.525 61.0049 220.507 61.0334 220.477C61.0619 220.448 61.0792 220.409 61.0821 220.368C61.0851 220.327 61.0736 220.287 61.0497 220.253C61.0257 220.22 60.9908 220.196 60.9511 220.186Z" fill="#202327"/>
<path d="M62.8855 221.384C60.1923 220.854 56.8895 221.235 54.7995 223.144C54.7187 223.219 54.7995 223.331 54.9115 223.306C57.4967 222.494 60.162 221.965 62.8607 221.727C62.9014 221.723 62.9393 221.705 62.9678 221.675C62.9964 221.646 63.0136 221.607 63.0166 221.566C63.0195 221.525 63.008 221.485 62.9841 221.451C62.9601 221.418 62.9252 221.394 62.8855 221.384Z" fill="#202327"/>
<path d="M88.9537 219H59.67C59.67 219 65.5665 150.36 65.3364 149.187C65.0441 147.652 63.3149 140.707 61.0135 131.634C60.292 128.795 59.5145 125.75 58.7059 122.592C56.5227 114.056 54.1155 104.727 52.0194 96.6091C48.8721 84.4474 46.4214 75 46.4214 75H71.2392C71.2392 75 74.1315 84.1978 77.7764 96.1661C83.7165 115.616 91.6532 142.386 92.4369 148.894C93.6996 159.408 88.9537 219 88.9537 219Z" fill="#323A43"/>
<path d="M70.8473 144.994C69.8894 140.745 68.4526 136.583 67.2023 132.414C64.6646 123.944 62.1123 115.481 59.5455 107.024C58.2642 102.793 56.9767 98.5622 55.6829 94.3315C55.0236 92.1974 54.3705 90.0634 53.7049 87.9355C53.0394 85.8077 52.3117 83.7797 51.727 81.6955C51.4844 80.8406 51.3538 81.3086 51.6586 82.3944C52.2806 84.5909 52.9026 86.7624 53.5246 88.9651C54.7686 93.2957 56.0374 97.6221 57.3312 101.944C59.869 110.556 62.4295 119.156 65.0129 127.747L68.8942 140.688C69.5533 142.734 70.0872 144.818 70.4927 146.928C70.8376 149.141 70.9253 151.385 70.754 153.618C70.4741 158.117 69.9516 162.603 69.5411 167.09C69.1305 171.576 68.7076 176.076 68.2971 180.568C67.4677 189.512 66.6488 198.456 65.8402 207.4C65.7406 208.53 65.6411 209.665 65.554 210.801C65.554 211.182 66.0952 211.151 66.1387 210.801C67.1028 201.959 67.843 193.086 68.6703 184.225C69.4975 175.364 70.3186 166.603 71.1583 157.786C71.3635 155.577 71.5937 153.362 71.5999 151.134C71.5795 149.066 71.327 147.006 70.8473 144.994Z" fill="#202327"/>
<path d="M68.4152 75C66.6922 88.3723 63.4081 113.445 61.0134 131.634C55.4154 109.595 46.415 75 46.415 75H68.4152Z" fill="#202327"/>
<path d="M70.4306 75C70.4306 75 69.8583 86.9122 67.1402 96.347C66.9225 97.127 66.6862 97.8946 66.4311 98.6309C63.94 99.6394 61.5457 100.874 59.2781 102.319C59.2781 102.319 58.992 111.903 58.7059 122.592C58.3887 134.542 58.0839 147.871 58.1274 150.672C58.3762 161.28 56.8088 219.431 56.8088 219.431L27.5312 219.55C27.5312 219.55 32.8245 154.604 32.7872 150.729C32.7312 144.489 34.2053 116.976 35.3436 96.9024C36.0402 84.5347 36.5876 75 36.5876 75H70.4306Z" fill="#323A43"/>
<path d="M55.8074 214.208C51.3352 214.133 52.6166 214.09 48.1444 214.065C45.9549 214.065 31.5743 213.99 29.5279 214.339C29.5164 214.339 29.5053 214.344 29.4971 214.352C29.489 214.36 29.4844 214.371 29.4844 214.383C29.4844 214.395 29.489 214.406 29.4971 214.414C29.5053 214.422 29.5164 214.427 29.5279 214.427C31.5743 214.764 45.9612 214.576 48.1506 214.545C52.6228 214.483 51.3352 214.452 55.8074 214.339C55.8883 214.321 55.8883 214.208 55.8074 214.208Z" fill="#202327"/>
<path d="M39.0753 79.2558C38.5342 95.642 37.9619 112.035 37.2093 128.408C36.4567 144.782 35.4864 161.274 34.0993 177.673C33.3343 186.833 32.6127 199.719 31.6113 208.873C31.6113 208.935 31.6984 208.96 31.7046 208.873C33.8381 192.649 35.0261 172.519 36.0586 156.158C37.0911 139.796 37.8189 123.416 38.3725 107.036C38.6835 97.7761 38.926 88.5035 39.2059 79.2371C39.2806 79.1123 39.0753 79.1248 39.0753 79.2558Z" fill="#202327"/>
<path d="M67.6503 97.9944C64.7388 99.2044 61.9376 100.666 59.2782 102.362C59.1724 102.425 59.2782 102.593 59.3652 102.537C62.1891 101.158 65.0752 99.8351 67.8182 98.3001C67.8424 98.2712 67.8573 98.2356 67.8609 98.198C67.8646 98.1604 67.8568 98.1226 67.8386 98.0895C67.8205 98.0565 67.7928 98.0297 67.7591 98.0127C67.7255 97.9957 67.6876 97.9893 67.6503 97.9944Z" fill="#202327"/>
<path d="M87.6598 214.065C83.1876 213.971 84.4689 213.934 79.9968 213.89C77.8073 213.89 63.4267 213.74 61.3803 214.083C61.3368 214.083 61.3368 214.164 61.3803 214.177C63.4267 214.514 77.8073 214.389 79.9968 214.364C84.4689 214.327 83.1876 214.289 87.6598 214.196C87.7407 214.189 87.7407 214.065 87.6598 214.065Z" fill="#202327"/>
<path d="M59.1859 37.8907C59.8848 46.2024 65.3323 64.8725 68.9203 68.2359C71.6597 70.813 85.5999 72.8036 91.3843 72.8847C93.8803 72.8847 94.3359 58.0772 92.4701 57.8213C86.7106 57.0288 77.4005 55.2816 75.7781 54.7013C74.6362 54.2895 71.6597 48.2616 65.089 36.9298C61.4573 30.6461 58.7928 33.2295 59.1859 37.8907Z" fill="#F7A9A0"/>
<path d="M100.513 72.0484C99.5712 72.273 99.6835 72.7722 101.256 73.496C102.828 74.2199 109.655 75.7487 108.919 78.0824C108.182 80.4162 98.579 78.1261 96.0581 76.7221C93.5371 75.3181 89.9429 72.1607 89.9429 72.1607C91.9022 72.2106 96.6696 71.9548 100.513 72.0484Z" fill="#F7A9A0"/>
<path d="M92.0709 57.8586C97.5808 58.2642 104.47 58.4327 109.593 61.9833C110.177 62.3598 110.617 62.9228 110.841 63.5807C113.168 65.1282 113.137 66.7007 113.137 66.7007C114.859 68.8036 114.604 70.401 114.604 70.401C114.604 70.401 117.318 72.273 116.476 74.0764C115.54 76.1231 111.914 73.1279 108.913 72.6974C102.049 71.7114 91.9897 72.2356 89.9805 72.1482L92.0709 57.8586Z" fill="#F7A9A0"/>
<path d="M102.398 66.5948C104.412 66.8584 106.405 67.2608 108.364 67.7991C110.473 68.5185 112.525 69.3946 114.504 70.4199C114.512 70.4173 114.519 70.413 114.525 70.4072C114.531 70.4015 114.536 70.3945 114.539 70.3867C114.542 70.379 114.543 70.3707 114.542 70.3624C114.541 70.3541 114.539 70.346 114.535 70.3388C110.914 67.9754 106.714 66.6522 102.392 66.5137C102.311 66.5199 102.292 66.5948 102.398 66.5948Z" fill="#202327"/>
<path d="M102.423 60.0989C105.359 60.8816 108.174 62.0614 110.791 63.6058C110.791 63.6058 110.828 63.6058 110.791 63.5746C107.44 61.2783 105.967 60.8228 102.417 59.9866C102.317 59.9554 102.298 60.0677 102.423 60.0989Z" fill="#202327"/>
<path d="M89.0692 74.3947L90.6104 56.6107C90.6104 56.6107 77.6812 54.4579 75.8591 53.9899C75.0853 53.7964 67.978 40.9857 64.6271 35.5132C62.3994 31.9128 58.1874 30.9393 58.8301 39.0888C59.2045 43.8561 64.2839 66.0955 68.1901 68.9846C71.2415 71.2934 89.0692 74.3947 89.0692 74.3947Z" fill="#2F80ED"/>
<path d="M85.8307 72.9346C85.7371 71.6492 86.2488 66.3452 86.3923 65.0285C86.5358 63.7119 87.2846 58.4328 87.4344 57.0788C87.4344 57.0039 87.5467 56.9914 87.5404 57.0788C87.4156 58.4266 87.0787 63.7618 86.9477 65.0847C86.8166 66.4076 86.2488 71.6928 85.8993 72.9533C85.895 72.9599 85.8887 72.9649 85.8813 72.9677C85.8739 72.9705 85.8658 72.9709 85.8582 72.9688C85.8506 72.9667 85.8439 72.9623 85.8389 72.9562C85.834 72.95 85.8311 72.9425 85.8307 72.9346Z" fill="#202327"/>
<path opacity="0.1" d="M84 73C78.2305 71.8915 71.2551 70.3595 69.3502 69.0704C65.0745 66.187 59.4969 43.9918 59.0721 39.2339C58.6198 34.0089 60.3671 32.5392 62.32 33.1184L84 73Z" fill="black"/>
<path d="M34.2485 88.9569C34.3458 89.0776 75.9262 88.9569 76.2874 88.4593C76.3734 87.1896 76.3873 85.9155 76.3291 84.644C76.3291 84.644 79.0451 80.9719 77.5516 75.1359C74.3911 62.8002 66.7293 36.8849 64.451 34.3288C62.4504 32.0667 57.0879 31.0413 53.7815 33.1525C46.8352 37.5861 38.6568 57.1473 35.4268 69.4414C32.8624 76.7061 34.4569 83.2491 34.8598 85.0059C34.5835 86.3085 34.3793 87.6278 34.2485 88.9569Z" fill="#2F80ED"/>
<path d="M52.1785 39.6504C51.9733 39.3719 51.7976 39.0728 51.6543 38.758C51.4946 38.4475 51.3891 38.1119 51.3423 37.7659C51.4109 37.9281 51.492 38.0716 51.5669 38.2276L51.7916 38.6894C51.9409 39.0011 52.0701 39.3221 52.1785 39.6504Z" fill="#202327"/>
<path d="M50.9928 42.814C52.4592 53.6716 58.3061 72.766 61.1453 75.4679C63.6413 77.8516 77.4691 78.2135 83.6093 77.8703C85.9056 77.7393 84.0086 60.1051 81.5563 60.2923C78.6173 60.5169 69.9062 60.8788 69.3821 60.2923C68.8579 59.7057 62.3184 47.8123 57.4512 40.5801C53.0333 34.0655 50.4374 38.7081 50.9928 42.814Z" fill="#F7A9A0"/>
<path d="M89.4312 59.1066C94.8038 59.0317 96.1953 59.8367 100.694 57.3657C103.652 55.7495 105.955 56.9351 104.02 59.8617C100.85 64.6415 93.9427 66.1953 91.3905 66.0393L89.4312 59.1066Z" fill="#F7A9A0"/>
<path d="M74.7671 62.4139C74.7671 62.4139 81.1132 59.8618 86.8352 59.2191C90.7852 58.7698 99.4962 58.7573 106.641 68.2483C108.332 70.4947 109.137 74.9064 105.05 72.2357C102.136 70.3637 100.863 68.2546 98.9658 67.4621C98.9658 67.4621 99.3402 73.1904 97.0189 74.8003C94.9895 76.1954 92.8648 77.4465 90.6604 78.5443C90.364 78.1857 90.091 77.8085 89.8429 77.4149C89.8429 77.4149 87.5341 78.7128 83.6029 77.8392L74.7671 62.4139Z" fill="#F7A9A0"/>
<path d="M90.6729 59.3938C92.3889 60.5794 95.9832 63.1378 98.1609 66.2578C100.613 69.7335 104.401 77.0842 101.811 78.8688C99.9393 80.173 98.2233 77.496 98.2233 77.496C98.2233 77.496 99.1468 80.8656 97.1812 81.6706C95.3841 82.4069 94.1985 80.2541 94.1985 80.2541C94.1985 80.2541 94.4044 82.3944 92.5449 82.7501C90.2985 83.1994 90.2299 78.638 87.5529 77.1341C86.9913 76.8408 90.6729 59.3938 90.6729 59.3938Z" fill="#F7A9A0"/>
<path d="M94.0861 68.2608C96.395 70.8222 97.8686 74.0262 98.3106 77.4461C98.3106 77.5335 98.2544 77.5834 98.2295 77.5085C97.2229 74.2762 95.8252 71.1791 94.0674 68.2858C94.0674 68.2858 94.0674 68.2484 94.0861 68.2608Z" fill="#202327"/>
<path d="M90.6478 70.8379C91.7585 72.1545 94.0923 76.3603 94.2982 80.254C94.2982 80.3414 94.2358 80.3913 94.2171 80.3102C93.3768 77.0326 92.1668 73.861 90.6104 70.8566L90.6478 70.8379Z" fill="#202327"/>
<path d="M90.3984 59.1066C91.0848 59.1066 91.765 59.1066 92.4514 59.1066C93.1378 59.1066 93.8117 59.1067 94.4919 59.0692C95.172 59.0318 95.846 59.0068 96.5199 58.9319C97.1959 58.8658 97.8583 58.6996 98.4855 58.439C97.8996 58.8119 97.2433 59.0604 96.5573 59.1691C95.8799 59.2956 95.1933 59.3665 94.5043 59.3812C93.1303 59.4088 91.7565 59.317 90.3984 59.1066Z" fill="#202327"/>
<path d="M104.22 59.5122C103.925 60.2257 103.502 60.8793 102.972 61.4404C102.447 62.0161 101.81 62.4789 101.1 62.8007C101.381 62.5324 101.668 62.2952 101.936 62.0269C102.205 61.7586 102.467 61.5028 102.716 61.2282C103.259 60.6791 103.733 60.105 104.22 59.5122Z" fill="#202327"/>
<path d="M99.1594 61.5652C101.029 62.6366 102.769 63.9201 104.345 65.3903C105.135 66.1341 105.866 66.9395 106.529 67.7989C107.224 68.6515 107.757 69.6244 108.101 70.6693C108.282 71.2188 108.317 71.806 108.201 72.3729C108.126 72.6907 107.928 72.9663 107.652 73.1404C107.367 73.2847 107.043 73.3328 106.729 73.2777C106.17 73.1611 105.64 72.9364 105.169 72.6162C104.709 72.3167 104.273 71.9829 103.864 71.6178C102.339 70.1256 100.667 68.7918 98.8724 67.6367L99.1469 67.3497C100.206 69.0985 101.116 70.9333 101.868 72.8346C102.252 73.7795 102.534 74.7627 102.71 75.7674C102.8 76.2718 102.819 76.7865 102.766 77.2962C102.729 77.81 102.507 78.293 102.142 78.6565C102.477 78.2756 102.668 77.7904 102.685 77.2837C102.709 76.7833 102.667 76.2819 102.56 75.7924C102.337 74.8122 102.021 73.8553 101.618 72.9345C100.814 71.0875 99.8709 69.304 98.7975 67.5993L98.3794 66.9253L99.0658 67.3122C100.897 68.4643 102.607 69.7981 104.17 71.2933C104.559 71.6492 104.977 71.9727 105.418 72.2605C105.829 72.5583 106.296 72.7705 106.791 72.8845C107.002 72.9248 107.22 72.8986 107.415 72.8097C107.505 72.7526 107.584 72.6778 107.645 72.5899C107.706 72.502 107.749 72.4028 107.771 72.298C107.871 71.808 107.841 71.3 107.683 70.8253C107.354 69.826 106.858 68.8893 106.217 68.0548C105.587 67.1956 104.893 66.3862 104.139 65.6337C102.615 64.119 100.947 62.7564 99.1594 61.5652Z" fill="#202327"/>
<path d="M81.781 80.6534L81.026 59.8055H69.794C66.3932 54.1022 59.5978 42.7017 56.6525 39.1075C53.2018 34.8955 50.0506 37.0171 50.5935 42.5395C51.8415 55.1692 58.5807 74.5881 60.8957 76.7534C64.1967 79.8484 81.781 80.6534 81.781 80.6534Z" fill="#2F80ED"/>
<path d="M78.2867 78.2011C77.9997 76.9531 77.7064 71.5306 77.6627 70.1827C77.6191 68.8349 77.5566 63.4435 77.5005 62.0707C77.5005 61.9959 77.6066 61.9709 77.6066 62.0707C77.6877 63.4373 78.1619 68.8411 78.2306 70.1827C78.2992 71.5243 78.5301 76.9157 78.3679 78.2323C78.3658 78.2377 78.3627 78.2425 78.3588 78.2467C78.3549 78.2508 78.3502 78.2541 78.3449 78.2564C78.3344 78.2611 78.3225 78.2614 78.3117 78.2573C78.3009 78.2532 78.2923 78.2449 78.2876 78.2344C78.2829 78.2239 78.2826 78.2119 78.2867 78.2011Z" fill="#202327"/>
<path d="M74.2803 80.0605C72.4707 79.8608 70.6611 79.6175 68.864 79.3179C67.0574 79.0375 65.2695 78.6478 63.51 78.1511C62.6116 77.9125 61.7566 77.5335 60.9766 77.0279C60.3086 76.374 59.7615 75.6071 59.3605 74.7627C58.5337 73.1274 57.8166 71.4388 57.2139 69.7083C55.9659 66.2763 54.9612 62.7695 53.994 59.2501C53.0268 55.7307 52.2094 52.1802 51.498 48.6421C52.4403 52.1614 53.4012 55.6746 54.4059 59.1752C55.4105 62.6759 56.4651 66.1578 57.6507 69.596C58.24 71.3117 58.9254 72.993 59.7037 74.6317C60.0664 75.4454 60.5667 76.1906 61.1825 76.8344C61.9292 77.3267 62.7482 77.6994 63.6099 77.9389C67.106 78.9231 70.6736 79.6325 74.2803 80.0605Z" fill="#202327"/>
<path d="M62.2749 47.6687C63.5229 49.4097 64.565 51.2567 65.6819 53.0663C66.7989 54.8759 67.8659 56.7167 69.0141 58.5013L69.4509 59.1628C69.5258 59.2689 69.6007 59.3812 69.6818 59.481L69.7941 59.6183C69.7941 59.6495 69.7941 59.6183 69.7941 59.6495C69.7941 59.6807 69.844 59.6495 69.8627 59.6495C70.337 59.7057 70.9048 59.7119 71.4227 59.7244H74.6114L80.9949 59.7618V60.3546L80.9637 59.8305C78.8359 59.9303 76.708 59.9865 74.5802 60.0239C73.5194 60.0239 72.4523 60.0239 71.3853 60.0239C70.8437 60.0281 70.3022 60.0052 69.7629 59.9553C69.7202 59.95 69.6783 59.9395 69.6381 59.9241C69.5929 59.9008 69.5526 59.869 69.5195 59.8305C69.4696 59.7743 69.4135 59.7181 69.376 59.6682C69.3386 59.6183 69.2138 59.4498 69.1327 59.3375C68.9829 59.1191 68.8331 58.8945 68.6896 58.6698C67.5602 56.8602 66.4807 55.0319 65.4136 53.1849L63.8287 50.4205C63.3669 49.497 62.8615 48.5548 62.2749 47.6687Z" fill="#202327"/>
<path d="M61.4848 42.3517C59.0059 41.9214 56.6125 36.8371 56.2759 33.4004C56.2559 33.1594 60.313 25.8719 60.9657 24.3443C61.0986 24.0294 69.5709 30.777 69.5709 30.777C69.5709 30.777 67.2569 33.5782 66.1339 36.2516C66.0428 36.4796 63.8791 42.7667 61.4848 42.3517Z" fill="#F7A9A0"/>
<path d="M69.5709 30.777C69.5709 30.777 67.2569 33.5782 66.1317 36.249C66.1121 36.3045 59.7136 35.8588 58.9951 28.1824C59.8707 26.5231 60.7009 24.9645 60.9657 24.3443C61.1009 24.0296 69.5709 30.777 69.5709 30.777Z" fill="#323A43"/>
<path d="M56.2135 15.8543C55.3931 19.6396 58.231 30.1363 61.0518 32.2943C65.145 35.4249 71.4009 35.2355 73.948 30.4171C76.4165 25.7467 72.48 12.1327 69.3682 10.217C64.7842 7.39342 57.4236 10.2652 56.2135 15.8543Z" fill="#F7A9A0"/>
<path d="M66.965 28.357C67.1725 28.4868 67.3958 28.6779 67.6552 28.6405C67.9206 28.577 68.1693 28.4573 68.3844 28.2893C68.389 28.2868 68.3941 28.2857 68.3992 28.2862C68.4043 28.2866 68.4092 28.2886 68.4132 28.2917C68.4173 28.2949 68.4203 28.2992 68.4219 28.3041C68.4235 28.309 68.4236 28.3142 68.4222 28.3192C68.352 28.4827 68.2387 28.624 68.0944 28.7281C67.9502 28.8322 67.7804 28.8953 67.6031 28.9105C67.4487 28.9049 67.2994 28.8537 67.174 28.7635C67.0486 28.6732 66.9527 28.5479 66.8984 28.4033C66.8828 28.3659 66.9334 28.3373 66.965 28.357Z" fill="#323A43"/>
<path d="M66.5449 21.6104C66.5332 21.5829 66.4996 21.6586 66.509 21.6858C66.7168 22.3895 66.8399 23.2284 66.261 23.6322C66.2431 23.6449 66.2565 23.6796 66.279 23.6698C67.0311 23.3543 66.8577 22.2403 66.5449 21.6104Z" fill="#323A43"/>
<path d="M65.7174 21.0365C64.5563 21.2532 65.0726 23.5594 66.1483 23.3609C67.224 23.1623 66.6909 20.8568 65.7174 21.0365Z" fill="#323A43"/>
<path d="M70.5712 20.7825C70.5739 20.754 70.6359 20.8054 70.6403 20.8345C70.7774 21.5529 71.0571 22.3542 71.756 22.4472C71.7773 22.4493 71.7831 22.4881 71.7521 22.4875C70.9536 22.5619 70.5768 21.5003 70.5712 20.7825Z" fill="#323A43"/>
<path d="M71.0428 19.8998C72.1731 19.5558 72.7702 21.8411 71.7308 22.1603C70.6914 22.4795 70.0947 20.1895 71.0428 19.8998Z" fill="#323A43"/>
<path d="M64.5746 20.2101C64.8651 20.0466 65.1039 19.8494 65.3754 19.6601C65.6469 19.4709 65.9424 19.3054 66.0824 18.941C66.1108 18.8344 66.1031 18.7213 66.0605 18.6195C66.0179 18.5177 65.9427 18.4328 65.8468 18.3782C65.4222 18.1679 64.9851 18.339 64.608 18.5827C64.2162 18.8131 63.9251 19.182 63.792 19.6166C63.6562 20.0627 64.1942 20.4129 64.5746 20.2101Z" fill="#323A43"/>
<path d="M71.6752 18.6094C71.353 18.5811 71.0325 18.5361 70.715 18.4747C70.3474 18.4181 70.0468 18.4109 69.7614 18.1446C69.6881 18.062 69.6444 17.9573 69.6372 17.8471C69.63 17.7369 69.6596 17.6274 69.7215 17.5359C70.0085 17.1592 70.4789 17.1157 70.9206 17.1722C71.3724 17.2065 71.795 17.4089 72.1049 17.7395C72.4344 18.0698 72.1129 18.632 71.6752 18.6094Z" fill="#323A43"/>
<path d="M67.2378 26.0494C67.4822 26.2916 67.7742 26.4804 68.0953 26.6041C68.4164 26.7277 68.7597 26.7835 69.1034 26.7678C69.4044 26.7596 69.7025 26.7075 69.9884 26.6132C70.0443 26.599 70.0988 26.5802 70.1516 26.557L70.3031 26.4974C70.3395 26.4812 70.3696 26.4536 70.3889 26.4188C70.4082 26.3839 70.4156 26.3438 70.41 26.3044C70.4065 26.2796 70.3992 26.2554 70.3882 26.2329L70.3727 26.1693C70.2653 25.6163 70.026 24.7925 70.026 24.7925C70.2479 24.8472 71.3781 25.0794 71.2954 24.7942C70.6228 22.4467 69.8727 19.836 68.7051 17.6397C68.6966 17.6263 68.6838 17.6162 68.6687 17.6112C68.6537 17.6061 68.6373 17.6064 68.6225 17.612C68.6076 17.6176 68.5952 17.6282 68.5872 17.6419C68.5792 17.6557 68.5762 17.6717 68.5787 17.6874C69.1377 19.9714 70.0954 22.1357 70.6924 24.4234C70.3362 24.3727 69.7515 24.2619 69.465 24.3325C69.392 24.371 69.959 25.9194 69.9876 26.1708C69.9878 26.1796 69.9869 26.1883 69.9852 26.1969C69.0886 26.5225 68.328 26.3997 67.2924 25.9781C67.229 25.941 67.1826 26.0011 67.2378 26.0494Z" fill="#323A43"/>
<path d="M69.4649 26.6682C69.2148 27.0693 68.8654 27.3991 68.4506 27.6257C68.2208 27.7428 67.9601 27.7848 67.7052 27.7459C67.1494 27.657 67.0868 27.1608 67.1452 26.7241C67.178 26.4932 67.2381 26.267 67.3243 26.0502C67.9536 26.4793 68.7037 26.6958 69.4649 26.6682Z" fill="#323A43"/>
<path d="M68.4501 27.6256C68.2203 27.7426 67.9596 27.7846 67.7046 27.7457C67.1489 27.6568 67.0862 27.1607 67.1447 26.724C67.7325 26.7275 68.3457 27.0657 68.4501 27.6256Z" fill="#FE4F87"/>
<path d="M56.8668 22.8332C58.9318 22.8712 59.1267 17.8351 59.1267 17.8351C59.1267 17.8351 62.3071 17.5193 64.1835 13.3383C64.1835 13.3383 68.0142 16.187 71.4418 15.8366C76.8226 15.2967 77.224 8.39172 75.3498 6.83534C72.6941 4.62229 67.4707 7.12454 67.4707 7.12454C67.4707 7.12454 60.0557 4.41592 57.3962 9.36316C56.4085 9.35379 55.4541 9.71972 54.7258 10.387C53.9976 11.0543 53.5498 11.9731 53.473 12.9579C52.9335 16.6802 55.3228 22.8027 56.8668 22.8332Z" fill="#323A43"/>
<path d="M58.3421 18.3642C59.8869 18.2237 61.3412 17.5737 62.4762 16.5165C63.0838 15.9393 63.5444 15.2249 63.8194 14.4333C64.0944 13.6416 64.1759 12.7956 64.057 11.966C64.0496 11.881 64.1798 11.8631 64.1943 11.954C64.3655 12.8221 64.3437 13.7171 64.1303 14.5758C63.9168 15.4344 63.5171 16.2356 62.9594 16.9224C62.3979 17.5689 61.6767 18.0568 60.8678 18.3375C60.0588 18.6181 59.1904 18.6816 58.3492 18.5217C58.3283 18.5227 58.3079 18.5153 58.2925 18.5012C58.277 18.4871 58.2678 18.4674 58.2669 18.4465C58.266 18.4257 58.2733 18.4053 58.2874 18.3898C58.3015 18.3744 58.3212 18.3652 58.3421 18.3642Z" fill="#323A43"/>
<path d="M53.3599 10.7546C54.5098 9.50856 56.1231 9.4277 57.6933 9.60748C57.7783 9.6001 57.7598 9.76638 57.6725 9.74762C56.8914 9.65626 56.1 9.77674 55.3814 10.0964C54.6628 10.4161 54.0435 10.9233 53.5884 11.5647C52.6966 12.7487 52.7485 14.3317 52.9621 15.7293C53.3608 18.4341 54.748 20.8951 56.8556 22.6367C56.863 22.6421 56.868 22.6504 56.8694 22.6595C56.8708 22.6686 56.8686 22.678 56.8631 22.6854C56.8576 22.6929 56.8494 22.6979 56.8403 22.6993C56.8311 22.7007 56.8218 22.6984 56.8143 22.693C55.6081 21.7941 54.598 20.6585 53.846 19.3556C53.094 18.0527 52.616 16.61 52.4411 15.1159C52.2747 13.6549 52.3067 11.9 53.3599 10.7546Z" fill="#323A43"/>
<path d="M59.8132 24.0592C59.8132 24.0592 57.0505 20.8667 55.5784 21.8857C54.1064 22.9048 56.4312 27.7052 58.3349 28.2001C58.5747 28.2802 58.8282 28.3109 59.0802 28.2904C59.3322 28.2699 59.5775 28.1986 59.8012 28.0808C60.0248 27.963 60.2224 27.8011 60.3818 27.6049C60.5413 27.4087 60.6594 27.1822 60.729 26.9391L59.8132 24.0592Z" fill="#F7A9A0"/>
<path d="M56.2715 23.2426C56.2661 23.2437 56.2611 23.2466 56.2574 23.2508C56.2537 23.2549 56.2514 23.2602 56.2509 23.2657C56.2503 23.2713 56.2516 23.2768 56.2545 23.2816C56.2573 23.2864 56.2616 23.2902 56.2668 23.2923C57.6045 23.6806 58.406 24.8019 59.0077 25.9879C58.5711 25.5517 58.0288 25.3469 57.4388 25.8668C57.4075 25.8949 57.4316 25.9426 57.4803 25.9329C57.6987 25.8372 57.9413 25.8115 58.1748 25.8595C58.4083 25.9075 58.6212 26.0268 58.7841 26.2008C59.0537 26.4948 59.2914 26.8164 59.4935 27.1603C59.5645 27.2675 59.7659 27.1863 59.709 27.0566L59.6949 27.0289C59.5566 25.3971 58.0463 23.2351 56.2715 23.2426Z" fill="#323A43"/>
</svg>
