<svg width="312" height="312" viewBox="0 0 312 312" fill="none" xmlns="http://www.w3.org/2000/svg">
<path d="M48.0521 214.054L39.8652 214.229L35.7094 214.298C34.3178 214.329 32.9201 214.298 31.5286 214.335H31.254V214.054L31.2166 207.09V206.778H31.5286L39.7903 206.816C42.5484 206.816 45.3002 206.891 48.0521 206.922H48.2268V207.09C48.2268 208.276 48.1706 209.455 48.1457 210.616L48.0521 214.054ZM48.0521 214.054L47.9647 210.529C47.9647 209.362 47.8961 208.214 47.8836 207.072L48.0521 207.24C45.3002 207.278 42.5484 207.34 39.7903 207.346L31.5286 207.384L31.8406 207.072V214.054L31.5598 213.78C32.9201 213.78 34.2804 213.78 35.647 213.78L39.7529 213.848L48.0521 214.054Z" fill="#E2E8F0"/>
<path d="M38.8355 222.859L30.6486 223.034L26.4928 223.102C25.1013 223.102 23.7035 223.102 22.312 223.14H22.0374V222.859L22 215.876V215.564H22.312L30.5738 215.602C33.3256 215.602 36.0837 215.677 38.8355 215.708H39.0102V215.876C39.0102 217.062 38.9603 218.241 38.9291 219.402L38.8355 222.859ZM38.8355 222.859L38.7482 219.333C38.7482 218.166 38.6795 217.018 38.667 215.876L38.8355 216.045C36.0837 216.045 33.3256 216.145 30.5738 216.151L22.312 216.188L22.624 215.876L22.5928 222.859L22.312 222.584C23.6723 222.584 25.0326 222.584 26.3992 222.616L30.5051 222.684L38.8355 222.859Z" fill="#E2E8F0"/>
<path d="M103.963 138.113L95.7694 138.288L91.6136 138.357C90.222 138.388 88.8305 138.357 87.439 138.394H87.1582V138.113V131.131V130.819H87.4764L95.7382 130.856C98.49 130.856 101.242 130.931 104 130.962H104.168V131.131C104.168 132.316 104.112 133.496 104.087 134.656L103.963 138.113ZM103.963 138.113L103.869 134.588C103.869 133.421 103.8 132.273 103.788 131.131L103.963 131.299C101.204 131.331 98.4526 131.399 95.7008 131.405L87.439 131.443L87.7448 131.131V138.113L87.4702 137.833C88.8305 137.833 90.1846 137.833 91.5512 137.87L95.6571 137.939L103.963 138.113Z" fill="#E2E8F0"/>
<path d="M94.7396 146.918L86.5527 147.093L82.3969 147.161C81.0053 147.161 79.6138 147.161 78.2161 147.199H77.9415V146.918L77.9041 139.936V139.624H78.2161L86.4778 139.661C89.2359 139.661 91.9877 139.736 94.7396 139.767H94.9143V139.936C94.9143 141.121 94.8581 142.3 94.8332 143.461L94.7396 146.918ZM94.7396 146.918L94.6522 143.392C94.6522 142.226 94.5836 141.077 94.5711 139.936L94.7396 140.104C91.9877 140.104 89.2359 140.204 86.4778 140.21L78.2161 140.248L78.5281 139.936L78.4969 146.918L78.2161 146.637C79.5826 146.637 80.9367 146.637 82.3032 146.675L86.4092 146.743L94.7396 146.918Z" fill="#E2E8F0"/>
<path d="M85.5605 138.113L77.3737 138.288L73.2116 138.357C71.8263 138.388 70.4285 138.357 69.037 138.394H68.7625V138.113V131.131V130.819H69.0745L77.3362 130.856C80.088 130.856 82.8461 130.931 85.598 130.962H85.7477V131.131C85.7477 132.316 85.6978 133.496 85.6666 134.656L85.5605 138.113ZM85.5605 138.113L85.4732 134.588C85.442 133.421 85.4045 132.273 85.392 131.131L85.5605 131.299C82.8087 131.331 80.0506 131.399 77.2988 131.405L69.037 131.443L69.349 131.131V138.113L69.0682 137.833C70.4285 137.833 71.7889 137.833 73.1554 137.87L77.2613 137.939L85.5605 138.113Z" fill="#E2E8F0"/>
<path d="M288.96 222.859L280.767 223.034L276.611 223.102C275.226 223.102 273.828 223.102 272.436 223.14H272.155V222.859L272.124 215.876V215.564H272.436L280.698 215.602C283.45 215.602 286.208 215.677 288.96 215.708H289.128V215.876C289.128 217.062 289.078 218.241 289.047 219.402L288.96 222.859ZM288.96 222.859L288.872 219.333C288.872 218.166 288.798 217.018 288.791 215.876L288.96 216.045C286.208 216.045 283.45 216.145 280.698 216.151L272.436 216.188L272.748 215.876L272.711 222.859L272.436 222.584C273.797 222.584 275.157 222.584 276.517 222.616L280.623 222.684L288.96 222.859Z" fill="#E2E8F0"/>
<path d="M222.31 86.6583L214.117 86.8331L209.961 86.9017C208.57 86.9017 207.178 86.9017 205.787 86.9391H205.506V86.6583L205.475 79.6758V79.3638H205.793L214.055 79.4012C216.806 79.4012 219.558 79.4761 222.316 79.5073H222.485V79.6758C222.485 80.8614 222.429 82.0407 222.404 83.2014L222.31 86.6583ZM222.31 86.6583L222.217 83.1327C222.217 81.9659 222.148 80.8177 222.135 79.6758L222.31 79.8443C219.552 79.8443 216.8 79.9441 214.048 79.9503L205.787 79.9878L206.092 79.6758L206.061 86.6583L205.787 86.3775C207.147 86.3775 208.501 86.3775 209.868 86.415L213.973 86.4836L222.31 86.6583Z" fill="#E2E8F0"/>
<path d="M279.743 45.8425L271.55 46.0172L267.394 46.0983C266.009 46.1295 264.611 46.0983 263.22 46.1358H262.964V45.855V38.8724V38.5604H263.282L271.544 38.6041C274.296 38.6041 277.048 38.6727 279.806 38.7039H279.974V38.8724C279.974 40.058 279.918 41.2374 279.893 42.4043L279.743 45.8425ZM279.743 45.8425L279.656 42.3169C279.625 41.1563 279.581 40.0019 279.568 38.8599L279.743 39.0284C276.985 39.0659 274.233 39.1283 271.481 39.1345L263.22 39.1719L263.532 38.8599L263.494 45.8425L263.22 45.5679C264.58 45.5679 265.934 45.5679 267.301 45.5991L271.407 45.6678L279.743 45.8425Z" fill="#E2E8F0"/>
<path d="M288.96 54.6472L280.767 54.8344L276.611 54.9031C275.226 54.9031 273.828 54.9031 272.436 54.9405H272.155V54.6472L272.124 47.6647V47.3464H272.436L280.698 47.3901C283.45 47.3901 286.208 47.4588 288.96 47.49H289.128V47.6584C289.128 48.844 289.078 50.0234 289.047 51.1903L288.96 54.6472ZM288.96 54.6472L288.872 51.1216C288.872 49.9548 288.798 48.8066 288.791 47.6647L288.96 47.8332C286.208 47.8706 283.45 47.933 280.698 47.9392L272.436 47.9704L272.748 47.6584L272.711 54.641L272.436 54.3664C273.797 54.3664 275.157 54.3664 276.517 54.3664L280.623 54.4351L288.96 54.6472Z" fill="#E2E8F0"/>
<path d="M41.8121 45.8425L33.6252 46.0173L29.4694 46.0984C28.0778 46.1296 26.6801 46.0984 25.2886 46.1358H25.014V45.855L24.9766 38.86V38.548H25.2886L33.5503 38.6104C36.3084 38.6104 39.0602 38.679 41.8121 38.7102H41.9868V38.8787C41.9868 40.0643 41.9306 41.2437 41.9057 42.4105L41.8121 45.8425ZM41.8121 45.8425L41.7247 42.3169C41.7247 41.1563 41.6561 40.0019 41.6436 38.86L41.8121 39.0285C39.0602 39.0659 36.3084 39.1283 33.5503 39.1345L25.2886 39.172L25.6006 38.86V45.8425L25.3198 45.568C26.6801 45.568 28.0404 45.568 29.407 45.5992L33.5129 45.6678L41.8121 45.8425Z" fill="#E2E8F0"/>
<path d="M76.748 72.6075C81.0524 61.9804 75.9269 49.8761 65.2998 45.5717C54.6728 41.2673 42.5684 46.3928 38.264 57.0199C33.9596 67.6469 39.0851 79.7512 49.7122 84.0556C60.3393 88.36 72.4436 83.2345 76.748 72.6075Z" fill="#E2E8F0"/>
<path d="M58.4603 85.0797C69.3987 85.0797 78.2661 76.2123 78.2661 65.2739C78.2661 54.3355 69.3987 45.4681 58.4603 45.4681C47.5219 45.4681 38.6545 54.3355 38.6545 65.2739C38.6545 76.2123 47.5219 85.0797 58.4603 85.0797Z" fill="#CBD5E0"/>
<path d="M76.8884 67.5246C78.1321 57.3512 70.8932 48.0958 60.7197 46.852C50.5463 45.6083 41.2909 52.8472 40.0471 63.0207C38.8034 73.1941 46.0424 82.4495 56.2158 83.6933C66.3892 84.937 75.6446 77.6981 76.8884 67.5246Z" fill="white"/>
<path opacity="0.5" d="M76.5938 61.3302C68.1448 66.4533 54.2546 74.8523 46.492 79.4574C44.3046 77.6048 42.5767 75.2702 41.4438 72.6371L67.0965 48.844C69.4942 50.1068 71.5867 51.8788 73.2273 54.0358C74.8679 56.1927 76.0169 58.6824 76.5938 61.3302Z" fill="#E2E8F0"/>
<path opacity="0.5" d="M77.0118 65.9166C76.9368 67.9837 76.515 70.0235 75.7638 71.9507L52.6321 82.9144C51.6225 82.5834 50.6433 82.1659 49.7056 81.6664C56.7006 77.5979 69.4739 70.2472 77.0118 65.9166Z" fill="#E2E8F0"/>
<path d="M58.635 48.064H58.2793V50.8782H58.635V48.064Z" fill="#CBD5E0"/>
<path d="M50.0161 50.2738L49.7026 50.4547L51.1098 52.8919L51.4232 52.711L50.0161 50.2738Z" fill="#CBD5E0"/>
<path d="M43.64 56.5094L43.4622 56.8174L45.8994 58.2245L46.0772 57.9165L43.64 56.5094Z" fill="#CBD5E0"/>
<path d="M44.0647 65.0929H41.2505V65.4486H44.0647V65.0929Z" fill="#CBD5E0"/>
<path d="M45.9035 72.3115L43.4663 73.7186L43.6441 74.0267L46.0813 72.6195L45.9035 72.3115Z" fill="#CBD5E0"/>
<path d="M51.1053 77.652L49.6995 80.09L50.013 80.2708L51.4188 77.8328L51.1053 77.652Z" fill="#CBD5E0"/>
<path d="M58.635 79.6696H58.2793V82.4838H58.635V79.6696Z" fill="#CBD5E0"/>
<path d="M65.8173 77.6502L65.5039 77.8312L66.911 80.2684L67.2245 80.0874L65.8173 77.6502Z" fill="#CBD5E0"/>
<path d="M71.0126 72.316L70.8347 72.624L73.2719 74.0311L73.4498 73.7231L71.0126 72.316Z" fill="#CBD5E0"/>
<path d="M75.6702 65.0929H72.856V65.4486H75.6702V65.0929Z" fill="#CBD5E0"/>
<path d="M73.5736 56.7056L71.1252 58.1127L71.3031 58.4221L73.7515 57.015L73.5736 56.7056Z" fill="#CBD5E0"/>
<path d="M66.91 50.2752L65.5042 52.7131L65.8177 52.8939L67.2235 50.456L66.91 50.2752Z" fill="#CBD5E0"/>
<path d="M58.7287 49.3369L59.3402 66.5219L57.5806 66.5032L58.2482 49.3307L58.7287 49.3369Z" fill="#CBD5E0"/>
<path d="M69.4364 59.2772L57.8736 66.6591L57.0312 65.1116L69.2055 58.8591L69.4364 59.2772Z" fill="#A9B9CC"/>
<path d="M59.0594 65.2739C59.0235 65.406 58.9451 65.5227 58.8362 65.6059C58.7274 65.6891 58.5942 65.7342 58.4573 65.7342C58.3203 65.7342 58.1871 65.6891 58.0783 65.6059C57.9694 65.5227 57.891 65.406 57.8551 65.2739C57.8299 65.1813 57.8265 65.0842 57.8449 64.9901C57.8634 64.896 57.9033 64.8074 57.9615 64.7312C58.0198 64.655 58.0948 64.5933 58.1808 64.5508C58.2667 64.5083 58.3613 64.4862 58.4573 64.4862C58.5532 64.4862 58.6478 64.5083 58.7337 64.5508C58.8197 64.5933 58.8947 64.655 58.953 64.7312C59.0112 64.8074 59.0511 64.896 59.0696 64.9901C59.088 65.0842 59.0846 65.1813 59.0594 65.2739Z" fill="#CBD5E0"/>
<path d="M51.4839 181.937V288.46H115.874V181.937H51.4839ZM57.3308 221.442H110.028V249.167H57.3308V221.442ZM57.3308 187.122H110.028V214.847H57.3308V187.122Z" fill="#CBD5E0"/>
<path d="M22.3619 288.454H51.4778L51.4778 181.937H22.3619L22.3619 288.454Z" fill="#E2E8F0"/>
<path d="M97.5039 214.809H110.028V187.079H97.5039V214.809Z" fill="#E2E8F0"/>
<path d="M109.853 281.927H57.1687V255.176H109.853V281.927ZM57.4807 281.615H109.541V255.488H57.4807V281.615Z" fill="#E2E8F0"/>
<path d="M78.3159 266.57H88.718V262.77H78.3159V266.57Z" fill="#E2E8F0"/>
<path d="M97.5039 249.148H110.028V221.417H97.5039V249.148Z" fill="#E2E8F0"/>
<path d="M73.3489 249.142V223.576H64.538V249.142H73.3489Z" fill="#A9B9CC"/>
<path d="M73.3428 245.042V239.526H64.5319V245.042H73.3428Z" fill="#CBD5E0"/>
<path d="M73.3489 235.083V231.813H64.538V235.083H73.3489Z" fill="#CBD5E0"/>
<path d="M46.7042 181.906H68.9685V160.509H46.7042V181.906Z" fill="#E2E8F0"/>
<path d="M38.2427 181.906H46.7041V160.509H38.2427V181.906Z" fill="#CBD5E0"/>
<path d="M68.9684 171.21H46.7041L64.095 171.76L68.9684 171.21Z" fill="#CBD5E0"/>
<path d="M46.7041 179.322H68.9684L51.5775 179.872L46.7041 179.322Z" fill="#CBD5E0"/>
<path d="M68.9684 165.232H54.866L67.4021 165.682L68.9684 165.232Z" fill="#CBD5E0"/>
<path d="M46.7041 176.171H60.8065L48.2703 176.627L46.7041 176.171Z" fill="#CBD5E0"/>
<path d="M63.627 162.849H47.7212L50.3732 163.117L63.627 162.849Z" fill="#CBD5E0"/>
<path d="M66.8032 173.507H50.8975L53.5495 173.775L66.8032 173.507Z" fill="#CBD5E0"/>
<path d="M57.0252 167.267H46.7042L44.8572 167.984L57.0252 167.267Z" fill="#E2E8F0"/>
<path d="M71.8139 167.267H61.4929L59.6521 167.984L71.8139 167.267Z" fill="#E2E8F0"/>
<path d="M58.5728 176.883H68.8875L70.7345 177.6L58.5728 176.883Z" fill="#E2E8F0"/>
<path d="M46.7042 174.443H38.4175L36.5767 175.16L46.7042 174.443Z" fill="#CBD5E0"/>
<path d="M43.8089 171.21H37.3879L38.2428 170.624L43.8089 171.21Z" fill="#CBD5E0"/>
<path d="M72.3941 214.809H94.6584V193.412H72.3941V214.809Z" fill="#E2E8F0"/>
<path d="M63.9328 214.809H72.3943V193.412H63.9328V214.809Z" fill="#CBD5E0"/>
<path d="M94.6586 204.114H72.3943L89.7852 204.663L94.6586 204.114Z" fill="#CBD5E0"/>
<path d="M72.3943 212.226H94.6586L77.274 212.781L72.3943 212.226Z" fill="#CBD5E0"/>
<path d="M94.6586 198.136H80.5562L93.0923 198.585L94.6586 198.136Z" fill="#CBD5E0"/>
<path d="M72.3943 209.081H86.4967L73.9605 209.524L72.3943 209.081Z" fill="#CBD5E0"/>
<path d="M89.3171 195.752H73.4114L76.0634 196.021L89.3171 195.752Z" fill="#CBD5E0"/>
<path d="M92.4932 206.41H76.5874L79.2394 206.679L92.4932 206.41Z" fill="#CBD5E0"/>
<path d="M82.7152 200.17H72.3943L70.5535 200.888L82.7152 200.17Z" fill="#E2E8F0"/>
<path d="M97.504 200.17H87.1831L85.3423 200.888L97.504 200.17Z" fill="#E2E8F0"/>
<path d="M84.2627 209.786H94.5837L96.4245 210.504L84.2627 209.786Z" fill="#E2E8F0"/>
<path d="M72.3941 207.346H64.1074L62.2666 208.064L72.3941 207.346Z" fill="#CBD5E0"/>
<path d="M69.5051 204.114H63.0779L63.9328 203.527L69.5051 204.114Z" fill="#CBD5E0"/>
<path d="M64.5319 221.873H57.3247V249.148H64.5319V221.873Z" fill="#E2E8F0"/>
<path d="M60.9313 227.252C61.229 227.252 61.52 227.163 61.7675 226.998C62.0149 226.832 62.2077 226.597 62.3213 226.322C62.4349 226.047 62.4643 225.744 62.4058 225.452C62.3473 225.16 62.2034 224.892 61.9925 224.682C61.7816 224.472 61.513 224.33 61.2209 224.272C60.9288 224.215 60.6262 224.246 60.3515 224.36C60.0768 224.475 59.8424 224.669 59.6779 224.917C59.5134 225.165 59.4263 225.457 59.4275 225.754C59.4292 226.152 59.5883 226.533 59.8702 226.814C60.152 227.094 60.5336 227.252 60.9313 227.252Z" fill="white"/>
<path d="M60.9315 226.609C61.102 226.609 61.2688 226.558 61.4105 226.464C61.5523 226.369 61.6626 226.234 61.7276 226.076C61.7926 225.918 61.8093 225.745 61.7755 225.578C61.7418 225.41 61.6592 225.257 61.5381 225.137C61.4171 225.017 61.263 224.935 61.0956 224.903C60.9281 224.87 60.7548 224.888 60.5976 224.954C60.4403 225.02 60.3063 225.132 60.2124 225.274C60.1186 225.417 60.0691 225.584 60.0703 225.754C60.072 225.982 60.1634 226.199 60.3247 226.359C60.4861 226.519 60.7042 226.609 60.9315 226.609Z" fill="#A9B9CC"/>
<path d="M64.5317 244.842V238.209H57.3245V244.842H64.5317Z" fill="white"/>
<path d="M100.624 243.513H73.3489V249.185H100.624V243.513Z" fill="#CBD5E0"/>
<path d="M78.7279 246.352C78.7291 246.055 78.642 245.763 78.4775 245.515C78.313 245.267 78.0786 245.073 77.8039 244.959C77.5292 244.844 77.2266 244.813 76.9345 244.871C76.6424 244.928 76.3738 245.071 76.1629 245.281C75.952 245.491 75.8081 245.759 75.7496 246.051C75.691 246.342 75.7205 246.645 75.8341 246.92C75.9477 247.195 76.1405 247.431 76.3879 247.596C76.6353 247.762 76.9263 247.85 77.224 247.85C77.6218 247.85 78.0034 247.693 78.2852 247.412C78.5671 247.131 78.7262 246.75 78.7279 246.352Z" fill="white"/>
<path d="M78.0851 246.352C78.0952 246.234 78.0806 246.114 78.0421 246.001C78.0036 245.888 77.942 245.785 77.8614 245.697C77.7807 245.609 77.6827 245.539 77.5735 245.491C77.4643 245.443 77.3463 245.418 77.2271 245.418C77.1078 245.418 76.9899 245.443 76.8807 245.491C76.7715 245.539 76.6735 245.609 76.5928 245.697C76.5122 245.785 76.4506 245.888 76.4121 246.001C76.3736 246.114 76.3589 246.234 76.3691 246.352C76.3874 246.567 76.4858 246.768 76.6447 246.913C76.8035 247.059 77.0114 247.14 77.2271 247.14C77.4428 247.14 77.6506 247.059 77.8095 246.913C77.9684 246.768 78.0667 246.567 78.0851 246.352Z" fill="#A9B9CC"/>
<path d="M96.3184 243.513H89.6853V249.185H96.3184V243.513Z" fill="white"/>
<path d="M115.194 38.9973H196.077V156.06H115.194V38.9973ZM193.7 41.356H117.572V153.676H193.7V41.356Z" fill="#E2E8F0"/>
<path d="M156.815 41.9738H154.457V154.88H156.815V41.9738Z" fill="#E2E8F0"/>
<path d="M113.054 47.0531L198.218 47.0531V43.7646L113.054 43.7646V47.0531Z" fill="#E2E8F0"/>
<path d="M113.054 50.7534L198.218 50.7534V47.4649L113.054 47.4649V50.7534Z" fill="#E2E8F0"/>
<path d="M113.054 54.4537L198.218 54.4537V51.1653L113.054 51.1653V54.4537Z" fill="#E2E8F0"/>
<path d="M113.054 58.1541L198.218 58.1541V54.8656L113.054 54.8656V58.1541Z" fill="#E2E8F0"/>
<path d="M113.054 61.8606L198.218 61.8606V58.5721L113.054 58.5721V61.8606Z" fill="#E2E8F0"/>
<path d="M113.054 65.5609L198.218 65.5609V62.2724L113.054 62.2724V65.5609Z" fill="#E2E8F0"/>
<path d="M113.054 69.2612L198.218 69.2612V65.9727L113.054 65.9727V69.2612Z" fill="#E2E8F0"/>
<path d="M113.054 72.9615L198.218 72.9615V69.6731L113.054 69.6731V72.9615Z" fill="#E2E8F0"/>
<path d="M113.054 76.6619L198.218 76.6619V73.3734L113.054 73.3734V76.6619Z" fill="#E2E8F0"/>
<path d="M120.661 43.1031H120.068V118.913H120.661V43.1031Z" fill="#202327"/>
<path d="M119.319 121.659H121.416L120.885 118.651H119.843L119.319 121.659Z" fill="#202327"/>
<path d="M118.533 43.1031H117.94V152.771H118.533V43.1031Z" fill="#202327"/>
<path d="M117.191 154.986H119.288L118.764 151.972H117.715L117.191 154.986Z" fill="#202327"/>
<path d="M109.391 45.412L201.88 45.412V38.5293L109.391 38.5293V45.412Z" fill="#CBD5E0"/>
<path d="M22.1333 287.197L55.5984 287.047L89.0635 286.991L156 286.891L222.936 286.991L256.402 287.047L289.867 287.197L256.402 287.353L222.936 287.409L156 287.509L89.0635 287.409L55.5984 287.353L22.1333 287.197Z" fill="#202327"/>
<path d="M257.962 90.8306H187.231V287.197H257.962V90.8306Z" fill="#E2E8F0"/>
<path d="M261.057 87.5483H184.13V90.8368H261.057V87.5483Z" fill="#CBD5E0"/>
<path d="M289.873 87.5483H261.063V90.8368H289.873V87.5483Z" fill="#E2E8F0"/>
<path d="M286.372 90.8306H257.961V287.197H286.372V90.8306Z" fill="#CBD5E0"/>
<path d="M251.147 244.896H194.064V216.361H251.166L251.147 244.896ZM194.363 244.584H250.848V216.673H194.357L194.363 244.584Z" fill="#CBD5E0"/>
<path d="M228.727 224.735H212.222V230.351H228.727V224.735Z" fill="#CBD5E0"/>
<path d="M231.772 230.089H214.956V225.003H231.772V230.089ZM215.268 229.777H231.46V225.315H215.28L215.268 229.777Z" fill="#CBD5E0"/>
<path d="M251.147 280.552H194.064V252.01H251.166L251.147 280.552ZM194.363 280.24H250.848V252.328H194.357L194.363 280.24Z" fill="#CBD5E0"/>
<path d="M228.727 260.39H212.222V266.006H228.727V260.39Z" fill="#CBD5E0"/>
<path d="M231.772 265.738H214.956V260.658H231.772V265.738ZM215.28 265.426H231.473V260.97H215.28V265.426Z" fill="#CBD5E0"/>
<path d="M251.147 209.241H194.064V180.712H251.166L251.147 209.241ZM194.363 208.929H250.848V181.024H194.357L194.363 208.929Z" fill="#CBD5E0"/>
<path d="M228.727 189.079H212.222V194.695H228.727V189.079Z" fill="#CBD5E0"/>
<path d="M231.772 194.433H214.956V189.348H231.772V194.433ZM215.268 194.121H231.46V189.66H215.28L215.268 194.121Z" fill="#CBD5E0"/>
<path d="M251.147 138.136H194.064V109.607H251.166L251.147 138.136ZM194.363 137.824H250.848V109.919H194.357L194.363 137.824Z" fill="#CBD5E0"/>
<path d="M228.727 117.975H212.222V123.591H228.727V117.975Z" fill="#CBD5E0"/>
<path d="M231.772 123.329H214.956V118.243H231.772V123.329ZM215.268 123.017H231.46V118.555H215.28L215.268 123.017Z" fill="#CBD5E0"/>
<path d="M250.991 145.212H200.934V173.436H250.991V145.212Z" fill="#CBD5E0"/>
<path d="M244.727 136.557H200.959V168.281H244.727V136.557Z" fill="#2F80ED"/>
<path d="M216.422 133.269H200.959V136.557H217.314L216.422 133.269Z" fill="#2F80ED"/>
<g opacity="0.3">
<path d="M244.727 136.557H200.959V168.281H244.727V136.557Z" fill="black"/>
<path d="M216.422 133.269H200.959V136.557H217.314L216.422 133.269Z" fill="black"/>
</g>
<path d="M215.124 134.554H202.475V136.464H215.124V134.554Z" fill="white"/>
<path d="M244.726 168.282H200.959L200.641 138.523H244.408L244.726 168.282Z" fill="#2F80ED"/>
<path d="M216.072 135.509H200.61L200.641 138.523H216.996L216.072 135.509Z" fill="#2F80ED"/>
<g opacity="0.1">
<path d="M244.726 168.282H200.959L200.641 138.523H244.408L244.726 168.282Z" fill="black"/>
<path d="M216.072 135.509H200.61L200.641 138.523H216.996L216.072 135.509Z" fill="black"/>
</g>
<path d="M242.536 134.317H198.769V166.041H242.536V134.317Z" fill="#2F80ED"/>
<path d="M214.232 131.035H198.769V134.317H215.118L214.232 131.035Z" fill="#2F80ED"/>
<g opacity="0.3">
<path d="M242.536 134.317H198.769V166.041H242.536V134.317Z" fill="black"/>
<path d="M214.232 131.035H198.769V134.317H215.118L214.232 131.035Z" fill="black"/>
</g>
<path d="M212.934 132.314H200.285V134.224H212.934V132.314Z" fill="white"/>
<path d="M242.536 166.041H198.769L198.451 136.283H242.218L242.536 166.041Z" fill="#2F80ED"/>
<path d="M213.882 133.269H198.419L198.451 136.283H214.806L213.882 133.269Z" fill="#2F80ED"/>
<g opacity="0.1">
<path d="M242.536 166.041H198.769L198.451 136.283H242.218L242.536 166.041Z" fill="black"/>
<path d="M213.882 133.269H198.419L198.451 136.283H214.806L213.882 133.269Z" fill="black"/>
</g>
<path d="M223.155 120.695H179.387V152.419H223.155V120.695Z" fill="#2F80ED"/>
<path d="M194.85 117.407H179.387V120.695H195.736L194.85 117.407Z" fill="#2F80ED"/>
<g opacity="0.2">
<path d="M223.155 120.695H179.387V152.419H223.155V120.695Z" fill="black"/>
<path d="M194.85 117.407H179.387V120.695H195.736L194.85 117.407Z" fill="black"/>
</g>
<path d="M193.558 118.399H180.91V120.308H193.558V118.399Z" fill="white"/>
<path d="M223.036 152.419H179.269L175.893 123.328H219.66L223.036 152.419Z" fill="#2F80ED"/>
<path d="M191.006 120.315H175.544L175.893 123.328H192.248L191.006 120.315Z" fill="#2F80ED"/>
<path d="M216.709 135.222H172.941V166.946H216.709V135.222Z" fill="#2F80ED"/>
<path d="M188.404 131.933H172.935V135.222H189.29L188.404 131.933Z" fill="#2F80ED"/>
<g opacity="0.2">
<path d="M216.709 135.222H172.942V166.946H216.709V135.222Z" fill="white"/>
<path d="M188.404 131.933H172.935V135.222H189.29L188.404 131.933Z" fill="white"/>
</g>
<path d="M187.106 133.219H174.458V135.128H187.106V133.219Z" fill="white"/>
<path d="M216.703 166.946H172.935L172.623 137.188H216.384L216.703 166.946Z" fill="#2F80ED"/>
<path d="M188.049 134.174H172.586L172.623 137.188H188.972L188.049 134.174Z" fill="#2F80ED"/>
<g opacity="0.4">
<path d="M216.703 166.946H172.935L172.623 137.188H216.384L216.703 166.946Z" fill="white"/>
<path d="M188.049 134.174H172.586L172.623 137.188H188.972L188.049 134.174Z" fill="white"/>
</g>
<path d="M226.88 145.212H170.09V173.436H226.88V145.212Z" fill="#E2E8F0"/>
<path d="M227.03 173.585H169.934V145.056H227.03V173.585ZM170.246 173.273H226.718V145.368H170.246V173.273Z" fill="#CBD5E0"/>
<path d="M204.61 153.424H188.105V159.04H204.61V153.424Z" fill="#CBD5E0"/>
<path d="M207.661 158.778H190.813V153.692H207.661V158.778ZM191.15 158.466H207.374V154.004H191.15V158.466Z" fill="#CBD5E0"/>
<path d="M250.991 149.437H226.999V173.429H250.991V149.437Z" fill="#CBD5E0"/>
<path d="M202.332 147.914H194.632V151.159H202.332V147.914Z" fill="white"/>
<path d="M202.332 148.638H194.632V148.95H202.332V148.638Z" fill="#2F80ED"/>
<path d="M202.332 150.129H194.632V150.441H202.332V150.129Z" fill="#2F80ED"/>
<path d="M226.449 112.652H218.749V115.897H226.449V112.652Z" fill="white"/>
<path d="M226.449 113.376H218.749V113.688H226.449V113.376Z" fill="#2F80ED"/>
<path d="M226.449 114.861H218.749V115.173H226.449V114.861Z" fill="#2F80ED"/>
<path d="M226.499 183.769H218.799V187.014H226.499V183.769Z" fill="white"/>
<path d="M226.499 184.487H218.799V184.799H226.499V184.487Z" fill="#2F80ED"/>
<path d="M226.499 185.978H218.799V186.29H226.499V185.978Z" fill="#2F80ED"/>
<path d="M226.499 219.081H218.799V222.326H226.499V219.081Z" fill="white"/>
<path d="M226.499 219.799H218.799V220.111H226.499V219.799Z" fill="#2F80ED"/>
<path d="M226.499 221.29H218.799V221.602H226.499V221.29Z" fill="#2F80ED"/>
<path d="M226.499 254.393H218.799V257.638H226.499V254.393Z" fill="white"/>
<path d="M226.499 255.111H218.799V255.423H226.499V255.111Z" fill="#2F80ED"/>
<path d="M226.499 256.602H218.799V256.914H226.499V256.602Z" fill="#2F80ED"/>
<path d="M216.703 95.9349H194.201V104.078H216.703V95.9349Z" fill="white"/>
<path d="M216.703 97.8256H194.201V98.4496H216.703V97.8256Z" fill="#2F80ED"/>
<path d="M216.703 101.563H194.201V102.187H216.703V101.563Z" fill="#2F80ED"/>
<path d="M197.958 99.4169L199.274 97.938C199.307 97.8996 199.349 97.8691 199.395 97.8486C199.442 97.8281 199.492 97.8181 199.543 97.8194C199.579 97.8184 199.615 97.8258 199.648 97.841C199.682 97.8563 199.711 97.879 199.734 97.9073C199.757 97.9357 199.773 97.969 199.781 98.0046C199.789 98.0403 199.788 98.0772 199.78 98.1127L199.231 101.233C199.215 101.315 199.172 101.389 199.108 101.444C199.045 101.498 198.965 101.529 198.881 101.532C198.844 101.533 198.807 101.526 198.773 101.51C198.739 101.495 198.709 101.471 198.686 101.442C198.662 101.413 198.646 101.379 198.637 101.343C198.629 101.307 198.629 101.269 198.638 101.233L199.031 98.9988L198.082 100.06C198.05 100.097 198.01 100.128 197.964 100.149C197.919 100.171 197.87 100.183 197.82 100.184C197.775 100.186 197.73 100.175 197.691 100.153C197.651 100.131 197.618 100.099 197.596 100.06L197.022 98.9988L196.628 101.233C196.613 101.314 196.571 101.388 196.509 101.442C196.447 101.496 196.368 101.528 196.285 101.532C196.247 101.534 196.21 101.527 196.175 101.512C196.14 101.497 196.11 101.474 196.085 101.445C196.061 101.416 196.044 101.382 196.035 101.345C196.027 101.308 196.027 101.27 196.036 101.233L196.591 98.1127C196.607 98.0311 196.65 97.9575 196.714 97.9041C196.777 97.8507 196.857 97.8208 196.94 97.8194C196.985 97.8142 197.031 97.8235 197.07 97.846C197.109 97.8684 197.141 97.9028 197.159 97.9442L197.958 99.4169Z" fill="#CBD5E0"/>
<path d="M202.869 99.5853L202.575 101.226C202.508 101.579 202.322 101.899 202.049 102.133C201.775 102.366 201.431 102.5 201.071 102.512C200.882 102.515 200.694 102.467 200.529 102.375C200.498 102.355 200.471 102.33 200.451 102.299C200.431 102.269 200.417 102.235 200.41 102.199C200.404 102.164 200.405 102.127 200.414 102.091C200.422 102.056 200.438 102.023 200.46 101.994C200.503 101.928 200.568 101.879 200.643 101.855C200.718 101.832 200.799 101.834 200.872 101.863C200.964 101.911 201.067 101.937 201.171 101.938C201.329 101.932 201.483 101.884 201.616 101.798C201.748 101.712 201.856 101.593 201.926 101.451C201.759 101.532 201.576 101.575 201.39 101.576C201.249 101.58 201.109 101.552 200.981 101.494C200.853 101.436 200.74 101.35 200.65 101.242C200.56 101.133 200.497 101.006 200.464 100.869C200.431 100.732 200.429 100.59 200.46 100.453L200.685 99.1734C200.701 99.0957 200.744 99.0258 200.805 98.9749C200.866 98.924 200.942 98.8951 201.022 98.8926C201.057 98.8908 201.093 98.8972 201.125 98.9114C201.158 98.9256 201.187 98.9471 201.21 98.9743C201.233 99.0015 201.249 99.0336 201.258 99.0681C201.266 99.1027 201.266 99.1387 201.259 99.1734L201.034 100.453C201.018 100.52 201.017 100.591 201.032 100.659C201.048 100.727 201.079 100.79 201.123 100.844C201.167 100.898 201.223 100.941 201.287 100.969C201.351 100.998 201.42 101.011 201.49 101.008C201.645 101.003 201.795 100.945 201.914 100.844C202.033 100.743 202.114 100.605 202.145 100.453L202.363 99.1734C202.376 99.1185 202.402 99.0673 202.438 99.0237C202.47 98.9845 202.51 98.9525 202.555 98.9299C202.6 98.9073 202.65 98.8946 202.7 98.8926C202.728 98.8902 202.756 98.8934 202.783 98.9019C202.81 98.9105 202.835 98.9243 202.856 98.9426C202.89 98.9691 202.916 99.005 202.931 99.046C202.945 99.087 202.947 99.1312 202.937 99.1734L202.869 99.5853Z" fill="#CBD5E0"/>
<path d="M206.276 98.7242V98.7991H206.432C206.468 98.7973 206.504 98.8039 206.538 98.8184C206.571 98.8329 206.601 98.8548 206.624 98.8826C206.648 98.9103 206.664 98.9431 206.673 98.9784C206.682 99.0137 206.683 99.0506 206.675 99.0861C206.659 99.1683 206.616 99.2428 206.553 99.2972C206.489 99.3517 206.409 99.3829 206.326 99.3857H206.17L205.839 101.258C205.823 101.339 205.78 101.413 205.716 101.466C205.652 101.52 205.572 101.55 205.489 101.551C205.453 101.552 205.417 101.545 205.384 101.529C205.35 101.514 205.321 101.491 205.298 101.463C205.275 101.435 205.259 101.401 205.251 101.366C205.243 101.33 205.244 101.293 205.252 101.258L205.583 99.3857H205.446C205.408 99.3877 205.37 99.3808 205.335 99.3657C205.301 99.3505 205.27 99.3275 205.246 99.2984C205.222 99.2694 205.205 99.235 205.196 99.1982C205.187 99.1613 205.187 99.123 205.196 99.0861C205.215 99.0067 205.26 98.9357 205.323 98.8839C205.386 98.8321 205.464 98.8023 205.546 98.7991H205.683V98.7242C205.705 98.5376 205.769 98.3585 205.87 98.2001C205.977 98.0451 206.133 97.9308 206.313 97.8756C206.418 97.8413 206.527 97.8244 206.638 97.8257C206.675 97.8237 206.713 97.8305 206.748 97.8456C206.782 97.8608 206.813 97.8838 206.837 97.9129C206.862 97.942 206.879 97.9763 206.887 98.0131C206.896 98.05 206.896 98.0884 206.887 98.1252C206.869 98.2057 206.825 98.2781 206.762 98.3312C206.699 98.3842 206.62 98.4149 206.538 98.4185H206.4H206.363C206.308 98.5111 206.278 98.6165 206.276 98.7242Z" fill="#CBD5E0"/>
<path d="M207.262 99.186C207.277 99.1054 207.32 99.0326 207.382 98.9793C207.444 98.926 207.523 98.8955 207.605 98.8927C207.642 98.8907 207.679 98.8973 207.713 98.9121C207.747 98.927 207.777 98.9495 207.8 98.978C207.824 99.0066 207.841 99.0402 207.849 99.0763C207.857 99.1124 207.857 99.15 207.848 99.186L207.461 101.27C207.445 101.35 207.402 101.422 207.34 101.476C207.278 101.529 207.2 101.56 207.118 101.563C207.081 101.565 207.044 101.558 207.01 101.544C206.976 101.529 206.945 101.506 206.921 101.478C206.897 101.45 206.88 101.416 206.871 101.38C206.862 101.344 206.861 101.307 206.869 101.27L207.262 99.186ZM207.649 98.562C207.611 98.5633 207.574 98.5559 207.541 98.5403C207.507 98.5247 207.477 98.5013 207.454 98.4722C207.431 98.443 207.415 98.4089 207.408 98.3724C207.4 98.336 207.402 98.2983 207.411 98.2625V98.1501C207.429 98.0696 207.473 97.9972 207.536 97.9441C207.599 97.8911 207.678 97.8604 207.761 97.8569C207.797 97.8561 207.834 97.8636 207.867 97.8788C207.9 97.894 207.93 97.9166 207.953 97.9448C207.977 97.973 207.993 98.0061 208.002 98.0416C208.011 98.0772 208.012 98.1143 208.004 98.1501V98.2625C207.983 98.3405 207.936 98.4095 207.872 98.459C207.808 98.5085 207.73 98.5359 207.649 98.537V98.562Z" fill="#CBD5E0"/>
<path d="M209.196 97.8319C209.233 97.8295 209.27 97.836 209.303 97.8508C209.337 97.8657 209.367 97.8884 209.39 97.9171C209.414 97.9459 209.43 97.9798 209.437 98.016C209.444 98.0522 209.443 98.0896 209.433 98.1252L208.884 101.245C208.866 101.326 208.823 101.4 208.759 101.454C208.696 101.508 208.617 101.54 208.534 101.545C208.497 101.546 208.46 101.538 208.426 101.523C208.392 101.507 208.362 101.484 208.339 101.455C208.315 101.426 208.299 101.392 208.291 101.356C208.282 101.319 208.282 101.281 208.291 101.245L208.846 98.1252C208.862 98.0436 208.905 97.97 208.969 97.9166C209.033 97.8632 209.113 97.8333 209.196 97.8319Z" fill="#CBD5E0"/>
<path d="M209.739 100.222C209.808 99.8602 209.998 99.5324 210.276 99.2914C210.554 99.0503 210.906 98.9099 211.274 98.8927C211.432 98.8842 211.59 98.9124 211.736 98.9751C211.881 99.0378 212.011 99.1332 212.113 99.254C212.216 99.3748 212.289 99.5177 212.328 99.6715C212.366 99.8253 212.368 99.9858 212.335 100.141C212.337 100.157 212.337 100.174 212.335 100.191C212.311 100.254 212.269 100.309 212.213 100.347C212.157 100.385 212.09 100.404 212.023 100.403H210.288C210.285 100.529 210.324 100.652 210.4 100.752C210.459 100.822 210.531 100.88 210.613 100.922C210.694 100.964 210.783 100.989 210.874 100.996C211.101 101.011 211.325 100.937 211.498 100.79C211.523 100.763 211.553 100.741 211.586 100.727C211.62 100.712 211.655 100.704 211.692 100.704C211.728 100.704 211.764 100.712 211.798 100.727C211.831 100.741 211.861 100.763 211.885 100.79C211.931 100.836 211.957 100.899 211.957 100.964C211.957 101.03 211.931 101.092 211.885 101.139C211.742 101.282 211.57 101.392 211.381 101.463C211.191 101.534 210.989 101.564 210.787 101.551C210.623 101.553 210.462 101.518 210.314 101.447C210.166 101.377 210.037 101.273 209.935 101.145C209.834 101.016 209.764 100.866 209.729 100.706C209.695 100.546 209.699 100.38 209.739 100.222ZM210.363 99.966H211.873C211.846 99.8057 211.763 99.6603 211.638 99.5561C211.513 99.452 211.355 99.3959 211.193 99.3981C211.014 99.4043 210.841 99.4609 210.693 99.5614C210.545 99.6619 210.428 99.8021 210.357 99.966H210.363Z" fill="#CBD5E0"/>
<path d="M212.734 100.796C212.759 100.766 212.789 100.741 212.824 100.722C212.858 100.704 212.896 100.693 212.935 100.689C212.974 100.686 213.013 100.69 213.051 100.702C213.088 100.714 213.122 100.733 213.152 100.758C213.292 100.898 213.479 100.978 213.676 100.983C213.812 100.984 213.945 100.949 214.063 100.883C214.151 100.821 214.188 100.771 214.194 100.734C214.198 100.713 214.198 100.692 214.194 100.671C214.179 100.646 214.16 100.623 214.138 100.602C214.01 100.531 213.871 100.482 213.726 100.459C213.575 100.432 213.429 100.386 213.289 100.322C213.159 100.25 213.054 100.138 212.99 100.003C212.948 99.8986 212.935 99.7843 212.952 99.6727C213.014 99.4352 213.16 99.2287 213.364 99.0924C213.573 98.9653 213.812 98.8964 214.057 98.8927C214.333 98.8996 214.596 99.006 214.8 99.1922C214.827 99.2162 214.85 99.2459 214.865 99.2793C214.88 99.3127 214.888 99.349 214.888 99.3857C214.888 99.4224 214.88 99.4586 214.865 99.492C214.85 99.5254 214.827 99.5551 214.8 99.5791C214.756 99.6417 214.691 99.6852 214.616 99.7004C214.542 99.7155 214.464 99.7011 214.4 99.6602C214.275 99.5431 214.115 99.4707 213.945 99.4543C213.824 99.452 213.705 99.4893 213.608 99.5604C213.56 99.5841 213.523 99.6239 213.502 99.6727C213.498 99.6871 213.498 99.702 213.502 99.7164L213.558 99.7725C213.666 99.8389 213.787 99.8795 213.913 99.8911C214.077 99.9165 214.235 99.9693 214.381 100.047C214.522 100.112 214.635 100.225 214.7 100.365C214.751 100.479 214.764 100.606 214.737 100.727C214.679 100.985 214.522 101.209 214.3 101.351C214.081 101.487 213.828 101.56 213.57 101.563C213.243 101.557 212.93 101.425 212.697 101.195C212.671 101.168 212.651 101.135 212.639 101.099C212.627 101.063 212.622 101.025 212.626 100.987C212.629 100.949 212.641 100.913 212.659 100.88C212.678 100.847 212.704 100.818 212.734 100.796Z" fill="#CBD5E0"/>
<path d="M195.312 49.6903C195.04 52.2909 194.05 54.7646 192.454 56.8357C190.858 58.9068 188.718 60.4938 186.273 61.4198C183.827 62.3458 181.173 62.5743 178.605 62.0799C176.038 61.5855 173.658 60.3876 171.731 58.6198L164.667 59.6556L168.231 53.5779C167.332 51.4218 166.988 49.0745 167.232 46.7513C167.622 43.0277 169.475 39.6114 172.383 37.2539C173.824 36.0867 175.48 35.2145 177.257 34.6872C179.034 34.1599 180.898 33.9878 182.742 34.1808C184.585 34.3738 186.373 34.928 188.003 35.8119C189.632 36.6958 191.072 37.892 192.239 39.3322C193.406 40.7723 194.278 42.4283 194.806 44.2056C195.333 45.9829 195.505 47.8466 195.312 49.6903Z" fill="white"/>
<path d="M195.312 49.6904C195.041 52.2937 194.054 54.771 192.46 56.8477C192.066 57.3657 191.639 57.8577 191.181 58.3203C190.711 58.7645 190.215 59.1812 189.696 59.5683C187.593 61.1406 185.101 62.1094 182.489 62.3701C181.837 62.4262 181.183 62.4387 180.529 62.4075C179.874 62.389 179.221 62.3201 178.576 62.2016C175.978 61.725 173.563 60.5369 171.6 58.7696L171.769 58.8195L164.736 59.899L164.224 59.9801L164.486 59.5309L168 53.4094V53.6528C167.173 51.6346 166.818 49.4538 166.964 47.2776C167.11 45.1014 167.753 42.9875 168.842 41.0979C169.944 39.217 171.457 37.6088 173.266 36.3929C175.074 35.1886 177.134 34.4158 179.288 34.1341C181.428 33.8365 183.608 34.0358 185.658 34.7165C187.709 35.3971 189.575 36.5409 191.113 38.059C192.643 39.5563 193.816 41.38 194.543 43.3941C195.271 45.4082 195.533 47.5605 195.312 49.6904ZM195.312 49.6904C195.536 47.5651 195.27 45.4168 194.533 43.4107C193.797 41.4046 192.61 39.5942 191.064 38.1187C189.518 36.6433 187.654 35.5421 185.616 34.9C183.577 34.2579 181.419 34.0919 179.306 34.4149C177.222 34.7375 175.238 35.5291 173.503 36.7299C171.778 37.9406 170.336 39.5119 169.279 41.335C168.24 43.1655 167.628 45.2068 167.488 47.3067C167.36 49.4016 167.699 51.4988 168.48 53.4469L168.53 53.5717L168.468 53.684L164.911 59.7805L164.661 59.4061L171.725 58.4139H171.825L171.893 58.4825C173.779 60.2485 176.119 61.4542 178.651 61.9645C179.283 62.0912 179.923 62.1684 180.567 62.1953C181.209 62.2421 181.853 62.2421 182.495 62.1953C183.776 62.0959 185.036 61.8165 186.239 61.3654C187.479 60.927 188.645 60.302 189.696 59.5121C190.22 59.1292 190.718 58.7123 191.187 58.2641C191.645 57.8041 192.075 57.3164 192.473 56.804C194.053 54.7377 195.035 52.2769 195.312 49.6904Z" fill="#202327"/>
<path d="M179.643 56.2736L173.622 50.1708L175.644 48.1678L179.163 51.7308L186.482 40.2617L188.879 41.7968L179.643 56.2736Z" fill="#2F80ED"/>
</svg>
