<svg width="117" height="234" viewBox="0 0 117 234" fill="none" xmlns="http://www.w3.org/2000/svg">
<path d="M106.536 233.184C105.106 233.646 64.4456 233.122 62.9155 232.111C62.2935 231.743 62.0571 225.79 61.9389 218.595C61.9389 218.52 61.9389 218.445 61.9389 218.37C61.9389 216.885 61.8954 215.356 61.8892 213.809C61.8892 213.597 61.8892 213.384 61.8892 213.185L63.8485 192L91.0485 192.275L88.3677 213.235L88.3366 214.065L88.1687 218.433V218.882C88.1687 218.882 103.638 226.07 105.211 227.356C106.785 228.641 107.961 232.741 106.536 233.184Z" fill="#F7A9A0"/>
<path d="M106.536 233.184C105.106 233.646 64.4456 233.122 62.9155 232.111C62.2935 231.743 62.0571 225.79 61.9389 218.595C61.9389 218.52 61.9389 218.445 61.9389 218.37C61.9389 216.885 61.8954 215.356 61.8892 213.809C61.8892 213.597 61.8892 213.384 61.8892 213.185L88.3801 213.26L88.349 214.09L88.1811 218.458V218.907C88.1811 218.907 103.65 226.095 105.224 227.381C106.798 228.666 107.961 232.741 106.536 233.184Z" fill="#E2E8F0"/>
<path d="M106.536 233.184C105.802 233.421 94.7553 233.396 83.9574 233.184C81.7866 233.14 79.6034 233.091 77.5695 233.034C69.8691 232.822 63.5061 232.504 62.9152 232.117C62.3243 231.73 62.063 225.964 61.9448 218.901C61.9448 218.801 61.9448 218.701 61.9448 218.601C61.9448 218.501 61.9448 218.445 61.9448 218.37H61.9759L88.1808 218.42V218.87C88.1808 218.87 103.656 226.052 105.224 227.337C106.791 228.623 107.96 232.741 106.536 233.184Z" fill="#4A5568"/>
<path d="M106.095 231.612C99.2526 231.356 71.5798 230.988 64.7876 231.231C64.7316 231.231 64.7316 231.268 64.7876 231.275C71.5736 231.674 99.2402 231.842 106.095 231.724C106.238 231.724 106.238 231.618 106.095 231.612Z" fill="#202327"/>
<path d="M83.9325 233.184C81.7617 233.14 79.5785 233.091 77.5446 233.034C69.8442 232.822 63.4811 232.504 62.8902 232.117C62.2993 231.73 62.0381 225.964 61.9199 218.901C61.9199 218.801 61.9199 218.701 61.9199 218.601C61.9199 218.501 61.9199 218.445 61.9199 218.37H61.951C65.5524 220.904 78.2039 229.353 83.9325 233.184Z" fill="#202327"/>
<path d="M91.0918 218.545C88.3985 218.002 85.0957 218.377 83.0058 220.274C82.9249 220.348 83.0058 220.461 83.1239 220.436C85.7115 219.638 88.3761 219.117 91.0731 218.882C91.1176 218.885 91.1613 218.869 91.1946 218.839C91.2278 218.809 91.2479 218.768 91.2504 218.723C91.2528 218.678 91.2375 218.634 91.2078 218.601C91.178 218.568 91.1363 218.548 91.0918 218.545Z" fill="#202327"/>
<path d="M94.9544 220.947C92.2611 220.405 88.9583 220.779 86.8684 222.682C86.7875 222.757 86.8684 222.869 86.9803 222.844C89.5664 222.04 92.2316 221.519 94.9295 221.291C94.9702 221.286 95.0081 221.268 95.0366 221.239C95.0652 221.209 95.0824 221.17 95.0854 221.13C95.0884 221.089 95.0769 221.048 95.0529 221.015C95.0289 220.981 94.994 220.958 94.9544 220.947Z" fill="#202327"/>
<path d="M93.0201 219.743C90.3331 219.206 87.024 219.575 84.9341 221.478C84.8533 221.553 84.9341 221.665 85.0461 221.64C87.6368 220.836 90.3059 220.313 93.0077 220.08C93.0449 220.071 93.0783 220.051 93.1026 220.021C93.1269 219.991 93.1409 219.955 93.1423 219.916C93.1437 219.878 93.1325 219.84 93.1104 219.809C93.0883 219.778 93.0566 219.755 93.0201 219.743Z" fill="#202327"/>
<path d="M75.5107 233.59C74.0863 234.058 33.4262 233.677 31.8899 232.679C31.2679 232.304 31.0066 226.358 30.8636 219.163C30.8636 219.088 30.8636 219.013 30.8636 218.938C30.8636 217.453 30.8076 215.93 30.8014 214.383C30.8014 214.165 30.8014 213.952 30.8014 213.759C30.7081 203.376 31.4234 192.599 31.4234 192.599L58.0014 192.774L57.2612 213.74V214.57L57.112 218.907V219.356C57.112 219.356 72.6122 226.482 74.1859 227.768C75.7595 229.053 76.9351 233.134 75.5107 233.59Z" fill="#F7A9A0"/>
<path d="M75.5106 233.59C74.0862 234.058 33.4261 233.677 31.8898 232.679C31.2678 232.304 31.0065 226.357 30.8635 219.163C30.8635 219.088 30.8635 219.013 30.8635 218.938C30.8635 217.453 30.8075 215.93 30.8013 214.383C30.8013 214.165 30.8013 213.952 30.8013 213.759H57.2922V214.589L57.143 218.926V219.375C57.143 219.375 72.6432 226.501 74.2169 227.786C75.7905 229.072 76.935 233.134 75.5106 233.59Z" fill="#E2E8F0"/>
<path d="M75.5109 233.59C74.0866 234.058 33.4264 233.677 31.8901 232.679C31.2681 232.304 31.0068 226.357 30.8638 219.163C30.8638 219.088 30.8638 219.013 30.8638 218.938L57.0997 218.888V219.337C57.0997 219.337 72.6 226.464 74.1736 227.749C75.7473 229.034 76.9353 233.134 75.5109 233.59Z" fill="#4A5568"/>
<path d="M75.0692 232.005C68.2272 231.774 40.5544 231.481 33.7622 231.774C33.7062 231.774 33.7062 231.818 33.7622 231.818C40.5482 232.198 68.2086 232.261 75.0692 232.117C75.2247 232.117 75.2247 232.011 75.0692 232.005Z" fill="#202327"/>
<path d="M60.0167 218.994C57.3234 218.464 54.0206 218.845 51.9307 220.754C51.8498 220.829 51.9307 220.941 52.0427 220.916C54.6264 220.105 57.2892 219.574 59.9856 219.331C60.0301 219.335 60.0745 219.322 60.1089 219.293C60.1433 219.264 60.165 219.223 60.1691 219.178C60.1732 219.134 60.1595 219.089 60.1309 219.055C60.1023 219.02 60.0612 218.999 60.0167 218.994Z" fill="#202327"/>
<path d="M61.9511 220.186C59.2579 219.656 55.955 220.043 53.8651 221.952C53.7843 222.027 53.8651 222.139 53.9771 222.108C56.5637 221.301 59.2283 220.772 61.9262 220.529C61.967 220.525 62.0049 220.507 62.0334 220.477C62.0619 220.448 62.0792 220.409 62.0821 220.368C62.0851 220.327 62.0736 220.287 62.0497 220.253C62.0257 220.22 61.9908 220.196 61.9511 220.186Z" fill="#202327"/>
<path d="M63.8855 221.384C61.1923 220.854 57.8895 221.235 55.7995 223.144C55.7187 223.219 55.7995 223.331 55.9115 223.306C58.4967 222.494 61.162 221.965 63.8607 221.727C63.9014 221.723 63.9393 221.705 63.9678 221.675C63.9964 221.646 64.0136 221.607 64.0166 221.566C64.0195 221.525 64.008 221.485 63.9841 221.451C63.9601 221.418 63.9252 221.394 63.8855 221.384Z" fill="#202327"/>
<path d="M89.9537 219H60.67C60.67 219 66.5665 150.36 66.3364 149.187C66.0441 147.652 64.3149 140.707 62.0135 131.634C61.292 128.795 60.5145 125.75 59.7059 122.592C57.5227 114.056 55.1155 104.727 53.0194 96.6091C49.8721 84.4474 47.4214 75 47.4214 75H72.2392C72.2392 75 75.1315 84.1978 78.7764 96.1661C84.7165 115.616 92.6532 142.386 93.4369 148.894C94.6996 159.408 89.9537 219 89.9537 219Z" fill="#323A43"/>
<path d="M71.8473 144.994C70.8894 140.745 69.4526 136.583 68.2023 132.414C65.6646 123.944 63.1123 115.481 60.5455 107.024C59.2642 102.793 57.9767 98.5622 56.6829 94.3315C56.0236 92.1974 55.3705 90.0634 54.7049 87.9355C54.0394 85.8077 53.3117 83.7797 52.727 81.6955C52.4844 80.8406 52.3538 81.3086 52.6586 82.3944C53.2806 84.5909 53.9026 86.7624 54.5246 88.9651C55.7686 93.2957 57.0374 97.6221 58.3312 101.944C60.869 110.556 63.4295 119.156 66.0129 127.747L69.8942 140.688C70.5533 142.734 71.0872 144.818 71.4927 146.928C71.8376 149.141 71.9253 151.385 71.754 153.618C71.4741 158.117 70.9516 162.603 70.5411 167.09C70.1305 171.576 69.7076 176.076 69.2971 180.568C68.4677 189.512 67.6488 198.456 66.8402 207.4C66.7406 208.53 66.6411 209.665 66.554 210.801C66.554 211.182 67.0952 211.151 67.1387 210.801C68.1028 201.959 68.843 193.086 69.6703 184.225C70.4975 175.364 71.3186 166.603 72.1583 157.786C72.3635 155.577 72.5937 153.362 72.5999 151.134C72.5795 149.066 72.327 147.006 71.8473 144.994Z" fill="#202327"/>
<path d="M69.4152 75C67.6922 88.3723 64.4081 113.445 62.0134 131.634C56.4154 109.595 47.415 75 47.415 75H69.4152Z" fill="#202327"/>
<path d="M71.4306 75C71.4306 75 70.8583 86.9122 68.1402 96.347C67.9225 97.127 67.6862 97.8946 67.4311 98.6309C64.94 99.6394 62.5457 100.874 60.2781 102.319C60.2781 102.319 59.992 111.903 59.7059 122.592C59.3887 134.542 59.0839 147.871 59.1274 150.672C59.3762 161.28 57.8088 219.431 57.8088 219.431L28.5312 219.55C28.5312 219.55 33.8245 154.604 33.7872 150.729C33.7312 144.489 35.2053 116.976 36.3436 96.9024C37.0402 84.5347 37.5876 75 37.5876 75H71.4306Z" fill="#323A43"/>
<path d="M56.8074 214.208C52.3352 214.133 53.6166 214.09 49.1444 214.065C46.9549 214.065 32.5743 213.99 30.5279 214.339C30.5164 214.339 30.5053 214.344 30.4971 214.352C30.489 214.36 30.4844 214.371 30.4844 214.383C30.4844 214.395 30.489 214.406 30.4971 214.414C30.5053 214.422 30.5164 214.427 30.5279 214.427C32.5743 214.764 46.9612 214.576 49.1506 214.545C53.6228 214.483 52.3352 214.452 56.8074 214.339C56.8883 214.321 56.8883 214.208 56.8074 214.208Z" fill="#202327"/>
<path d="M40.0753 79.2558C39.5342 95.642 38.9619 112.035 38.2093 128.408C37.4567 144.782 36.4864 161.274 35.0993 177.673C34.3343 186.833 33.6127 199.719 32.6113 208.873C32.6113 208.935 32.6984 208.96 32.7046 208.873C34.8381 192.649 36.0261 172.519 37.0586 156.158C38.0911 139.796 38.8189 123.416 39.3725 107.036C39.6835 97.7761 39.926 88.5035 40.2059 79.2371C40.2806 79.1123 40.0753 79.1248 40.0753 79.2558Z" fill="#202327"/>
<path d="M68.6503 97.9944C65.7388 99.2044 62.9376 100.666 60.2782 102.362C60.1724 102.425 60.2782 102.593 60.3652 102.537C63.1891 101.158 66.0752 99.8351 68.8182 98.3001C68.8424 98.2712 68.8573 98.2356 68.8609 98.198C68.8646 98.1604 68.8568 98.1226 68.8386 98.0895C68.8205 98.0565 68.7928 98.0297 68.7591 98.0127C68.7255 97.9957 68.6876 97.9893 68.6503 97.9944Z" fill="#202327"/>
<path d="M88.6598 214.065C84.1876 213.971 85.4689 213.934 80.9968 213.89C78.8073 213.89 64.4267 213.74 62.3803 214.083C62.3368 214.083 62.3368 214.164 62.3803 214.177C64.4267 214.514 78.8073 214.389 80.9968 214.364C85.4689 214.327 84.1876 214.289 88.6598 214.196C88.7407 214.189 88.7407 214.065 88.6598 214.065Z" fill="#202327"/>
<path d="M58.4747 120.366H5.25635V152.714H58.4747V120.366Z" fill="#2F80ED"/>
<path opacity="0.1" d="M58.4747 120.366H5.25635V135.598H58.4747V120.366Z" fill="black"/>
<path d="M59.7374 115.611H4V130.706H59.7374V115.611Z" fill="#2F80ED"/>
<path d="M43.6028 107V115.611H39.566V110.713H24.1715V115.611H20.1348V107H43.6028Z" fill="#202327"/>
<path d="M15.2829 127.105H11.6504V134.319H15.2829V127.105Z" fill="#202327"/>
<path d="M52.0866 127.105H48.4541V134.319H52.0866V127.105Z" fill="#202327"/>
<path d="M94.6809 15.1209L90.4762 33.5788C90.2958 34.1155 90.5757 34.5523 91.0982 34.5398L100.534 34.3276C100.821 34.2998 101.095 34.1906 101.323 34.0127C101.551 33.8348 101.724 33.5956 101.821 33.323L106.026 14.8713C106.213 14.3284 105.933 13.8979 105.404 13.9041L95.9684 14.1163C95.6815 14.1456 95.4085 14.2554 95.1808 14.433C94.9531 14.6107 94.7798 14.8491 94.6809 15.1209Z" fill="#4A5568"/>
<path d="M95.8067 15.0834L91.5958 33.5413C91.4154 34.0842 91.6953 34.5147 92.2178 34.5023L101.654 34.2963C101.941 34.2685 102.215 34.1593 102.443 33.9814C102.671 33.8035 102.843 33.5643 102.941 33.2917L107.146 14.8338C107.332 14.2909 107.052 13.8603 106.524 13.8728L97.088 14.0787C96.8017 14.1077 96.5294 14.2175 96.3027 14.3953C96.0759 14.5731 95.9039 14.8116 95.8067 15.0834Z" fill="#323A43"/>
<path d="M97.6105 16.6746C98.0536 16.6746 98.4129 16.3142 98.4129 15.8697C98.4129 15.4251 98.0536 15.0647 97.6105 15.0647C97.1673 15.0647 96.8081 15.4251 96.8081 15.8697C96.8081 16.3142 97.1673 16.6746 97.6105 16.6746Z" fill="#202327"/>
<path d="M68.5 49C73.9923 60.3381 82.5516 69.5962 87.5152 69.59C89.8788 69.59 94.1022 70.1017 97.1624 67.3374C103.849 61.3095 109.347 49.8653 110.417 43.357C110.797 41.0357 99.5136 36.1748 97.8777 38.078C94.0586 42.5396 89.6673 51.2569 88.9769 51.2132C86.4329 51.0572 76.3938 42.889 69.3839 37.1357L68.5 49Z" fill="#F7A9A0"/>
<path d="M110.536 31.3946C109.292 26.7146 108.253 25.71 109.292 21.1985C109.976 18.2345 108.384 16.5309 106.325 18.9271C102.966 22.8458 103.314 29.2231 104.073 31.4071L110.536 31.3946Z" fill="#F7A9A0"/>
<path d="M109.895 45.3785C109.895 45.3785 111.898 38.8078 111.058 33.6848C110.48 30.1467 108.359 22.5838 98.4067 18.7088C96.0493 17.7915 92.0312 18.1597 95.3465 21.0675C97.6976 23.1329 99.8124 23.7257 100.944 25.1734C100.944 25.1734 95.8938 26.2529 95.0728 28.6616C94.3493 30.7684 93.7777 32.9247 93.3623 35.1137C93.7451 35.2793 94.1377 35.421 94.5379 35.5381C94.5379 35.5381 93.835 37.8219 95.5517 41.0168L109.895 45.3785Z" fill="#F7A9A0"/>
<path d="M109.97 30.3964C108.52 29.1983 105.417 26.7086 102.17 25.5667C98.5622 24.3187 91.2786 22.8086 90.3518 25.4918C89.6863 27.4574 92.4231 28.2623 92.4231 28.2623C92.4231 28.2623 89.282 28.2623 89.0643 30.1967C88.8652 31.9377 91.0174 32.4369 91.0174 32.4369C91.0174 32.4369 89.114 32.7801 89.2509 34.4899C89.4064 36.5491 93.3685 35.4883 95.3216 37.4351C95.7508 37.8719 109.97 30.3964 109.97 30.3964Z" fill="#F7A9A0"/>
<path d="M101.461 29.6102C98.6822 28.2399 95.5532 27.7523 92.4914 28.2124C92.4167 28.2124 92.3856 28.2935 92.4603 28.2935C95.502 28.3772 98.5222 28.8319 101.454 29.6476C101.454 29.6476 101.479 29.6226 101.461 29.6102Z" fill="#202327"/>
<path d="M100.104 33.2231C98.6925 32.5991 94.5065 31.5882 91.0668 32.3682C90.9922 32.3682 90.9673 32.4493 91.0357 32.4493C94.0774 32.3747 97.1177 32.6468 100.098 33.2605C100.098 33.2605 100.104 33.2356 100.104 33.2231Z" fill="#202327"/>
<path d="M49.7454 37.8267C36.9433 47.796 28.1302 62.7671 27.399 65.8656C25.5819 73.3645 22.984 86.5586 22.8049 92.4255C22.7365 94.5921 39.2931 93.2319 39.4401 90.9171C39.8884 83.6658 42.0716 67.8142 42.1368 67.5417C42.5818 65.6409 46.8081 57.1345 51.1311 47.9287C55.4542 38.7228 55.1299 33.635 49.7454 37.8267Z" fill="#F7A9A0"/>
<path d="M39.4277 113.738C38.9332 113.918 38.3954 113.943 37.8865 113.808C37.3777 113.673 36.922 113.385 36.5806 112.983C36.0564 113.706 35.2975 114.223 34.4343 114.444C32.889 114.765 31.7166 112.476 31.7166 112.476C31.0159 113.113 30.1414 113.524 29.2054 113.658C27.6938 113.808 26.1875 111.669 26.1875 111.669C25.2195 111.897 24.2022 111.769 23.3195 111.31C21.8378 110.464 20.8657 105.919 20.7416 103.333C20.6175 100.746 22.6563 93.3093 22.9211 91.8503L39.4389 90.8986C39.4389 90.8986 43.2807 102.322 42.996 105.382C42.7592 107.977 41.2906 112.981 39.4277 113.738Z" fill="#F7A9A0"/>
<path d="M36.841 112.856C37.7521 110.178 37.8211 107.374 38.0468 104.586C38.0432 104.523 37.9555 104.516 37.9536 104.591C37.7583 107.365 37.0232 110.07 36.7092 112.838C36.7108 112.854 36.7176 112.868 36.7283 112.879C36.739 112.89 36.7531 112.897 36.7683 112.899C36.7835 112.901 36.7989 112.898 36.8121 112.89C36.8253 112.882 36.8355 112.87 36.841 112.856Z" fill="#202327"/>
<path d="M31.9306 112.407C32.0802 111.78 32.1457 111.135 32.1254 110.49C32.1402 109.81 32.1508 109.128 32.1571 108.444C32.1531 107.078 32.1158 105.709 32.0451 104.338C32.0419 104.282 31.9539 104.268 31.952 104.343C31.9495 105.706 31.9284 107.07 31.87 108.436C31.8408 109.119 31.8051 109.796 31.7697 110.479C31.6894 111.118 31.6807 111.764 31.7436 112.406C31.7504 112.425 31.763 112.442 31.7796 112.454C31.7963 112.465 31.8161 112.472 31.8365 112.472C31.857 112.472 31.8769 112.466 31.8938 112.455C31.9106 112.443 31.9235 112.427 31.9306 112.407Z" fill="#202327"/>
<path d="M26.1841 111.613C26.3141 111.044 26.3435 110.456 26.271 109.877C26.2351 109.254 26.2241 108.63 26.2379 108.004C26.222 106.755 26.2123 105.505 26.2399 104.253C26.2358 104.244 26.2289 104.236 26.2203 104.231C26.2116 104.226 26.2016 104.223 26.1914 104.224C26.1813 104.224 26.1715 104.228 26.1636 104.234C26.1556 104.24 26.1497 104.249 26.1467 104.259C26.1067 105.511 26.0543 106.764 26.0292 108.06C26.0155 108.685 26.0079 109.311 26.0003 109.936C25.9362 110.503 25.9692 111.076 26.0979 111.631C26.0979 111.631 26.1794 111.639 26.1841 111.613Z" fill="#202327"/>
<path d="M78.77 96.2408L68.14 96.4217L53.0192 96.6838L42 96.4217L40 89.4217L37.5874 75.0747H72.2079C72.2079 75.0747 75.1251 84.2725 78.77 96.2408Z" fill="#202327"/>
<path d="M110.585 48.1179C110.585 48.1179 101.616 66.4448 96.2794 68.6225C90.9427 70.8003 87.758 70.3697 85.7676 70.0952C84.9987 69.9239 84.2767 69.5852 83.6528 69.103C78.2165 65.3153 74.2668 58.619 70.2363 51L67 35.5C68.5127 36.1274 69.006 36.3144 70.2363 37.3976C78.5089 44.1742 88.0939 50.6076 88.5417 50.3643C88.9896 50.1209 93.6048 42.583 93.6048 42.583L110.585 48.1179Z" fill="#323A43"/>
<path d="M83.6774 69.103C78.2411 65.3154 72.0306 55.619 68 48L72.6045 45.1384C74.9557 49.6687 78.6516 59.0192 83.6774 69.103Z" fill="#202327"/>
<path d="M62.6105 42.8638L64.7067 39.5691L67.0267 42.4083L66.2803 45.0728L63.8234 45.2537L62.6105 42.8638Z" fill="#2F80ED"/>
<path d="M63.8234 45.2537L61.1675 72.691L65.8138 82.0697L69.0358 71.9797L66.2803 45.0728L63.8234 45.2537Z" fill="#2F80ED"/>
<path d="M79.8958 94.9802C79.8958 94.9802 74.4595 94.7057 67.1883 94.3125C66.7094 91.7229 65.6955 85.4018 65.5898 85.4018C65.5089 85.5391 63.4874 91.6418 62.8281 94.0817C55.7684 93.6885 47.7757 93.2393 41.4811 92.8337L42.0003 77.8127C42.0003 77.8127 45.5 54.8127 46.793 45.2287C48.6461 41.9135 50.7725 38.7596 53.1498 35.8001C53.3924 35.5193 53.6101 35.2572 53.8216 35.0201L55.3206 33.3103L66.5166 56.7789C66.5539 56.3297 68.0467 35.1012 68.0467 35.1012C71.2135 40.2679 73.5242 45.9156 74.8887 51.8244C77.3767 62.9066 77.1839 78.9871 77.8183 86.6748C77.8245 86.6748 79.8958 94.8242 79.8958 94.9802Z" fill="#323A43"/>
<path d="M53.1436 35.8L44.5 93L41.0189 92.6663L40.0189 89.6663L36.5 82C39.61 72.1283 42.6131 52.5045 46.793 45.2287C48.6442 41.9137 50.7685 38.7598 53.1436 35.8Z" fill="#202327"/>
<path d="M63.7986 66.3761C64.4547 66.3761 64.9866 65.8425 64.9866 65.1843C64.9866 64.526 64.4547 63.9924 63.7986 63.9924C63.1425 63.9924 62.6106 64.526 62.6106 65.1843C62.6106 65.8425 63.1425 66.3761 63.7986 66.3761Z" fill="#202327"/>
<path d="M63.3881 73.1216C64.0442 73.1216 64.5761 72.588 64.5761 71.9297C64.5761 71.2715 64.0442 70.7379 63.3881 70.7379C62.732 70.7379 62.2001 71.2715 62.2001 71.9297C62.2001 72.588 62.732 73.1216 63.3881 73.1216Z" fill="#202327"/>
<path d="M62.9776 79.8608C63.6337 79.8608 64.1656 79.3272 64.1656 78.6689C64.1656 78.0107 63.6337 77.4771 62.9776 77.4771C62.3214 77.4771 61.7896 78.0107 61.7896 78.6689C61.7896 79.3272 62.3214 79.8608 62.9776 79.8608Z" fill="#202327"/>
<path d="M40.2393 91.0583L22.035 90.6383C22.035 90.6383 24.8998 70.8284 26.7561 65.4149C28.6123 60.0014 41.4691 43.7349 49.2279 37.6063C56.5282 31.8479 56.5747 36.7642 53.443 43.9388C50.3113 51.1134 42.915 67.5341 42.5901 68.8154C42.2651 70.0967 40.2393 91.0583 40.2393 91.0583Z" fill="#323A43"/>
<path d="M66.8275 32.6677L64.4017 38.527L57.1865 30.9954L55.0903 33.3603C55.0903 33.3603 62.1003 45.2912 62.1625 44.7483L64.6505 39.7002L68.1026 43.2694L67.9222 34.4024L66.8275 32.6677Z" fill="#E2E8F0"/>
<path d="M108.352 51.4627C107.73 51.132 107.065 50.9198 106.424 50.6452C105.783 50.3707 105.13 50.1273 104.477 49.8777C103.233 49.4118 101.966 48.9563 100.677 48.5112L96.8701 47.1633C95.5576 46.7078 94.239 46.1774 92.8955 45.828C92.8898 45.8259 92.8837 45.825 92.8776 45.8253C92.8716 45.8256 92.8656 45.8271 92.8601 45.8297C92.8547 45.8323 92.8497 45.836 92.8457 45.8405C92.8416 45.845 92.8384 45.8503 92.8364 45.856C92.8344 45.8618 92.8335 45.8678 92.8338 45.8739C92.8341 45.88 92.8356 45.886 92.8382 45.8915C92.8407 45.897 92.8444 45.9019 92.8489 45.906C92.8534 45.9101 92.8587 45.9133 92.8644 45.9153C94.1084 46.5393 95.4644 46.9512 96.7643 47.4441L100.608 48.898C101.89 49.3785 103.177 49.8527 104.471 50.3083C105.093 50.5329 105.715 50.7513 106.387 50.9323C107.025 51.1638 107.675 51.3616 108.334 51.5251C108.39 51.5625 108.396 51.4876 108.352 51.4627Z" fill="#202327"/>
<path d="M66.5165 56.7792C66.5724 59.1691 66.5538 61.5527 66.5165 63.9427C66.4791 66.3326 66.4107 68.7163 66.361 71.0999C66.3112 73.4836 66.1868 75.8673 66.0624 78.251L65.8634 81.8265C65.7701 83.0184 65.7016 84.2102 65.5959 85.402C65.5586 84.204 65.5959 83.0121 65.5586 81.8203V78.2385C65.5586 75.8486 65.6643 73.4649 65.7141 71.0812C65.7638 68.6976 65.8882 66.3139 66.0126 63.9302C66.137 61.5465 66.2925 59.1628 66.5165 56.7792Z" fill="#202327"/>
<path d="M55.1961 33.5352C54.8104 34.7832 54.3937 36.0748 53.9956 37.3416C53.5975 38.6083 53.1559 39.8688 52.7516 41.1355L52.5712 40.836C53.5167 40.942 54.4372 41.0232 55.4013 41.1417L58.2314 41.4662L58.7104 41.5224L58.4242 41.9217C57.2238 43.5878 56.0358 45.2664 54.798 46.9137L54.7482 46.5144C56.7262 48.2054 58.729 49.8715 60.6759 51.5937C62.6227 53.316 64.5945 55.0195 66.5165 56.7792C64.4431 55.19 62.405 53.5718 60.4022 51.9244C58.362 50.302 56.3779 48.6235 54.3688 46.9699L54.1573 46.7952L54.319 46.5643C55.5133 44.8857 56.7448 43.2384 57.9702 41.5723L58.163 42.0216L55.3205 41.6721C54.375 41.5598 53.4545 41.41 52.4966 41.2852L52.2167 41.2416L52.3162 40.9857C52.7889 39.7377 53.2492 38.4897 53.7281 37.2417C54.2071 35.9937 54.6985 34.7644 55.1961 33.5352Z" fill="#202327"/>
<path d="M67.7605 34.546C68.0777 35.1139 68.3825 35.6817 68.681 36.2558C68.9796 36.8299 69.303 37.3915 69.5829 37.9718L71.3432 41.4288L71.5484 41.8344H71.0882L68.3016 41.6971L68.5442 41.1979C69.5332 42.3273 70.5221 43.4505 71.4925 44.5862L71.6106 44.7297L71.5422 44.9044C70.7461 46.9012 69.9312 48.898 69.0853 50.8761C68.2394 52.8542 67.3935 54.8448 66.4978 56.8041C67.1944 54.7616 67.9222 52.7315 68.681 50.7139C69.4399 48.6963 70.207 46.6849 70.9824 44.6798L71.0322 44.9918C70.0432 43.8686 69.0729 42.7267 68.0964 41.591L67.6236 41.0419L68.3389 41.098L71.1193 41.304L70.8642 41.6846L69.2844 38.1403C69.0169 37.5537 68.7681 36.9547 68.5131 36.3619C68.2581 35.7691 68.003 35.1451 67.7605 34.546Z" fill="#202327"/>
<path d="M68.2332 38.8828C68.1585 37.4164 68.1212 35.9438 67.9719 34.5148C67.9719 34.4649 67.8848 34.4399 67.8724 34.5148C67.5614 35.9251 67.8724 41.5224 67.8724 42.864C67.7293 42.708 64.6691 39.744 64.638 39.744C64.1031 40.5427 62.2869 44.218 62.15 44.555C61.0429 42.683 56.7946 35.7753 55.4822 33.9782C55.4449 33.9283 55.364 33.9782 55.3951 34.0281C56.3654 36.0249 61.9821 45.2975 62.0754 45.2601C63.0279 43.5271 63.8915 41.7464 64.6629 39.9249C65.1792 40.5489 68.2643 43.9435 68.2767 43.7251C68.3473 42.1114 68.3328 40.495 68.2332 38.8828Z" fill="#202327"/>
<path d="M39.4503 87.3683C38.7587 87.2932 38.0516 87.3518 37.3611 87.3394C36.6707 87.3269 35.9646 87.3415 35.2655 87.3615C33.9228 87.3949 32.5768 87.4538 31.2316 87.519L27.2022 87.7137C25.82 87.7832 24.3987 87.7882 23.0235 87.97C22.9618 87.9774 22.9597 88.0656 23.0345 88.063C24.4221 88.1436 25.8323 88.0457 27.2251 88.0126L31.3288 87.9159C32.7024 87.8788 34.069 87.8363 35.439 87.7682C36.1119 87.7387 36.7841 87.7031 37.4534 87.6426C38.1227 87.5822 38.8117 87.5822 39.4799 87.4591C39.5209 87.4353 39.4997 87.3624 39.4503 87.3683Z" fill="#202327"/>
<path d="M71.0089 28.7293L72.6962 28.3605C73.9396 28.0887 74.7206 26.8302 74.4407 25.5495L73.7599 22.4348L74.03 22.3757L74.7108 25.4904C75.0243 26.9248 74.1496 28.3344 72.757 28.6387L71.0698 29.0075L71.0089 28.7293Z" fill="#2F80ED"/>
<path d="M60.9747 25.229L61.6555 28.3437C61.9355 29.6244 63.1703 30.4423 64.4137 30.1706L66.101 29.8018L66.1618 30.08L64.4745 30.4488C63.082 30.7532 61.6989 29.8372 61.3854 28.4028L60.7046 25.2881L60.9747 25.229Z" fill="#2F80ED"/>
<path d="M72.3032 15.7709L71.6225 12.6562C71.3425 11.3755 70.1077 10.5576 68.8643 10.8294L67.177 11.1982L67.1162 10.9199L68.8035 10.5511C70.196 10.2467 71.5791 11.1628 71.8926 12.5972L72.5734 15.7118L72.3032 15.7709Z" fill="#2F80ED"/>
<path d="M62.2088 11.9927L60.5215 12.3615C59.1289 12.6659 58.2542 14.0754 58.5677 15.5098L59.2485 18.6244L59.5186 18.5654L58.8378 15.4507C58.5579 14.17 59.3389 12.9115 60.5823 12.6397L62.2696 12.2709L62.2088 11.9927Z" fill="#2F80ED"/>
<path d="M60 10L94 15L92.5 23.5L90 25V27L91 28L62.6667 29L60 10Z" fill="url(#paint0_linear_6651_144170)"/>
<path d="M64.5 38.5C64.5 38.5 57.8039 34.6622 56.8874 31.3328C56.8267 31.0988 59.5848 23.2273 59.968 21.6109C60.0454 21.278 69.5422 26.4857 69.5422 26.4857C69.5422 26.4857 67.7386 29.6398 67.0868 32.4653C67.0358 32.7054 64.5 38.5 64.5 38.5Z" fill="#F7A9A0"/>
<path d="M69.5422 26.4857C69.5422 26.4857 67.7386 29.6398 67.0842 32.4631C67.0743 32.5211 60.6933 33.1705 58.6792 25.7283C59.2597 23.9442 59.8126 22.2672 59.968 21.6109C60.0478 21.2778 69.5422 26.4857 69.5422 26.4857Z" fill="#323A43"/>
<path d="M53.8404 14.0532C53.6761 17.9229 58.2584 27.7836 61.4053 29.4303C65.9715 31.8188 72.1039 30.5677 73.7941 25.3863C75.432 20.3639 69.2365 7.61821 65.8442 6.25994C60.8467 4.2574 54.0819 8.33966 53.8404 14.0532Z" fill="#F7A9A0"/>
<path d="M66.5626 24.5443C66.7892 24.6369 67.0417 24.7872 67.291 24.7062C67.5417 24.5986 67.7665 24.4382 67.9498 24.2361C67.9539 24.2329 67.9587 24.231 67.9639 24.2305C67.969 24.2301 67.9741 24.2312 67.9786 24.2336C67.9831 24.2361 67.9868 24.2398 67.9892 24.2443C67.9916 24.2489 67.9927 24.254 67.9922 24.2591C67.9508 24.4322 67.8632 24.5907 67.7387 24.7179C67.6143 24.845 67.4577 24.936 67.2856 24.9811C67.1325 25.0019 66.9767 24.9769 66.8378 24.9093C66.6988 24.8417 66.583 24.7345 66.5049 24.6012C66.4832 24.5671 66.5281 24.5303 66.5626 24.5443Z" fill="#323A43"/>
<path d="M65.0007 17.9675C64.9845 17.9425 64.9643 18.0228 64.9782 18.048C65.3027 18.706 65.5667 19.5118 65.065 20.0082C65.0495 20.0237 65.0686 20.0557 65.0891 20.0422C65.7766 19.6033 65.4162 18.5351 65.0007 17.9675Z" fill="#323A43"/>
<path d="M64.0877 17.5428C62.9803 17.9539 63.8815 20.1387 64.9077 19.76C65.934 19.3813 65.0164 17.2001 64.0877 17.5428Z" fill="#323A43"/>
<path d="M68.8274 16.4667C68.8253 16.4382 68.8952 16.4782 68.9044 16.5062C69.1617 17.1908 69.5737 17.9328 70.2782 17.9056C70.2995 17.9039 70.3119 17.9412 70.2812 17.9459C69.5071 18.1551 68.9551 17.173 68.8274 16.4667Z" fill="#323A43"/>
<path d="M69.142 15.5166C70.1973 14.9853 71.1745 17.1357 70.2046 17.6271C69.2346 18.1185 68.257 15.9634 69.142 15.5166Z" fill="#323A43"/>
<path d="M62.8209 16.9229C63.0794 16.7123 63.2811 16.4774 63.5165 16.2447C63.7518 16.012 64.0149 15.7987 64.0908 15.4158C64.1006 15.3059 64.0738 15.1958 64.0145 15.1027C63.9552 15.0096 63.8667 14.9388 63.7629 14.9012C63.3087 14.7663 62.9071 15.0092 62.5769 15.3136C62.23 15.6072 62.0059 16.0203 61.9488 16.4712C61.8908 16.9339 62.4806 17.1874 62.8209 16.9229Z" fill="#323A43"/>
<path d="M69.5456 14.1374C69.2233 14.1643 68.8998 14.1745 68.5765 14.1681C68.2046 14.1748 67.9072 14.2189 67.5807 14.005C67.4944 13.9361 67.4335 13.8403 67.4077 13.733C67.3818 13.6256 67.3924 13.5127 67.4378 13.412C67.6565 12.992 68.1126 12.869 68.5575 12.8495C69.0086 12.8065 69.4594 12.934 69.8211 13.2071C70.2019 13.4765 69.9808 14.0853 69.5456 14.1374Z" fill="#323A43"/>
<path d="M66.4388 22.2239C66.7208 22.421 67.0407 22.5574 67.3782 22.6246C67.7156 22.6918 68.0634 22.6884 68.3994 22.6144C68.6946 22.5551 68.9795 22.4531 69.2452 22.3115C69.2978 22.288 69.3484 22.2602 69.3965 22.2284L69.5356 22.1438C69.5687 22.1217 69.5937 22.0894 69.6068 22.0518C69.6198 22.0142 69.6203 21.9733 69.6081 21.9354C69.6005 21.9116 69.5891 21.8891 69.5744 21.8688L69.5484 21.8087C69.3485 21.2821 68.9724 20.511 68.9724 20.511C69.2004 20.5271 70.3537 20.5636 70.2236 20.2966C69.1615 18.0978 67.9781 15.6528 66.4539 13.6872C66.4432 13.6754 66.4289 13.6677 66.4132 13.6653C66.3975 13.6629 66.3814 13.666 66.3677 13.674C66.354 13.6821 66.3435 13.6946 66.338 13.7095C66.3325 13.7243 66.3323 13.7407 66.3374 13.7557C67.2768 15.9113 68.5889 17.8811 69.5663 20.0339C69.2067 20.0445 68.6116 20.0348 68.3414 20.1532C68.276 20.2035 69.0982 21.6329 69.1692 21.8757C69.1708 21.8843 69.1715 21.8931 69.1712 21.9018C68.3431 22.3753 67.5727 22.3836 66.4804 22.1444C66.4117 22.1186 66.3762 22.1857 66.4388 22.2239Z" fill="#323A43"/>
<path d="M68.7387 22.4548C68.5605 22.8925 68.2723 23.277 67.9021 23.5709C67.6956 23.7253 67.4458 23.8111 67.188 23.8161C66.6252 23.8231 66.4791 23.3448 66.4623 22.9045C66.4554 22.6714 66.4761 22.4383 66.5242 22.21C67.2173 22.5258 67.9933 22.6115 68.7387 22.4548Z" fill="#323A43"/>
<path d="M67.9013 23.571C67.6948 23.7254 67.445 23.8112 67.1872 23.8162C66.6244 23.8231 66.4783 23.3449 66.4616 22.9046C67.0414 22.808 67.7033 23.037 67.9013 23.571Z" fill="#FE4F87"/>
<path d="M55.6716 20.8192C57.713 20.5053 57.0482 15.5094 57.0482 15.5094C57.0482 15.5094 60.1285 14.6571 61.2661 10.2179C61.2661 10.2179 65.5257 12.3733 68.8437 11.4448C74.0541 9.9973 73.2749 3.12467 71.1633 1.90985C68.1697 0.180913 63.4482 3.5354 63.4482 3.5354C63.4482 3.5354 55.6805 2.12787 53.9015 7.45547C52.9266 7.61428 52.0483 8.13726 51.4442 8.91871C50.8402 9.70017 50.5552 10.6818 50.6471 11.6652C50.7488 15.4251 54.145 21.0518 55.6716 20.8192Z" fill="#323A43"/>
<path d="M56.3652 16.1643C57.8636 15.763 59.1861 14.875 60.1247 13.6401C60.6252 12.9679 60.9576 12.1856 61.0939 11.3587C61.2302 10.5317 61.1665 9.6842 60.9082 8.88691C60.8865 8.80442 61.0117 8.76464 61.0415 8.85181C61.3579 9.67805 61.4886 10.5638 61.4244 11.4462C61.3602 12.3287 61.1026 13.1861 60.6699 13.9579C60.2266 14.6905 59.5989 15.294 58.8495 15.7081C58.1001 16.1223 57.2551 16.3327 56.399 16.3182C56.3786 16.3227 56.3572 16.3189 56.3396 16.3076C56.322 16.2964 56.3096 16.2786 56.3051 16.2581C56.3007 16.2377 56.3045 16.2164 56.3157 16.1988C56.327 16.1812 56.3448 16.1687 56.3652 16.1643Z" fill="#323A43"/>
<path d="M50.1607 9.51341C51.0819 8.08993 52.6579 7.73575 54.2358 7.64577C54.3182 7.62403 54.3283 7.79104 54.2391 7.78739C53.4538 7.83027 52.6945 8.08364 52.0408 8.52094C51.3871 8.95823 50.8631 9.56335 50.5237 10.2728C49.8464 11.5914 50.1668 13.1424 50.6151 14.4833C51.4682 17.0808 53.2539 19.27 55.6271 20.6275C55.6354 20.6316 55.6417 20.6389 55.6446 20.6476C55.6476 20.6564 55.6469 20.666 55.6428 20.6743C55.6387 20.6826 55.6314 20.6889 55.6227 20.6918C55.6139 20.6948 55.6043 20.6941 55.596 20.69C54.2544 20.0095 53.0658 19.0623 52.1031 17.9063C51.1405 16.7504 50.4239 15.41 49.9974 13.9674C49.5848 12.556 49.3178 10.8213 50.1607 9.51341Z" fill="#323A43"/>
<path d="M58.784 21.5259C58.784 21.5259 55.5184 18.85 54.2412 20.1047C52.964 21.3593 56.0716 25.6942 58.0318 25.858C58.2817 25.8961 58.5368 25.8833 58.7816 25.8202C59.0265 25.7571 59.256 25.6451 59.4564 25.4909C59.6568 25.3368 59.8239 25.1436 59.9476 24.9232C60.0714 24.7027 60.1492 24.4594 60.1764 24.2081L58.784 21.5259Z" fill="#F7A9A0"/>
<path d="M55.1547 21.3239C55.1495 21.326 55.1451 21.3296 55.1422 21.3344C55.1392 21.3391 55.1378 21.3447 55.1383 21.3502C55.1387 21.3558 55.1409 21.3611 55.1445 21.3653C55.1481 21.3695 55.153 21.3725 55.1585 21.3737C56.5427 21.5288 57.5233 22.4974 58.318 23.5636C57.8136 23.2081 57.2444 23.0986 56.7515 23.7113C56.7253 23.7443 56.7572 23.7872 56.8036 23.7694C57.0025 23.6379 57.2372 23.5713 57.4755 23.5789C57.7137 23.5864 57.9438 23.6677 58.1339 23.8115C58.4496 24.0553 58.7386 24.3318 58.9962 24.6364C59.0845 24.7299 59.2691 24.6156 59.1909 24.4974L59.1723 24.4726C58.7584 22.8881 56.9023 21.0145 55.1547 21.3239Z" fill="#323A43"/>
<defs>
<linearGradient id="paint0_linear_6651_144170" x1="120.5" y1="22" x2="62.5" y2="20.5" gradientUnits="userSpaceOnUse">
<stop stop-color="#2F80ED" stop-opacity="0.51"/>
<stop offset="1" stop-color="#2F80ED" stop-opacity="0"/>
</linearGradient>
</defs>
</svg>
