<svg width="312" height="312" viewBox="0 0 312 312" fill="none" xmlns="http://www.w3.org/2000/svg">
<path d="M270.816 89.4751V144.637H137.879V95.7962H149.41V109.799H152.381V101.874H167.045V114.429H168.985V84.9636H181.733V93.0506H188.267V103.116H190.245V96.7822H201.833V115.671H205.221V100.32H215.816V88.6577H223.024V82.0183H231.36V111.471H234.162V99.1783H247.896V116.775H249.793V102.411H263.715V89.4751H270.816Z" fill="#E2E8F0"/>
<path d="M141.249 100.233H139.295V97.556H141.249V100.233ZM144.631 97.556H142.677V100.233H144.631V97.556ZM148.013 97.556H146.06V100.233H148.013V97.556ZM141.249 101.587H139.295V104.264H141.249V101.587ZM144.631 101.587H142.677V104.264H144.631V101.587ZM148.013 101.587H146.06V104.264H148.013V101.587ZM141.249 105.618H139.295V108.295H141.249V105.618ZM144.631 105.618H142.677V108.295H144.631V105.618ZM148.013 105.618H146.06V108.295H148.013V105.618ZM141.249 109.643H139.295V112.32H141.249V109.643ZM144.631 109.643H142.677V112.32H144.631V109.643ZM148.013 109.643H146.06V112.32H148.013V109.643ZM208.803 102.23H206.85V104.464H208.803V102.23ZM212.185 102.23H210.232V104.464H212.16L212.185 102.23ZM215.567 102.23H213.614V104.464H215.567V102.23ZM208.803 105.593H206.85V107.827H208.803V105.593ZM212.185 105.593H210.232V107.827H212.16L212.185 105.593ZM215.567 105.593H213.614V107.827H215.567V105.593ZM208.803 108.956H206.85V111.19H208.803V108.956ZM212.185 108.956H210.232V111.19H212.16L212.185 108.956ZM215.567 108.956H213.614V111.19H215.567V108.956ZM208.803 112.314H206.85V114.535H208.803V112.314ZM212.185 112.314H210.232V114.535H212.16L212.185 112.314ZM215.567 112.314H213.614V114.535H215.567V112.314ZM208.803 115.783H206.85V118.017H208.803V115.783ZM212.185 115.783H210.232V118.017H212.16L212.185 115.783ZM215.567 115.783H213.614V118.017H215.567V115.783ZM208.803 119.228H206.85V121.461H208.803V119.228ZM212.185 119.228H210.232V121.461H212.16L212.185 119.228ZM215.567 119.228H213.614V121.461H215.567V119.228ZM208.803 122.647H206.85V124.881H208.803V122.647ZM212.185 122.647H210.232V124.881H212.16L212.185 122.647ZM215.567 122.647H213.614V124.881H215.567V122.647ZM208.803 126.092H206.85V128.325H208.803V126.092ZM212.185 126.092H210.232V128.325H212.16L212.185 126.092ZM215.567 126.092H213.614V128.325H215.567V126.092ZM165.279 103.59H154.047V105.262H165.279V103.59ZM165.279 106.841H154.047V108.513H165.279V106.841ZM165.279 110.086H154.047V111.764H165.279V110.086ZM165.279 113.337H154.047V115.016H165.279V113.337ZM165.279 116.588H154.047V118.279H165.279V116.588ZM165.279 119.839H154.047V121.511H165.279V119.839ZM165.279 123.084H154.047V124.762H165.279V123.084ZM165.279 126.335H154.047V128.013H165.279V126.335ZM246.149 100.751H235.822V102.429H246.149V100.751ZM246.149 104.002H235.822V105.68H246.149V104.002ZM246.149 107.253H235.822V108.919H246.149V107.253ZM246.149 110.504H235.822V112.176H246.149V110.504ZM246.149 113.749H235.822V115.427H246.149V113.749ZM246.149 117H235.822V118.672H246.149V117ZM246.149 120.251H235.822V121.923H246.149V120.251ZM246.149 123.502H235.822V125.143H246.149V123.502ZM246.149 126.584H235.822V128.263H246.149V126.584ZM246.149 129.704H235.822V131.383H246.149V129.704ZM246.149 132.793H235.822V134.466H246.149V132.793ZM246.149 135.882H235.822V137.554H246.149V135.882ZM246.149 139.002H235.822V140.674H246.149V139.002ZM262.847 104.738H251.94V106.417H262.847V104.738ZM262.847 107.989H251.94V109.668H262.847V107.989ZM262.847 111.24H251.94V112.913H262.847V111.24ZM262.847 114.491H251.94V116.164H262.847V114.491ZM262.847 117.736H251.94V119.415H262.847V117.736ZM262.847 120.987H251.94V122.66H262.847V120.987ZM262.847 124.238H251.94V125.911H262.847V124.238ZM262.847 127.489H251.94V129.162H262.847V127.489ZM262.847 130.397H251.94V132.007H262.847V130.397ZM262.847 133.305H251.94V134.977H262.847V133.305ZM262.847 136.213H251.94V137.885H262.847V136.213ZM197.103 98.311H193.633V99.9334H197.103V98.311ZM197.103 101.431H193.633V103.053H197.103V101.431ZM197.103 104.551H193.633V106.167H197.103V104.551ZM197.103 107.671H193.633V109.287H197.103V107.671ZM197.103 110.791H193.633V112.407H197.103V110.791ZM197.103 113.911H193.633V115.527H197.103V113.911ZM197.103 117.031H193.633V118.647H197.103V117.031ZM197.103 120.151H193.633V121.767H197.103V120.151ZM201.826 98.311H198.357V99.9334H201.826V98.311ZM201.826 101.431H198.357V103.053H201.826V101.431ZM201.826 104.551H198.357V106.167H201.826V104.551ZM201.826 107.671H198.357V109.287H201.826V107.671ZM201.826 110.791H198.357V112.407H201.826V110.791ZM201.826 113.911H198.357V115.527H201.826V113.911ZM201.826 117.031H198.357V118.647H201.826V117.031ZM201.826 120.151H198.357V121.767H201.826V120.151ZM174.533 86.661H170.92V89.2131H174.533V86.661ZM179.924 86.661H176.311V89.2131H179.924V86.661ZM174.533 90.405H170.92V92.9571H174.533V90.405ZM179.924 90.405H176.311V92.9571H179.924V90.405ZM174.533 94.149H170.92V96.6949H174.533V94.149ZM179.924 94.149H176.311V96.6949H179.924V94.149ZM174.533 97.893H170.92V100.445H174.533V97.893ZM179.924 97.893H176.311V100.445H179.924V97.893ZM174.533 101.637H170.92V104.189H174.533V101.637ZM179.924 101.637H176.311V104.189H179.924V101.637ZM174.533 105.381H170.92V107.933H174.533V105.381ZM179.924 105.381H176.311V107.933H179.924V105.381ZM174.533 109.125H170.92V111.677H174.533V109.125ZM179.924 109.125H176.311V111.677H179.924V109.125ZM174.533 112.869H170.92V115.415H174.533V112.869ZM179.924 112.869H176.311V115.415H179.924V112.869ZM186.601 94.149H182.988V96.6949H186.576L186.601 94.149ZM186.601 97.893H182.988V100.445H186.576L186.601 97.893ZM186.601 101.637H182.988V104.189H186.576L186.601 101.637ZM186.601 105.381H182.988V107.933H186.576L186.601 105.381ZM186.601 109.125H182.988V111.677H186.576L186.601 109.125ZM186.601 112.869H182.988V115.415H186.576L186.601 112.869ZM174.533 116.569H170.92V119.121H174.533V116.569ZM179.924 116.569H176.311V119.121H179.924V116.569ZM186.601 116.569H182.988V119.121H186.576L186.601 116.569ZM174.533 120.27H170.92V122.822H174.533V120.27ZM179.924 120.27H176.311V122.822H179.924V120.27ZM186.601 120.27H182.988V122.822H186.576L186.601 120.27ZM174.533 123.97H170.92V126.522H174.533V123.97ZM179.924 123.97H176.311V126.522H179.924V123.97ZM186.601 123.97H182.988V126.522H186.576L186.601 123.97ZM174.533 127.676H170.92V130.222H174.533V127.676ZM179.924 127.676H176.311V130.222H179.924V127.676ZM186.601 127.676H182.988V130.222H186.576L186.601 127.676ZM174.533 131.383H170.92V133.935H174.533V131.383ZM179.924 131.383H176.311V133.935H179.924V131.383ZM186.601 131.383H182.988V133.935H186.576L186.601 131.383ZM219.242 90.2864H217.289V92.5203H219.242V90.2864ZM222.624 90.2864H220.671V92.5203H222.624V90.2864ZM219.242 93.6497H217.289V95.8837H219.242V93.6497ZM222.624 93.6497H220.671V95.8837H222.624V93.6497ZM219.242 97.0069H217.289V99.247H219.242V97.0069ZM222.624 97.0069H220.671V99.247H222.624V97.0069ZM219.242 100.37H217.289V102.604H219.242V100.37ZM222.624 100.37H220.671V102.604H222.624V100.37ZM219.242 103.815H217.289V106.049H219.242V103.815ZM222.624 103.815H220.671V106.049H222.624V103.815ZM219.242 107.259H217.289V109.493H219.242V107.259ZM222.624 107.259H220.671V109.493H222.624V107.259ZM219.242 110.704H217.289V112.938H219.242V110.704ZM222.624 110.704H220.671V112.938H222.624V110.704ZM219.242 114.148H217.289V116.407H219.242V114.148ZM222.624 114.148H220.671V116.407H222.624V114.148ZM219.242 117.655H217.289V119.889H219.242V117.655ZM222.624 117.655H220.671V119.889H222.624V117.655ZM219.242 121.137H217.289V123.371H219.242V121.137ZM222.624 121.137H220.671V123.371H222.624V121.137ZM219.242 124.619H217.289V126.853H219.242V124.619ZM222.624 124.619H220.671V126.853H222.624V124.619ZM219.242 128.101H217.289V130.335H219.242V128.101ZM222.624 128.101H220.671V130.335H222.624V128.101ZM266.891 90.6608H264.938V93.319H266.891V90.6608ZM270.273 90.6608H268.32V93.319H270.273V90.6608ZM266.891 94.6232H264.938V97.2565H266.891V94.6232ZM270.273 94.6232H268.32V97.2565H270.273V94.6232ZM266.891 98.5856H264.938V101.213H266.891V98.5856ZM270.273 98.5856H268.32V101.213H270.273V98.5856ZM266.891 102.542H264.938V105.175H266.891V102.542ZM270.273 102.542H268.32V105.175H270.273V102.542ZM266.891 106.604H264.938V109.231H266.891V106.604ZM270.273 106.604H268.32V109.231H270.273V106.604ZM266.891 110.66H264.938V113.287H266.891V110.66ZM270.273 110.66H268.32V113.287H270.273V110.66ZM266.891 114.716H264.938V117.349H266.891V114.716ZM270.273 114.716H268.32V117.349H270.273V114.716ZM266.891 118.772H264.938V121.399H266.891V118.772ZM270.273 118.772H268.32V121.399H270.273V118.772ZM266.891 122.878H264.938V125.505H266.891V122.878ZM270.273 122.878H268.32V125.505H270.273V122.878ZM266.891 126.978H264.938V129.611H266.891V126.978ZM270.273 126.978H268.32V129.611H270.273V126.978ZM266.891 131.077H264.938V133.711H266.891V131.077ZM270.273 131.077H268.32V133.711H270.273V131.077ZM266.891 135.177H264.938V137.81H266.891V135.177ZM270.273 135.177H268.32V137.81H270.273V135.177ZM226.474 90.2989H224.521V92.5328H226.474V90.2989ZM229.857 90.2989H227.903V92.5328H229.857V90.2989ZM226.474 86.8544H224.521V89.0883H226.474V86.8544ZM229.857 86.8544H227.903V89.0883H229.857V86.8544ZM226.474 83.4099H224.521V85.6438H226.474V83.4099ZM229.857 83.4099H227.903V85.6438H229.857V83.4099ZM226.474 93.6622H224.521V95.8962H226.474V93.6622ZM229.857 93.6622H227.903V95.8962H229.857V93.6622ZM226.474 97.0193H224.521V99.2595H226.474V97.0193ZM229.857 97.0193H227.903V99.2595H229.857V97.0193ZM226.474 100.383H224.521V102.617H226.474V100.383ZM229.857 100.383H227.903V102.617H229.857V100.383ZM226.474 103.827H224.521V106.061H226.474V103.827ZM229.857 103.827H227.903V106.061H229.857V103.827ZM226.474 107.272H224.521V109.506H226.474V107.272ZM229.857 107.272H227.903V109.506H229.857V107.272ZM226.474 110.716H224.521V112.95H226.474V110.716ZM229.857 110.716H227.903V112.95H229.857V110.716ZM226.474 114.161H224.521V116.407H226.474V114.161ZM229.857 114.161H227.903V116.407H229.857V114.161ZM226.474 117.655H224.521V119.889H226.474V117.655ZM229.857 117.655H227.903V119.889H229.857V117.655ZM226.474 121.137H224.521V123.371H226.474V121.137ZM229.857 121.137H227.903V123.371H229.857V121.137ZM226.474 124.619H224.521V126.853H226.474V124.619ZM229.857 124.619H227.903V126.853H229.857V124.619ZM226.474 128.101H224.521V130.335H226.474V128.101ZM229.857 128.101H227.903V130.335H229.857V128.101Z" fill="white"/>
<path d="M137.879 144.637H41.5956V95.7963H53.1271V109.799H56.0973V101.874H70.7613V114.429H72.702V84.9636H85.4441V93.0507H91.9836V103.116H93.9617V96.7822H105.549V115.671H108.931V100.32H119.533V88.6577H126.734L135.071 88.6951V111.471H137.879V144.637Z" fill="#E2E8F0"/>
<path d="M44.959 100.233H43.0059V97.5559H44.959V100.233ZM48.3411 97.5559H46.3879V100.233H48.3411V97.5559ZM51.7231 97.5559H49.77V100.233H51.7231V97.5559ZM44.959 101.587H43.0059V104.264H44.959V101.587ZM48.3411 101.587H46.3879V104.264H48.3411V101.587ZM51.7231 101.587H49.77V104.264H51.7231V101.587ZM44.959 105.618H43.0059V108.295H44.959V105.618ZM48.3411 105.618H46.3879V108.295H48.3411V105.618ZM51.7231 105.618H49.77V108.295H51.7231V105.618ZM44.959 109.643H43.0059V112.32H44.959V109.643ZM48.3411 109.643H46.3879V112.32H48.3411V109.643ZM51.7231 109.643H49.77V112.32H51.7231V109.643ZM112.513 102.23H110.56V104.464H112.513V102.23ZM115.895 102.23H113.942V104.464H115.895V102.23ZM119.277 102.23H117.312V104.464H119.265L119.277 102.23ZM112.513 105.593H110.56V107.827H112.513V105.593ZM115.895 105.593H113.942V107.827H115.895V105.593ZM119.277 105.593H117.312V107.827H119.265L119.277 105.593ZM112.513 108.956H110.56V111.19H112.513V108.956ZM115.895 108.956H113.942V111.19H115.895V108.956ZM119.277 108.956H117.312V111.19H119.265L119.277 108.956ZM112.513 112.314H110.56V114.535H112.513V112.314ZM115.895 112.314H113.942V114.535H115.895V112.314ZM119.277 112.314H117.312V114.535H119.265L119.277 112.314ZM112.513 115.783H110.56V118.017H112.513V115.783ZM115.895 115.783H113.942V118.017H115.895V115.783ZM119.277 115.783H117.312V118.017H119.265L119.277 115.783ZM112.513 119.227H110.56V121.461H112.513V119.227ZM115.895 119.227H113.942V121.461H115.895V119.227ZM119.277 119.227H117.312V121.461H119.265L119.277 119.227ZM112.513 122.647H110.56V124.881H112.513V122.647ZM115.895 122.647H113.942V124.881H115.895V122.647ZM119.277 122.647H117.312V124.881H119.265L119.277 122.647ZM112.513 126.091H110.56V128.325H112.513V126.091ZM115.895 126.091H113.942V128.325H115.895V126.091ZM119.277 126.091H117.312V128.325H119.265L119.277 126.091ZM68.9955 103.59H57.7635V105.262H68.9955V103.59ZM68.9955 106.841H57.7635V108.513H68.9955V106.841ZM68.9955 110.086H57.7635V111.764H68.9955V110.086ZM68.9955 113.337H57.7635V115.015H68.9955V113.337ZM68.9955 116.588H57.7635V118.279H68.9955V116.588ZM68.9955 119.839H57.7635V121.511H68.9955V119.839ZM68.9955 123.084H57.7635V124.762H68.9955V123.084ZM68.9955 126.335H57.7635V128.013H68.9955V126.335ZM100.819 98.2985H97.3438V99.9209H100.813L100.819 98.2985ZM100.819 101.418H97.3438V103.041H100.813L100.819 101.418ZM100.819 104.538H97.3438V106.155H100.813L100.819 104.538ZM100.819 107.658H97.3438V109.275H100.813L100.819 107.658ZM100.819 110.778H97.3438V112.395H100.813L100.819 110.778ZM100.819 113.898H97.3438V115.515H100.813L100.819 113.898ZM100.819 117.018H97.3438V118.635H100.813L100.819 117.018ZM100.819 120.138H97.3438V121.755H100.813L100.819 120.138ZM105.537 98.311H102.067V99.9334H105.537V98.311ZM105.537 101.431H102.067V103.053H105.537V101.431ZM105.537 104.551H102.067V106.167H105.537V104.551ZM105.537 107.671H102.067V109.287H105.537V107.671ZM105.537 110.791H102.067V112.407H105.537V110.791ZM105.537 113.911H102.067V115.527H105.537V113.911ZM105.537 117.031H102.067V118.647H105.537V117.031ZM105.537 120.151H102.067V121.767H105.537V120.151ZM78.2494 86.6609H74.6364V89.213H78.2494V86.6609ZM83.6345 86.6609H80.0215V89.213H83.6158L83.6345 86.6609ZM78.2494 90.4049H74.6364V92.957H78.2494V90.4049ZM83.6345 90.4049H80.0215V92.957H83.6158L83.6345 90.4049ZM78.2494 94.1489H74.6364V96.6948H78.2494V94.1489ZM83.6345 94.1489H80.0215V96.6948H83.6158L83.6345 94.1489ZM78.2494 97.8929H74.6364V100.445H78.2494V97.8929ZM83.6345 97.8929H80.0215V100.445H83.6158L83.6345 97.8929ZM78.2494 101.637H74.6364V104.189H78.2494V101.637ZM83.6345 101.637H80.0215V104.189H83.6158L83.6345 101.637ZM78.2494 105.381H74.6364V107.933H78.2494V105.381ZM83.6345 105.381H80.0215V107.933H83.6158L83.6345 105.381ZM78.2494 109.125H74.6364V111.677H78.2494V109.125ZM83.6345 109.125H80.0215V111.677H83.6158L83.6345 109.125ZM78.2494 112.869H74.6364V115.415H78.2494V112.869ZM83.6345 112.869H80.0215V115.415H83.6158L83.6345 112.869ZM90.3113 94.1489H86.6983V96.6948H90.3113V94.1489ZM90.3113 97.8929H86.6983V100.445H90.3113V97.8929ZM90.3113 101.637H86.6983V104.189H90.3113V101.637ZM90.3113 105.381H86.6983V107.933H90.3113V105.381ZM90.3113 109.125H86.6983V111.677H90.3113V109.125ZM90.3113 112.869H86.6983V115.415H90.3113V112.869ZM78.2494 116.569H74.6364V119.121H78.2494V116.569ZM83.6345 116.569H80.0215V119.121H83.6158L83.6345 116.569ZM90.3113 116.569H86.6983V119.121H90.3113V116.569ZM78.2494 120.27H74.6364V122.822H78.2494V120.27ZM83.6345 120.27H80.0215V122.822H83.6158L83.6345 120.27ZM90.3113 120.27H86.6983V122.822H90.3113V120.27ZM78.2494 123.97H74.6364V126.522H78.2494V123.97ZM83.6345 123.97H80.0215V126.522H83.6158L83.6345 123.97ZM90.3113 123.97H86.6983V126.522H90.3113V123.97ZM78.2494 127.676H74.6364V130.222H78.2494V127.676ZM83.6345 127.676H80.0215V130.222H83.6158L83.6345 127.676ZM90.3113 127.676H86.6983V130.222H90.3113V127.676ZM78.2494 131.383H74.6364V133.935H78.2494V131.383ZM83.6345 131.383H80.0215V133.935H83.6158L83.6345 131.383ZM90.3113 131.383H86.6983V133.935H90.3113V131.383ZM122.928 90.2988H120.981V92.5327H122.928V90.2988ZM126.31 90.2988H124.363V92.5327H126.31V90.2988ZM122.928 93.6622H120.981V95.8961H122.928V93.6622ZM126.31 93.6622H124.363V95.8961H126.31V93.6622ZM122.928 97.0193H120.981V99.2594H122.928V97.0193ZM126.31 97.0193H124.363V99.2594H126.31V97.0193ZM122.928 100.383H120.981V102.617H122.928V100.383ZM126.31 100.383H124.363V102.617H126.31V100.383ZM122.928 103.827H120.981V106.061H122.928V103.827ZM126.31 103.827H124.363V106.061H126.31V103.827ZM122.928 107.272H120.981V109.506H122.928V107.272ZM126.31 107.272H124.363V109.506H126.31V107.272ZM122.928 110.716H120.981V112.95H122.928V110.716ZM126.31 110.716H124.363V112.95H126.31V110.716ZM122.928 114.161H120.981V116.407H122.928V114.161ZM126.31 114.161H124.363V116.407H126.31V114.161ZM122.928 117.655H120.981V119.889H122.928V117.655ZM126.31 117.655H124.363V119.889H126.31V117.655ZM122.928 121.124H120.981V123.358H122.928V121.124ZM126.31 121.124H124.363V123.358H126.31V121.124ZM122.928 124.606H120.981V126.84H122.928V124.606ZM126.31 124.606H124.363V126.84H126.31V124.606ZM122.928 128.088H120.981V130.322H122.928V128.088ZM126.31 128.088H124.363V130.322H126.31V128.088ZM130.16 90.2988H128.213V92.5327H130.16V90.2988ZM133.542 90.2988H131.595V92.5327H133.542V90.2988ZM130.16 93.6622H128.213V95.8961H130.16V93.6622ZM133.542 93.6622H131.595V95.8961H133.542V93.6622ZM130.16 97.0193H128.213V99.2594H130.16V97.0193ZM133.542 97.0193H131.595V99.2594H133.542V97.0193ZM130.16 100.383H128.213V102.617H130.16V100.383ZM133.542 100.383H131.595V102.617H133.542V100.383ZM130.16 103.827H128.213V106.061H130.16V103.827ZM133.542 103.827H131.595V106.061H133.542V103.827ZM130.16 107.272H128.213V109.506H130.16V107.272ZM133.542 107.272H131.595V109.506H133.542V107.272ZM130.16 110.716H128.213V112.95H130.16V110.716ZM133.542 110.716H131.595V112.95H133.542V110.716ZM130.16 114.161H128.213V116.407H130.16V114.161ZM133.542 114.161H131.595V116.407H133.542V114.161ZM130.185 117.655H128.238V119.889H130.185V117.655ZM133.567 117.655H131.62V119.889H133.567V117.655ZM130.185 121.137H128.238V123.371H130.185V121.137ZM133.567 121.137H131.62V123.371H133.567V121.137ZM130.185 124.619H128.238V126.853H130.185V124.619ZM133.567 124.619H131.62V126.853H133.567V124.619ZM130.185 128.101H128.238V130.335H130.185V128.101ZM133.567 128.101H131.62V130.335H133.567V128.101Z" fill="white"/>
<path d="M272.001 145.822H39.9982V70H272.001V145.822ZM42.3694 143.457H269.636V72.365H42.3631L42.3694 143.457Z" fill="#CBD5E0"/>
<path d="M157.185 72.365H154.82V143.451H157.185V72.365Z" fill="#CBD5E0"/>
<path d="M87.491 223.389L85.9997 232.344L75.8846 286.963H74.256L81.6129 232.344L82.6987 223.389H87.491Z" fill="#CBD5E0"/>
<path d="M82.6983 223.389H87.4906L85.9993 232.344H81.6125L82.6983 223.389Z" fill="#CBD5E0"/>
<path d="M119.259 286.963H117.624L107.509 232.344L106.017 223.389H110.816L111.902 232.344L119.259 286.963Z" fill="#CBD5E0"/>
<path d="M110.816 223.389L111.902 232.344H107.509L106.017 223.389H110.816Z" fill="#CBD5E0"/>
<path d="M149.591 286.963H147.963L137.848 232.344L136.356 223.389H141.155L142.241 232.344L149.591 286.963Z" fill="#CBD5E0"/>
<path d="M142.241 232.344H137.848L136.356 223.389H141.155L142.241 232.344Z" fill="#CBD5E0"/>
<path d="M147.008 227.595H72.8956V221.586L100.639 219.789L109.961 166H144.181L147.008 227.595Z" fill="#CBD5E0"/>
<path d="M147.008 227.595H142.971L140.337 166H144.181L147.008 227.595Z" fill="#CBD5E0"/>
<path d="M103.522 10H102.898V42.3482H103.522V10Z" fill="#CBD5E0"/>
<path d="M105.412 39.8584H101.007V44.6258H105.412V39.8584Z" fill="#CBD5E0"/>
<path d="M112.226 59.8514H94.2238C94.5857 52.9874 97.8554 41.9988 103.241 41.9988C108.626 41.9988 111.864 52.9874 112.226 59.8514Z" fill="#CBD5E0"/>
<path d="M138.715 10H138.091V42.3482H138.715V10Z" fill="#CBD5E0"/>
<path d="M140.606 39.8584H136.2V44.6258H140.606V39.8584Z" fill="#CBD5E0"/>
<path d="M147.42 59.8514H129.386C129.748 52.9874 133.024 41.9988 138.403 41.9988C143.782 41.9988 147.058 52.9874 147.42 59.8514Z" fill="#CBD5E0"/>
<path d="M173.909 10H173.285V42.3482H173.909V10Z" fill="#CBD5E0"/>
<path d="M175.799 39.8584H171.394V44.6258H175.799V39.8584Z" fill="#CBD5E0"/>
<path d="M182.613 59.8514H164.58C164.948 52.9874 168.218 41.9988 173.596 41.9988C178.975 41.9988 182.251 52.9874 182.613 59.8514Z" fill="#CBD5E0"/>
<path d="M209.102 10H208.478V42.3482H209.102V10Z" fill="#CBD5E0"/>
<path d="M210.993 39.8584H206.587V44.6258H210.993V39.8584Z" fill="#CBD5E0"/>
<path d="M217.807 59.8514H199.773C200.142 52.9874 203.411 41.9988 208.79 41.9988C214.169 41.9988 217.445 52.9874 217.807 59.8514Z" fill="#CBD5E0"/>
<path d="M248.72 186.408H193.658V287.565H248.72V186.408Z" fill="#E2E8F0"/>
<path d="M248.72 186.408H193.658V193.004H248.72V186.408Z" fill="#A9B9CC"/>
<path d="M272.357 181.092H39.6362V186.415H272.357V181.092Z" fill="#E2E8F0"/>
<path d="M51.3799 186.408L51.2051 193.004L48.8839 287.565H44.6781V186.408H51.3799Z" fill="#E2E8F0"/>
<path d="M44.6781 186.408H51.3799L51.2051 193.004H44.6781V186.408Z" fill="#A9B9CC"/>
<path d="M267.378 186.408H248.72V287.565H267.378V186.408Z" fill="#CBD5E0"/>
<path d="M267.378 186.408H248.72V193.004H267.378V186.408Z" fill="#A9B9CC"/>
<path d="M261.437 180.992H235.803L231.323 162.391H256.957L261.437 180.992Z" fill="#A9B9CC"/>
<path d="M226.774 180.992H252.402L256.882 162.391H231.248L226.774 180.992Z" fill="#E2E8F0"/>
<path d="M253.806 164.887L253.182 167.489L253.144 167.645L252.52 170.347L252.483 170.509L251.859 173.205L251.822 173.367L251.198 176.069L251.16 176.231L250.536 178.877H229.944L230.568 176.231L230.606 176.069L231.23 173.367L231.273 173.205L231.897 170.509L231.935 170.347L232.559 167.645L232.602 167.489L233.226 164.887H253.806ZM236.059 164.887L235.435 167.489L235.398 167.645L234.774 170.347L234.736 170.509L234.112 173.205L234.075 173.367L233.451 176.069L233.414 176.231L232.79 178.877H232.958L233.582 176.231L233.619 176.069L234.243 173.367L234.281 173.205L234.905 170.509L234.942 170.347L235.566 167.645L235.604 167.489L236.228 164.887H236.059ZM238.992 164.887L238.368 167.489L238.331 167.645L237.707 170.347L237.669 170.509L237.045 173.205L237.008 173.367L236.384 176.069L236.346 176.231L235.722 178.877H235.891L236.515 176.231L236.558 176.069L237.182 173.367L237.22 173.205L237.844 170.509L237.888 170.347L238.512 167.645L238.549 167.489L239.173 164.887H238.992ZM241.931 164.887L241.307 167.489L241.27 167.645L240.646 170.347L240.608 170.509L239.984 173.205L239.947 173.367L239.323 176.069L239.285 176.231L238.661 178.877H238.824L239.448 176.231L239.485 176.069L240.109 173.367L240.146 173.205L240.77 170.509L240.808 170.347L241.432 167.645L241.469 167.489L242.093 164.887H241.931ZM244.864 164.887L244.24 167.489L244.202 167.645L243.578 170.347L243.541 170.509L242.917 173.205L242.88 173.367L242.256 176.069L242.218 176.231L241.594 178.877H241.763L242.387 176.231L242.424 176.069L243.048 173.367L243.092 173.205L243.716 170.509L243.753 170.347L244.377 167.645L244.415 167.489L245.039 164.887H244.864ZM247.803 164.887L247.179 167.489L247.142 167.645L246.518 170.347L246.474 170.509L245.85 173.205L245.812 173.367L245.188 176.069L245.151 176.231L244.527 178.877H244.608L245.232 176.231L245.27 176.069L245.894 173.367L245.931 173.205L246.555 170.509L246.592 170.347L247.216 167.645L247.254 167.489L247.878 164.887H247.803ZM250.736 164.887L250.112 167.489L250.074 167.645L249.45 170.347L249.413 170.509L248.789 173.205L248.751 173.367L248.127 176.069L248.09 176.231L247.466 178.877H247.628L248.252 176.231L248.29 176.069L248.914 173.367L248.951 173.205L249.575 170.509L249.613 170.347L250.237 167.645L250.274 167.489L250.898 164.887H250.736ZM232.584 167.489L232.54 167.645H253.132L253.169 167.489H232.584ZM231.897 170.347L231.86 170.509H252.452L252.489 170.347H231.897ZM231.211 173.205L231.167 173.367H251.759L251.797 173.205H231.211ZM230.518 176.069L230.481 176.231H251.073L251.11 176.069H230.518Z" fill="white"/>
<path d="M232.053 163.664C231.959 163.659 231.866 163.635 231.781 163.593C231.696 163.551 231.621 163.493 231.56 163.42C231.441 163.258 231.365 163.067 231.342 162.867C231.319 162.666 231.349 162.463 231.429 162.278C231.604 161.698 232.053 161.455 232.359 161.517C232.665 161.579 232.889 161.823 232.839 162.384C232.836 162.426 232.817 162.465 232.785 162.493C232.754 162.521 232.713 162.536 232.671 162.534C232.628 162.529 232.589 162.509 232.562 162.476C232.534 162.444 232.519 162.402 232.521 162.359C232.521 162.066 232.459 161.866 232.297 161.835C232.134 161.804 231.854 161.972 231.735 162.372C231.676 162.506 231.652 162.653 231.664 162.799C231.676 162.944 231.724 163.085 231.804 163.208C231.834 163.251 231.874 163.285 231.921 163.308C231.968 163.331 232.02 163.341 232.072 163.339C232.094 163.333 232.118 163.331 232.141 163.335C232.164 163.338 232.186 163.346 232.205 163.359C232.225 163.372 232.241 163.389 232.254 163.408C232.266 163.428 232.274 163.45 232.277 163.473C232.28 163.496 232.279 163.519 232.272 163.542C232.265 163.564 232.254 163.585 232.238 163.602C232.223 163.619 232.204 163.633 232.183 163.643C232.162 163.653 232.139 163.657 232.116 163.657L232.053 163.664Z" fill="#A9B9CC"/>
<path d="M234 163.664C233.906 163.659 233.813 163.635 233.728 163.593C233.643 163.551 233.568 163.493 233.507 163.42C233.388 163.256 233.313 163.065 233.29 162.863C233.267 162.662 233.297 162.458 233.376 162.272C233.557 161.692 234 161.448 234.306 161.511C234.612 161.573 234.836 161.816 234.793 162.378C234.788 162.421 234.767 162.46 234.735 162.487C234.702 162.515 234.66 162.53 234.618 162.528C234.597 162.526 234.576 162.521 234.557 162.511C234.539 162.501 234.522 162.488 234.509 162.471C234.495 162.455 234.485 162.436 234.479 162.416C234.473 162.395 234.472 162.374 234.474 162.353C234.474 162.06 234.412 161.86 234.25 161.829C234.087 161.798 233.807 161.966 233.688 162.366C233.629 162.499 233.603 162.646 233.614 162.792C233.625 162.937 233.672 163.078 233.75 163.202C233.782 163.244 233.824 163.279 233.871 163.301C233.919 163.324 233.972 163.335 234.025 163.333C234.047 163.326 234.071 163.325 234.094 163.328C234.117 163.332 234.139 163.34 234.158 163.353C234.178 163.366 234.194 163.382 234.207 163.402C234.219 163.422 234.227 163.444 234.23 163.467C234.233 163.49 234.232 163.513 234.225 163.535C234.218 163.558 234.207 163.578 234.192 163.596C234.176 163.613 234.157 163.627 234.136 163.637C234.115 163.646 234.092 163.651 234.069 163.651L234 163.664Z" fill="#A9B9CC"/>
<path d="M236.003 163.664C235.908 163.659 235.814 163.635 235.728 163.594C235.642 163.552 235.566 163.493 235.504 163.42C235.387 163.256 235.314 163.066 235.292 162.866C235.27 162.666 235.3 162.463 235.379 162.278C235.554 161.698 236.003 161.455 236.309 161.517C236.615 161.579 236.839 161.823 236.789 162.384C236.794 162.408 236.793 162.432 236.788 162.455C236.782 162.479 236.771 162.5 236.756 162.519C236.74 162.537 236.721 162.552 236.7 162.563C236.678 162.573 236.654 162.578 236.63 162.578C236.606 162.578 236.583 162.573 236.561 162.563C236.539 162.552 236.52 162.537 236.505 162.519C236.49 162.5 236.479 162.479 236.473 162.455C236.467 162.432 236.466 162.408 236.471 162.384C236.471 162.091 236.409 161.891 236.247 161.86C236.084 161.829 235.803 161.997 235.685 162.397C235.625 162.53 235.6 162.677 235.611 162.823C235.622 162.969 235.669 163.11 235.747 163.233C235.779 163.275 235.821 163.309 235.869 163.332C235.916 163.355 235.969 163.366 236.022 163.364C236.044 163.358 236.068 163.356 236.091 163.36C236.114 163.363 236.136 163.371 236.155 163.384C236.175 163.397 236.191 163.414 236.204 163.433C236.216 163.453 236.224 163.475 236.227 163.498C236.23 163.521 236.229 163.544 236.222 163.567C236.215 163.589 236.204 163.609 236.188 163.627C236.173 163.644 236.154 163.658 236.133 163.668C236.112 163.677 236.089 163.682 236.066 163.682L236.003 163.664Z" fill="#A9B9CC"/>
<path d="M237.975 163.664C237.88 163.659 237.788 163.635 237.703 163.593C237.618 163.551 237.543 163.493 237.482 163.42C237.364 163.257 237.29 163.066 237.267 162.866C237.244 162.666 237.273 162.464 237.351 162.278C237.526 161.698 237.975 161.455 238.281 161.517C238.586 161.579 238.811 161.823 238.767 162.384C238.763 162.427 238.742 162.466 238.71 162.494C238.677 162.521 238.635 162.536 238.593 162.534C238.572 162.533 238.551 162.527 238.532 162.517C238.514 162.507 238.497 162.494 238.483 162.478C238.47 162.461 238.46 162.442 238.454 162.422C238.448 162.402 238.447 162.38 238.449 162.359C238.449 162.066 238.387 161.866 238.225 161.835C238.062 161.804 237.782 161.972 237.657 162.372C237.6 162.506 237.576 162.653 237.588 162.798C237.6 162.944 237.647 163.085 237.725 163.208C237.757 163.251 237.798 163.285 237.846 163.308C237.894 163.331 237.947 163.341 238 163.339C238.039 163.339 238.077 163.354 238.106 163.379C238.135 163.405 238.154 163.441 238.16 163.479C238.165 163.518 238.156 163.557 238.135 163.59C238.114 163.623 238.081 163.647 238.044 163.657L237.975 163.664Z" fill="#A9B9CC"/>
<path d="M239.947 163.664C239.852 163.659 239.76 163.635 239.675 163.593C239.59 163.551 239.515 163.493 239.454 163.42C239.336 163.257 239.262 163.066 239.24 162.866C239.218 162.666 239.249 162.463 239.329 162.278C239.504 161.698 239.953 161.455 240.259 161.517C240.565 161.579 240.789 161.823 240.739 162.384C240.744 162.408 240.743 162.432 240.738 162.455C240.732 162.479 240.721 162.5 240.706 162.519C240.69 162.537 240.671 162.552 240.65 162.563C240.628 162.573 240.604 162.578 240.58 162.578C240.556 162.578 240.532 162.573 240.511 162.563C240.489 162.552 240.47 162.537 240.455 162.519C240.44 162.5 240.429 162.479 240.423 162.455C240.417 162.432 240.416 162.408 240.421 162.384C240.421 162.091 240.359 161.891 240.196 161.86C240.034 161.829 239.753 161.997 239.635 162.397C239.575 162.53 239.55 162.677 239.561 162.823C239.572 162.969 239.619 163.11 239.697 163.233C239.729 163.275 239.771 163.309 239.819 163.332C239.866 163.355 239.919 163.366 239.972 163.364C239.994 163.358 240.018 163.356 240.041 163.36C240.064 163.363 240.086 163.371 240.105 163.384C240.124 163.397 240.141 163.414 240.153 163.433C240.166 163.453 240.174 163.475 240.177 163.498C240.18 163.521 240.178 163.544 240.172 163.567C240.165 163.589 240.154 163.609 240.138 163.627C240.123 163.644 240.104 163.658 240.083 163.668C240.062 163.677 240.039 163.682 240.015 163.682L239.947 163.664Z" fill="#A9B9CC"/>
<path d="M241.925 163.664C241.83 163.659 241.738 163.635 241.653 163.593C241.568 163.551 241.493 163.493 241.432 163.42C241.312 163.258 241.237 163.067 241.214 162.867C241.191 162.666 241.221 162.463 241.301 162.278C241.476 161.698 241.925 161.455 242.231 161.517C242.536 161.579 242.761 161.823 242.717 162.384C242.713 162.427 242.692 162.466 242.66 162.494C242.627 162.521 242.585 162.536 242.543 162.534C242.5 162.529 242.461 162.509 242.433 162.476C242.405 162.444 242.391 162.402 242.393 162.359C242.393 162.066 242.337 161.866 242.175 161.835C242.012 161.804 241.731 161.972 241.607 162.372C241.548 162.506 241.524 162.653 241.536 162.799C241.548 162.944 241.596 163.085 241.675 163.208C241.706 163.251 241.746 163.285 241.793 163.308C241.84 163.331 241.892 163.341 241.944 163.339C241.966 163.333 241.989 163.331 242.012 163.335C242.035 163.338 242.057 163.346 242.077 163.359C242.096 163.372 242.113 163.389 242.125 163.408C242.138 163.428 242.146 163.45 242.149 163.473C242.152 163.496 242.15 163.519 242.144 163.542C242.137 163.564 242.125 163.585 242.11 163.602C242.095 163.619 242.076 163.633 242.055 163.643C242.034 163.653 242.011 163.657 241.987 163.657L241.925 163.664Z" fill="#A9B9CC"/>
<path d="M243.897 163.664C243.802 163.659 243.71 163.635 243.625 163.593C243.54 163.551 243.465 163.493 243.404 163.42C243.286 163.257 243.212 163.066 243.19 162.866C243.168 162.666 243.199 162.463 243.279 162.278C243.454 161.698 243.903 161.455 244.209 161.517C244.515 161.579 244.739 161.823 244.689 162.384C244.694 162.408 244.693 162.432 244.687 162.455C244.682 162.479 244.671 162.5 244.656 162.519C244.64 162.537 244.621 162.552 244.599 162.563C244.578 162.573 244.554 162.578 244.53 162.578C244.506 162.578 244.482 162.573 244.461 162.563C244.439 162.552 244.42 162.537 244.405 162.519C244.389 162.5 244.379 162.479 244.373 162.455C244.367 162.432 244.366 162.408 244.371 162.384C244.371 162.091 244.309 161.891 244.146 161.86C243.984 161.829 243.703 161.997 243.585 162.397C243.525 162.53 243.5 162.677 243.511 162.823C243.522 162.969 243.569 163.11 243.647 163.233C243.679 163.276 243.72 163.31 243.768 163.333C243.816 163.356 243.869 163.366 243.922 163.364C243.944 163.358 243.968 163.356 243.991 163.36C244.014 163.363 244.035 163.371 244.055 163.384C244.074 163.397 244.091 163.414 244.103 163.433C244.116 163.453 244.124 163.475 244.127 163.498C244.13 163.521 244.128 163.544 244.122 163.567C244.115 163.589 244.104 163.609 244.088 163.627C244.073 163.644 244.054 163.658 244.033 163.668C244.012 163.677 243.989 163.682 243.965 163.682L243.897 163.664Z" fill="#A9B9CC"/>
<path d="M245.856 163.664C245.762 163.659 245.669 163.635 245.584 163.593C245.499 163.551 245.424 163.493 245.363 163.42C245.242 163.257 245.167 163.065 245.144 162.864C245.121 162.662 245.151 162.458 245.232 162.272C245.407 161.692 245.856 161.448 246.162 161.511C246.468 161.573 246.692 161.816 246.642 162.378C246.639 162.42 246.62 162.459 246.588 162.487C246.557 162.515 246.516 162.53 246.474 162.528C246.431 162.523 246.392 162.502 246.364 162.47C246.337 162.438 246.322 162.396 246.324 162.353C246.324 162.06 246.262 161.86 246.099 161.829C245.937 161.798 245.656 161.966 245.538 162.366C245.479 162.5 245.455 162.646 245.467 162.792C245.479 162.938 245.527 163.079 245.606 163.202C245.637 163.244 245.677 163.279 245.724 163.301C245.771 163.324 245.823 163.335 245.875 163.333C245.897 163.326 245.921 163.325 245.944 163.328C245.967 163.332 245.989 163.34 246.008 163.353C246.027 163.366 246.044 163.382 246.056 163.402C246.069 163.422 246.077 163.444 246.08 163.467C246.083 163.49 246.081 163.513 246.075 163.535C246.068 163.558 246.057 163.578 246.041 163.596C246.026 163.613 246.007 163.627 245.986 163.637C245.965 163.646 245.942 163.651 245.918 163.651L245.856 163.664Z" fill="#A9B9CC"/>
<path d="M247.847 163.664C247.752 163.659 247.66 163.635 247.575 163.593C247.49 163.551 247.415 163.493 247.354 163.42C247.236 163.257 247.162 163.066 247.139 162.866C247.116 162.666 247.145 162.464 247.223 162.278C247.404 161.698 247.847 161.455 248.152 161.517C248.458 161.579 248.683 161.823 248.639 162.384C248.634 162.427 248.614 162.466 248.581 162.494C248.549 162.521 248.507 162.536 248.464 162.534C248.422 162.529 248.384 162.508 248.357 162.476C248.33 162.443 248.317 162.401 248.321 162.359C248.321 162.066 248.259 161.866 248.096 161.835C247.934 161.804 247.653 161.972 247.535 162.372C247.475 162.506 247.45 162.652 247.461 162.798C247.472 162.944 247.518 163.085 247.597 163.208C247.629 163.251 247.67 163.285 247.718 163.308C247.766 163.331 247.819 163.341 247.872 163.339C247.894 163.333 247.917 163.331 247.94 163.335C247.963 163.338 247.985 163.346 248.005 163.359C248.024 163.372 248.041 163.389 248.053 163.408C248.066 163.428 248.074 163.45 248.077 163.473C248.08 163.496 248.078 163.519 248.072 163.542C248.065 163.564 248.053 163.585 248.038 163.602C248.023 163.619 248.004 163.633 247.983 163.643C247.962 163.653 247.939 163.657 247.915 163.657L247.847 163.664Z" fill="#A9B9CC"/>
<path d="M249.825 163.664C249.729 163.659 249.636 163.635 249.55 163.594C249.464 163.552 249.388 163.493 249.325 163.42C249.209 163.256 249.136 163.066 249.114 162.866C249.092 162.666 249.122 162.463 249.201 162.278C249.375 161.698 249.825 161.455 250.13 161.517C250.436 161.579 250.661 161.823 250.611 162.384C250.616 162.408 250.615 162.432 250.609 162.455C250.603 162.479 250.592 162.5 250.577 162.519C250.562 162.537 250.543 162.552 250.521 162.563C250.499 162.573 250.476 162.578 250.452 162.578C250.428 162.578 250.404 162.573 250.382 162.563C250.361 162.552 250.342 162.537 250.326 162.519C250.311 162.5 250.3 162.479 250.294 162.455C250.289 162.432 250.288 162.408 250.293 162.384C250.293 162.091 250.23 161.891 250.068 161.86C249.906 161.829 249.625 161.997 249.506 162.397C249.447 162.53 249.422 162.677 249.432 162.823C249.443 162.969 249.49 163.11 249.569 163.233C249.601 163.275 249.642 163.309 249.69 163.332C249.738 163.355 249.791 163.366 249.843 163.364C249.866 163.358 249.889 163.356 249.912 163.36C249.935 163.363 249.957 163.371 249.977 163.384C249.996 163.397 250.013 163.414 250.025 163.433C250.037 163.453 250.046 163.475 250.049 163.498C250.052 163.521 250.05 163.544 250.043 163.567C250.037 163.589 250.025 163.609 250.01 163.627C249.995 163.644 249.976 163.658 249.955 163.668C249.933 163.677 249.91 163.682 249.887 163.682L249.825 163.664Z" fill="#A9B9CC"/>
<path d="M251.796 163.664C251.702 163.659 251.609 163.635 251.525 163.593C251.44 163.551 251.365 163.493 251.304 163.42C251.186 163.257 251.112 163.066 251.089 162.866C251.066 162.666 251.095 162.464 251.172 162.278C251.347 161.698 251.796 161.455 252.102 161.517C252.408 161.579 252.633 161.823 252.589 162.384C252.584 162.427 252.564 162.466 252.531 162.494C252.499 162.521 252.457 162.536 252.414 162.534C252.393 162.533 252.373 162.527 252.354 162.517C252.335 162.507 252.318 162.494 252.305 162.478C252.292 162.461 252.282 162.442 252.276 162.422C252.27 162.402 252.268 162.38 252.271 162.359C252.271 162.066 252.208 161.866 252.046 161.835C251.884 161.804 251.603 161.972 251.478 162.372C251.421 162.506 251.398 162.653 251.41 162.798C251.422 162.944 251.469 163.085 251.547 163.208C251.578 163.251 251.62 163.285 251.668 163.308C251.716 163.331 251.768 163.341 251.821 163.339C251.864 163.334 251.906 163.345 251.94 163.371C251.974 163.396 251.996 163.434 252.002 163.476C252.006 163.518 251.994 163.56 251.969 163.593C251.943 163.627 251.906 163.65 251.865 163.657L251.796 163.664Z" fill="#A9B9CC"/>
<path d="M253.768 163.664C253.674 163.659 253.581 163.635 253.496 163.593C253.412 163.551 253.336 163.493 253.275 163.42C253.157 163.257 253.084 163.066 253.062 162.866C253.04 162.666 253.071 162.463 253.151 162.278C253.325 161.698 253.775 161.455 254.08 161.517C254.386 161.579 254.611 161.823 254.561 162.384C254.566 162.408 254.565 162.432 254.559 162.455C254.553 162.479 254.542 162.5 254.527 162.519C254.512 162.537 254.493 162.552 254.471 162.563C254.449 162.573 254.426 162.578 254.402 162.578C254.378 162.578 254.354 162.573 254.332 162.563C254.311 162.552 254.292 162.537 254.276 162.519C254.261 162.5 254.25 162.479 254.244 162.455C254.238 162.432 254.238 162.408 254.243 162.384C254.243 162.091 254.18 161.891 254.018 161.86C253.856 161.829 253.575 161.997 253.456 162.397C253.397 162.53 253.371 162.677 253.382 162.823C253.393 162.969 253.44 163.11 253.519 163.233C253.551 163.275 253.592 163.309 253.64 163.332C253.688 163.355 253.74 163.366 253.793 163.364C253.816 163.358 253.839 163.356 253.862 163.36C253.885 163.363 253.907 163.371 253.927 163.384C253.946 163.397 253.962 163.414 253.975 163.433C253.987 163.453 253.995 163.475 253.999 163.498C254.002 163.521 254 163.544 253.993 163.567C253.987 163.589 253.975 163.609 253.96 163.627C253.945 163.644 253.926 163.658 253.904 163.668C253.883 163.677 253.86 163.682 253.837 163.682L253.768 163.664Z" fill="#A9B9CC"/>
<path d="M255.746 163.664C255.652 163.659 255.559 163.635 255.475 163.593C255.39 163.551 255.314 163.493 255.253 163.42C255.134 163.258 255.059 163.067 255.036 162.867C255.013 162.666 255.043 162.463 255.122 162.278C255.297 161.698 255.746 161.455 256.052 161.517C256.358 161.579 256.583 161.823 256.539 162.384C256.534 162.427 256.514 162.466 256.481 162.494C256.449 162.521 256.407 162.536 256.364 162.534C256.322 162.529 256.283 162.509 256.255 162.476C256.227 162.444 256.213 162.402 256.214 162.359C256.214 162.066 256.158 161.866 255.996 161.835C255.834 161.804 255.553 161.972 255.428 162.372C255.37 162.506 255.345 162.653 255.357 162.799C255.369 162.944 255.417 163.085 255.497 163.208C255.527 163.251 255.567 163.285 255.614 163.308C255.661 163.331 255.713 163.341 255.765 163.339C255.807 163.334 255.85 163.345 255.884 163.371C255.917 163.396 255.94 163.434 255.946 163.476C255.95 163.497 255.949 163.519 255.944 163.539C255.939 163.56 255.929 163.58 255.917 163.596C255.904 163.613 255.887 163.628 255.869 163.638C255.85 163.648 255.83 163.655 255.809 163.657L255.746 163.664Z" fill="#A9B9CC"/>
<path d="M101.587 179.619H69.5137V181.061H101.587V179.619Z" fill="#CBD5E0"/>
<path d="M85.6566 179.619H69.5137V181.061H85.6566V179.619Z" fill="#A9B9CC"/>
<path d="M83.9219 181.061H52.6657L48.5785 159.832H79.8347L83.9219 181.061Z" fill="#CBD5E0"/>
<path d="M68.1534 170.446C68.18 170.688 68.1547 170.933 68.0793 171.165C68.0039 171.397 67.88 171.61 67.7159 171.79C67.5518 171.97 67.3512 172.113 67.1275 172.209C66.9039 172.306 66.6622 172.354 66.4186 172.349C65.9005 172.34 65.4037 172.141 65.022 171.791C64.6404 171.44 64.4002 170.962 64.347 170.446C64.3251 170.207 64.3538 169.965 64.4314 169.737C64.5089 169.509 64.6336 169.3 64.7972 169.124C64.9608 168.947 65.1597 168.807 65.381 168.712C65.6023 168.618 65.841 168.571 66.0817 168.574C66.5955 168.581 67.089 168.775 67.4703 169.12C67.8515 169.464 68.0943 169.936 68.1534 170.446Z" fill="white"/>
<path d="M21.5093 287.306L55.1304 287.156L88.7515 287.1L156 287L223.248 287.1L256.87 287.156L290.491 287.306L256.87 287.462L223.248 287.518L156 287.618L88.7515 287.518L55.1304 287.462L21.5093 287.306Z" fill="#202327"/>
</svg>
