<svg width="120" height="111" viewBox="0 0 120 111" fill="none" xmlns="http://www.w3.org/2000/svg">
<g id="freepik--character-1--inject-2">
<g id="Group 19">
<path id="Vector" d="M0 83.9708C0 88.3891 3.58172 91.9708 8 91.9708H112C116.418 91.9708 120 88.3891 120 83.9708V8.00001C120 3.58173 116.418 0 112 0H8C3.58172 0 0 3.58172 0 8V83.9708Z" fill="#FFE1F8"/>
<path id="Vector_2" d="M105.252 102.483V91.9707H96.3496L105.252 102.483Z" fill="#FFE1F8"/>
</g>
<g id="Group 22">
<path id="Vector_3" d="M29.1538 25.4817C26.7222 32.3475 22.6162 40.2382 23.6008 47.7538C24.3577 53.6416 28.1892 58.6118 32.5632 62.383C42.1955 70.6689 57.5682 76.0276 68.7344 67.3465C73.1821 63.8767 76.4911 54.854 72.3515 49.9308C70.2214 47.4055 67.1938 46.0524 64.4474 44.3376C62.7113 43.3357 61.2232 41.9555 60.0938 40.2995C58.9643 38.6436 58.2224 36.7544 57.9232 34.7724C56.5233 26.5267 58.8208 21.4962 60.4887 13.5385C60.7066 12.7619 60.7596 11.9483 60.6442 11.15C60.5289 10.3517 60.2477 9.58641 59.8189 8.90328C58.9274 7.26412 57.6048 5.89984 55.9941 4.95794C54.7084 3.86374 53.1707 3.10642 51.5196 2.75418C47.9762 2.08435 43.7227 4.24122 40.474 5.43353C37.2253 6.62583 35.3162 8.32722 34.0838 11.6362C32.3623 16.2045 30.7949 20.8532 29.1538 25.4817Z" fill="#263238"/>
<path id="Vector_4" d="M27.3042 28.5158C29.9434 22.3399 32.6629 16.2243 35.4092 10.0886C35.4092 10.0551 35.4896 10.0886 35.4695 10.0886C33.3863 15.2062 31.3701 20.3438 29.2132 25.4279C27.0564 30.5119 24.5847 35.395 22.9235 40.5528C19.1657 52.1409 29.6955 60.4804 39.7632 62.9253C40.2186 63.0392 39.9909 63.7559 39.5354 63.5951C30.7606 61.1837 21.2757 55.0681 21.5101 44.8397C21.6441 39.2399 25.1406 33.5597 27.3042 28.5158Z" fill="#263238"/>
<path id="Vector_5" d="M60.0783 12.7542C60.08 12.7395 60.0849 12.7252 60.0927 12.7126C60.1006 12.6999 60.1111 12.6892 60.1236 12.6811C60.1361 12.6731 60.1502 12.6679 60.165 12.6659C60.1797 12.664 60.1947 12.6653 60.2089 12.6699C60.223 12.6744 60.236 12.6821 60.2469 12.6922C60.2577 12.7024 60.2662 12.7149 60.2716 12.7287C60.2771 12.7425 60.2794 12.7574 60.2784 12.7723C60.2774 12.7871 60.2731 12.8015 60.2658 12.8145C58.618 19.2985 56.0928 26.7136 58.0487 33.3852C59.0145 36.6733 60.9527 39.5921 63.6083 41.7581C65.7116 43.4662 68.2369 44.3236 70.6014 45.5762C79.8385 50.4794 75.9132 63.7757 67.212 66.7899C67.0312 66.8502 66.9106 66.5354 67.0915 66.4684C73.3277 63.9833 77.1926 57.2046 74.7142 50.6201C72.7047 45.3418 66.0063 44.7858 62.2151 41.1151C54.3713 33.5058 57.064 21.9846 60.0783 12.7542Z" fill="#263238"/>
<path id="Vector_6" d="M88.869 22.0583L79.3708 42.5352C79.281 42.6422 79.2215 42.7712 79.1983 42.909C79.1752 43.0467 79.1893 43.1881 79.2391 43.3186C79.289 43.4491 79.3728 43.5638 79.482 43.651C79.5911 43.7382 79.7215 43.7947 79.8597 43.8146L90.9388 45.9178C91.283 45.9582 91.6315 45.8997 91.9435 45.749C92.2556 45.5983 92.5182 45.3618 92.7005 45.0672L102.199 24.5903C102.289 24.4839 102.349 24.3553 102.372 24.2178C102.396 24.0803 102.382 23.9391 102.332 23.809C102.282 23.6788 102.197 23.5645 102.088 23.478C101.979 23.3916 101.848 23.3362 101.71 23.3176L90.6106 21.2076C90.2697 21.1711 89.9254 21.2316 89.6173 21.3821C89.3092 21.5326 89.0499 21.767 88.869 22.0583Z" fill="#A6A6A6"/>
<path id="Vector_7" d="M90.1894 22.2998L80.6911 42.7767C80.6013 42.8838 80.5418 43.0128 80.5186 43.1506C80.4955 43.2883 80.5096 43.4297 80.5595 43.5602C80.6093 43.6907 80.6932 43.8054 80.8023 43.8926C80.9114 43.9798 81.0418 44.0363 81.18 44.0561L92.2792 46.1594C92.623 46.1958 92.97 46.1354 93.2813 45.9851C93.5926 45.8348 93.8557 45.6005 94.0409 45.3087L103.532 24.8318C103.622 24.7248 103.682 24.5958 103.705 24.458C103.728 24.3203 103.714 24.1789 103.664 24.0484C103.614 23.9179 103.53 23.8032 103.421 23.716C103.312 23.6288 103.182 23.5723 103.044 23.5524L91.9443 21.4492C91.6012 21.4093 91.2538 21.4681 90.9429 21.6188C90.632 21.7695 90.3706 22.0058 90.1894 22.2998Z" fill="#DBDBDB"/>
<path id="Vector_8" d="M93.0427 23.8604C93.0027 24.0455 92.9089 24.2146 92.7729 24.3464C92.6369 24.4782 92.465 24.5667 92.2787 24.6008C92.0925 24.6349 91.9003 24.613 91.7265 24.5379C91.5526 24.4628 91.405 24.3379 91.3021 24.1789C91.1992 24.0199 91.1458 23.8341 91.1485 23.6447C91.1513 23.4554 91.2101 23.2711 91.3175 23.1152C91.4249 22.9593 91.5761 22.8387 91.752 22.7686C91.9279 22.6986 92.1206 22.6823 92.3058 22.7217C92.4295 22.7471 92.5469 22.7969 92.6511 22.8681C92.7553 22.9394 92.8443 23.0307 92.9129 23.1367C92.9814 23.2426 93.0282 23.3612 93.0505 23.4855C93.0728 23.6097 93.0701 23.7372 93.0427 23.8604Z" fill="#263238"/>
<path id="Vector_9" d="M46.9241 47.834C50.5345 62.4298 61.1581 82.5651 66.9656 83.8043C69.732 84.387 74.5481 86.0348 78.815 83.5765C88.1324 78.2178 97.4029 66.2411 100.25 58.9064C101.268 56.2941 89.2711 47.814 86.8932 49.6292C81.3135 53.8827 74.0123 62.9523 73.2152 62.7312C70.2813 61.914 60.5553 49.8904 53.7899 41.4371C45.5777 31.1752 45.4839 42.0199 46.9241 47.834Z" fill="#F7A9A0"/>
<path id="Vector_10" d="M103.377 44.9875C103.075 39.2202 102.111 37.7868 104.448 32.7831C105.976 29.4942 104.536 27.1096 101.541 29.3937C96.6382 33.1247 95.4592 40.6537 95.8009 43.3799L103.377 44.9875Z" fill="#F7A9A0"/>
<path id="Vector_11" d="M99.1575 61.1507C99.1575 61.1507 103.13 53.9834 103.424 47.8075C103.619 43.534 103.016 34.1897 92.3318 27.1967C89.7999 25.5355 85.0105 24.9661 88.1655 29.2062C90.4094 32.2003 92.7337 33.4194 93.7184 35.3955C93.7184 35.3955 87.5425 35.3955 85.9818 38.0011C84.6174 40.2711 83.4154 42.6349 82.3848 45.0746C82.7894 45.367 83.2122 45.6332 83.6508 45.8717C83.6508 45.8717 82.2642 48.3501 83.4833 52.5098L99.1575 61.1507Z" fill="#F7A9A0"/>
<path id="Vector_12" d="M102.996 43.6745C101.602 41.9195 98.5814 38.2488 95.0715 36.1053C91.1663 33.7207 83.0144 30.1839 81.2795 33.0776C80.0068 35.2077 83.0077 36.8287 83.0077 36.8287C83.0077 36.8287 79.3236 36.0785 78.6002 38.2488C77.9303 40.2583 80.3284 41.3434 80.3284 41.3434C80.3284 41.3434 78.0174 41.2697 77.7495 43.2993C77.428 45.7375 82.3245 45.4897 84.1263 48.2427C84.5014 48.8657 102.996 43.6745 102.996 43.6745Z" fill="#F7A9A0"/>
<path id="Vector_13" d="M93.2035 40.6472C90.2936 38.3551 86.7529 37.0066 83.0555 36.7822C82.9617 36.7822 82.9081 36.8492 82.9952 36.8693C86.533 37.7229 89.9541 39.0027 93.1834 40.6807C93.1834 40.6807 93.2236 40.6606 93.2035 40.6472Z" fill="#263238"/>
<path id="Vector_14" d="M90.6847 44.5186C89.1909 43.4133 84.5222 41.2096 80.3223 41.2632C80.2285 41.2632 80.1816 41.3368 80.2687 41.3569C83.8439 42.0244 87.3316 43.0963 90.6646 44.5521C90.6646 44.5521 90.7047 44.532 90.6847 44.5186Z" fill="#263238"/>
<path id="Vector_15" d="M52.1218 66.5085L64.7013 52.7232C64.7013 52.7232 56.1274 41.9121 50.4941 37.317C47.3392 34.7247 45.2895 37.1429 45.5172 40.8203C46.3076 53.7012 52.1218 66.5085 52.1218 66.5085Z" fill="#FF5FDA"/>
<path id="Vector_16" d="M48.6123 38.7712C48.6136 38.9175 48.5714 39.0608 48.4909 39.183C48.4105 39.3052 48.2955 39.4007 48.1606 39.4573C48.0257 39.5139 47.877 39.529 47.7334 39.5008C47.5899 39.4726 47.458 39.4023 47.3545 39.2988C47.2511 39.1954 47.1808 39.0635 47.1525 38.9199C47.1243 38.7764 47.1395 38.6277 47.1961 38.4928C47.2527 38.3579 47.3481 38.2429 47.4703 38.1624C47.5925 38.082 47.7359 38.0397 47.8822 38.041C48.0758 38.041 48.2615 38.118 48.3985 38.2549C48.5354 38.3918 48.6123 38.5775 48.6123 38.7712ZM47.8822 49.3345C47.7362 49.3332 47.5931 49.3752 47.471 49.4554C47.349 49.5355 47.2535 49.6502 47.1967 49.7847C47.1399 49.9192 47.1244 50.0675 47.152 50.2109C47.1797 50.3543 47.2493 50.4862 47.3521 50.5899C47.4549 50.6936 47.5862 50.7645 47.7293 50.7934C47.8724 50.8224 48.0209 50.8082 48.1559 50.7527C48.2909 50.6971 48.4064 50.6027 48.4877 50.4813C48.5689 50.36 48.6123 50.2173 48.6123 50.0713C48.6123 49.877 48.5356 49.6906 48.3989 49.5527C48.2621 49.4147 48.0764 49.3363 47.8822 49.3345ZM56.1748 49.3345C56.0288 49.3332 55.8856 49.3752 55.7636 49.4554C55.6416 49.5355 55.5461 49.6502 55.4893 49.7847C55.4325 49.9192 55.4169 50.0675 55.4446 50.2109C55.4723 50.3543 55.5419 50.4862 55.6447 50.5899C55.7475 50.6936 55.8787 50.7645 56.0218 50.7934C56.1649 50.8224 56.3134 50.8082 56.4485 50.7527C56.5835 50.6971 56.699 50.6027 56.7802 50.4813C56.8615 50.36 56.9049 50.2173 56.9049 50.0713C56.9049 49.877 56.8282 49.6906 56.6914 49.5527C56.5547 49.4147 56.369 49.3363 56.1748 49.3345ZM52.0285 43.7347C51.8822 43.7333 51.7388 43.7756 51.6166 43.856C51.4944 43.9365 51.399 44.0515 51.3424 44.1864C51.2858 44.3213 51.2706 44.47 51.2988 44.6136C51.327 44.7571 51.3974 44.889 51.5008 44.9925C51.6042 45.0959 51.7361 45.1662 51.8797 45.1944C52.0233 45.2226 52.1719 45.2075 52.3069 45.1509C52.4418 45.0943 52.5568 44.9988 52.6372 44.8766C52.7177 44.7544 52.7599 44.6111 52.7586 44.4648C52.7586 44.2711 52.6817 44.0854 52.5448 43.9485C52.4078 43.8116 52.2221 43.7347 52.0285 43.7347ZM56.1748 60.648C56.0285 60.6467 55.8851 60.689 55.7629 60.7694C55.6407 60.8499 55.5452 60.9649 55.4886 61.0998C55.432 61.2347 55.4169 61.3834 55.4451 61.5269C55.4733 61.6705 55.5436 61.8024 55.6471 61.9058C55.7505 62.0093 55.8824 62.0796 56.026 62.1078C56.1695 62.136 56.3182 62.1209 56.4531 62.0643C56.5881 62.0077 56.7031 61.9122 56.7835 61.79C56.864 61.6678 56.9062 61.5244 56.9049 61.3781C56.9067 61.2811 56.8891 61.1848 56.8532 61.0946C56.8173 61.0045 56.7638 60.9224 56.6958 60.8532C56.6279 60.784 56.5468 60.729 56.4573 60.6914C56.3678 60.6539 56.2718 60.6346 56.1748 60.6346V60.648ZM52.0285 55.0281C51.8825 55.0268 51.7394 55.0688 51.6173 55.149C51.4953 55.2292 51.3998 55.3438 51.343 55.4783C51.2862 55.6128 51.2706 55.7611 51.2983 55.9045C51.326 56.0479 51.3956 56.1798 51.4984 56.2835C51.6012 56.3872 51.7324 56.4581 51.8755 56.487C52.0187 56.516 52.1672 56.5018 52.3022 56.4463C52.4372 56.3907 52.5527 56.2963 52.6339 56.175C52.7152 56.0536 52.7586 55.9109 52.7586 55.7649C52.7604 55.6676 52.7428 55.5709 52.707 55.4804C52.6712 55.3899 52.6178 55.3074 52.5499 55.2376C52.482 55.1678 52.401 55.1122 52.3115 55.074C52.222 55.0357 52.1258 55.0156 52.0285 55.0147V55.0281ZM60.3211 55.0281C60.175 55.0268 60.0319 55.0688 59.9099 55.149C59.7878 55.2292 59.6924 55.3438 59.6356 55.4783C59.5788 55.6128 59.5632 55.7611 59.5909 55.9045C59.6185 56.0479 59.6882 56.1798 59.791 56.2835C59.8937 56.3872 60.025 56.4581 60.1681 56.487C60.3112 56.516 60.4597 56.5018 60.5948 56.4463C60.7298 56.3907 60.8453 56.2963 60.9265 56.175C61.0078 56.0536 61.0512 55.9109 61.0512 55.7649C61.0529 55.6676 61.0354 55.5709 60.9996 55.4804C60.9638 55.3899 60.9104 55.3074 60.8425 55.2376C60.7746 55.1678 60.6936 55.1122 60.6041 55.074C60.5146 55.0357 60.4184 55.0156 60.3211 55.0147V55.0281ZM52.0285 66.3282L52.1223 66.5426L52.2763 66.3751C52.1989 66.3376 52.1144 66.317 52.0285 66.3148V66.3282Z" fill="white"/>
<path id="Vector_17" d="M62.0899 51.2436C59.9799 53.2062 54.4069 58.6855 51.252 62.7246C51.252 62.7246 51.3189 62.8318 51.339 62.8117C54.4739 59.851 60.2813 53.5009 62.2172 51.3709C62.2507 51.3307 62.1368 51.2101 62.0899 51.2436Z" fill="#263238"/>
<path id="Vector_18" opacity="0.1" d="M63.26 54.3112L52.1207 66.5089C52.1207 66.5089 46.3132 53.6815 45.5161 40.8073C45.3553 38.2753 46.2797 36.3462 47.894 36.2256L63.26 54.3112Z" fill="black"/>
<path id="Vector_19" d="M61.8418 86.9791H15.2949C15.2949 86.9791 20.7809 55.0949 35.7785 38.0208C39.7975 33.4123 45.9064 34.1961 49.3762 37.3108C50.5919 38.5 51.7118 39.7833 52.7254 41.1489C55.8803 45.168 61.0313 54.9275 61.5069 57.5532C62.304 61.9072 58.4592 66.6027 58.4592 66.6027L61.8418 86.9791Z" fill="#FF5FDA"/>
<path id="Vector_20" d="M40.3189 38.7712C40.3202 38.9175 40.278 39.0608 40.1975 39.183C40.1171 39.3052 40.0021 39.4007 39.8672 39.4573C39.7323 39.5139 39.5836 39.529 39.44 39.5008C39.2965 39.4726 39.1646 39.4023 39.0611 39.2988C38.9577 39.1954 38.8873 39.0635 38.8591 38.9199C38.8309 38.7764 38.8461 38.6277 38.9027 38.4928C38.9593 38.3579 39.0547 38.2429 39.1769 38.1624C39.2991 38.082 39.4425 38.0397 39.5888 38.041C39.6847 38.041 39.7796 38.0599 39.8682 38.0966C39.9568 38.1333 40.0373 38.1871 40.1051 38.2549C40.1729 38.3227 40.2266 38.4032 40.2633 38.4918C40.3 38.5803 40.3189 38.6753 40.3189 38.7712ZM47.8814 38.041C47.7351 38.0397 47.5917 38.082 47.4695 38.1624C47.3473 38.2429 47.2518 38.3579 47.1952 38.4928C47.1386 38.6277 47.1235 38.7764 47.1517 38.9199C47.1799 39.0635 47.2502 39.1954 47.3537 39.2988C47.4571 39.4023 47.589 39.4726 47.7326 39.5008C47.8761 39.529 48.0248 39.5139 48.1597 39.4573C48.2946 39.4007 48.4096 39.3052 48.4901 39.183C48.5705 39.0608 48.6128 38.9175 48.6115 38.7712C48.6115 38.5775 48.5346 38.3918 48.3976 38.2549C48.2607 38.118 48.075 38.041 47.8814 38.041ZM31.323 49.3345C31.177 49.3332 31.0339 49.3752 30.9118 49.4554C30.7898 49.5355 30.6943 49.6501 30.6375 49.7847C30.5807 49.9192 30.5652 50.0675 30.5928 50.2109C30.6205 50.3543 30.6901 50.4862 30.7929 50.5899C30.8957 50.6936 31.027 50.7645 31.1701 50.7934C31.3132 50.8224 31.4617 50.8082 31.5967 50.7527C31.7317 50.6971 31.8472 50.6027 31.9285 50.4813C32.0097 50.36 32.0531 50.2173 32.0531 50.0713C32.0531 49.877 31.9764 49.6906 31.8397 49.5526C31.703 49.4147 31.5173 49.3362 31.323 49.3345ZM39.6156 49.3345C39.4696 49.3332 39.3265 49.3752 39.2044 49.4554C39.0824 49.5355 38.9869 49.6501 38.9301 49.7847C38.8733 49.9192 38.8577 50.0675 38.8854 50.2109C38.9131 50.3543 38.9827 50.4862 39.0855 50.5899C39.1883 50.6936 39.3195 50.7645 39.4627 50.7934C39.6058 50.8224 39.7543 50.8082 39.8893 50.7527C40.0243 50.6971 40.1398 50.6027 40.221 50.4813C40.3023 50.36 40.3457 50.2173 40.3457 50.0713C40.3457 49.9728 40.326 49.8753 40.2878 49.7846C40.2495 49.6939 40.1934 49.6117 40.1228 49.5431C40.0523 49.4744 39.9687 49.4205 39.8769 49.3847C39.7852 49.3489 39.6872 49.3318 39.5888 49.3345H39.6156ZM47.9082 49.3345C47.7621 49.3332 47.619 49.3752 47.497 49.4554C47.3749 49.5355 47.2795 49.6501 47.2227 49.7847C47.1659 49.9192 47.1503 50.0675 47.178 50.2109C47.2057 50.3543 47.2753 50.4862 47.3781 50.5899C47.4808 50.6936 47.6121 50.7645 47.7552 50.7934C47.8983 50.8224 48.0468 50.8082 48.1819 50.7527C48.3169 50.6971 48.4324 50.6027 48.5136 50.4813C48.5949 50.36 48.6383 50.2173 48.6383 50.0713C48.6383 49.9728 48.6186 49.8753 48.5803 49.7846C48.542 49.6939 48.486 49.6117 48.4154 49.5431C48.3448 49.4744 48.2612 49.4205 48.1695 49.3847C48.0778 49.3489 47.9798 49.3318 47.8814 49.3345H47.9082ZM56.2007 49.3345C56.0547 49.3332 55.9116 49.3752 55.7896 49.4554C55.6675 49.5355 55.572 49.6501 55.5152 49.7847C55.4584 49.9192 55.4429 50.0675 55.4706 50.2109C55.4982 50.3543 55.5679 50.4862 55.6706 50.5899C55.7734 50.6936 55.9047 50.7645 56.0478 50.7934C56.1909 50.8224 56.3394 50.8082 56.4744 50.7527C56.6095 50.6971 56.7249 50.6027 56.8062 50.4813C56.8875 50.36 56.9308 50.2173 56.9308 50.0713C56.9309 49.9728 56.9112 49.8753 56.8729 49.7846C56.8346 49.6939 56.7785 49.6117 56.708 49.5431C56.6374 49.4744 56.5538 49.4205 56.4621 49.3847C56.3703 49.3489 56.2724 49.3318 56.1739 49.3345H56.2007ZM35.4425 43.7347C35.2962 43.7333 35.1528 43.7756 35.0306 43.856C34.9085 43.9365 34.813 44.0515 34.7564 44.1864C34.6998 44.3213 34.6846 44.47 34.7128 44.6136C34.7411 44.7571 34.8114 44.889 34.9148 44.9924C35.0183 45.0959 35.1502 45.1662 35.2937 45.1944C35.4373 45.2226 35.586 45.2075 35.7209 45.1509C35.8558 45.0943 35.9708 44.9988 36.0512 44.8766C36.1317 44.7544 36.1739 44.6111 36.1726 44.4648C36.1726 44.2711 36.0957 44.0854 35.9588 43.9485C35.8218 43.8116 35.6361 43.7347 35.4425 43.7347ZM43.7351 43.7347C43.5888 43.7333 43.4454 43.7756 43.3232 43.856C43.201 43.9365 43.1055 44.0515 43.049 44.1864C42.9924 44.3213 42.9772 44.47 43.0054 44.6136C43.0336 44.7571 43.1039 44.889 43.2074 44.9924C43.3108 45.0959 43.4427 45.1662 43.5863 45.1944C43.7298 45.2226 43.8785 45.2075 44.0135 45.1509C44.1484 45.0943 44.2634 44.9988 44.3438 44.8766C44.4243 44.7544 44.4665 44.6111 44.4652 44.4648C44.4652 44.2711 44.3883 44.0854 44.2513 43.9485C44.1144 43.8116 43.9287 43.7347 43.7351 43.7347ZM52.0276 43.7347C51.8814 43.7333 51.738 43.7756 51.6158 43.856C51.4936 43.9365 51.3981 44.0515 51.3415 44.1864C51.2849 44.3213 51.2698 44.47 51.298 44.6136C51.3262 44.7571 51.3965 44.889 51.5 44.9924C51.6034 45.0959 51.7353 45.1662 51.8789 45.1944C52.0224 45.2226 52.1711 45.2075 52.306 45.1509C52.4409 45.0943 52.5559 44.9988 52.6364 44.8766C52.7168 44.7544 52.7591 44.6111 52.7578 44.4648C52.7578 44.2711 52.6808 44.0854 52.5439 43.9485C52.407 43.8116 52.2213 43.7347 52.0276 43.7347ZM23.0036 60.6346H22.8496C22.6977 61.0142 22.5504 61.396 22.4075 61.78C22.4742 61.8761 22.5634 61.9545 22.6673 62.0082C22.7712 62.0619 22.8867 62.0893 23.0036 62.0882C23.1861 62.0707 23.3555 61.9859 23.4787 61.8503C23.602 61.7146 23.6703 61.538 23.6703 61.3547C23.6703 61.1714 23.602 60.9947 23.4787 60.8591C23.3555 60.7235 23.1861 60.6387 23.0036 60.6212V60.6346ZM31.2962 60.6346C31.1499 60.6333 31.0065 60.6755 30.8844 60.756C30.7622 60.8364 30.6667 60.9515 30.6101 61.0864C30.5535 61.2213 30.5383 61.37 30.5666 61.5135C30.5948 61.6571 30.6651 61.789 30.7685 61.8924C30.872 61.9959 31.0039 62.0662 31.1474 62.0944C31.291 62.1226 31.4397 62.1075 31.5746 62.0509C31.7095 61.9943 31.8245 61.8988 31.905 61.7766C31.9854 61.6544 32.0277 61.511 32.0263 61.3647C32.0265 61.1757 31.9532 60.9939 31.822 60.8577C31.6909 60.7215 31.512 60.6416 31.323 60.6346H31.2962ZM39.5888 60.6346C39.4425 60.6333 39.2991 60.6755 39.1769 60.756C39.0547 60.8364 38.9593 60.9515 38.9027 61.0864C38.8461 61.2213 38.8309 61.37 38.8591 61.5135C38.8873 61.6571 38.9577 61.789 39.0611 61.8924C39.1646 61.9959 39.2965 62.0662 39.44 62.0944C39.5836 62.1226 39.7323 62.1075 39.8672 62.0509C40.0021 61.9943 40.1171 61.8988 40.1975 61.7766C40.278 61.6544 40.3202 61.511 40.3189 61.3647C40.3189 61.1711 40.242 60.9854 40.1051 60.8485C39.9681 60.7115 39.7824 60.6346 39.5888 60.6346ZM47.8814 60.6346C47.7351 60.6333 47.5917 60.6755 47.4695 60.756C47.3473 60.8364 47.2518 60.9515 47.1952 61.0864C47.1386 61.2213 47.1235 61.37 47.1517 61.5135C47.1799 61.6571 47.2502 61.789 47.3537 61.8924C47.4571 61.9959 47.589 62.0662 47.7326 62.0944C47.8761 62.1226 48.0248 62.1075 48.1597 62.0509C48.2946 61.9943 48.4096 61.8988 48.4901 61.7766C48.5705 61.6544 48.6128 61.511 48.6115 61.3647C48.6115 61.1711 48.5346 60.9854 48.3976 60.8485C48.2607 60.7115 48.075 60.6346 47.8814 60.6346ZM56.1739 60.6346C56.0276 60.6333 55.8843 60.6755 55.7621 60.756C55.6399 60.8364 55.5444 60.9515 55.4878 61.0864C55.4312 61.2213 55.4161 61.37 55.4443 61.5135C55.4725 61.6571 55.5428 61.789 55.6462 61.8924C55.7497 61.9959 55.8816 62.0662 56.0251 62.0944C56.1687 62.1226 56.3174 62.1075 56.4523 62.0509C56.5872 61.9943 56.7022 61.8988 56.7827 61.7766C56.8631 61.6544 56.9054 61.511 56.9041 61.3647C56.9041 61.1711 56.8271 60.9854 56.6902 60.8485C56.5533 60.7115 56.3676 60.6346 56.1739 60.6346ZM27.1499 55.0147C27.0039 55.0134 26.8608 55.0554 26.7388 55.1356C26.6167 55.2157 26.5212 55.3304 26.4644 55.4649C26.4076 55.5994 26.3921 55.7477 26.4198 55.8911C26.4474 56.0345 26.5171 56.1664 26.6198 56.2701C26.7226 56.3738 26.8539 56.4447 26.997 56.4736C27.1401 56.5026 27.2886 56.4884 27.4236 56.4329C27.5587 56.3773 27.6741 56.2829 27.7554 56.1616C27.8366 56.0402 27.88 55.8975 27.88 55.7515C27.8801 55.5573 27.8033 55.3708 27.6666 55.2329C27.5299 55.0949 27.3442 55.0165 27.1499 55.0147ZM35.4425 55.0147C35.2965 55.0134 35.1534 55.0554 35.0313 55.1356C34.9093 55.2157 34.8138 55.3304 34.757 55.4649C34.7002 55.5994 34.6847 55.7477 34.7123 55.8911C34.74 56.0345 34.8096 56.1664 34.9124 56.2701C35.0152 56.3738 35.1465 56.4447 35.2896 56.4736C35.4327 56.5026 35.5812 56.4884 35.7162 56.4329C35.8512 56.3773 35.9667 56.2829 36.048 56.1616C36.1292 56.0402 36.1726 55.8975 36.1726 55.7515C36.1726 55.5573 36.0959 55.3708 35.9592 55.2329C35.8224 55.0949 35.6368 55.0165 35.4425 55.0147ZM43.7351 55.0147C43.5891 55.0134 43.446 55.0554 43.3239 55.1356C43.2019 55.2157 43.1064 55.3304 43.0496 55.4649C42.9928 55.5994 42.9772 55.7477 43.0049 55.8911C43.0326 56.0345 43.1022 56.1664 43.205 56.2701C43.3078 56.3738 43.439 56.4447 43.5821 56.4736C43.7253 56.5026 43.8737 56.4884 44.0088 56.4329C44.1438 56.3773 44.2593 56.2829 44.3405 56.1616C44.4218 56.0402 44.4652 55.8975 44.4652 55.7515C44.4652 55.5573 44.3885 55.3708 44.2518 55.2329C44.115 55.0949 43.9293 55.0165 43.7351 55.0147ZM52.0276 55.0147C51.8816 55.0134 51.7385 55.0554 51.6165 55.1356C51.4944 55.2157 51.3989 55.3304 51.3422 55.4649C51.2854 55.5994 51.2698 55.7477 51.2975 55.8911C51.3251 56.0345 51.3948 56.1664 51.4976 56.2701C51.6003 56.3738 51.7316 56.4447 51.8747 56.4736C52.0178 56.5026 52.1663 56.4884 52.3013 56.4329C52.4364 56.3773 52.5518 56.2829 52.6331 56.1616C52.7144 56.0402 52.7578 55.8975 52.7578 55.7515C52.7578 55.5573 52.6811 55.3708 52.5443 55.2329C52.4076 55.0949 52.2219 55.0165 52.0276 55.0147ZM60.6886 55.1219C60.5789 55.051 60.4508 55.0137 60.3202 55.0147C60.218 55.0049 60.1149 55.0166 60.0175 55.049C59.92 55.0814 59.8304 55.1338 59.7545 55.2029C59.6785 55.272 59.6178 55.3561 59.5762 55.45C59.5347 55.5439 59.5132 55.6455 59.5132 55.7482C59.5132 55.8508 59.5347 55.9524 59.5762 56.0463C59.6178 56.1402 59.6785 56.2244 59.7545 56.2934C59.8304 56.3625 59.92 56.4149 60.0175 56.4473C60.1149 56.4797 60.218 56.4914 60.3202 56.4816C60.4753 56.475 60.6242 56.4187 60.7448 56.321C60.8654 56.2233 60.9514 56.0894 60.9901 55.9391L60.6886 55.1219ZM23.0036 71.9281C22.8576 71.9267 22.7145 71.9688 22.5925 72.049C22.4704 72.1291 22.3749 72.2437 22.3181 72.3782C22.2614 72.5127 22.2458 72.6611 22.2735 72.8045C22.3011 72.9478 22.3708 73.0798 22.4736 73.1835C22.5763 73.2872 22.7076 73.358 22.8507 73.387C22.9938 73.416 23.1423 73.4018 23.2773 73.3462C23.4124 73.2907 23.5278 73.1962 23.6091 73.0749C23.6904 72.9536 23.7338 72.8109 23.7338 72.6649C23.7338 72.4706 23.6571 72.2842 23.5203 72.1462C23.3836 72.0082 23.1979 71.9298 23.0036 71.9281ZM31.2962 71.9281C31.1502 71.9267 31.0071 71.9688 30.885 72.049C30.763 72.1291 30.6675 72.2437 30.6107 72.3782C30.5539 72.5127 30.5384 72.6611 30.566 72.8045C30.5937 72.9478 30.6634 73.0798 30.7661 73.1835C30.8689 73.2872 31.0002 73.358 31.1433 73.387C31.2864 73.416 31.4349 73.4018 31.5699 73.3462C31.7049 73.2907 31.8204 73.1962 31.9017 73.0749C31.9829 72.9536 32.0263 72.8109 32.0263 72.6649C32.0265 72.4751 31.9535 72.2926 31.8225 72.1553C31.6915 72.0181 31.5126 71.9367 31.323 71.9281H31.2962ZM39.5888 71.9281C39.4428 71.9267 39.2997 71.9688 39.1776 72.049C39.0556 72.1291 38.9601 72.2437 38.9033 72.3782C38.8465 72.5127 38.8309 72.6611 38.8586 72.8045C38.8863 72.9478 38.9559 73.0798 39.0587 73.1835C39.1615 73.2872 39.2927 73.358 39.4359 73.387C39.579 73.416 39.7275 73.4018 39.8625 73.3462C39.9975 73.2907 40.113 73.1962 40.1942 73.0749C40.2755 72.9536 40.3189 72.8109 40.3189 72.6649C40.3189 72.4706 40.2422 72.2842 40.1055 72.1462C39.9687 72.0082 39.783 71.9298 39.5888 71.9281ZM47.8814 71.9281C47.7353 71.9267 47.5922 71.9688 47.4702 72.049C47.3481 72.1291 47.2527 72.2437 47.1959 72.3782C47.1391 72.5127 47.1235 72.6611 47.1512 72.8045C47.1789 72.9478 47.2485 73.0798 47.3513 73.1835C47.4541 73.2872 47.5853 73.358 47.7284 73.387C47.8715 73.416 48.02 73.4018 48.1551 73.3462C48.2901 73.2907 48.4056 73.1962 48.4868 73.0749C48.5681 72.9536 48.6115 72.8109 48.6115 72.6649C48.6115 72.4706 48.5348 72.2842 48.398 72.1462C48.2613 72.0082 48.0756 71.9298 47.8814 71.9281ZM56.1739 71.9281C56.0279 71.9267 55.8848 71.9688 55.7628 72.049C55.6407 72.1291 55.5452 72.2437 55.4884 72.3782C55.4316 72.5127 55.4161 72.6611 55.4438 72.8045C55.4714 72.9478 55.5411 73.0798 55.6438 73.1835C55.7466 73.2872 55.8779 73.358 56.021 73.387C56.1641 73.416 56.3126 73.4018 56.4476 73.3462C56.5827 73.2907 56.6981 73.1962 56.7794 73.0749C56.8607 72.9536 56.904 72.8109 56.9041 72.6649C56.9041 72.4706 56.8274 72.2842 56.6906 72.1462C56.5539 72.0082 56.3682 71.9298 56.1739 71.9281ZM27.1499 66.3148C27.0036 66.3135 26.8603 66.3558 26.7381 66.4362C26.6159 66.5167 26.5204 66.6317 26.4638 66.7666C26.4072 66.9015 26.3921 67.0502 26.4203 67.1937C26.4485 67.3373 26.5188 67.4692 26.6222 67.5726C26.7257 67.6761 26.8576 67.7464 27.0011 67.7746C27.1447 67.8028 27.2934 67.7877 27.4283 67.7311C27.5632 67.6745 27.6782 67.579 27.7587 67.4568C27.8391 67.3346 27.8814 67.1912 27.88 67.0449C27.88 66.8513 27.8031 66.6656 27.6662 66.5287C27.5293 66.3917 27.3436 66.3148 27.1499 66.3148ZM35.4425 66.3148C35.2962 66.3135 35.1528 66.3558 35.0306 66.4362C34.9085 66.5167 34.813 66.6317 34.7564 66.7666C34.6998 66.9015 34.6846 67.0502 34.7128 67.1937C34.7411 67.3373 34.8114 67.4692 34.9148 67.5726C35.0183 67.6761 35.1502 67.7464 35.2937 67.7746C35.4373 67.8028 35.586 67.7877 35.7209 67.7311C35.8558 67.6745 35.9708 67.579 36.0512 67.4568C36.1317 67.3346 36.1739 67.1912 36.1726 67.0449C36.1726 66.8513 36.0957 66.6656 35.9588 66.5287C35.8218 66.3917 35.6361 66.3148 35.4425 66.3148ZM43.7351 66.3148C43.5888 66.3135 43.4454 66.3558 43.3232 66.4362C43.201 66.5167 43.1055 66.6317 43.049 66.7666C42.9924 66.9015 42.9772 67.0502 43.0054 67.1937C43.0336 67.3373 43.1039 67.4692 43.2074 67.5726C43.3108 67.6761 43.4427 67.7464 43.5863 67.7746C43.7298 67.8028 43.8785 67.7877 44.0135 67.7311C44.1484 67.6745 44.2634 67.579 44.3438 67.4568C44.4243 67.3346 44.4665 67.1912 44.4652 67.0449C44.4652 66.8513 44.3883 66.6656 44.2513 66.5287C44.1144 66.3917 43.9287 66.3148 43.7351 66.3148ZM52.0276 66.3148C51.8814 66.3135 51.738 66.3558 51.6158 66.4362C51.4936 66.5167 51.3981 66.6317 51.3415 66.7666C51.2849 66.9015 51.2698 67.0502 51.298 67.1937C51.3262 67.3373 51.3965 67.4692 51.5 67.5726C51.6034 67.6761 51.7353 67.7464 51.8789 67.7746C52.0224 67.8028 52.1711 67.7877 52.306 67.7311C52.4409 67.6745 52.5559 67.579 52.6364 67.4568C52.7168 67.3346 52.7591 67.1912 52.7578 67.0449C52.7578 66.8513 52.6808 66.6656 52.5439 66.5287C52.407 66.3917 52.2213 66.3148 52.0276 66.3148ZM23.0036 83.255C22.8573 83.2537 22.714 83.2959 22.5918 83.3764C22.4696 83.4568 22.3741 83.5718 22.3175 83.7067C22.2609 83.8416 22.2458 83.9903 22.274 84.1339C22.3022 84.2774 22.3725 84.4093 22.476 84.5128C22.5794 84.6162 22.7113 84.6865 22.8549 84.7148C22.9984 84.743 23.1471 84.7278 23.282 84.6712C23.4169 84.6146 23.5319 84.5191 23.6124 84.397C23.6928 84.2748 23.7351 84.1314 23.7338 83.9851C23.7338 83.8892 23.7149 83.7943 23.6782 83.7057C23.6415 83.6171 23.5877 83.5366 23.5199 83.4688C23.4521 83.401 23.3716 83.3473 23.283 83.3106C23.1945 83.2739 23.0995 83.255 23.0036 83.255ZM31.323 83.255C31.1767 83.2537 31.0333 83.2959 30.9111 83.3764C30.789 83.4568 30.6935 83.5718 30.6369 83.7067C30.5803 83.8416 30.5651 83.9903 30.5933 84.1339C30.6216 84.2774 30.6919 84.4093 30.7953 84.5128C30.8988 84.6162 31.0307 84.6865 31.1742 84.7148C31.3178 84.743 31.4665 84.7278 31.6014 84.6712C31.7363 84.6146 31.8513 84.5191 31.9317 84.397C32.0122 84.2748 32.0544 84.1314 32.0531 83.9851C32.0531 83.7915 31.9762 83.6058 31.8393 83.4688C31.7024 83.3319 31.5166 83.255 31.323 83.255ZM39.6156 83.255C39.4693 83.2537 39.3259 83.2959 39.2037 83.3764C39.0815 83.4568 38.9861 83.5718 38.9295 83.7067C38.8729 83.8416 38.8577 83.9903 38.8859 84.1339C38.9141 84.2774 38.9844 84.4093 39.0879 84.5128C39.1913 84.6162 39.3232 84.6865 39.4668 84.7148C39.6103 84.743 39.7591 84.7278 39.894 84.6712C40.0289 84.6146 40.1439 84.5191 40.2243 84.397C40.3048 84.2748 40.347 84.1314 40.3457 83.9851C40.3458 83.8869 40.326 83.7897 40.2877 83.6994C40.2493 83.609 40.1931 83.5273 40.1225 83.4591C40.0518 83.391 39.9681 83.3377 39.8764 83.3027C39.7847 83.2676 39.6869 83.2514 39.5888 83.255H39.6156ZM47.9082 83.255C47.7619 83.2537 47.6185 83.2959 47.4963 83.3764C47.3741 83.4568 47.2786 83.5718 47.222 83.7067C47.1654 83.8416 47.1503 83.9903 47.1785 84.1339C47.2067 84.2774 47.277 84.4093 47.3805 84.5128C47.4839 84.6162 47.6158 84.6865 47.7594 84.7148C47.9029 84.743 48.0516 84.7278 48.1865 84.6712C48.3214 84.6146 48.4364 84.5191 48.5169 84.397C48.5973 84.2748 48.6396 84.1314 48.6383 83.9851C48.6383 83.8869 48.6186 83.7897 48.5802 83.6994C48.5419 83.609 48.4857 83.5273 48.415 83.4591C48.3444 83.391 48.2607 83.3377 48.169 83.3027C48.0773 83.2676 47.9795 83.2514 47.8814 83.255H47.9082ZM56.2007 83.255C56.0544 83.2537 55.9111 83.2959 55.7889 83.3764C55.6667 83.4568 55.5712 83.5718 55.5146 83.7067C55.458 83.8416 55.4429 83.9903 55.4711 84.1339C55.4993 84.2774 55.5696 84.4093 55.673 84.5128C55.7765 84.6162 55.9084 84.6865 56.0519 84.7148C56.1955 84.743 56.3442 84.7278 56.4791 84.6712C56.614 84.6146 56.729 84.5191 56.8095 84.397C56.8899 84.2748 56.9322 84.1314 56.9308 83.9851C56.9309 83.8869 56.9112 83.7897 56.8728 83.6994C56.8345 83.609 56.7783 83.5273 56.7076 83.4591C56.637 83.391 56.5533 83.3377 56.4616 83.3027C56.3699 83.2676 56.272 83.2514 56.1739 83.255H56.2007ZM18.8841 77.6351C18.7381 77.6337 18.595 77.6758 18.473 77.756C18.3509 77.8361 18.2555 77.9507 18.1987 78.0852C18.1419 78.2197 18.1263 78.3681 18.154 78.5115C18.1816 78.6548 18.2513 78.7868 18.3541 78.8905C18.4568 78.9942 18.5881 79.065 18.7312 79.094C18.8743 79.123 19.0228 79.1088 19.1578 79.0532C19.2929 78.9977 19.4083 78.9032 19.4896 78.7819C19.5709 78.6606 19.6143 78.5179 19.6143 78.3719C19.618 78.2712 19.601 78.1708 19.5643 78.0769C19.5277 77.983 19.4722 77.8977 19.4012 77.8261C19.3303 77.7545 19.2454 77.6983 19.1519 77.6608C19.0583 77.6233 18.9581 77.6054 18.8573 77.6083L18.8841 77.6351ZM27.1767 77.6351C27.0307 77.6337 26.8876 77.6758 26.7656 77.756C26.6435 77.8361 26.548 77.9507 26.4912 78.0852C26.4344 78.2197 26.4189 78.3681 26.4466 78.5115C26.4742 78.6548 26.5439 78.7868 26.6466 78.8905C26.7494 78.9942 26.8807 79.065 27.0238 79.094C27.1669 79.123 27.3154 79.1088 27.4504 79.0532C27.5854 78.9977 27.7009 78.9032 27.7822 78.7819C27.8634 78.6606 27.9068 78.5179 27.9068 78.3719C27.9105 78.2712 27.8935 78.1708 27.8569 78.0769C27.8203 77.983 27.7648 77.8977 27.6938 77.8261C27.6229 77.7545 27.538 77.6983 27.4445 77.6608C27.3509 77.6233 27.2507 77.6054 27.1499 77.6083L27.1767 77.6351ZM35.4693 77.6351C35.3233 77.6337 35.1802 77.6758 35.0581 77.756C34.9361 77.8361 34.8406 77.9507 34.7838 78.0852C34.727 78.2197 34.7115 78.3681 34.7391 78.5115C34.7668 78.6548 34.8364 78.7868 34.9392 78.8905C35.042 78.9942 35.1733 79.065 35.3164 79.094C35.4595 79.123 35.608 79.1088 35.743 79.0532C35.878 78.9977 35.9935 78.9032 36.0748 78.7819C36.156 78.6606 36.1994 78.5179 36.1994 78.3719C36.2031 78.2712 36.1861 78.1708 36.1495 78.0769C36.1128 77.983 36.0573 77.8977 35.9864 77.8261C35.9154 77.7545 35.8306 77.6983 35.737 77.6608C35.6435 77.6233 35.5432 77.6054 35.4425 77.6083L35.4693 77.6351ZM43.7619 77.6351C43.6159 77.6337 43.4727 77.6758 43.3507 77.756C43.2286 77.8361 43.1332 77.9507 43.0764 78.0852C43.0196 78.2197 43.004 78.3681 43.0317 78.5115C43.0594 78.6548 43.129 78.7868 43.2318 78.8905C43.3346 78.9942 43.4658 79.065 43.6089 79.094C43.752 79.123 43.9005 79.1088 44.0356 79.0532C44.1706 78.9977 44.2861 78.9032 44.3673 78.7819C44.4486 78.6606 44.492 78.5179 44.492 78.3719C44.4957 78.2712 44.4787 78.1708 44.4421 78.0769C44.4054 77.983 44.3499 77.8977 44.279 77.8261C44.208 77.7545 44.1231 77.6983 44.0296 77.6608C43.936 77.6233 43.8358 77.6054 43.7351 77.6083L43.7619 77.6351ZM52.0544 77.6351C51.9084 77.6337 51.7653 77.6758 51.6433 77.756C51.5212 77.8361 51.4257 77.9507 51.3689 78.0852C51.3121 78.2197 51.2966 78.3681 51.3243 78.5115C51.3519 78.6548 51.4216 78.7868 51.5244 78.8905C51.6271 78.9942 51.7584 79.065 51.9015 79.094C52.0446 79.123 52.1931 79.1088 52.3281 79.0532C52.4632 78.9977 52.5786 78.9032 52.6599 78.7819C52.7412 78.6606 52.7846 78.5179 52.7846 78.3719C52.7883 78.2712 52.7713 78.1708 52.7346 78.0769C52.698 77.983 52.6425 77.8977 52.5715 77.8261C52.5006 77.7545 52.4157 77.6983 52.3222 77.6608C52.2286 77.6233 52.1284 77.6054 52.0276 77.6083L52.0544 77.6351ZM60.3269 77.6351C60.1445 77.6525 59.9751 77.7373 59.8518 77.8729C59.7286 78.0086 59.6603 78.1853 59.6603 78.3685C59.6603 78.5518 59.7286 78.7285 59.8518 78.8641C59.9751 78.9997 60.1445 79.0845 60.3269 79.102C60.398 79.1122 60.4702 79.1122 60.5413 79.102L60.3269 77.6351Z" fill="white"/>
<path id="Vector_21" d="M51.2454 64.8278C49.1464 65.0152 47.0642 65.3578 45.0159 65.8527C44.0044 66.1139 43.0064 66.4154 42.0083 66.7436C41.5126 66.911 41.017 67.0584 40.5146 67.1991C39.9956 67.3657 39.4578 67.4669 38.9137 67.5005C38.9076 67.4978 38.9009 67.4967 38.8942 67.4973C38.8876 67.4978 38.8812 67.5 38.8756 67.5037C38.87 67.5074 38.8654 67.5123 38.8623 67.5182C38.8591 67.5241 38.8574 67.5307 38.8574 67.5373C38.8574 67.544 38.8591 67.5506 38.8623 67.5564C38.8654 67.5623 38.87 67.5673 38.8756 67.5709C38.8812 67.5746 38.8876 67.5768 38.8942 67.5774C38.9009 67.5779 38.9076 67.5768 38.9137 67.5742C39.4288 67.611 39.9459 67.611 40.461 67.5742C40.9578 67.5157 41.4501 67.4239 41.9346 67.2995C42.9662 67.045 43.9843 66.7436 45.0092 66.4756C47.0857 65.9465 49.1622 65.4106 51.2722 65.0288C51.3726 64.9819 51.3458 64.8211 51.2454 64.8278Z" fill="#263238"/>
<path id="Vector_22" d="M56.4352 66.6898C54.7064 66.5079 52.9688 66.423 51.2306 66.4352C50.3598 66.4352 49.4957 66.5089 48.6316 66.5893C48.2163 66.6295 47.801 66.6831 47.3924 66.73C46.9838 66.7769 46.4948 66.9108 46.0527 66.9577C46.0059 66.9577 46.0059 67.0381 46.0527 67.0381C46.4814 66.9979 46.9168 67.0381 47.3522 67.0381L48.6517 67.0046L51.2507 66.9443C52.9856 66.884 54.7137 66.8438 56.4486 66.8438C56.529 66.8304 56.5223 66.6965 56.4352 66.6898Z" fill="#263238"/>
<path id="Vector_23" d="M32.067 40.54C19.2664 53.9434 3.3712 81.9627 6.53952 87.5357C10.0495 93.7384 28.4901 74.6548 27.914 73.7438C27.4183 72.9668 33.7952 56.1003 38.4237 43.7619C43.0523 31.4235 35.2286 37.2243 32.067 40.54Z" fill="#F7A9A0"/>
<path id="Vector_24" d="M16.3926 56.609L34.7595 59.918C34.7595 59.918 39.3412 46.9031 40.2521 39.6756C40.7612 35.6565 38.3833 35.4623 35.3891 37.6125C24.9062 45.1481 16.3926 56.609 16.3926 56.609Z" fill="#FF5FDA"/>
<path id="Vector_25" d="M40.3184 38.7712C40.3197 38.9175 40.2774 39.0608 40.197 39.183C40.1165 39.3052 40.0015 39.4007 39.8666 39.4573C39.7317 39.5139 39.583 39.529 39.4395 39.5008C39.2959 39.4726 39.164 39.4023 39.0606 39.2988C38.9571 39.1954 38.8868 39.0635 38.8586 38.9199C38.8304 38.7764 38.8455 38.6277 38.9021 38.4928C38.9587 38.3579 39.0542 38.2429 39.1764 38.1624C39.2986 38.082 39.4419 38.0397 39.5882 38.041C39.6841 38.041 39.7791 38.0599 39.8676 38.0966C39.9562 38.1333 40.0367 38.1871 40.1045 38.2549C40.1723 38.3227 40.2261 38.4032 40.2628 38.4918C40.2995 38.5803 40.3184 38.6753 40.3184 38.7712ZM23.0031 49.3345C22.8571 49.3332 22.714 49.3752 22.5919 49.4554C22.4699 49.5355 22.3744 49.6502 22.3176 49.7847C22.2608 49.9192 22.2452 50.0675 22.2729 50.2109C22.3006 50.3543 22.3702 50.4862 22.473 50.5899C22.5758 50.6936 22.7071 50.7645 22.8502 50.7934C22.9933 50.8224 23.1418 50.8082 23.2768 50.7527C23.4118 50.6971 23.5273 50.6027 23.6086 50.4813C23.6898 50.36 23.7332 50.2173 23.7332 50.0713C23.7332 49.877 23.6565 49.6906 23.5198 49.5527C23.383 49.4147 23.1973 49.3363 23.0031 49.3345ZM31.2957 49.3345C31.1497 49.3332 31.0065 49.3752 30.8845 49.4554C30.7624 49.5355 30.667 49.6502 30.6102 49.7847C30.5534 49.9192 30.5378 50.0675 30.5655 50.2109C30.5932 50.3543 30.6628 50.4862 30.7656 50.5899C30.8684 50.6936 30.9996 50.7645 31.1427 50.7934C31.2858 50.8224 31.4343 50.8082 31.5694 50.7527C31.7044 50.6971 31.8199 50.6027 31.9011 50.4813C31.9824 50.36 32.0258 50.2173 32.0258 50.0713C32.026 49.8816 31.953 49.699 31.8219 49.5618C31.6909 49.4245 31.512 49.3431 31.3225 49.3345H31.2957ZM27.7321 44.016C27.3771 44.3509 27.0221 44.6858 26.6805 45.0207C26.8117 45.1308 26.9781 45.1902 27.1494 45.1882C27.2458 45.1882 27.3413 45.1691 27.4303 45.132C27.5194 45.0949 27.6001 45.0405 27.668 44.972C27.7359 44.9035 27.7896 44.8222 27.8259 44.7328C27.8621 44.6435 27.8804 44.5478 27.8795 44.4514C27.88 44.2939 27.8282 44.1408 27.7321 44.016ZM35.4419 43.7347C35.2957 43.7333 35.1523 43.7756 35.0301 43.856C34.9079 43.9365 34.8124 44.0515 34.7558 44.1864C34.6992 44.3213 34.6841 44.47 34.7123 44.6136C34.7405 44.7571 34.8108 44.889 34.9143 44.9925C35.0177 45.0959 35.1496 45.1662 35.2932 45.1944C35.4367 45.2226 35.5854 45.2075 35.7203 45.1509C35.8552 45.0943 35.9702 44.9988 36.0507 44.8766C36.1311 44.7544 36.1734 44.6111 36.1721 44.4648C36.1721 44.2711 36.0951 44.0854 35.9582 43.9485C35.8213 43.8116 35.6356 43.7347 35.4419 43.7347ZM18.8568 55.0147C18.7108 55.0134 18.5677 55.0555 18.4456 55.1356C18.3236 55.2158 18.2281 55.3304 18.1713 55.4649C18.1145 55.5994 18.099 55.7477 18.1266 55.8911C18.1543 56.0345 18.2239 56.1664 18.3267 56.2701C18.4295 56.3738 18.5608 56.4447 18.7039 56.4737C18.847 56.5026 18.9955 56.4884 19.1305 56.4329C19.2655 56.3773 19.381 56.2829 19.4623 56.1616C19.5435 56.0403 19.5869 55.8975 19.5869 55.7515C19.5869 55.5573 19.5102 55.3708 19.3735 55.2329C19.2368 55.0949 19.0511 55.0165 18.8568 55.0147ZM27.1494 55.0147C27.0034 55.0134 26.8603 55.0555 26.7382 55.1356C26.6162 55.2158 26.5207 55.3304 26.4639 55.4649C26.4071 55.5994 26.3915 55.7477 26.4192 55.8911C26.4469 56.0345 26.5165 56.1664 26.6193 56.2701C26.7221 56.3738 26.8533 56.4447 26.9964 56.4737C27.1396 56.5026 27.288 56.4884 27.4231 56.4329C27.5581 56.3773 27.6736 56.2829 27.7548 56.1616C27.8361 56.0403 27.8795 55.8975 27.8795 55.7515C27.8795 55.5573 27.8028 55.3708 27.6661 55.2329C27.5293 55.0949 27.3436 55.0165 27.1494 55.0147ZM35.4419 55.0147C35.2959 55.0134 35.1528 55.0555 35.0308 55.1356C34.9087 55.2158 34.8133 55.3304 34.7565 55.4649C34.6997 55.5994 34.6841 55.7477 34.7118 55.8911C34.7394 56.0345 34.8091 56.1664 34.9119 56.2701C35.0146 56.3738 35.1459 56.4447 35.289 56.4737C35.4321 56.5026 35.5806 56.4884 35.7156 56.4329C35.8507 56.3773 35.9661 56.2829 36.0474 56.1616C36.1287 56.0403 36.1721 55.8975 36.1721 55.7515C36.1721 55.5573 36.0954 55.3708 35.9586 55.2329C35.8219 55.0949 35.6362 55.0165 35.4419 55.0147Z" fill="white"/>
<path id="Vector_26" d="M34.6716 56.9103C29.5797 55.5618 24.407 54.5393 19.185 53.8491C19.185 53.8491 19.1247 53.963 19.185 53.9697C23.3581 55.0414 31.8248 56.5821 34.6582 57.0777C34.6716 57.0911 34.6716 56.9237 34.6716 56.9103Z" fill="#263238"/>
<path id="Vector_27" d="M32.5215 59.5161C33.2784 59.5831 34.0286 59.6769 34.7788 59.7774L34.6248 59.8711C35.1673 57.8616 35.7769 55.8923 36.4333 53.923C37.0898 51.9537 37.773 50.0045 38.5701 48.082C38.0878 50.0915 37.5118 52.1011 36.8955 54.0704C36.2793 56.0397 35.6161 58.0157 34.886 59.9582L34.8391 60.0788H34.7252C34.0018 59.8845 33.2516 59.7104 32.5215 59.5161Z" fill="#263238"/>
<path id="Vector_28" d="M37.3516 52.041C37.5171 51.6322 37.7283 51.2434 37.9812 50.8821C38.227 50.5144 38.5049 50.1692 38.8118 49.8506C38.7654 50.0691 38.6911 50.2807 38.5908 50.4802C38.4971 50.6808 38.3873 50.8734 38.2625 51.0563C38.0114 51.4295 37.7041 51.7616 37.3516 52.041Z" fill="#263238"/>
<path id="Vector_29" d="M6.53859 87.5353C9.53945 91.6749 17.5239 92.338 37.4716 95.9015C40.238 96.3905 48.9526 77.8494 46.0321 77.1461C42.3547 76.2954 27.893 73.7969 26.8145 73.7299C17.6713 73.3213 4.48219 84.722 6.53859 87.5353Z" fill="#F7A9A0"/>
<path id="Vector_30" d="M42.0419 76.3291C42.0419 76.3291 50.4885 77.4611 54.7688 79.4304C60.4624 82.0629 64.2938 86.6848 65.7809 88.7144C68.8889 92.9611 73.4706 105.373 70.1281 107.316C67.1004 109.071 63.0613 96.1495 63.0613 96.1495C63.0613 96.1495 69.3511 108.642 65.3187 110.089C61.2863 111.536 57.4481 96.2701 57.4481 96.2701C57.4481 96.2701 63.624 109.258 59.2299 110.089C55.8807 110.718 51.654 97.0873 51.654 97.0873C51.654 97.0873 56.8854 108.287 53.4961 109.077C49.7517 109.962 45.036 97.6232 45.036 97.6232C36.0803 98.1992 31.5857 94.8032 28.6719 92.0167C27.915 91.3401 42.0419 76.3291 42.0419 76.3291Z" fill="#F7A9A0"/>
<path id="Vector_31" d="M61.1033 91.689C61.8937 93.1291 62.7109 94.5827 63.3673 96.0898C64.0237 97.5969 64.64 99.1308 65.1625 100.692C65.8798 102.717 66.3608 104.819 66.5959 106.955C65.9261 103.197 63.6151 97.7644 62.952 96.2372C62.2889 94.7099 61.7061 93.1961 61.043 91.6957L61.1033 91.689Z" fill="#263238"/>
<path id="Vector_32" d="M55.6257 93.9727C56.5568 95.8549 57.5482 97.6902 58.3989 99.6194C59.2496 101.548 59.8792 103.424 60.5892 105.393C60.6428 105.547 60.5423 105.527 60.4821 105.393C59.6916 103.458 58.8142 101.723 58.0037 99.7935C57.1932 97.8644 56.4563 95.9018 55.5789 94.0128C55.5655 93.9727 55.6056 93.9727 55.6257 93.9727Z" fill="#263238"/>
<path id="Vector_33" d="M50.5617 95.0979C52.0614 97.9518 53.2623 100.953 54.1453 104.054C54.1989 104.208 54.0717 104.167 54.0114 104.013C52.8793 101.013 52.0019 98.6547 50.4679 95.1515C50.4411 95.0979 50.5282 95.0376 50.5617 95.0979Z" fill="#263238"/>
<path id="Vector_34" d="M17.986 75.9802C19.3257 75.1429 23.0634 73.1736 26.7609 73.7162C26.7698 73.7162 26.7783 73.7197 26.7846 73.726C26.7909 73.7323 26.7944 73.7408 26.7944 73.7497C26.7944 73.7586 26.7909 73.7671 26.7846 73.7734C26.7783 73.7796 26.7698 73.7832 26.7609 73.7832C23.7198 73.7832 19.3927 75.3305 18.0195 76.0338C17.9794 76.0539 17.9258 76.007 17.986 75.9802Z" fill="#263238"/>
<path id="Vector_35" d="M41.3711 36.0449C41.4917 36.8286 44.7203 42.1404 48.2704 42.2677C49.4225 42.3079 49.9316 36.0382 49.9316 36.0382L50.0723 35.5894L52.0818 29.226L44.881 23.6932L43.8026 22.9697C43.8026 22.9697 43.3672 24.7448 42.8514 26.9887C42.8514 27.0892 42.8045 27.1964 42.7777 27.3036C42.751 27.4107 42.7108 27.5045 42.7108 27.6586C42.6304 27.9868 42.55 28.3284 42.4696 28.6633C42.3892 28.9983 42.3558 29.1724 42.3089 29.4403C42.262 29.7083 42.2017 29.9762 42.1414 30.2508C41.7574 32.1632 41.5001 34.0987 41.3711 36.0449Z" fill="#F7A9A0"/>
<path id="Vector_36" d="M42.8516 26.9486C43.3566 28.8272 44.2648 30.5734 45.5129 32.0656C46.7611 33.5578 48.3192 34.7603 50.0791 35.5894L52.0886 29.226L44.8879 23.6932L43.8027 22.9697C43.8027 22.9697 43.3807 24.7314 42.8516 26.9486Z" fill="#263238"/>
<path id="Vector_37" d="M62.5386 21.0808C61.8085 32.756 54.7685 33.6402 52.2164 33.4794C49.9256 33.3321 42.1689 32.5484 41.6799 20.8597C41.1909 9.17108 46.8644 5.81521 52.0892 5.86879C57.3139 5.92238 63.2687 9.39883 62.5386 21.0808Z" fill="#F7A9A0"/>
<path id="Vector_38" d="M60.3881 18.1936C60.1135 18.1266 59.8791 18.0261 59.6178 17.9391C59.3371 17.8843 59.0812 17.7411 58.8877 17.5305C58.8396 17.4515 58.8188 17.3589 58.8285 17.2669C58.8382 17.1749 58.8778 17.0887 58.9413 17.0214C59.0879 16.9106 59.2615 16.8411 59.444 16.8199C59.6265 16.7987 59.8114 16.8266 59.9795 16.9008C60.3509 17.0027 60.6695 17.2422 60.8704 17.5707C60.9027 17.6445 60.9145 17.7257 60.9046 17.8057C60.8947 17.8856 60.8634 17.9615 60.8141 18.0252C60.7648 18.0889 60.6992 18.1382 60.6242 18.1678C60.5493 18.1975 60.4677 18.2064 60.3881 18.1936Z" fill="#263238"/>
<path id="Vector_39" d="M52.8911 17.3968C53.1657 17.3968 53.4202 17.35 53.6949 17.3165C53.9832 17.3277 54.2675 17.2454 54.5054 17.082C54.5673 17.0153 54.606 16.9303 54.6156 16.8397C54.6253 16.7492 54.6054 16.658 54.559 16.5796C54.4423 16.4369 54.2892 16.3284 54.1157 16.2659C53.9423 16.2034 53.7552 16.1891 53.5743 16.2246C53.1986 16.2357 52.8405 16.3861 52.5695 16.6466C52.5118 16.7103 52.4735 16.7892 52.4593 16.874C52.4451 16.9588 52.4555 17.0459 52.4894 17.125C52.5233 17.204 52.5791 17.2716 52.6503 17.3198C52.7215 17.368 52.8051 17.3948 52.8911 17.3968Z" fill="#263238"/>
<path id="Vector_40" d="M54.0968 20.5049C54.0968 20.5049 54.0366 20.5384 54.0299 20.5652C53.983 21.3623 53.7954 22.2666 53.0586 22.4675V22.5144C53.9562 22.4675 54.1906 21.2685 54.0968 20.5049Z" fill="#263238"/>
<path id="Vector_41" d="M53.475 19.6207C52.2091 19.4063 51.8741 21.9584 53.0463 22.1527C54.2186 22.3469 54.5334 19.7881 53.475 19.6207Z" fill="#263238"/>
<path id="Vector_42" d="M52.953 19.6808C52.7119 19.7947 52.464 20.0224 52.1894 20.0157C51.9148 20.009 51.6736 19.7076 51.5196 19.4263C51.5196 19.4263 51.4794 19.4263 51.4727 19.4263C51.4028 19.6556 51.4227 19.903 51.5284 20.1182C51.6342 20.3334 51.8178 20.5003 52.042 20.5851C52.5109 20.7124 52.9061 20.3238 53.0937 19.8483C53.1138 19.7813 53.0535 19.6205 52.953 19.6808Z" fill="#263238"/>
<path id="Vector_43" d="M58.7061 20.7588C58.7061 20.7588 58.7664 20.799 58.7597 20.8325C58.6257 21.6229 58.6056 22.5406 59.2822 22.9023C59.2822 22.9023 59.2822 22.9559 59.2822 22.9492C58.4114 22.7013 58.4516 21.4822 58.7061 20.7588Z" fill="#263238"/>
<path id="Vector_44" d="M59.5227 20.0291C60.8087 20.1095 60.5542 22.6683 59.3686 22.5946C58.183 22.5209 58.4509 19.9621 59.5227 20.0291Z" fill="#263238"/>
<path id="Vector_45" d="M60.0473 20.2503C60.2348 20.4043 60.409 20.6723 60.6501 20.7124C60.8913 20.7526 61.1592 20.4981 61.3668 20.2503C61.3668 20.2503 61.407 20.2503 61.4003 20.2503C61.3668 20.7392 61.1592 21.2349 60.6769 21.2818C60.1946 21.3287 59.9669 20.8732 59.8999 20.3775C59.8865 20.2904 59.9669 20.19 60.0473 20.2503Z" fill="#263238"/>
<path id="Vector_46" d="M56.9584 24.1219C56.9584 24.1219 56.9584 25.3276 56.9182 25.8835C56.3796 25.9482 55.8335 25.8666 55.3373 25.6474C54.8411 25.4282 54.4131 25.0794 54.0982 24.6376C54.058 24.5774 54.1451 24.5238 54.192 24.5707C54.849 25.1429 55.6741 25.4861 56.5431 25.5486C56.5967 25.4013 56.4292 23.4855 56.5431 23.4922C56.9744 23.5792 57.3914 23.7257 57.7823 23.9276C57.7823 21.409 57.4273 18.9106 57.4876 16.4121C57.4876 16.3925 57.4953 16.3738 57.5092 16.36C57.523 16.3461 57.5417 16.3384 57.5613 16.3384C57.5808 16.3384 57.5995 16.3461 57.6134 16.36C57.6272 16.3738 57.6349 16.3925 57.6349 16.4121C58.1277 19.0779 58.3521 21.7864 58.3048 24.497C58.278 24.7984 57.1727 24.2424 56.9584 24.1219Z" fill="#263238"/>
<path id="Vector_47" d="M56.1619 25.7365C55.8057 26.0879 55.3651 26.3416 54.8825 26.4733C54.6175 26.537 54.3394 26.5183 54.0854 26.4198C53.5361 26.192 53.5964 25.6628 53.7638 25.2275C53.8525 24.9909 53.9694 24.766 54.1122 24.5576C54.6495 25.1624 55.3689 25.5762 56.1619 25.7365Z" fill="#263238"/>
<path id="Vector_48" d="M54.8825 26.4734C54.6175 26.5371 54.3394 26.5184 54.0854 26.4198C53.5361 26.1921 53.5964 25.6629 53.7638 25.2275C54.0641 25.2773 54.3385 25.4277 54.5418 25.6542C54.7451 25.8806 54.8653 26.1696 54.8825 26.4734Z" fill="#FF9BBC"/>
<path id="Vector_49" d="M42.1485 20.3711C44.2585 21.0409 45.7455 16.198 45.7455 16.198C45.7455 16.198 55.2639 16.3722 57.4609 9.01738C58.0473 12.2914 59.873 15.2135 62.5584 17.176C62.5584 17.176 63.7842 8.88341 57.5614 6.05671C57.5614 6.05671 50.0258 1.5822 44.2585 7.14854C38.4912 12.7149 40.7016 19.9089 42.1485 20.3711Z" fill="#263238"/>
<path id="Vector_50" d="M57.5927 8.46826C57.4815 9.64709 57.1208 10.7888 56.5344 11.8174C55.9556 12.8593 55.169 13.7712 54.2235 14.4968C53.9876 14.6801 53.7416 14.8501 53.4866 15.0059L53.1048 15.247L52.7096 15.4413C52.435 15.5685 52.1671 15.7025 51.8924 15.8164L51.0484 16.0843C50.9011 16.1245 50.7671 16.1781 50.6197 16.2116L50.1844 16.2919L49.3136 16.4527C48.7308 16.4996 48.1414 16.5197 47.5586 16.5331C48.1347 16.3991 48.7107 16.3321 49.2734 16.1915L50.104 15.9704L50.5193 15.8566C50.6532 15.8097 50.7872 15.7494 50.9212 15.6958C51.1824 15.5886 51.4503 15.4814 51.7183 15.3877C51.9862 15.2939 52.2207 15.1264 52.4752 14.9992L52.8503 14.8049L53.2053 14.5638C53.4367 14.4145 53.6602 14.2536 53.8751 14.0815C54.7838 13.3882 55.5657 12.5429 56.1861 11.583C56.5028 11.1059 56.7763 10.6016 57.0033 10.0759C57.2462 9.55817 57.4434 9.02026 57.5927 8.46826Z" fill="#263238"/>
<path id="Vector_51" d="M43.5677 21.4894C43.5677 21.4894 41.5582 17.4704 39.8099 18.1402C38.0617 18.8101 39.1401 24.3161 40.9688 25.3209C41.1948 25.4611 41.4464 25.555 41.709 25.5972C41.9716 25.6394 42.24 25.629 42.4986 25.5667C42.7572 25.5044 43.0008 25.3914 43.2154 25.2342C43.43 25.077 43.6112 24.8788 43.7486 24.6511L43.5677 21.4894Z" fill="#F7A9A0"/>
<path id="Vector_52" d="M40.1719 19.7285V19.7754C41.4379 20.5256 41.9603 21.8854 42.2618 23.2586C42.2048 23.1121 42.1168 22.9798 42.0037 22.8707C41.8906 22.7616 41.7551 22.6784 41.6067 22.6268C41.4583 22.5752 41.3005 22.5565 41.1441 22.5719C40.9877 22.5873 40.8365 22.6364 40.701 22.716C40.6609 22.716 40.701 22.7964 40.701 22.7964C40.9498 22.7565 41.2048 22.7943 41.4313 22.9046C41.6579 23.0149 41.8449 23.1922 41.967 23.4126C42.1626 23.7849 42.3219 24.1752 42.4426 24.5781C42.4828 24.7121 42.7106 24.6786 42.6838 24.5312C42.9651 22.783 41.9871 20.1773 40.1719 19.7285Z" fill="#263238"/>
<path id="Vector_53" d="M42.1676 24.9799C42.1466 25.0716 42.0988 25.1551 42.0302 25.2197C41.9617 25.2842 41.8756 25.327 41.7827 25.3426C41.6898 25.3581 41.5944 25.3458 41.5086 25.3071C41.4228 25.2684 41.3504 25.2051 41.3005 25.1252C41.2507 25.0453 41.2257 24.9524 41.2288 24.8583C41.2318 24.7642 41.2627 24.6731 41.3175 24.5965C41.3724 24.52 41.4487 24.4615 41.5368 24.4283C41.625 24.3952 41.721 24.389 41.8126 24.4105C41.9351 24.4392 42.0411 24.5152 42.1077 24.6219C42.1742 24.7286 42.1958 24.8573 42.1676 24.9799Z" fill="white"/>
<path id="Vector_54" d="M41.2026 23.9674C41.1831 24.0561 41.1291 24.1335 41.0525 24.1824C40.976 24.2314 40.8831 24.2479 40.7944 24.2284C40.7056 24.2088 40.6283 24.1549 40.5793 24.0783C40.5304 24.0018 40.5139 23.9089 40.5334 23.8202C40.5541 23.7307 40.6094 23.6531 40.6871 23.6042C40.7648 23.5553 40.8587 23.5391 40.9483 23.5592C41.036 23.5799 41.1119 23.6344 41.1596 23.7109C41.2072 23.7873 41.2227 23.8795 41.2026 23.9674Z" fill="white"/>
<path id="Vector_55" d="M39.5277 19.4533L38.7708 19.2121C38.7444 19.2046 38.7197 19.1917 38.6984 19.1742C38.6772 19.1567 38.6597 19.1351 38.6471 19.1106C38.6346 19.0861 38.6272 19.0593 38.6254 19.0318C38.6236 19.0043 38.6275 18.9768 38.6369 18.9509V18.8705C38.6537 18.8181 38.6907 18.7746 38.7397 18.7494C38.7887 18.7243 38.8457 18.7197 38.8981 18.7365L39.6483 18.9777C39.6748 18.9852 39.6994 18.9981 39.7207 19.0156C39.742 19.0331 39.7594 19.0547 39.772 19.0792C39.7845 19.1037 39.7919 19.1305 39.7937 19.158C39.7955 19.1855 39.7916 19.213 39.7823 19.2389V19.3193C39.7746 19.345 39.7619 19.3689 39.7449 19.3896C39.7279 19.4103 39.7069 19.4274 39.6832 19.4399C39.6595 19.4524 39.6335 19.46 39.6068 19.4623C39.5801 19.4646 39.5532 19.4615 39.5277 19.4533Z" fill="#FF5FDA"/>
<path id="Vector_56" d="M39.4348 19.6689L38.6481 19.5928C38.5339 19.5817 38.4324 19.6653 38.4214 19.7794L38.413 19.8661C38.402 19.9803 38.4855 20.0818 38.5997 20.0928L39.3864 20.169C39.5006 20.18 39.602 20.0964 39.6131 19.9823L39.6215 19.8956C39.6325 19.7815 39.549 19.68 39.4348 19.6689Z" fill="#FF5FDA"/>
<path id="Vector_57" d="M35.1543 37.7869C35.1543 37.7869 44.7263 43.5274 48.8725 43.025C49.8467 42.96 50.7713 42.5714 51.4995 41.9209C52.2276 41.2705 52.7176 40.3954 52.8916 39.4347C51.5987 37.9137 49.9807 36.7027 48.1569 35.8911C46.3332 35.0795 44.3504 34.6881 42.355 34.7458C38.7312 34.8999 35.1543 37.7869 35.1543 37.7869Z" fill="#F7A9A0"/>
</g>
</g>
</svg>
