<svg width="127" height="104" viewBox="0 0 127 104" fill="none" xmlns="http://www.w3.org/2000/svg">
<g id="freepik--character-2--inject-2">
<g id="Group 20">
<path id="Vector" d="M119 23.562H8C3.58172 23.562 0 27.1437 0 31.562V95.3088C0 99.7271 3.58172 103.309 8 103.309H119C123.418 103.309 127 99.7271 127 95.3088V31.562C127 27.1437 123.418 23.562 119 23.562Z" fill="#C0DBFF"/>
<path id="Vector_2" d="M10.0957 11.7808V23.9312H20.334L10.0957 11.7808Z" fill="#C0DBFF"/>
</g>
<g id="Group 21">
<path id="Vector_3" d="M93.8049 44.4566C90.1611 59.3599 81.3329 82.5125 73.5369 82.4118C66.4112 82.2957 50.5342 69.6 43.8783 65.4404C37.2225 61.2809 52.1519 44.8904 55.9652 47.5395C61.8738 51.6526 70.7251 58.9881 72.2196 58.5078C74.0762 57.9114 76.4489 53.3025 87.072 39.7161C91.4168 34.139 95.3533 38.1127 93.8049 44.4566Z" fill="#F7A9A0"/>
<path id="Vector_4" d="M48.8094 41.2038C45.6741 40.0884 42.169 38.5547 38.6793 38.6244C35.1896 38.6941 32.3008 43.3184 32.3008 44.643C32.3008 45.9675 33.6181 54.2247 37.1078 54.2247C40.5975 54.2247 38.4867 47.8808 38.6485 47.1527C38.8103 46.4246 38.9104 45.495 39.5652 45.5648C40.22 45.6345 51.7291 51.1186 51.7291 51.1186L48.8094 41.2038Z" fill="#F7A9A0"/>
<path id="Vector_5" d="M48.585 41.6841C48.3924 41.6841 39.0557 37.9816 35.566 38.0513C32.0763 38.121 29.1875 42.7453 29.1875 44.0699C29.1875 45.3944 30.5048 53.6516 33.9868 53.6516C37.4688 53.6516 35.3734 47.3077 35.5275 46.5796C35.6816 45.8514 35.7894 44.9219 36.4442 44.9916C37.099 45.0614 48.6081 50.5455 48.6081 50.5455L48.585 41.6841Z" fill="#F7A9A0"/>
<path id="Vector_6" d="M35.1734 53.2095C35.5438 52.5833 35.7431 51.8698 35.7511 51.1413C35.8257 50.3932 35.7842 49.638 35.6279 48.9027C35.4331 48.2729 35.2913 47.6277 35.2042 46.974C35.2094 46.3258 35.3762 45.6892 35.6895 45.1227C35.9592 44.6347 36.4599 44.7974 36.9144 44.9523C37.5612 45.2039 38.1938 45.4909 38.8094 45.8121C39.472 46.1452 40.1345 46.4937 40.7893 46.8346C41.4873 47.166 42.1639 47.5412 42.8153 47.9577C42.8238 47.9657 42.8294 47.9762 42.8315 47.9877C42.8335 47.9992 42.8318 48.0111 42.8266 48.0215C42.8214 48.032 42.813 48.0404 42.8027 48.0457C42.7923 48.0509 42.7805 48.0527 42.7691 48.0507C42.1684 47.8226 41.5796 47.5641 41.005 47.2761L39.0097 46.3543C38.3858 46.0755 37.7772 45.7656 37.1455 45.4945C36.9298 45.4016 36.483 45.1614 36.2288 45.2234C35.9746 45.2854 35.8359 45.936 35.7743 46.1529C35.6294 46.7814 35.6723 47.4389 35.8975 48.0429C36.077 48.6703 36.1957 49.3136 36.2519 49.9639C36.3153 50.5771 36.2657 51.1969 36.1055 51.792C35.8932 52.3396 35.6165 52.8597 35.2812 53.3412C35.235 53.3489 35.1272 53.2714 35.1734 53.2095Z" fill="#263238"/>
<path id="Vector_7" d="M59.6384 50.8861C59.6384 50.8861 49.9859 42.0324 47.9753 40.2741C43.9387 36.7497 26.9524 29.7706 24.5874 29.5227C22.2224 29.2748 21.3673 34.1703 32.8918 39.2207C38.9699 41.893 40.0484 45.4174 39.9328 47.3307C39.8173 49.2439 37.9761 52.8845 34.7329 52.7916C31.4898 52.6986 29.3867 47.9426 26.4054 47.4159C23.4242 46.8892 25.3963 52.381 27.4993 55.5569C29.7059 58.6236 32.7325 60.998 36.2274 62.4043C39.0315 63.4655 47.7134 67.2223 47.7134 67.2223L59.6384 50.8861Z" fill="#F7A9A0"/>
<path id="Vector_8" d="M30.7122 50.4992C31.9293 51.452 33.316 52.6836 34.926 52.7456C36.536 52.8075 37.6608 51.7231 38.4388 50.3598C39.2845 49.0214 39.5878 47.408 39.2862 45.8516C38.9118 44.4437 38.1415 43.1743 37.0676 42.1956C35.7505 41.0058 34.2688 40.0144 32.6689 39.2521C32.5995 39.2521 32.6689 39.1127 32.7382 39.1437C34.225 39.8176 38.901 41.7308 39.8023 45.8516C40.0967 47.4458 39.7713 49.0928 38.8933 50.4528C38.1769 51.7463 37.1292 53.0012 35.5577 53.1251C33.6395 53.2878 31.991 51.7153 30.612 50.5457C30.5504 50.4915 30.6428 50.4528 30.7122 50.4992Z" fill="#263238"/>
<path id="Vector_9" d="M59.6394 49.6309L45.1953 72.1793C45.1953 72.1793 68.1133 85.0919 74.5997 83.0237C81.0861 80.9555 90.8772 62.2568 94.9139 45.8431C98.9505 29.4294 88.9359 35.7269 85.0457 40.7927C81.1554 45.8586 72.72 57.5782 72.2655 57.4233C71.811 57.2684 59.6394 49.6309 59.6394 49.6309Z" fill="#2F80ED"/>
<path id="Vector_10" d="M61.3496 80.0724C66.5726 82.2103 71.6954 83.7673 74.3686 83.0934L74.5997 83.0314C81.0861 80.94 90.8772 62.2567 94.9216 45.8508C95.5291 43.6564 95.8401 41.3897 95.846 39.1118C95.846 39.0266 95.846 38.9569 95.846 38.8717C95.8412 38.7419 95.8284 38.6125 95.8075 38.4844C95.8117 38.4302 95.8117 38.3759 95.8075 38.3217C95.8075 38.2055 95.8075 38.0816 95.7613 37.9731L61.3496 80.0724Z" fill="#263238"/>
<path id="Vector_11" d="M53.2626 69.9802C53.7197 69.185 54.1819 68.3872 54.6492 67.5867C55.5813 65.9988 61.1741 56.5487 63.385 53.644C63.4467 53.5666 63.5622 53.644 63.5237 53.737C61.983 57.0368 56.1822 66.3087 55.2116 67.8346C54.7185 68.6092 54.2255 69.3838 53.7248 70.1584C53.2241 70.933 52.6232 71.6611 52.1148 72.4435C52.1056 72.4599 52.0902 72.472 52.0722 72.4771C52.0541 72.4822 52.0348 72.4798 52.0185 72.4706C52.0021 72.4613 51.9901 72.4459 51.985 72.4278C51.98 72.4096 51.9823 72.3902 51.9915 72.3737C52.446 71.6301 52.8081 70.7781 53.2626 69.9802Z" fill="#263238"/>
<path id="Vector_12" d="M126.999 103.481H70.4936C69.7617 102.629 83.1967 44.1939 89.2517 36.4169C90.5459 34.7515 94.7674 34.3333 98.3495 34.8213C99.2841 34.9367 100.207 35.1337 101.107 35.4099H101.2C101.925 35.6319 102.607 35.9749 103.218 36.4247C113.11 44.5347 121.491 71.785 123.371 80.2126C125.155 87.8672 126.368 95.6451 126.999 103.481Z" fill="#2F80ED"/>
<path id="Vector_13" d="M124.819 87.354C124.517 87.5194 124.203 87.6618 123.879 87.78C123.019 88.0875 122.088 88.1386 121.199 87.9272C120.314 87.6869 119.53 87.1652 118.965 86.4399C118.407 85.7312 117.905 84.9802 117.462 84.1936C117.216 83.7753 116.969 83.3648 116.692 82.962L116.6 82.8303C116.407 82.5275 116.199 82.2353 115.976 81.955C115.443 81.2405 114.755 80.6576 113.965 80.2509C113.58 80.059 113.17 79.9209 112.748 79.8404C112.318 79.759 111.876 79.759 111.446 79.8404C110.574 80.0275 109.772 80.46 109.135 81.0875L109.004 81.2114L108.858 81.3586C107.679 82.505 106.716 83.8915 105.637 85.1619C104.543 86.617 103.123 87.7925 101.493 88.5933C100.652 88.9549 99.7423 89.1293 98.8275 89.1045C98.3668 89.1042 97.9082 89.0417 97.464 88.9187C97.0233 88.7831 96.6053 88.5821 96.2238 88.3222C95.4837 87.779 94.8602 87.0914 94.3903 86.3005C93.9192 85.5273 93.5121 84.7164 93.1732 83.876C92.4798 82.2029 91.9483 80.4833 91.3782 78.7792C90.9391 77.4701 90.4923 76.1688 89.9377 74.9062L89.8221 74.6506C89.6912 74.3562 89.5448 74.0619 89.3984 73.7753C88.996 72.9778 88.4966 72.2336 87.9117 71.5599C87.328 70.892 86.5899 70.3786 85.7624 70.065C84.9202 69.7873 84.0277 69.6988 83.1479 69.8059C82.268 69.913 81.4223 70.2129 80.6703 70.6846C79.2175 71.7382 77.9694 73.051 76.988 74.5576L76.7261 74.9062C76.7261 74.7978 76.7878 74.6893 76.8109 74.5731L76.8802 74.4802C77.8674 72.9681 79.1267 71.6546 80.5933 70.6072C81.3615 70.1165 82.2283 69.8029 83.1314 69.6891C84.0344 69.5752 84.9514 69.6639 85.8163 69.9488C86.675 70.2752 87.4418 70.8069 88.0503 71.498C88.6515 72.1821 89.1687 72.9362 89.591 73.7443C89.722 73.9844 89.8375 74.2323 89.9531 74.4802L90.0686 74.728C90.6501 76.0434 91.1643 77.3878 91.6093 78.756C92.1871 80.4601 92.7264 82.1797 93.4197 83.8295C93.7545 84.658 94.1592 85.4561 94.6291 86.2153C95.0831 86.9725 95.6828 87.6309 96.3932 88.1518C96.75 88.4055 97.1455 88.5991 97.5642 88.725C97.9835 88.8415 98.4157 88.9039 98.8507 88.9109C99.7324 88.9348 100.609 88.7711 101.424 88.4307C103.023 87.6465 104.418 86.4981 105.499 85.0767C106.517 83.7516 107.602 82.4796 108.75 81.2656C108.793 81.2133 108.842 81.1665 108.896 81.1262C108.936 81.0785 108.98 81.0345 109.027 80.9945C109.687 80.3505 110.515 79.9075 111.415 79.7164C111.866 79.6313 112.328 79.6313 112.779 79.7164C113.227 79.7996 113.662 79.9429 114.073 80.1425C114.88 80.5639 115.583 81.1621 116.13 81.8931C116.358 82.1811 116.572 82.481 116.769 82.7916L116.862 82.9233C117.123 83.3338 117.362 83.7521 117.632 84.1626C118.063 84.9461 118.557 85.6922 119.111 86.3935C119.655 87.1 120.412 87.6108 121.268 87.8497C122.134 88.066 123.044 88.0256 123.887 87.7335C124.218 87.6247 124.538 87.4847 124.842 87.3152C124.835 87.3286 124.828 87.3415 124.819 87.354ZM121.823 74.3253C121.383 75.2625 120.998 76.2308 120.598 77.1758C120.009 78.8787 119.108 80.4553 117.94 81.8233C117.589 82.1933 117.19 82.5138 116.754 82.7761L116.615 82.8613C115.565 83.468 114.355 83.7382 113.148 83.6359C112.268 83.5308 111.426 83.2089 110.699 82.6986C110.077 82.2749 109.511 81.7754 109.012 81.2114C108.964 81.1689 108.92 81.1222 108.881 81.072C108.828 81.0242 108.779 80.9724 108.734 80.9171C107.595 79.5414 106.565 78.0781 105.653 76.5406L105.006 75.5104L104.867 75.2935C104.174 74.1858 103.473 73.0859 102.695 72.0247C102.166 71.289 101.576 70.5997 100.931 69.9643C100.292 69.2978 99.5235 68.7705 98.6735 68.4151C98.2422 68.2491 97.7868 68.155 97.3254 68.1362C96.8667 68.1199 96.4079 68.1669 95.9618 68.2757C95.066 68.4727 94.2227 68.8611 93.489 69.4143C93.3426 69.5228 93.204 69.6389 93.0653 69.7629L92.8958 69.9178C91.8017 71.0235 90.9168 72.3201 90.2843 73.7443C90.1765 73.9612 90.0686 74.1781 89.9762 74.395C89.93 74.4724 89.8992 74.5499 89.8607 74.6273C89.2922 75.9827 88.6226 77.2929 87.8577 78.5468C87.3926 79.3002 86.7286 79.909 85.9396 80.3051C85.5361 80.4767 85.1059 80.5763 84.6685 80.5995C84.2272 80.6268 83.7843 80.5955 83.3512 80.5065C82.4913 80.297 81.6886 79.8975 81.0016 79.3369C80.2962 78.7764 79.6296 78.1682 79.0064 77.5166C78.3919 76.8561 77.7245 76.2473 77.0111 75.6963C76.8785 75.5945 76.7396 75.5014 76.5952 75.4174C76.5859 75.4648 76.573 75.5115 76.5566 75.5569L76.9264 75.8125C77.6324 76.3609 78.292 76.9672 78.8985 77.625C79.5164 78.281 80.1751 78.8967 80.8706 79.4686C81.5781 80.0463 82.4043 80.459 83.2895 80.6769C83.7354 80.7685 84.191 80.8023 84.6453 80.7776C85.1037 80.7555 85.5546 80.6533 85.9781 80.4756C86.8031 80.0678 87.4991 79.4376 87.9887 78.6553C88.7406 77.4527 89.3949 76.1912 89.9454 74.883L90.0609 74.6428C90.1842 74.3717 90.3151 74.1084 90.4461 73.8683C91.061 72.5105 91.9026 71.2687 92.9344 70.1967L93.1115 70.034C93.2733 69.8946 93.4351 69.7551 93.6046 69.6312C94.3118 69.1028 95.1235 68.733 95.9849 68.5468C96.4087 68.4456 96.8439 68.4013 97.2792 68.4151C97.7147 68.435 98.1441 68.5266 98.5502 68.6862C99.3637 69.021 100.102 69.5161 100.723 70.1424C101.362 70.7649 101.947 71.4413 102.471 72.1641C103.242 73.2176 103.966 74.3252 104.667 75.4484L104.805 75.6576C105.013 75.9906 105.221 76.3237 105.437 76.6568C106.371 78.1976 107.422 79.6634 108.58 81.041L108.734 81.2037L108.865 81.3509C109.386 81.9148 109.967 82.4188 110.599 82.8536C111.35 83.3752 112.218 83.7024 113.125 83.8063C114.376 83.9005 115.626 83.6087 116.707 82.9698L116.846 82.8845C117.288 82.6143 117.692 82.2861 118.048 81.9086C119.214 80.5367 120.12 78.9614 120.721 77.261C121.098 76.3392 121.453 75.4097 121.869 74.5034L121.823 74.3253ZM118.957 65.3244C118.458 65.159 117.94 65.0575 117.416 65.0224C116.503 64.9903 115.595 65.1845 114.774 65.5878C113.961 65.9863 113.202 66.4888 112.517 67.0828C111.162 68.2719 109.902 69.567 108.75 70.9558C107.571 72.3113 106.439 73.6901 105.152 74.9527L104.805 75.2858C104.753 75.344 104.696 75.3983 104.636 75.4484C104.166 75.8999 103.664 76.3167 103.134 76.6955C102.423 77.2194 101.617 77.5983 100.761 77.8109C100.336 77.9024 99.8998 77.9285 99.467 77.8884C99.034 77.8331 98.6096 77.7239 98.2036 77.5631C97.3822 77.2455 96.6367 76.7572 96.0158 76.1301C94.833 74.7978 93.9758 73.2064 93.5121 71.4825C93.358 71.01 93.2194 70.5297 93.0807 70.0495C93.0807 69.9643 93.0268 69.8868 93.0037 69.8016C92.6953 68.6237 92.2907 67.4734 91.7942 66.3624C91.4273 65.5154 90.8323 64.7883 90.0763 64.2633C89.6862 64.0216 89.2554 63.8536 88.8053 63.7675C88.3598 63.6735 87.9041 63.637 87.4494 63.6591C86.5408 63.743 85.662 64.0287 84.8765 64.4956C84.1028 64.9608 83.3616 65.4784 82.6578 66.0448C81.9568 66.5986 81.2151 67.0983 80.4392 67.5398C79.8323 67.8734 79.158 68.0641 78.4671 68.0975C78.4589 68.1426 78.446 68.1868 78.4286 68.2292C79.1546 68.2113 79.8655 68.0173 80.5009 67.6637C81.2866 67.2234 82.0362 66.7209 82.7426 66.161C83.4483 65.6127 84.1866 65.1083 84.9535 64.6505C85.7223 64.2129 86.5766 63.9486 87.4572 63.876C87.8965 63.8578 88.3363 63.8942 88.7667 63.9844C89.1981 64.0689 89.6105 64.2316 89.9839 64.4646C90.7062 64.9763 91.274 65.6786 91.6247 66.4941C92.1195 67.6298 92.5239 68.8031 92.8342 70.003L92.9035 70.2586C93.0345 70.7079 93.1655 71.1571 93.3118 71.5987C93.7747 73.3624 94.6398 74.9934 95.8386 76.3625C96.4906 77.0251 97.2796 77.5354 98.1496 77.8574C98.574 78.0322 99.0196 78.1494 99.4746 78.206C99.9355 78.2498 100.4 78.2236 100.854 78.1285C101.743 77.9101 102.579 77.5122 103.311 76.9589C103.84 76.5846 104.339 76.1703 104.805 75.7195L104.975 75.5646L105.352 75.1851C106.624 73.907 107.771 72.5204 108.942 71.1649C110.085 69.7804 111.332 68.4857 112.671 67.2919C113.345 66.7118 114.087 66.2175 114.882 65.8202C115.676 65.4259 116.554 65.2344 117.439 65.2625C117.981 65.2964 118.516 65.4086 119.026 65.5956L118.957 65.3244Z" fill="white"/>
<path id="Vector_14" d="M108.273 51.4979C105.7 66.6877 93.02 95.0999 84.7541 97.7722C75.194 100.871 41.9841 90.1967 35.4515 85.3787C32.8554 83.4732 46.6833 66.649 49.911 67.8418C63.4307 72.8457 75.4174 75.4096 77.1584 74.2245C79.8315 72.3965 90.7397 56.6799 97.8347 46.9277C106.755 34.6969 109.428 44.6814 108.273 51.4979Z" fill="#F7A9A0"/>
<path id="Vector_15" d="M36.3201 85.8509C34.841 85.3242 24.6723 77.8958 21.6834 74.4179C18.4334 70.8096 15.7922 66.6912 13.8643 62.2257C10.8445 55.1537 9.42704 49.9871 10.1512 47.6633C10.9986 44.9755 11.2374 44.5649 18.2707 56.2691C22.2457 62.8996 26.0435 63.651 29.333 63.589C37.4138 63.4421 45.4123 65.2428 52.6592 68.8408C52.6592 68.8408 42.0053 87.8881 36.3201 85.8509Z" fill="#F7A9A0"/>
<path id="Vector_16" d="M37.2533 57.8494L24.7504 63.1166C24.3665 63.2489 23.9521 63.2636 23.5599 63.1588C23.1677 63.054 22.8152 62.8344 22.5472 62.5279L3.79686 40.1731C3.6728 40.0591 3.58003 39.9149 3.52751 39.7544C3.47499 39.5938 3.46449 39.4224 3.497 39.2566C3.52951 39.0908 3.60395 38.9363 3.71314 38.8078C3.82233 38.6793 3.96259 38.5813 4.1204 38.5232L16.6309 33.2559C17.014 33.1217 17.4282 33.1053 17.8206 33.2087C18.213 33.3122 18.5659 33.5309 18.8341 33.8369L37.5845 56.1917C37.7082 56.3071 37.8004 56.4525 37.8522 56.614C37.904 56.7754 37.9138 56.9475 37.8805 57.1138C37.8473 57.2801 37.7722 57.4351 37.6623 57.5639C37.5525 57.6927 37.4117 57.791 37.2533 57.8494Z" fill="#2F80ED"/>
<path id="Vector_17" d="M17.6229 32.838L5.12006 38.1052C4.96167 38.1625 4.82064 38.2598 4.71062 38.3879C4.6006 38.516 4.52531 38.6704 4.49201 38.8363C4.4587 39.0022 4.46851 39.1739 4.5205 39.3349C4.57249 39.4958 4.6649 39.6406 4.78879 39.7551L23.5392 62.1177C23.8093 62.4212 24.1622 62.638 24.5539 62.7413C24.9457 62.8446 25.359 62.8298 25.7424 62.6987L38.2529 57.4314C38.4107 57.3722 38.5508 57.2732 38.6598 57.144C38.7688 57.0149 38.8431 56.8598 38.8755 56.6935C38.908 56.5273 38.8975 56.3555 38.8452 56.1945C38.7928 56.0335 38.7003 55.8886 38.5765 55.7738L19.8261 33.4189C19.5578 33.1129 19.205 32.8942 18.8126 32.7908C18.4201 32.6873 18.0059 32.7037 17.6229 32.838ZM37.2052 55.4175C37.3259 55.5184 37.4185 55.6491 37.4741 55.7968C37.5296 55.9444 37.5461 56.104 37.5221 56.26C37.498 56.416 37.4342 56.5631 37.3368 56.687C37.2395 56.8108 37.1119 56.9072 36.9664 56.9667L25.7809 61.6839C25.4232 61.7987 25.0396 61.804 24.6789 61.6992C24.3182 61.5943 23.9966 61.3842 23.7549 61.0953L6.29099 40.2818C5.28953 39.0812 5.74405 38.8101 6.37574 38.5468L8.61744 37.6017C8.70635 37.5858 8.79793 37.5947 8.88216 37.6274C8.96638 37.6602 9.04004 37.7157 9.09508 37.7877L9.14899 37.8574C9.46483 38.2292 9.69594 38.1362 9.98867 38.0123L15.1732 35.8279C15.4659 35.704 15.697 35.6033 15.3811 35.2315L15.3272 35.1618C15.1886 34.9991 15.1886 34.8287 15.3272 34.7745L17.569 33.8295C18.1929 33.5661 18.8323 33.5119 19.7568 34.6041L37.2052 55.4175Z" fill="#263238"/>
<path id="Vector_18" d="M12.8946 36.1455L11.4848 36.7419C11.4582 36.7511 11.4295 36.7523 11.4021 36.7454C11.3748 36.7385 11.35 36.7239 11.3308 36.7032C11.3226 36.6959 11.316 36.687 11.3115 36.677C11.307 36.667 11.3047 36.6561 11.3047 36.6451C11.3047 36.6341 11.307 36.6233 11.3115 36.6133C11.316 36.6032 11.3226 36.5943 11.3308 36.587L12.7482 35.9983C12.7694 35.9826 12.7951 35.9741 12.8214 35.9741C12.8478 35.9741 12.8734 35.9826 12.8946 35.9983C12.914 35.9983 12.9326 36.0061 12.9463 36.0199C12.9601 36.0337 12.9678 36.0524 12.9678 36.0719C12.9678 36.0914 12.9601 36.1102 12.9463 36.124C12.9326 36.1378 12.914 36.1455 12.8946 36.1455Z" fill="white"/>
<path id="Vector_19" d="M19.7512 34.6044L37.2074 55.4178C37.3281 55.5188 37.4207 55.6495 37.4762 55.7972C37.5317 55.9448 37.5483 56.1044 37.5242 56.2604C37.5002 56.4164 37.4364 56.5635 37.339 56.6873C37.2416 56.8112 37.114 56.9075 36.9686 56.967L25.783 61.6843C25.4253 61.799 25.0418 61.8043 24.6811 61.6995C24.3203 61.5947 23.9987 61.3845 23.757 61.0956L6.29312 40.2822C5.29166 39.0816 5.74618 38.8105 6.37787 38.5471L8.61958 37.6021C8.70851 37.5852 8.80037 37.5937 8.88476 37.6266C8.96916 37.6594 9.04276 37.7153 9.09722 37.788L9.15112 37.8577C9.46697 38.2295 9.69807 38.1366 9.99081 38.0127L15.1753 35.8283C15.468 35.7044 15.6991 35.6037 15.3833 35.2319L15.3294 35.1621C15.1907 34.9995 15.1907 34.8291 15.3294 34.7748L17.5711 33.8298C18.1874 33.5587 18.8268 33.5045 19.7512 34.6044Z" fill="white"/>
<path id="Vector_20" d="M19.7512 34.6041L21.0531 36.1533L7.59502 41.8233L6.29312 40.2741C5.29166 39.0735 5.74618 38.8024 6.37787 38.539L8.61958 37.594C8.70854 37.5753 8.80102 37.5828 8.8858 37.6158C8.97057 37.6488 9.04402 37.7058 9.09722 37.7799L9.15112 37.8496C9.46697 38.2215 9.70578 38.1208 9.99081 38.0046L15.1753 35.8202C15.468 35.6963 15.6991 35.5956 15.3833 35.2238L15.3294 35.1541C15.1907 34.9914 15.1907 34.821 15.3294 34.7668L17.5711 33.8218C18.1874 33.5584 18.8268 33.5042 19.7512 34.6041Z" fill="#2F80ED"/>
<path id="Vector_21" d="M8.32584 40.4909L7.65625 40.3362L7.77939 39.8486L7.88715 39.8796L7.7871 40.282L8.33352 40.4136L8.32584 40.4909Z" fill="white"/>
<path id="Vector_22" d="M19.0701 35.3463C19.0779 35.3519 19.0843 35.3593 19.0887 35.3679C19.0931 35.3765 19.0954 35.3859 19.0954 35.3956C19.0954 35.4052 19.0931 35.4147 19.0887 35.4233C19.0843 35.4318 19.0779 35.4392 19.0701 35.4448C19.0461 35.4525 19.0204 35.453 18.9961 35.4463C18.9718 35.4396 18.9501 35.4259 18.9335 35.4069C18.9257 35.4013 18.9193 35.3939 18.9149 35.3854C18.9105 35.3768 18.9082 35.3673 18.9082 35.3577C18.9082 35.3481 18.9105 35.3386 18.9149 35.33C18.9193 35.3214 18.9257 35.314 18.9335 35.3084C18.9575 35.3007 18.9832 35.3002 19.0075 35.3069C19.0317 35.3137 19.0535 35.3274 19.0701 35.3463Z" fill="white"/>
<path id="Vector_23" d="M19.2695 35.5867C19.2774 35.5923 19.2837 35.5997 19.2881 35.6083C19.2925 35.6169 19.2948 35.6264 19.2948 35.636C19.2948 35.6456 19.2925 35.6551 19.2881 35.6637C19.2837 35.6722 19.2774 35.6796 19.2695 35.6852C19.2467 35.6923 19.2222 35.6925 19.1993 35.6858C19.1764 35.679 19.1559 35.6657 19.1405 35.6474C19.1327 35.6417 19.1263 35.6343 19.1219 35.6258C19.1175 35.6172 19.1152 35.6077 19.1152 35.5981C19.1152 35.5885 19.1175 35.579 19.1219 35.5704C19.1263 35.5618 19.1327 35.5544 19.1405 35.5488C19.1634 35.5427 19.1876 35.543 19.2104 35.5497C19.2331 35.5564 19.2536 35.5692 19.2695 35.5867Z" fill="white"/>
<path id="Vector_24" d="M19.4705 35.8276C19.4783 35.8332 19.4847 35.8406 19.4891 35.8491C19.4935 35.8577 19.4958 35.8672 19.4958 35.8768C19.4958 35.8865 19.4935 35.8959 19.4891 35.9045C19.4847 35.9131 19.4783 35.9205 19.4705 35.9261C19.4495 35.9374 19.426 35.9433 19.4022 35.9433C19.3783 35.9433 19.3549 35.9374 19.3339 35.9261C19.3261 35.9205 19.3197 35.9131 19.3153 35.9045C19.3109 35.8959 19.3086 35.8865 19.3086 35.8768C19.3086 35.8672 19.3109 35.8577 19.3153 35.8491C19.3197 35.8406 19.3261 35.8332 19.3339 35.8276C19.353 35.8115 19.3772 35.8027 19.4022 35.8027C19.4271 35.8027 19.4513 35.8115 19.4705 35.8276Z" fill="white"/>
<path id="Vector_25" d="M6.55505 39.1664C6.54547 39.1611 6.53749 39.1532 6.53193 39.1438C6.52636 39.1343 6.52344 39.1235 6.52344 39.1125C6.52344 39.1014 6.52636 39.0906 6.53193 39.0811C6.53749 39.0717 6.54547 39.0639 6.55505 39.0585C6.58126 39.0472 6.61047 39.0448 6.63815 39.0518C6.66584 39.0587 6.69048 39.0746 6.7083 39.097C6.71779 39.1034 6.72556 39.112 6.73094 39.122C6.73632 39.1321 6.73914 39.1434 6.73914 39.1548C6.73914 39.1663 6.73632 39.1775 6.73094 39.1876C6.72556 39.1977 6.71779 39.2063 6.7083 39.2126C6.681 39.2199 6.65224 39.2194 6.6252 39.2112C6.59816 39.203 6.57388 39.1875 6.55505 39.1664Z" fill="white"/>
<path id="Vector_26" d="M6.83944 39.0496C6.82995 39.0432 6.82218 39.0347 6.8168 39.0246C6.81142 39.0145 6.80859 39.0032 6.80859 38.9918C6.80859 38.9803 6.81142 38.9691 6.8168 38.959C6.82218 38.9489 6.82995 38.9403 6.83944 38.934C6.86612 38.9266 6.89425 38.9263 6.92109 38.9331C6.94793 38.9398 6.97259 38.9534 6.99269 38.9725C7.00217 38.9789 7.00994 38.9874 7.01532 38.9975C7.0207 39.0076 7.02353 39.0189 7.02353 39.0303C7.02353 39.0417 7.0207 39.053 7.01532 39.0631C7.00994 39.0732 7.00217 39.0818 6.99269 39.0881C6.96647 39.0994 6.93727 39.1018 6.90958 39.0948C6.8819 39.0879 6.85725 39.072 6.83944 39.0496Z" fill="white"/>
<path id="Vector_27" d="M7.11647 38.9325C7.10709 38.9263 7.09937 38.9178 7.09404 38.9078C7.08871 38.8978 7.08594 38.8867 7.08594 38.8753C7.08594 38.864 7.08871 38.8528 7.09404 38.8429C7.09937 38.8329 7.10709 38.8244 7.11647 38.8181C7.14261 38.8081 7.17116 38.8064 7.19829 38.8132C7.22543 38.82 7.24983 38.835 7.26819 38.8563C7.30612 38.902 7.26819 38.9478 7.26819 38.9707C7.24193 38.9797 7.21365 38.9809 7.18674 38.9741C7.15983 38.9673 7.13543 38.9529 7.11647 38.9325Z" fill="white"/>
<path id="Vector_28" d="M7.40194 38.7859C7.39245 38.7796 7.38468 38.771 7.3793 38.7609C7.37392 38.7508 7.37109 38.7396 7.37109 38.7281C7.37109 38.7167 7.37392 38.7054 7.3793 38.6953C7.38468 38.6853 7.39245 38.6767 7.40194 38.6703C7.42815 38.659 7.45733 38.6566 7.48502 38.6636C7.5127 38.6705 7.53737 38.6864 7.55519 38.7089C7.56467 38.7152 7.57244 38.7238 7.57782 38.7339C7.5832 38.7439 7.58603 38.7552 7.58603 38.7667C7.58603 38.7781 7.5832 38.7894 7.57782 38.7994C7.57244 38.8095 7.56467 38.8181 7.55519 38.8244C7.52857 38.8326 7.50023 38.8333 7.47323 38.8265C7.44623 38.8198 7.42159 38.8057 7.40194 38.7859Z" fill="white"/>
<path id="Vector_29" d="M7.68023 38.6935C7.67208 38.6862 7.66555 38.6774 7.66108 38.6674C7.65661 38.6574 7.6543 38.6466 7.6543 38.6357C7.6543 38.6248 7.65661 38.614 7.66108 38.604C7.66555 38.594 7.67208 38.5851 7.68023 38.5779C7.70747 38.5697 7.73652 38.5697 7.76375 38.5779C7.79098 38.5862 7.81522 38.6022 7.83348 38.6241C7.84306 38.6295 7.85104 38.6373 7.85661 38.6468C7.86217 38.6562 7.86509 38.6671 7.86509 38.6781C7.86509 38.6891 7.86217 38.6999 7.85661 38.7094C7.85104 38.7189 7.84306 38.7267 7.83348 38.732C7.80727 38.7433 7.77809 38.7457 7.7504 38.7388C7.72271 38.7318 7.69805 38.7159 7.68023 38.6935Z" fill="white"/>
<path id="Vector_30" d="M17.4932 34.9757L17.0156 34.4102L18.071 33.9609L18.5563 34.5341L17.4932 34.9757Z" fill="white"/>
<path id="Vector_31" d="M17.8621 34.3018L17.4004 34.503L17.562 34.6964L18.0315 34.4952L17.8621 34.3018Z" fill="white"/>
<path id="Vector_32" d="M18.2754 34.3615L18.2071 34.3921L18.0781 34.2395L18.1464 34.209L18.2754 34.3615Z" fill="white"/>
<path id="Vector_33" d="M25.6197 60.0186L25.5196 60.0651L25.8585 60.4679L25.6737 60.5531L25.4965 60.344L25.1575 60.4834L25.3347 60.6925L25.1421 60.7777L24.7954 60.3672L24.6953 60.4059L24.8109 59.8018L25.6197 60.0186Z" fill="#EBEBEB"/>
<path id="Vector_34" d="M35.6819 55.4017L34.5726 55.8742L34.457 55.7348L35.5663 55.27L35.6819 55.4017Z" fill="#EBEBEB"/>
<path id="Vector_35" d="M35.9748 55.7503L34.8578 56.215L34.7422 56.0756L35.8592 55.6108L35.9748 55.7503Z" fill="#EBEBEB"/>
<path id="Vector_36" d="M36.258 56.0916L35.141 56.5563L35.0254 56.4247L36.1424 55.9521L36.258 56.0916Z" fill="#EBEBEB"/>
<path id="Vector_37" d="M30.5725 57.8572L30.5032 58.2828L29.9414 58.1203L29.9568 58.0507L30.4186 58.1822L30.4801 57.834L30.5725 57.8572Z" fill="#EBEBEB"/>
<path id="Vector_38" d="M30.4515 58.996C30.2734 58.994 30.0976 58.9543 29.9357 58.8796C29.7738 58.8049 29.6294 58.6967 29.5117 58.5622C29.414 58.4704 29.3418 58.3546 29.3022 58.2262C29.2626 58.0978 29.2569 57.9613 29.2856 57.83C29.3144 57.6987 29.3766 57.5772 29.4662 57.4774C29.5558 57.3776 29.6697 57.303 29.7967 57.2609C30.0342 57.1687 30.2943 57.1527 30.5412 57.2151C30.7881 57.2775 31.0097 57.4153 31.1756 57.6095C31.2688 57.7126 31.3351 57.8373 31.3687 57.9725C31.4023 58.1076 31.4021 58.249 31.3682 58.3841C31.337 58.5091 31.2768 58.6248 31.1924 58.7218C31.108 58.8187 31.0019 58.8941 30.8829 58.9418C30.7438 58.987 30.5974 59.0054 30.4515 58.996ZM30.2204 57.9503C30.1797 57.9422 30.1378 57.9422 30.0971 57.9503C30.0971 57.9503 30.0971 58.0045 30.0971 58.0355C30.1575 58.1013 30.2347 58.1491 30.3203 58.1737C30.4059 58.1983 30.4966 58.1987 30.5825 58.175C30.621 58.175 30.5825 58.1207 30.5825 58.082C30.4836 57.9921 30.3536 57.9448 30.2204 57.9503Z" fill="#EBEBEB"/>
<path id="Vector_39" d="M12.2946 38.5312C12.2603 38.4982 12.235 38.457 12.2211 38.4114C12.2073 38.3658 12.2052 38.3174 12.2153 38.2708C12.2253 38.2243 12.2471 38.181 12.2785 38.1453C12.3099 38.1096 12.3499 38.0826 12.3946 38.0669C12.4876 38.0396 12.5864 38.0396 12.6794 38.0669C12.6967 38.0698 12.7126 38.0781 12.725 38.0906C12.7374 38.1031 12.7457 38.1191 12.7486 38.1365C12.7486 38.1365 12.7101 38.1829 12.6717 38.1365C12.6089 38.1173 12.542 38.1173 12.4793 38.1365C12.4491 38.1473 12.4217 38.1647 12.3991 38.1874C12.3765 38.2102 12.3592 38.2377 12.3484 38.2681C12.3446 38.3011 12.3473 38.3345 12.3566 38.3664C12.3658 38.3983 12.3814 38.4281 12.4023 38.4538C12.4565 38.5111 12.526 38.5514 12.6024 38.5699C12.6776 38.5931 12.7581 38.5931 12.8333 38.5699C12.8595 38.562 12.8837 38.5481 12.9037 38.5293C12.9237 38.5105 12.9391 38.4873 12.9487 38.4615C12.9614 38.4501 12.9779 38.4438 12.9949 38.4438C13.0119 38.4438 13.0284 38.4501 13.0411 38.4615C13.0561 38.4652 13.0691 38.4744 13.0777 38.4873C13.0862 38.5002 13.0896 38.5159 13.0873 38.5312C13.0701 38.5688 13.0455 38.6025 13.0151 38.6305C12.9847 38.6584 12.9491 38.6799 12.9102 38.6937C12.8032 38.7313 12.6874 38.7359 12.5777 38.707C12.468 38.678 12.3694 38.6168 12.2946 38.5312Z" fill="white"/>
<path id="Vector_40" d="M13.3024 38.4531L12.8791 37.9501C12.8726 37.9469 12.8671 37.942 12.8633 37.9358C12.8595 37.9296 12.8574 37.9225 12.8574 37.9153C12.8574 37.908 12.8595 37.9009 12.8633 37.8947C12.8671 37.8886 12.8726 37.8836 12.8791 37.8804C12.8929 37.8714 12.9089 37.8667 12.9253 37.8667C12.9417 37.8667 12.9578 37.8714 12.9715 37.8804L13.1485 38.0894L13.4025 37.981L13.2255 37.7721C13.2205 37.7677 13.2166 37.7624 13.2139 37.7564C13.2112 37.7504 13.2098 37.7439 13.2098 37.7373C13.2098 37.7307 13.2112 37.7242 13.2139 37.7182C13.2166 37.7122 13.2205 37.7068 13.2255 37.7024C13.2407 37.6936 13.2579 37.689 13.2755 37.689C13.293 37.689 13.3103 37.6936 13.3255 37.7024L13.7488 38.2132C13.7553 38.2164 13.7608 38.2213 13.7646 38.2275C13.7685 38.2336 13.7705 38.2407 13.7705 38.248C13.7705 38.2553 13.7685 38.2624 13.7646 38.2686C13.7608 38.2747 13.7553 38.2797 13.7488 38.2828C13.7345 38.2903 13.7187 38.2942 13.7026 38.2942C13.6865 38.2942 13.6707 38.2903 13.6564 38.2828L13.4794 38.0739L13.2255 38.1822L13.3948 38.3912C13.4013 38.3943 13.4068 38.3993 13.4106 38.4054C13.4144 38.4116 13.4165 38.4187 13.4165 38.426C13.4165 38.4333 13.4144 38.4404 13.4106 38.4465C13.4068 38.4527 13.4013 38.4577 13.3948 38.4608C13.3803 38.4687 13.3639 38.4722 13.3475 38.4708C13.331 38.4694 13.3154 38.4633 13.3024 38.4531Z" fill="white"/>
<path id="Vector_41" d="M14.2114 37.9424L13.9728 38.043L14.019 38.1823V38.2287C14.002 38.2296 13.9851 38.2257 13.9702 38.2175C13.9553 38.2093 13.9429 38.1971 13.9344 38.1823L13.7266 37.5787C13.7266 37.5787 13.7266 37.5787 13.7266 37.5322C13.738 37.5246 13.7514 37.5205 13.7651 37.5205C13.7788 37.5205 13.7921 37.5246 13.8035 37.5322L14.4423 37.9424C14.4423 37.9424 14.4885 37.9966 14.4423 38.0198C14.4309 38.0274 14.4175 38.0315 14.4038 38.0315C14.3901 38.0315 14.3767 38.0274 14.3654 38.0198L14.2114 37.9424ZM14.096 37.865L13.8574 37.718L13.9344 37.9346L14.096 37.865Z" fill="white"/>
<path id="Vector_42" d="M14.5198 37.3229L14.3659 37.3925L14.7507 37.8491C14.7572 37.8523 14.7627 37.8572 14.7665 37.8634C14.7703 37.8696 14.7724 37.8767 14.7724 37.884C14.7724 37.8912 14.7703 37.8983 14.7665 37.9045C14.7627 37.9107 14.7572 37.9156 14.7507 37.9188C14.7355 37.9276 14.7182 37.9322 14.7006 37.9322C14.6831 37.9322 14.6658 37.9276 14.6506 37.9188L14.2735 37.4622L14.1119 37.5241C14.0981 37.5331 14.0821 37.5379 14.0657 37.5379C14.0493 37.5379 14.0333 37.5331 14.0195 37.5241C14.0195 37.5241 14.0195 37.4622 14.0195 37.4545L14.4428 37.2765C14.4566 37.2675 14.4726 37.2627 14.489 37.2627C14.5054 37.2627 14.5214 37.2675 14.5352 37.2765C14.5383 37.2848 14.5385 37.294 14.5357 37.3024C14.5329 37.3109 14.5273 37.3181 14.5198 37.3229Z" fill="white"/>
<path id="Vector_43" d="M16.3518 49.8943L25.9812 45.8432L23.778 43.2173L14.1562 47.2684L16.3518 49.8943Z" fill="#2F80ED"/>
<path id="Vector_44" d="M26.8685 45.4641L25.9826 45.8437L25.3047 45.0381L26.8685 45.4641Z" fill="#2F80ED"/>
<path id="Vector_45" d="M23.6485 43.9536L15.1284 47.5478L15.0898 47.4935L23.6099 43.8994L23.6485 43.9536Z" fill="white"/>
<path id="Vector_46" d="M22.109 44.9678L15.353 47.8106L15.3145 47.7641L22.0705 44.9136L22.109 44.9678Z" fill="white"/>
<path id="Vector_47" d="M23.6252 45.0538L15.8061 48.3536L15.7676 48.2994L23.5867 45.0073L23.6252 45.0538Z" fill="white"/>
<path id="Vector_48" d="M24.5489 45.0304L16.0288 48.6167L15.9902 48.5703L24.5103 44.9839L24.5489 45.0304Z" fill="white"/>
<path id="Vector_49" d="M24.7812 45.3008L16.2611 48.8872L16.2148 48.8407L24.7349 45.2466L24.7812 45.3008Z" fill="white"/>
<path id="Vector_50" d="M22.6467 46.564L16.4838 49.1589L16.4453 49.1124L22.6004 46.5098L22.6467 46.564Z" fill="white"/>
<path id="Vector_51" d="M21.5528 56.0916L31.1745 52.0404L28.979 49.4146L19.3496 53.4734L21.5528 56.0916Z" fill="#2F80ED"/>
<path id="Vector_52" d="M32.0677 51.6604L31.1741 52.0399L30.5039 51.2344L32.0677 51.6604Z" fill="#2F80ED"/>
<path id="Vector_53" d="M28.8495 50.1504L20.3294 53.7445L20.2832 53.6903L28.811 50.0962L28.8495 50.1504Z" fill="white"/>
<path id="Vector_54" d="M27.3082 51.1651L20.5522 54.0078L20.5137 53.9613L27.262 51.1108L27.3082 51.1651Z" fill="white"/>
<path id="Vector_55" d="M28.8262 51.2501L21.0072 54.5499L20.9609 54.4956L28.78 51.2036L28.8262 51.2501Z" fill="white"/>
<path id="Vector_56" d="M29.75 51.2276L21.2299 54.814L21.1914 54.7675L29.7115 51.1812L29.75 51.2276Z" fill="white"/>
<path id="Vector_57" d="M29.9804 51.4981L21.4526 55.0844L21.4141 55.038L29.9342 51.4438L29.9804 51.4981Z" fill="white"/>
<path id="Vector_58" d="M27.84 52.7617L21.6849 55.3566L21.6387 55.3102L27.8015 52.7075L27.84 52.7617Z" fill="white"/>
<path id="Vector_59" d="M22.4841 40.2359L12.8624 44.2947L11.0059 42.0794L20.6276 38.0205L22.4841 40.2359Z" fill="#2F80ED"/>
<path id="Vector_60" d="M11.9707 44.6661L12.8643 44.2943L12.1864 43.4888L11.9707 44.6661Z" fill="#2F80ED"/>
<path id="Vector_61" d="M19.0494 39.314L11.9544 42.3039L11.9082 42.2497L19.0109 39.2598L19.0494 39.314Z" fill="white"/>
<path id="Vector_62" d="M20.6973 38.9805L12.1772 42.5669L12.1387 42.5204L20.6588 38.9263L20.6973 38.9805Z" fill="white"/>
<path id="Vector_63" d="M20.9296 39.2437L12.4095 42.8379L12.3633 42.7914L20.8834 39.1973L20.9296 39.2437Z" fill="white"/>
<path id="Vector_64" d="M20.4743 39.8018L12.6322 43.1094L12.5859 43.0551L20.4358 39.7554L20.4743 39.8018Z" fill="white"/>
<path id="Vector_65" d="M21.377 39.7867L12.8569 43.3808L12.8184 43.3266L21.3385 39.7402L21.377 39.7867Z" fill="white"/>
<path id="Vector_66" d="M19.381 40.9947L13.0795 43.6438L13.041 43.5973L19.3348 40.9404L19.381 40.9947Z" fill="white"/>
<path id="Vector_67" d="M24.1647 42.234L14.543 46.2929L13.1641 44.6508L22.7858 40.5996L24.1647 42.234Z" fill="#2F80ED"/>
<path id="Vector_68" d="M13.6484 46.6724L14.542 46.2929L13.8642 45.4873L13.6484 46.6724Z" fill="#2F80ED"/>
<path id="Vector_69" d="M22.6154 41.2886L14.1107 44.875L14.0645 44.8207L22.5769 41.2344L22.6154 41.2886Z" fill="white"/>
<path id="Vector_70" d="M21.3379 42.1948L14.3354 45.1383L14.2969 45.0918L21.2994 42.1406L21.3379 42.1948Z" fill="white"/>
<path id="Vector_71" d="M22.2693 42.1641L14.5658 45.4097L14.5195 45.3632L22.2231 42.1177L22.2693 42.1641Z" fill="white"/>
<path id="Vector_72" d="M20.7298 43.1787L14.7904 45.6807L14.7441 45.6342L20.6913 43.1245L20.7298 43.1787Z" fill="white"/>
<path id="Vector_73" d="M29.3481 48.423L19.7264 52.4741L17.7852 50.1658L27.4069 46.1069L29.3481 48.423Z" fill="#DBDBDB"/>
<path id="Vector_74" d="M18.834 52.8536L19.7276 52.474L19.0497 51.6685L18.834 52.8536Z" fill="#DBDBDB"/>
<path id="Vector_75" d="M27.4539 47.7959L19.4037 51.1809L19.3652 51.1344L27.4077 47.7417L27.4539 47.7959Z" fill="white"/>
<path id="Vector_76" d="M27.0237 48.338L19.6284 51.4519L19.5898 51.4054L26.9852 48.2915L27.0237 48.338Z" fill="white"/>
<path id="Vector_77" d="M26.5366 47.4469L18.9487 50.646L18.9102 50.5995L26.4904 47.4004L26.5366 47.4469Z" fill="white"/>
<path id="Vector_78" d="M27.1383 46.8272L18.726 50.3749L18.6875 50.3284L27.0998 46.7808L27.1383 46.8272Z" fill="white"/>
<path id="Vector_79" d="M27.5083 48.501L19.8587 51.7233L19.8125 51.6768L27.4698 48.4468L27.5083 48.501Z" fill="white"/>
<path id="Vector_80" d="M34.2551 54.272L24.6334 58.3309L23.0156 56.4021L32.6373 52.3433L34.2551 54.272Z" fill="#2F80ED"/>
<path id="Vector_81" d="M23.7402 58.7013L24.6338 58.3295L23.9559 57.5239L23.7402 58.7013Z" fill="#2F80ED"/>
<path id="Vector_82" d="M32.4688 53.0166L23.9487 56.603L23.9102 56.5565L32.4303 52.9624L32.4688 53.0166Z" fill="white"/>
<path id="Vector_83" d="M32.7011 53.2876L24.1733 56.874L24.1348 56.8275L32.6549 53.2334L32.7011 53.2876Z" fill="white"/>
<path id="Vector_84" d="M32.2458 53.8375L24.4036 57.145L24.3574 57.0908L32.2073 53.791L32.2458 53.8375Z" fill="white"/>
<path id="Vector_85" d="M33.1465 53.8224L24.6264 57.4165L24.5879 57.3623L33.108 53.7759L33.1465 53.8224Z" fill="white"/>
<path id="Vector_86" d="M31.1525 55.0303L24.851 57.6794L24.8125 57.6329L31.1063 54.9761L31.1525 55.0303Z" fill="white"/>
<path id="Vector_87" d="M27.6859 63.5743C31.0832 63.6208 20.0363 56.6881 19.8668 52.7996C19.6974 48.9112 23.4721 50.135 26.4379 52.3349C36.753 59.9492 44.5412 59.5774 49.7642 66.8663C54.9872 74.1553 27.6859 63.5743 27.6859 63.5743Z" fill="#F7A9A0"/>
<path id="Vector_88" d="M37.9545 58.7947C40.1702 59.3534 42.3059 60.1942 44.3099 61.2967C46.1129 62.4248 47.6824 63.8924 48.932 65.6189C48.9936 65.6886 48.8935 65.7893 48.8318 65.7196C46.0432 62.2727 41.8987 60.553 37.9622 58.8877C37.8697 58.8644 37.8928 58.7715 37.9545 58.7947Z" fill="#263238"/>
<path id="Vector_89" d="M76.4504 73.3031C73.8081 74.0234 55.3966 68.9421 55.3966 68.9421L45.0508 94.0932C45.0508 94.0932 77.1052 101.599 84.593 98.9964C92.0808 96.3938 103.721 70.8244 107.488 55.9676C111.032 42.0249 106.309 32.8924 96.3948 47.3619C96.3948 47.3619 77.8293 72.9235 76.4504 73.3031Z" fill="#2F80ED"/>
<path id="Vector_90" d="M85.0153 98.2223C91.2859 94.9922 99.0203 78.0827 100.507 74.7752C101.455 72.6528 102.325 70.4995 103.18 68.3306C104.89 64.0006 106.462 59.6164 107.964 55.2089C107.964 55.1315 108.095 55.2089 108.08 55.2477C107.253 58.6456 106.264 62.0021 105.114 65.3174C105.87 64.067 106.554 62.7739 107.163 61.4444C107.171 61.4345 107.183 61.4276 107.196 61.4247C107.208 61.4218 107.222 61.423 107.234 61.4282C107.246 61.4333 107.256 61.4422 107.262 61.4535C107.269 61.4647 107.272 61.4778 107.271 61.4909C106.656 63.0629 105.857 64.5556 104.89 65.9371C103.712 69.2679 102.387 72.5444 100.9 75.7435C100.476 76.6652 91.5324 97.3625 84.5299 99.2835C82.0879 99.9496 73.745 99.3454 71.9886 98.9426C71.9116 98.9426 71.8885 98.8265 71.9886 98.8265C74.3536 98.8265 82.7427 99.3764 85.0153 98.2223Z" fill="#263238"/>
<path id="Vector_91" d="M51.9753 91.0485C52.2834 90.181 52.607 89.3134 52.9228 88.4536C53.5622 86.7185 57.4217 76.4319 59.0857 73.2173C59.1319 73.1321 59.2628 73.2173 59.2397 73.287C58.2999 76.8115 54.2093 86.9587 53.5237 88.6395C53.1771 89.4916 52.8227 90.3514 52.4606 91.2035C52.0986 92.0555 51.6363 92.8688 51.282 93.7286C51.2435 93.8138 51.1125 93.7751 51.1433 93.6899C51.4592 92.8224 51.6672 91.9161 51.9753 91.0485Z" fill="#263238"/>
<path id="Vector_92" d="M55.3872 68.9964C56.928 69.0583 70.6941 72.2807 73.737 72.97C74.4615 73.2115 75.2241 73.3165 75.9865 73.2799C76.729 73.0589 77.3684 72.5781 77.7891 71.9243C78.7751 70.7857 89.5524 56.4324 90.3304 55.7585C90.6309 55.4951 90.862 55.4409 90.5847 55.8979C90.107 56.6725 79.6302 70.8089 78.675 71.9243C77.7198 73.0398 76.9571 74.0467 75.478 73.9848C74.8232 73.9848 56.2192 69.7632 55.3256 69.3837C55.133 69.2907 55.1484 68.9964 55.3872 68.9964Z" fill="#263238"/>
<path id="Vector_93" d="M90.7311 44.984C93.5352 44.922 99.775 40.3364 100.684 36.0296C100.746 35.7353 99.567 33.1946 98.2882 30.042C97.5179 28.121 96.7013 25.9676 96.1004 23.9459C95.9772 23.5354 84.4219 30.8166 84.4219 30.8166C85.8923 33.1264 87.0771 35.608 87.9501 38.2062C88.0285 38.485 88.0826 38.7701 88.1118 39.0583C88.1094 39.1047 88.1094 39.1513 88.1118 39.1977C88.343 40.8863 87.7421 45.0769 90.7311 44.984Z" fill="#F7A9A0"/>
<path id="Vector_94" d="M88.0959 39.0892C88.0931 39.1356 88.0931 39.1822 88.0959 39.2286C88.5398 39.1562 88.9776 39.05 89.4055 38.911C96.7701 36.5175 95.9458 26.5949 95.6146 24.1162C93.473 25.1154 84.3828 30.8475 84.3828 30.8475C85.8548 33.1564 87.0397 35.6382 87.911 38.2371C88.0005 38.5143 88.0625 38.7997 88.0959 39.0892Z" fill="#263238"/>
<path id="Vector_95" d="M93.7578 7.55565C96.323 11.723 97.4015 25.4411 94.9595 29.2443C91.4313 34.713 83.9358 37.153 78.8745 32.4899C73.9751 27.9663 72.8889 10.0266 75.7931 6.45573C80.0147 1.11101 89.9599 1.40536 93.7578 7.55565Z" fill="#F7A9A0"/>
<path id="Vector_96" d="M83.1276 18.7793C83.1276 18.7793 83.1969 18.818 83.2046 18.8568C83.2508 19.7785 83.4588 20.832 84.3139 21.0721C84.3139 21.0721 84.3139 21.1263 84.3139 21.1186C83.2894 21.0644 83.0197 19.6623 83.1276 18.7793Z" fill="#263238"/>
<path id="Vector_97" d="M83.867 17.7415C85.3307 17.5091 85.6927 20.4758 84.3369 20.7004C82.9811 20.9251 82.6344 17.9429 83.867 17.7415Z" fill="#263238"/>
<path id="Vector_98" d="M77.8436 19.5851C77.8436 19.5463 77.782 19.6315 77.782 19.6703C77.9283 20.592 77.936 21.661 77.1426 22.0715C77.1426 22.0715 77.1426 22.1335 77.1426 22.118C78.1517 21.8546 78.1286 20.4294 77.8436 19.5851Z" fill="#263238"/>
<path id="Vector_99" d="M76.9105 18.7251C75.4238 18.7948 75.6703 21.777 77.0492 21.7073C78.4281 21.6376 78.1585 18.6477 76.9105 18.7251Z" fill="#263238"/>
<path id="Vector_100" d="M84.8595 16.2385C84.4569 16.173 84.0583 16.085 83.6654 15.9751C83.2322 15.9446 82.8221 15.767 82.5022 15.4716C82.416 15.3612 82.3691 15.2248 82.3691 15.0843C82.3691 14.9439 82.416 14.8075 82.5022 14.697C82.703 14.5032 82.9524 14.3678 83.2237 14.305C83.4949 14.2423 83.778 14.2546 84.0429 14.3407C84.6058 14.4299 85.1161 14.7251 85.4758 15.1696C85.5531 15.2752 85.5981 15.4013 85.6052 15.5323C85.6123 15.6633 85.5812 15.7935 85.5158 15.907C85.4504 16.0205 85.3534 16.1123 85.2368 16.1712C85.1202 16.2301 84.9891 16.2535 84.8595 16.2385Z" fill="#263238"/>
<path id="Vector_101" d="M75.5845 17.3693C75.9694 17.239 76.3473 17.089 76.717 16.92C77.1421 16.8158 77.5212 16.5735 77.7954 16.2306C77.8632 16.1054 77.8871 15.961 77.8634 15.8205C77.8396 15.68 77.7696 15.5516 77.6645 15.456C77.4392 15.3044 77.1781 15.2153 76.9076 15.1976C76.6371 15.1799 76.3667 15.2343 76.1238 15.3553C75.5813 15.5323 75.1231 15.9048 74.8373 16.401C74.7812 16.5157 74.7582 16.6438 74.771 16.771C74.7839 16.8981 74.832 17.019 74.9099 17.12C74.9878 17.221 75.0924 17.2978 75.2117 17.3419C75.3309 17.386 75.4602 17.3955 75.5845 17.3693Z" fill="#263238"/>
<path id="Vector_102" d="M85.0153 27.2148C84.8227 27.4549 84.6378 27.7803 84.3143 27.85C83.9715 27.8835 83.6256 27.8466 83.2974 27.7416C83.2974 27.7416 83.2435 27.7416 83.2974 27.788C83.4499 27.9541 83.6446 28.075 83.8605 28.1378C84.0763 28.2006 84.3052 28.2029 84.5223 28.1443C84.7017 28.0725 84.856 27.9488 84.9657 27.7889C85.0754 27.629 85.1355 27.44 85.1386 27.2458C85.1154 27.1684 85.0153 27.1683 85.0153 27.2148Z" fill="#263238"/>
<path id="Vector_103" d="M83.7131 24.5802C83.5262 24.9723 83.2607 25.3212 82.9333 25.6052C82.6058 25.8891 82.2235 26.1019 81.8103 26.2301C81.449 26.3464 81.0727 26.409 80.6933 26.416H80.2696C80.22 26.4107 80.1733 26.39 80.1359 26.3566C80.0986 26.3233 80.0727 26.279 80.0617 26.2301C80.0578 26.1992 80.0578 26.168 80.0617 26.1371V26.0597C79.9615 25.347 79.8922 24.2626 79.8922 24.2626C79.6534 24.4253 78.4131 25.1844 78.39 24.8126C78.0819 21.6072 78.0973 18.3788 78.4362 15.1766C78.4362 15.0759 78.6057 15.0759 78.6057 15.1766C78.9138 18.1356 78.6904 21.1332 78.9523 24.1077C79.3903 23.8325 79.865 23.6212 80.3621 23.4803C80.4699 23.4803 80.4545 25.5794 80.5239 25.8893C81.1049 25.8719 81.6766 25.7382 82.2057 25.4962C82.7347 25.2541 83.2105 24.9085 83.6053 24.4795C83.6823 24.4408 83.7593 24.495 83.7131 24.5802Z" fill="#263238"/>
<path id="Vector_104" d="M81.0625 26.0064C81.5122 26.4664 82.0719 26.8024 82.688 26.9824C83.0253 27.0656 83.3799 27.044 83.7048 26.9204C84.4135 26.6338 84.3442 25.9599 84.1439 25.3712C84.0303 25.0762 83.8829 24.7955 83.7048 24.5347C83.0038 25.2975 82.0775 25.8135 81.0625 26.0064Z" fill="#263238"/>
<path id="Vector_105" d="M82.7031 26.9823C83.0405 27.0655 83.3951 27.0438 83.72 26.9203C84.4287 26.6337 84.3594 25.9598 84.1591 25.3711C83.77 25.4323 83.4134 25.6254 83.1486 25.9185C82.8837 26.2116 82.7265 26.587 82.7031 26.9823Z" fill="#FF9BBC"/>
<path id="Vector_106" d="M94.9824 19.2129C92.5712 19.4686 91.8317 13.5661 91.8317 13.5661C91.8317 13.5661 88.08 13.5197 85.4608 8.79463C85.4608 8.79463 81.2701 12.5359 77.2258 12.474C70.8781 12.3888 69.7071 4.30972 71.7408 2.28802C74.622 -0.585729 80.9851 1.82326 80.9851 1.82326C80.9851 1.82326 89.3819 -2.11943 92.9949 3.42668C94.149 3.31477 95.3024 3.6476 96.2219 4.35791C97.1414 5.06822 97.7584 6.10301 97.9483 7.25318C98.9574 11.5754 96.785 19.0193 94.9824 19.2129Z" fill="#263238"/>
<path id="Vector_107" d="M92.8025 14.1087C90.9815 14.1012 89.2147 13.4854 87.7798 12.3581C87.0105 11.7413 86.3993 10.9484 85.9973 10.0455C85.5952 9.1426 85.414 8.15603 85.4687 7.1683C85.4687 7.0676 85.3147 7.05986 85.307 7.1683C85.1949 8.20657 85.3114 9.25692 85.6482 10.2448C85.985 11.2328 86.5339 12.1341 87.2559 12.8848C87.9783 13.5877 88.8713 14.0878 89.8459 14.3352C90.8205 14.5825 91.8426 14.5686 92.8102 14.2946C92.8347 14.2936 92.8578 14.2828 92.8744 14.2646C92.891 14.2465 92.8998 14.2224 92.8988 14.1978C92.8977 14.1731 92.887 14.1499 92.869 14.1332C92.8509 14.1165 92.827 14.1077 92.8025 14.1087Z" fill="#263238"/>
<path id="Vector_108" d="M97.8563 4.65015C96.385 3.30235 94.4899 3.37207 92.6718 3.74388C92.5717 3.74388 92.6102 3.93753 92.7104 3.90655C93.6147 3.71931 94.5524 3.78016 95.4253 4.08271C96.2981 4.38527 97.074 4.91838 97.6714 5.62615C98.8347 6.92747 98.9348 8.79424 98.827 10.4596C98.6355 13.6811 97.2632 16.7169 94.9752 18.9802C94.967 18.9874 94.962 18.9975 94.9613 19.0084C94.9606 19.0193 94.9642 19.0301 94.9713 19.0383C94.9785 19.0465 94.9886 19.0515 94.9994 19.0522C95.0103 19.053 95.021 19.0493 95.0291 19.0421C96.3486 17.862 97.4145 16.4233 98.1616 14.8143C98.9087 13.2054 99.3213 11.4599 99.3739 9.68503C99.4201 7.94993 99.2044 5.88951 97.8563 4.65015Z" fill="#263238"/>
<path id="Vector_109" d="M93.3203 19.2518C93.3203 19.2518 95.2462 14.2712 97.4186 14.8599C99.591 15.4486 98.8669 22.1643 96.8177 23.5586C96.5677 23.7562 96.2804 23.9007 95.9732 23.9833C95.666 24.066 95.3453 24.0851 95.0306 24.0395C94.7158 23.9938 94.4136 23.8844 94.1421 23.7179C93.8706 23.5514 93.6356 23.3312 93.4513 23.0706L93.3203 19.2518Z" fill="#F7A9A0"/>
<path id="Vector_110" d="M97.1629 16.7808C97.2014 16.7808 97.2168 16.7808 97.1629 16.835C95.7454 17.8652 95.2678 19.5461 95.0521 21.2115C95.1105 21.0337 95.2058 20.8704 95.3319 20.7326C95.4579 20.5948 95.6117 20.4856 95.783 20.4123C95.9543 20.339 96.1392 20.3033 96.3254 20.3075C96.5115 20.3118 96.6946 20.3559 96.8625 20.4369C96.9087 20.4369 96.8625 20.5298 96.8625 20.5298C96.563 20.5094 96.2646 20.5826 96.0081 20.7393C95.7517 20.896 95.5496 21.1285 95.4296 21.4051C95.235 21.8685 95.0903 22.3515 94.9982 22.8459C94.9982 23.0085 94.6824 22.993 94.6978 22.8459V22.7994C94.1662 20.7312 95.029 17.5089 97.1629 16.7808Z" fill="#263238"/>
<path id="Vector_111" d="M87.1246 38.957H87.1708C86.8241 41.6062 86.1925 47.7565 90.2137 47.648C91.8314 47.6015 93.3799 46.6488 94.674 45.7038C96.0051 44.7179 97.2267 43.5908 98.3178 42.342C99.5971 40.9752 100.764 39.5064 101.807 37.9501C101.846 37.8804 101.938 37.9501 101.9 38.0275C100.837 39.5767 99.9278 41.2266 98.7184 42.6751C97.5787 44.0893 96.2546 45.3425 94.7819 46.4009C93.3952 47.3692 91.7544 48.3064 90.0442 48.2677C89.2915 48.2452 88.5706 47.9575 88.0074 47.4549C87.4442 46.9523 87.0744 46.2667 86.9628 45.5179C86.5448 43.3449 86.6 41.1066 87.1246 38.957Z" fill="#263238"/>
</g>
</g>
</svg>
