<svg width="228" height="228" viewBox="0 0 228 228" fill="none" xmlns="http://www.w3.org/2000/svg">
<g clip-path="url(#clip0_8538_211321)">
<path d="M133.624 161.113L143.564 161.353L148.611 161.448C150.3 161.49 151.997 161.448 153.687 161.499H154.02V161.113L154.066 151.487V151.058H153.687L143.655 151.109C140.314 151.109 136.965 151.203 133.624 151.246H133.411V151.487C133.411 153.117 133.472 154.738 133.51 156.343L133.624 161.113ZM133.624 161.113L133.73 156.265C133.768 154.67 133.813 153.091 133.828 151.512L133.624 151.753C136.965 151.795 140.314 151.89 143.655 151.89L153.687 151.941L153.308 151.512V161.113L153.649 160.735C151.997 160.735 150.346 160.735 148.686 160.778L143.716 160.924L133.624 161.113Z" fill="#E2E8F0"/>
<path d="M144.815 173.219L154.763 173.459L159.809 173.554C161.491 173.554 163.189 173.554 164.878 173.605H165.212V173.219L165.25 163.618V163.189H164.871L154.839 163.249C151.498 163.249 148.149 163.344 144.807 163.387H144.595V163.618C144.595 165.249 144.656 166.87 144.694 168.474L144.815 173.219ZM144.815 173.219L144.921 168.372C144.921 166.776 145.004 165.197 145.019 163.618L144.815 163.859C148.156 163.902 151.505 163.996 154.847 163.996L164.878 164.047L164.499 163.618L164.545 173.219L164.878 172.842C163.226 172.842 161.575 172.842 159.923 172.884L154.937 172.987L144.815 173.219Z" fill="#E2E8F0"/>
<path d="M106.082 110.399L116.031 110.639L121.077 110.733C122.759 110.733 124.456 110.733 126.146 110.776H126.487V110.39V100.789V100.36H126.108L116.076 100.412C112.735 100.412 109.393 100.506 106.045 100.549H105.84V100.781C105.84 102.411 105.908 104.024 105.938 105.628L106.082 110.399ZM106.082 110.399L106.188 105.542C106.226 103.947 106.279 102.368 106.295 100.798L106.082 101.03C109.431 101.072 112.773 101.167 116.114 101.167L126.146 101.227L125.767 100.798L125.812 110.399L126.146 110.012C124.494 110.012 122.842 110.012 121.191 110.064L116.205 110.158L106.082 110.399Z" fill="#E2E8F0"/>
<path d="M148.164 228H74.0698L74.0698 71.9619H148.164V228Z" fill="#E2E8F0"/>
<path d="M151.748 71.9619L70.4785 71.9619V67.6549L151.748 67.6549V71.9619Z" fill="#CBD5E0"/>
<path d="M177.312 71.9619H151.755V67.6549H177.312V71.9619Z" fill="#E2E8F0"/>
<path d="M173.266 228H148.164L148.164 71.9619H173.266L173.266 228Z" fill="#CBD5E0"/>
<path d="M140.094 172.335H82.1387V135.34H140.094V172.335Z" stroke="#CBD5E0" stroke-width="0.25" stroke-miterlimit="10"/>
<path d="M114.318 153.478H102.999V146.108H114.318V153.478Z" fill="#CBD5E0"/>
<path d="M117.667 152.92H106.348V146.665H117.667V152.92Z" stroke="#CBD5E0" stroke-width="0.25" stroke-miterlimit="10"/>
<path d="M140.094 219.077H82.1387V182.082H140.094V219.077Z" stroke="#CBD5E0" stroke-width="0.25" stroke-miterlimit="10"/>
<path d="M114.318 200.22H102.999V192.85H114.318V200.22Z" fill="#CBD5E0"/>
<path d="M117.667 199.661H106.348V193.407H117.667V199.661Z" stroke="#CBD5E0" stroke-width="0.25" stroke-miterlimit="10"/>
<path d="M140.094 125.594L82.1387 125.594V88.5983H140.094V125.594Z" fill="#A9B9CC"/>
<path d="M90.3303 79.126H134.45V115.341H90.3303V79.126Z" fill="#CBD5E0"/>
<path d="M105.923 75.3682H90.3297V79.1261H106.817L105.923 75.3682Z" fill="#CBD5E0"/>
<path d="M134.336 115.332H90.2165L86.8145 82.1289H130.934L134.336 115.332Z" fill="#A9B9CC"/>
<path d="M102.052 78.6885H86.466L86.8146 82.1289H103.302L102.052 78.6885Z" fill="#A9B9CC"/>
<path d="M81.6732 80.2105C81.3764 79.9526 81.0853 79.6925 80.7998 79.4302L80.5017 79.8107L81.3897 80.5985L81.6732 80.2105Z" fill="#A9B9CC"/>
<path d="M132.648 44.5308L132.528 44.104L132.113 44.2681C132.353 45.0532 132.549 45.8561 132.7 46.6725L133.128 46.5558C132.99 45.892 132.838 45.2008 132.648 44.5308ZM133.437 49.1095L133.007 49.1744C133.061 50.01 133.059 50.8526 132.999 51.6953L133.432 51.7021C133.489 50.8366 133.487 49.9714 133.426 49.1139L133.437 49.1095ZM133.055 54.2898L132.634 54.2127C132.455 55.041 132.216 55.8562 131.92 56.6504L132.316 56.8103C132.627 55.9894 132.876 55.1456 133.061 54.2876L133.055 54.2898ZM131.238 59.1808L130.864 58.9664C130.469 59.7143 130.026 60.4333 129.54 61.1181L129.877 61.3937C130.381 60.6889 130.84 59.9479 131.249 59.1765L131.238 59.1808ZM128.249 63.3824L127.958 63.0493C127.387 63.6508 126.773 64.2004 126.121 64.692L126.353 65.0751C127.027 64.5688 127.663 64.0017 128.254 63.3802L128.249 63.3824ZM124.229 66.3965L124.07 65.965C123.771 66.0832 123.479 66.245 123.185 66.361C122.774 66.5217 122.357 66.6582 121.935 66.7699C121.776 66.3199 121.593 65.8819 121.386 65.4579L120.999 65.6969C121.325 66.3727 121.595 67.0817 121.806 67.8161L121.85 67.9703L122.265 67.8061L122.22 67.646L122.094 67.2014C122.508 67.0904 122.917 66.9549 123.32 66.7954C123.621 66.6831 123.931 66.5406 124.234 66.3943L124.229 66.3965ZM122.677 70.3523L122.244 70.4113C122.291 71.2405 122.247 72.0788 122.113 72.9085L122.541 72.9635C122.682 72.0954 122.729 71.2181 122.682 70.3501L122.677 70.3523ZM120.122 63.3346C119.648 62.67 119.123 62.051 118.554 61.4834L118.256 61.845C118.807 62.3944 119.314 62.9941 119.771 63.6382L120.122 63.3346ZM119.563 67.1021C118.798 67.1157 118.038 67.0357 117.3 66.8637L117.184 67.3248C117.953 67.5086 118.745 67.5935 119.543 67.5778L119.563 67.1021ZM121.839 75.5086L121.443 75.3487C121.139 76.1378 120.766 76.8968 120.33 77.6148L120.687 77.8558C121.146 77.1114 121.537 76.3228 121.855 75.502L121.839 75.5086ZM116.714 59.9769L116.568 59.8962C115.921 59.4996 115.194 59.2675 114.438 59.2161L114.401 59.6924C115.093 59.74 115.758 59.9538 116.349 60.3189L116.482 60.3981L116.714 59.9769ZM119.217 79.9667L118.894 79.6726C118.369 80.3415 117.82 80.9874 117.268 81.5814L117.564 81.9123C118.126 81.308 118.684 80.6518 119.217 79.9667ZM115.195 66.055C114.553 65.707 113.95 65.2824 113.398 64.7886L113.318 64.7215L113.029 65.0928L113.111 65.1658C113.687 65.6727 114.315 66.1071 114.984 66.4615L115.195 66.055ZM112.465 60.5902L112.128 60.3145C111.867 60.7 111.692 61.1435 111.617 61.6069C111.542 62.0704 111.571 62.5401 111.699 62.9758L112.114 62.8117C112.009 62.4479 111.986 62.0569 112.047 61.6707C112.108 61.2846 112.251 60.9143 112.465 60.5902ZM115.745 83.6801L115.484 83.322C114.867 83.8713 114.226 84.3866 113.564 84.8659L113.784 85.2533C114.464 84.772 115.119 84.2486 115.746 83.6861L115.745 83.6801ZM111.692 86.6016L111.512 86.1788C110.808 86.575 110.086 86.9287 109.35 87.2381L109.476 87.6827C110.23 87.3664 110.97 87.0055 111.692 86.6016ZM107.114 88.0306C106.351 88.2531 105.581 88.4325 104.806 88.5681L104.846 89.0397C105.631 88.9014 106.411 88.7203 107.184 88.4971L107.114 88.0306ZM102.506 88.832C101.745 88.8825 100.967 88.8936 100.183 88.8611L100.145 89.3374C100.935 89.3677 101.735 89.3678 102.505 89.307L102.506 88.832ZM97.8818 88.684C97.134 88.5843 96.369 88.4454 95.605 88.2665L95.4964 88.7313C96.2643 88.902 97.042 89.0425 97.8009 89.1378L97.8818 88.684ZM93.3815 87.6894C92.6551 87.4693 91.9241 87.2114 91.2047 86.9291L91.0363 87.3781C91.7629 87.6641 92.5066 87.9235 93.2402 88.1474L93.3815 87.6894ZM89.0829 86.0153C88.3773 85.6946 87.702 85.329 87.0289 84.9494L86.8101 85.3721C87.4976 85.7592 88.2017 86.1398 88.8912 86.4471L89.0829 86.0153ZM85.0405 83.7455C84.4028 83.3386 83.7555 82.8762 83.1338 82.4169L82.8755 82.8091C83.5006 83.2803 84.1517 83.7346 84.8055 84.1548L85.0405 83.7455Z" fill="#A9B9CC"/>
<path d="M130.838 41.5682C130.675 41.1779 130.493 40.7988 130.292 40.4328L129.91 40.7061C129.91 40.7061 130.135 41.1036 130.436 41.7952L130.838 41.5682Z" fill="#A9B9CC"/>
<path d="M128.234 35.7289C130.394 34.5538 133.034 38.9845 130.205 40.5265C127.376 42.0684 126.057 36.9107 128.234 35.7289Z" fill="#4A5568"/>
<path d="M133.728 40.8101C134.45 40.0106 134.109 38.3313 132.541 37.0792C131.407 36.2566 130.126 35.6895 128.769 35.4083C129.032 36.8896 129.554 38.2849 130.307 39.5189C131.494 41.2665 133.002 41.6383 133.728 40.8101Z" fill="#CBD5E0"/>
<path d="M128.772 35.3916C129.445 36.1934 130.147 36.9635 130.842 37.7359C131.538 38.5082 132.259 39.2572 132.993 39.9872C132.32 39.1854 131.619 38.4153 130.923 37.6429C130.227 36.8706 129.507 36.1216 128.772 35.3916Z" fill="#A9B9CC"/>
<path d="M133.07 38.6278C132.779 38.5055 132.48 38.4027 132.175 38.3201C131.874 38.2397 131.566 38.1801 131.255 38.1416C131.547 38.264 131.846 38.3668 132.15 38.4494C132.452 38.5313 132.759 38.5909 133.07 38.6278Z" fill="#A9B9CC"/>
<path d="M130.563 37.3118C130.577 37.6826 130.609 38.0511 130.659 38.4159C130.712 38.7827 130.783 39.1451 130.873 39.5015C130.838 38.7579 130.735 38.0244 130.563 37.3118Z" fill="#A9B9CC"/>
<path d="M130.747 36.6198C130.453 36.5098 130.137 36.4732 129.82 36.5127C130.114 36.6228 130.431 36.6593 130.747 36.6198Z" fill="#A9B9CC"/>
<path d="M128.192 43.8444C127.19 43.9778 126.286 42.6034 126.449 40.4067C126.624 38.8655 127.066 37.3577 127.749 35.9647C128.576 37.1584 129.176 38.529 129.517 40.0021C129.936 42.117 129.224 43.7058 128.192 43.8444Z" fill="#CBD5E0"/>
<path d="M127.725 35.9449C127.836 37.0596 127.9 38.1863 127.968 39.3046C128.036 40.4228 128.087 41.5479 128.102 42.6597C127.992 41.5511 127.928 40.4245 127.86 39.3062C127.792 38.188 127.745 37.0752 127.725 35.9449Z" fill="#A9B9CC"/>
<path d="M127.148 41.8411C127.247 41.51 127.363 41.1843 127.495 40.8655C127.637 40.5433 127.793 40.2284 127.963 39.9221C127.868 40.2545 127.752 40.5805 127.616 40.8977C127.476 41.2209 127.32 41.5359 127.148 41.8411Z" fill="#A9B9CC"/>
<path d="M127.874 38.7891C128.348 39.2886 128.77 39.8447 129.133 40.4482C128.656 39.9509 128.234 39.3946 127.874 38.7891Z" fill="#A9B9CC"/>
<path d="M127.284 38.5352C127.338 38.3686 127.409 38.2084 127.496 38.0578C127.586 37.9069 127.689 37.7654 127.804 37.6355C127.748 37.803 127.675 37.964 127.586 38.1151C127.503 38.2691 127.401 38.4105 127.284 38.5352Z" fill="#A9B9CC"/>
<path d="M128.172 35.6798C128.239 35.8447 128.351 35.9811 128.492 36.0718C128.633 36.1625 128.799 36.2035 128.967 36.1895C129.135 36.1756 129.299 36.1074 129.437 35.9934C129.575 35.8795 129.683 35.725 129.745 35.5494C129.807 35.3738 129.821 35.185 129.786 35.0068C129.751 34.8286 129.668 34.6689 129.548 34.548C129.427 34.4271 129.275 34.3503 129.109 34.3273C128.944 34.3044 128.773 34.3362 128.619 34.419C128.411 34.5317 128.248 34.7275 128.164 34.9637C128.081 35.1999 128.084 35.4573 128.172 35.6798Z" fill="#323A43"/>
<path d="M126.645 36.4889C126.69 36.5988 126.755 36.6967 126.835 36.7769C126.916 36.8571 127.011 36.9181 127.116 36.9563C127.22 36.9946 127.332 37.0093 127.444 36.9998C127.556 36.9903 127.667 36.9566 127.77 36.9007C127.872 36.8449 127.966 36.7679 128.043 36.6742C128.121 36.5805 128.183 36.4719 128.224 36.3546C128.265 36.2374 128.285 36.1138 128.283 35.9908C128.281 35.8678 128.257 35.7479 128.212 35.638C128.122 35.4159 127.953 35.2478 127.742 35.1705C127.531 35.0933 127.296 35.1133 127.088 35.2261C126.88 35.339 126.717 35.5354 126.634 35.7722C126.551 36.009 126.555 36.2668 126.645 36.4889Z" fill="#323A43"/>
<path d="M112.181 125.594L54.2261 125.594L54.2261 88.5983H112.181V125.594Z" fill="#E2E8F0" stroke="#CBD5E0" stroke-width="0.25" stroke-miterlimit="10"/>
<path d="M86.4052 106.735H75.0854V99.3654H86.4052V106.735Z" fill="#CBD5E0"/>
<path d="M89.7544 106.178H78.4346V99.9232H89.7544V106.178Z" stroke="#CBD5E0" stroke-width="0.25" stroke-miterlimit="10"/>
<path d="M140.094 125.594H112.317V94.1407H140.094V125.594Z" fill="#CBD5E0"/>
<path d="M216.566 177.7H147.981V227.912H216.566V177.7Z" fill="#2F80ED"/>
<path d="M194.953 172.499H216.566V177.7H193.71L194.953 172.499Z" fill="#2F80ED"/>
<g opacity="0.1">
<path d="M216.566 177.7H147.981V227.912H216.566V177.7Z" fill="black"/>
<path d="M194.953 172.499H216.566V177.7H193.71L194.953 172.499Z" fill="black"/>
</g>
<path opacity="0.4" d="M178.661 161.691L189.413 166.52L181.631 170.061L178.661 161.691Z" fill="white"/>
<path d="M202.031 202.08L171.807 215.831L156.22 171.899L178.66 161.69L189.413 166.52L202.031 202.08Z" fill="#A9B9CC"/>
<path opacity="0.6" d="M202.031 202.08L171.807 215.831L156.22 171.899L178.66 161.69L189.413 166.52L202.031 202.08Z" fill="white"/>
<path d="M178.661 161.691L189.413 166.52L181.631 170.061L178.661 161.691Z" fill="#A9B9CC"/>
<path d="M162.186 179.114L178.986 171.46L178.585 170.332L161.785 177.987L162.186 179.114Z" fill="white"/>
<path d="M163.196 181.901L180 174.257L179.6 173.129L162.796 180.774L163.196 181.901Z" fill="white"/>
<path d="M164.204 184.75L181.008 177.105L180.608 175.978L163.804 183.622L164.204 184.75Z" fill="white"/>
<path d="M165.214 187.597L189.835 176.396L189.435 175.268L164.813 186.469L165.214 187.597Z" fill="white"/>
<path d="M166.225 190.445L190.847 179.244L190.447 178.116L165.825 189.317L166.225 190.445Z" fill="white"/>
<path d="M167.237 193.292L191.858 182.091L191.458 180.963L166.836 192.164L167.237 193.292Z" fill="white"/>
<path d="M168.246 196.14L192.867 184.938L192.467 183.811L167.846 195.012L168.246 196.14Z" fill="white"/>
<path d="M169.256 198.987L193.877 187.786L193.477 186.658L168.855 197.859L169.256 198.987Z" fill="white"/>
<path d="M170.267 201.836L194.888 190.635L194.488 189.507L169.867 200.708L170.267 201.836Z" fill="white"/>
<path d="M171.278 204.682L195.899 193.481L195.499 192.354L170.878 203.555L171.278 204.682Z" fill="white"/>
<path d="M172.287 207.527L196.909 196.326L196.509 195.198L171.887 206.399L172.287 207.527Z" fill="white"/>
<path d="M173.297 210.375L197.918 199.174L197.518 198.046L172.896 209.247L173.297 210.375Z" fill="white"/>
<path d="M191.255 210.309C191.518 210.501 191.782 210.687 192.045 210.869L191.862 211.215L191.062 210.645L191.255 210.309Z" fill="#A9B9CC"/>
<path d="M202.745 156.922L203.084 156.922L203.084 157.322C202.456 157.306 201.827 157.333 201.202 157.402L201.164 157.002C201.677 156.96 202.214 156.922 202.745 156.922ZM199.254 157.359L199.329 157.748C198.717 157.905 198.116 158.113 197.532 158.372L197.405 157.999C198.006 157.737 198.625 157.527 199.254 157.37L199.254 157.359ZM195.664 158.958L195.838 159.304C195.297 159.661 194.783 160.068 194.299 160.519L194.073 160.215C194.571 159.744 195.103 159.322 195.664 158.952L195.664 158.958ZM192.685 161.728L192.944 162C192.522 162.525 192.134 163.085 191.782 163.673L191.49 163.449C191.851 162.84 192.25 162.261 192.685 161.718L192.685 161.728ZM190.53 165.346L190.85 165.516C190.582 166.158 190.363 166.825 190.196 167.509L189.857 167.403C190.028 166.694 190.253 166.004 190.53 165.341L190.53 165.346ZM189.514 169.566L189.867 169.598C189.867 169.885 189.834 170.178 189.834 170.461C189.835 170.856 189.856 171.251 189.895 171.644C190.261 171.671 190.626 171.723 190.987 171.798L190.926 172.192C190.351 172.075 189.768 172.014 189.185 172.011L189.062 172.011L189.062 171.612L189.189 171.612L189.542 171.612C189.505 171.226 189.486 170.838 189.486 170.45C189.481 170.162 189.495 169.859 189.514 169.56L189.514 169.566ZM187.128 171.878L187.208 172.267C186.603 172.429 186.017 172.673 185.463 172.992L185.303 172.635C185.883 172.3 186.495 172.044 187.128 171.873L187.128 171.878ZM192.859 172.374C193.468 172.622 194.058 172.925 194.624 173.279L194.45 173.626C193.902 173.283 193.331 172.991 192.742 172.752L192.859 172.374ZM190.328 173.78C190.534 174.446 190.806 175.084 191.137 175.682L190.841 175.895C190.492 175.274 190.208 174.609 189.994 173.913L190.328 173.78ZM183.684 173.865L183.91 174.169C183.433 174.626 182.996 175.134 182.607 175.688L182.334 175.437C182.736 174.858 183.188 174.326 183.684 173.849L183.684 173.865ZM196.219 174.505L196.318 174.611C196.784 175.075 197.155 175.647 197.405 176.29L197.075 176.439C196.846 175.851 196.505 175.327 196.078 174.904L195.984 174.808L196.219 174.505ZM181.242 177.227L181.543 177.435C181.214 178.053 180.908 178.687 180.64 179.311L180.32 179.135C180.593 178.501 180.903 177.856 181.242 177.227ZM192.309 177.307C192.739 177.779 193.212 178.197 193.72 178.554L193.791 178.607L193.608 178.948L193.532 178.895C193.008 178.52 192.52 178.083 192.078 177.59L192.309 177.307ZM196.981 178.336L197.273 178.559C197.072 178.88 196.805 179.14 196.495 179.319C196.185 179.497 195.842 179.587 195.494 179.582L195.494 179.183C195.784 179.185 196.069 179.109 196.328 178.962C196.586 178.814 196.81 178.6 196.981 178.336ZM179.572 181.143L179.901 181.282C179.683 181.951 179.496 182.632 179.341 183.323L179.002 183.227C179.154 182.52 179.343 181.825 179.567 181.143L179.572 181.143ZM178.631 185.369L178.984 185.422C178.9 186.129 178.851 186.84 178.838 187.553L178.485 187.553C178.498 186.822 178.546 186.093 178.631 185.369ZM178.904 189.684C178.96 190.4 179.05 191.111 179.172 191.816L178.824 191.895C178.701 191.182 178.61 190.462 178.551 189.738L178.904 189.684ZM179.633 193.872C179.812 194.543 180.023 195.22 180.268 195.891L179.939 196.041C179.694 195.364 179.468 194.671 179.294 193.989L179.633 193.872ZM181.045 197.842C181.327 198.465 181.642 199.094 181.986 199.712L181.684 199.919C181.346 199.296 181.026 198.657 180.743 198.023L181.045 197.842ZM183.025 201.497C183.388 202.072 183.778 202.642 184.183 203.196L183.91 203.452C183.501 202.892 183.105 202.312 182.738 201.731L183.025 201.497ZM185.435 204.811C185.863 205.343 186.314 205.839 186.776 206.329L186.536 206.622C186.065 206.121 185.595 205.604 185.18 205.082L185.435 204.811ZM188.197 207.757C188.667 208.21 189.18 208.657 189.683 209.084L189.476 209.403C188.963 208.977 188.455 208.524 187.971 208.061L188.197 207.757Z" fill="#A9B9CC"/>
<path d="M205.055 157.115C205.372 157.159 205.686 157.223 205.996 157.306L205.911 157.695C205.911 157.695 205.573 157.599 205.008 157.509L205.055 157.115Z" fill="#A9B9CC"/>
<path d="M209.802 157.908C210.023 155.777 206.179 154.583 205.888 157.375C205.596 160.167 209.581 160.055 209.802 157.908Z" fill="#4A5568"/>
<path d="M204.768 154.381C205.126 153.577 206.392 153.465 207.7 154.498C208.588 155.266 209.339 156.219 209.911 157.306C208.805 157.437 207.687 157.326 206.617 156.981C205.069 156.39 204.392 155.196 204.768 154.381Z" fill="#CBD5E0"/>
<path d="M209.896 157.306C209.153 156.927 208.424 156.517 207.694 156.112C206.965 155.707 206.245 155.276 205.535 154.828C206.278 155.206 207.007 155.617 207.737 156.022C208.466 156.427 209.186 156.858 209.896 157.306Z" fill="#A9B9CC"/>
<path d="M206.481 154.396C206.65 154.618 206.807 154.851 206.952 155.094C207.094 155.336 207.223 155.587 207.337 155.846C207.168 155.624 207.011 155.391 206.867 155.148C206.724 154.907 206.595 154.656 206.481 154.396Z" fill="#A9B9CC"/>
<path d="M208.062 156.267C207.803 156.343 207.541 156.404 207.276 156.448C207.009 156.491 206.741 156.518 206.472 156.528C206.993 156.381 207.526 156.294 208.062 156.267Z" fill="#A9B9CC"/>
<path d="M208.472 155.915C208.634 156.144 208.749 156.409 208.811 156.693C208.649 156.465 208.533 156.2 208.472 155.915Z" fill="#A9B9CC"/>
<path d="M204.147 159.959C204.33 160.838 205.535 161.275 207.017 160.614C208.04 160.099 208.966 159.366 209.746 158.457C208.688 158.042 207.57 157.861 206.452 157.924C204.867 158.073 203.959 159.053 204.147 159.959Z" fill="#CBD5E0"/>
<path d="M209.746 158.457C208.946 158.628 208.151 158.841 207.361 159.048C206.57 159.256 205.78 159.48 205.008 159.73C205.803 159.56 206.598 159.347 207.389 159.139C208.179 158.931 208.96 158.708 209.746 158.457Z" fill="#A9B9CC"/>
<path d="M205.827 160.396C206.032 160.232 206.228 160.054 206.415 159.864C206.602 159.665 206.779 159.455 206.947 159.235C206.74 159.397 206.543 159.575 206.359 159.768C206.171 159.965 205.993 160.175 205.827 160.396Z" fill="#A9B9CC"/>
<path d="M207.756 158.989C207.279 158.708 206.778 158.485 206.26 158.323C206.735 158.607 207.237 158.83 207.756 158.989Z" fill="#A9B9CC"/>
<path d="M208.062 159.437C208.164 159.35 208.258 159.25 208.34 159.138C208.421 159.024 208.492 158.901 208.551 158.771C208.449 158.859 208.355 158.961 208.274 159.074C208.188 159.183 208.117 159.305 208.062 159.437Z" fill="#A9B9CC"/>
<path d="M209.803 157.907C209.668 157.89 209.541 157.827 209.438 157.728C209.334 157.628 209.259 157.496 209.222 157.348C209.185 157.201 209.187 157.044 209.228 156.897C209.27 156.751 209.348 156.622 209.454 156.526C209.561 156.431 209.689 156.373 209.825 156.36C209.96 156.347 210.095 156.379 210.214 156.454C210.333 156.528 210.43 156.64 210.492 156.777C210.555 156.913 210.58 157.067 210.565 157.22C210.544 157.425 210.452 157.613 210.309 157.742C210.166 157.87 209.984 157.93 209.803 157.907Z" fill="#323A43"/>
<path d="M209.643 159.459C209.553 159.447 209.466 159.415 209.387 159.365C209.308 159.315 209.238 159.248 209.182 159.167C209.126 159.087 209.084 158.995 209.06 158.896C209.035 158.798 209.028 158.695 209.038 158.593C209.049 158.491 209.077 158.393 209.121 158.303C209.165 158.214 209.224 158.135 209.295 158.071C209.366 158.008 209.448 157.96 209.535 157.932C209.622 157.905 209.713 157.896 209.803 157.908C209.984 157.932 210.15 158.037 210.263 158.199C210.377 158.362 210.429 158.568 210.407 158.774C210.386 158.98 210.294 159.167 210.15 159.296C210.007 159.424 209.824 159.483 209.643 159.459Z" fill="#323A43"/>
<path d="M148.141 227.911H216.726L221.445 181.865H152.86L148.141 227.911Z" fill="#2F80ED"/>
<path d="M200.318 177.096H221.934L221.445 181.866H198.589L200.318 177.096Z" fill="#2F80ED"/>
<path d="M89.9756 227.266C88.694 227.681 52.2696 227.21 50.8989 226.301C50.3417 225.97 50.1299 220.617 50.0241 214.148C50.0241 214.081 50.0241 214.014 50.0241 213.946C50.0241 212.611 49.9851 211.236 49.9795 209.845C49.9795 209.654 49.9795 209.464 49.9795 209.284L51.7347 190.236L76.1012 190.483L73.6997 209.329L73.6718 210.075L73.5214 214.002V214.406C73.5214 214.406 87.379 220.87 88.7888 222.026C90.1985 223.181 91.2516 226.867 89.9756 227.266Z" fill="#F7A9A0"/>
<path d="M89.9756 227.266C88.694 227.681 52.2696 227.21 50.8989 226.301C50.3417 225.97 50.1299 220.617 50.0241 214.148C50.0241 214.081 50.0241 214.014 50.0241 213.947C50.0241 212.611 49.9851 211.237 49.9795 209.845C49.9795 209.654 49.9795 209.464 49.9795 209.284L73.7108 209.352L73.683 210.098L73.5325 214.025V214.429C73.5325 214.429 87.3902 220.892 88.7999 222.048C90.2097 223.204 91.2516 226.868 89.9756 227.266Z" fill="#E2E8F0"/>
<path d="M89.9758 227.266C89.3183 227.479 79.4223 227.456 69.7493 227.266C67.8046 227.226 65.8488 227.181 64.0268 227.131C57.1286 226.94 51.4284 226.654 50.899 226.306C50.3697 225.958 50.1357 220.774 50.0298 214.423C50.0298 214.333 50.0298 214.244 50.0298 214.154C50.0298 214.064 50.0298 214.014 50.0298 213.946H50.0576L73.5327 213.991V214.395C73.5327 214.395 87.3959 220.853 88.8001 222.009C90.2042 223.164 91.2518 226.867 89.9758 227.266Z" fill="#2F80ED"/>
<path d="M89.5801 225.852C83.4509 225.622 58.6609 225.291 52.5762 225.51C52.526 225.51 52.526 225.544 52.5762 225.549C58.6553 225.908 83.4397 226.06 89.5801 225.953C89.7083 225.953 89.7083 225.858 89.5801 225.852Z" fill="#202327"/>
<path d="M69.7268 227.266C67.7821 227.226 65.8264 227.181 64.0043 227.131C57.1061 226.94 51.4059 226.654 50.8766 226.306C50.3472 225.958 50.1132 220.774 50.0073 214.423C50.0073 214.333 50.0073 214.244 50.0073 214.154C50.0073 214.064 50.0073 214.014 50.0073 213.946H50.0352C53.2614 216.224 64.5949 223.821 69.7268 227.266Z" fill="#202327"/>
<path d="M76.1401 214.104C73.7274 213.616 70.7686 213.952 68.8964 215.658C68.824 215.725 68.8964 215.826 69.0023 215.804C71.3203 215.086 73.7073 214.618 76.1233 214.407C76.1632 214.409 76.2024 214.395 76.2322 214.368C76.262 214.341 76.2799 214.304 76.2822 214.264C76.2844 214.223 76.2706 214.184 76.244 214.154C76.2174 214.124 76.18 214.106 76.1401 214.104Z" fill="#202327"/>
<path d="M79.6003 216.264C77.1876 215.776 74.2288 216.112 72.3566 217.823C72.2842 217.891 72.3566 217.992 72.4569 217.969C74.7736 217.246 77.1612 216.778 79.578 216.572C79.6145 216.569 79.6485 216.552 79.674 216.525C79.6995 216.499 79.715 216.464 79.7177 216.427C79.7203 216.391 79.71 216.354 79.6886 216.324C79.6671 216.294 79.6358 216.273 79.6003 216.264Z" fill="#202327"/>
<path d="M77.8675 215.181C75.4604 214.698 72.4961 215.029 70.6239 216.741C70.5514 216.808 70.6239 216.909 70.7242 216.886C73.045 216.164 75.4361 215.694 77.8564 215.484C77.8898 215.476 77.9196 215.457 77.9414 215.431C77.9632 215.404 77.9757 215.371 77.977 215.337C77.9782 215.302 77.9682 215.268 77.9484 215.24C77.9287 215.212 77.9002 215.191 77.8675 215.181Z" fill="#202327"/>
<path d="M62.1819 227.631C60.9059 228.052 24.4815 227.709 23.1052 226.812C22.548 226.475 22.314 221.128 22.1858 214.659C22.1858 214.592 22.1858 214.525 22.1858 214.457C22.1858 213.122 22.1356 211.753 22.1301 210.362C22.1301 210.165 22.1301 209.975 22.1301 209.801C22.0465 200.465 22.6873 190.775 22.6873 190.775L46.4966 190.932L45.8335 209.784V210.53L45.6998 214.429V214.833C45.6998 214.833 59.5853 221.24 60.9951 222.396C62.4048 223.552 63.4579 227.221 62.1819 227.631Z" fill="#F7A9A0"/>
<path d="M62.1817 227.631C60.9057 228.052 24.4813 227.71 23.105 226.812C22.5478 226.475 22.3138 221.128 22.1856 214.659C22.1856 214.592 22.1856 214.525 22.1856 214.458C22.1856 213.122 22.1355 211.753 22.1299 210.362C22.1299 210.165 22.1299 209.975 22.1299 209.801H45.8612V210.547L45.7275 214.446V214.85C45.7275 214.85 59.613 221.257 61.0228 222.413C62.4325 223.569 63.4577 227.221 62.1817 227.631Z" fill="#E2E8F0"/>
<path d="M62.1822 227.63C60.9062 228.051 24.4817 227.709 23.1054 226.811C22.5482 226.475 22.3142 221.128 22.186 214.659C22.186 214.592 22.186 214.524 22.186 214.457L45.6889 214.412V214.816C45.6889 214.816 59.5745 221.223 60.9842 222.379C62.3939 223.535 63.4582 227.221 62.1822 227.63Z" fill="#2F80ED"/>
<path d="M61.7867 226.206C55.6574 225.998 30.8674 225.735 24.7827 225.998C24.7326 225.998 24.7326 226.038 24.7827 226.038C30.8618 226.38 55.6407 226.436 61.7867 226.307C61.926 226.307 61.926 226.212 61.7867 226.206Z" fill="#202327"/>
<path d="M48.3018 214.508C45.8891 214.031 42.9304 214.373 41.0582 216.09C40.9857 216.157 41.0581 216.258 41.1584 216.236C43.473 215.507 45.8584 215.029 48.2739 214.811C48.3138 214.814 48.3536 214.802 48.3844 214.776C48.4152 214.75 48.4346 214.713 48.4383 214.673C48.442 214.633 48.4297 214.593 48.4041 214.562C48.3785 214.531 48.3417 214.511 48.3018 214.508Z" fill="#202327"/>
<path d="M50.0347 215.579C47.622 215.102 44.6633 215.45 42.7911 217.167C42.7186 217.234 42.7911 217.335 42.8914 217.307C45.2085 216.582 47.5955 216.106 50.0124 215.888C50.0489 215.884 50.0829 215.868 50.1084 215.841C50.134 215.815 50.1494 215.78 50.1521 215.743C50.1547 215.706 50.1444 215.67 50.123 215.64C50.1015 215.61 50.0703 215.588 50.0347 215.579Z" fill="#202327"/>
<path d="M51.7676 216.657C49.3549 216.18 46.3962 216.522 44.524 218.239C44.4515 218.306 44.524 218.407 44.6243 218.385C46.9402 217.654 49.3278 217.178 51.7453 216.965C51.7818 216.961 51.8158 216.945 51.8413 216.918C51.8669 216.892 51.8823 216.857 51.885 216.82C51.8877 216.783 51.8773 216.747 51.8559 216.717C51.8344 216.687 51.8032 216.666 51.7676 216.657Z" fill="#202327"/>
<path d="M75.1202 214.513H48.887C48.887 214.513 54.1693 152.797 53.9631 151.742C53.7012 150.362 52.1522 144.118 50.0906 135.96C49.4442 133.407 48.7477 130.669 48.0233 127.83C46.0676 120.155 43.9112 111.768 42.0334 104.468C39.2139 93.5334 37.0186 85.0391 37.0186 85.0391H59.251C59.251 85.0391 61.842 93.309 65.1072 104.07C70.4285 121.558 77.5385 145.627 78.2405 151.479C79.3717 160.932 75.1202 214.513 75.1202 214.513Z" fill="#323A43"/>
<path d="M58.8996 147.972C58.0416 144.152 56.7544 140.409 55.6344 136.662C53.361 129.046 51.0746 121.437 48.7752 113.832C47.6274 110.029 46.474 106.225 45.315 102.421C44.7244 100.502 44.1393 98.5831 43.5431 96.6699C42.9469 94.7567 42.295 92.9333 41.7712 91.0594C41.5539 90.2908 41.4369 90.7115 41.7099 91.6878C42.2671 93.6627 42.8243 95.6151 43.3815 97.5956C44.4959 101.489 45.6326 105.379 46.7916 109.266C49.065 117.008 51.3588 124.741 53.6731 132.465L57.15 144.101C57.7405 145.94 58.2188 147.814 58.582 149.712C58.891 151.701 58.9695 153.719 58.8161 155.726C58.5653 159.771 58.0973 163.805 57.7295 167.839C57.3618 171.873 56.9829 175.918 56.6151 179.958C55.8722 188 55.1385 196.041 54.4141 204.083C54.325 205.099 54.2358 206.12 54.1578 207.141C54.1578 207.483 54.6426 207.455 54.6816 207.141C55.5453 199.191 56.2084 191.213 56.9494 183.246C57.6905 175.279 58.426 167.402 59.1783 159.474C59.3621 157.488 59.5683 155.496 59.5739 153.493C59.5556 151.633 59.3294 149.781 58.8996 147.972Z" fill="#202327"/>
<path d="M56.721 85.0391C55.1776 97.0624 52.2355 119.605 50.0903 135.96C45.0754 116.144 37.0127 85.0391 37.0127 85.0391H56.721Z" fill="#202327"/>
<path d="M58.5266 85.0391C58.5266 85.0391 58.0139 95.7495 55.579 104.233C55.3839 104.934 55.1722 105.624 54.9438 106.286C52.7121 107.193 50.5673 108.303 48.5359 109.602C48.5359 109.602 48.2796 118.22 48.0233 127.83C47.7391 138.575 47.4661 150.559 47.5051 153.078C47.728 162.616 46.3238 214.9 46.3238 214.9L20.0962 215.007C20.0962 215.007 24.838 156.612 24.8046 153.128C24.7544 147.518 26.075 122.781 27.0947 104.732C27.7188 93.6119 28.2091 85.0391 28.2091 85.0391H58.5266Z" fill="#323A43"/>
<path d="M45.4271 210.204C41.4208 210.137 42.5686 210.098 38.5623 210.075C36.601 210.075 23.7184 210.008 21.8852 210.322C21.8748 210.322 21.8649 210.326 21.8576 210.334C21.8503 210.341 21.8462 210.351 21.8462 210.362C21.8462 210.372 21.8503 210.382 21.8576 210.389C21.8649 210.397 21.8748 210.401 21.8852 210.401C23.7184 210.704 36.6065 210.535 38.5679 210.507C42.5742 210.451 41.4208 210.423 45.4271 210.322C45.4995 210.305 45.4995 210.204 45.4271 210.204Z" fill="#202327"/>
<path d="M30.4379 88.8655C29.9532 103.599 29.4405 118.338 28.7663 133.06C28.0921 147.781 27.2228 162.61 25.9803 177.354C25.2949 185.591 24.6486 197.176 23.7515 205.407C23.7515 205.463 23.8295 205.486 23.835 205.407C25.7463 190.82 26.8105 172.72 27.7355 158.009C28.6604 143.299 29.3124 128.571 29.8083 113.844C30.0869 105.518 30.3042 97.1803 30.5549 88.8487C30.6218 88.7365 30.4379 88.7477 30.4379 88.8655Z" fill="#202327"/>
<path d="M56.0362 105.713C53.428 106.801 50.9186 108.115 48.5363 109.641C48.4415 109.697 48.5363 109.848 48.6143 109.798C51.144 108.558 53.7294 107.369 56.1867 105.988C56.2083 105.962 56.2217 105.93 56.2249 105.897C56.2282 105.863 56.2212 105.829 56.205 105.799C56.1887 105.769 56.1638 105.745 56.1337 105.73C56.1036 105.715 56.0696 105.709 56.0362 105.713Z" fill="#202327"/>
<path d="M73.9613 210.075C69.955 209.991 71.1028 209.957 67.0965 209.918C65.1351 209.918 52.2526 209.783 50.4194 210.092C50.3804 210.092 50.3804 210.165 50.4194 210.176C52.2526 210.479 65.1351 210.367 67.0965 210.344C71.1028 210.311 69.955 210.277 73.9613 210.193C74.0337 210.187 74.0337 210.075 73.9613 210.075Z" fill="#202327"/>
<path d="M48.4534 51.6731C49.0795 59.1463 53.9595 75.9329 57.1738 78.957C59.6277 81.2741 72.1157 83.0639 77.2976 83.1368C79.5336 83.1368 79.9417 69.8231 78.2703 69.5931C73.1107 68.8805 64.7705 67.3096 63.3171 66.7878C62.2942 66.4175 59.6277 60.9978 53.7415 50.8091C50.4882 45.1593 48.1013 47.482 48.4534 51.6731Z" fill="#F7A9A0"/>
<path d="M85.4757 82.3849C84.6317 82.5869 84.7323 83.0357 86.1409 83.6865C87.5496 84.3373 93.665 85.7119 93.0054 87.8103C92.3458 89.9086 83.7429 87.8495 81.4845 86.5872C79.2262 85.3248 76.0063 82.4859 76.0063 82.4859C77.7616 82.5308 82.0323 82.3007 85.4757 82.3849Z" fill="#F7A9A0"/>
<path d="M77.9127 69.627C82.8486 69.9916 89.0199 70.1431 93.6093 73.3355C94.1326 73.6741 94.5266 74.1802 94.7273 74.7718C96.8123 76.1632 96.7844 77.577 96.7844 77.577C98.3272 79.4678 98.098 80.9041 98.098 80.9041C98.098 80.9041 100.53 82.5872 99.775 84.2087C98.9365 86.0489 95.6887 83.3559 93 82.9688C86.851 82.0823 77.84 82.5536 76.04 82.475L77.9127 69.627Z" fill="#F7A9A0"/>
<path d="M87.1639 77.4821C88.9679 77.7191 90.7535 78.0809 92.5079 78.5649C94.3973 79.2118 96.236 79.9994 98.0084 80.9214C98.0155 80.919 98.022 80.9151 98.0274 80.91C98.0327 80.9048 98.0369 80.8985 98.0396 80.8915C98.0423 80.8846 98.0434 80.8771 98.0428 80.8696C98.0423 80.8622 98.04 80.8549 98.0364 80.8484C94.7927 78.7235 91.0298 77.5338 87.1583 77.4092C87.0856 77.4148 87.0689 77.4821 87.1639 77.4821Z" fill="#202327"/>
<path d="M87.1862 71.641C89.8163 72.3447 92.3383 73.4055 94.6824 74.7941C94.6824 74.7941 94.7159 74.7941 94.6824 74.7661C91.6806 72.7014 90.3613 72.2918 87.1806 71.54C87.0912 71.512 87.0744 71.613 87.1862 71.641Z" fill="#202327"/>
<path d="M75.2237 84.4949L76.6044 68.5049C76.6044 68.5049 65.022 66.5693 63.3898 66.1485C62.6966 65.9746 56.3297 54.4562 53.3278 49.5358C51.3322 46.2985 47.559 45.4233 48.1348 52.7506C48.4702 57.037 53.0204 77.0329 56.5197 79.6306C59.2532 81.7064 75.2237 84.4949 75.2237 84.4949Z" fill="#2F80ED"/>
<path d="M72.3227 83.1822C72.2388 82.0264 72.6972 77.2575 72.8258 76.0737C72.9543 74.8899 73.6251 70.1434 73.7593 68.9259C73.7593 68.8586 73.8599 68.8473 73.8543 68.9259C73.7425 70.1377 73.4407 74.9347 73.3233 76.1242C73.2059 77.3136 72.6972 82.0657 72.3842 83.199C72.3803 83.2049 72.3746 83.2095 72.368 83.212C72.3614 83.2145 72.3542 83.2148 72.3473 83.213C72.3405 83.2111 72.3345 83.2071 72.33 83.2016C72.3256 83.1961 72.323 83.1893 72.3227 83.1822Z" fill="#202327"/>
<path opacity="0.1" d="M70.6828 83.2412C65.5143 82.2445 59.2656 80.8671 57.5591 79.708C53.7288 77.1155 48.7322 57.1593 48.3517 52.8814C47.9465 48.1835 49.5118 46.862 51.2612 47.3828L70.6828 83.2412Z" fill="black"/>
<path d="M26.1137 97.5879C26.2009 97.6964 63.4497 97.5879 63.7733 97.1404C63.8503 95.9989 63.8628 94.8532 63.8107 93.71C63.8107 93.71 66.2437 90.4084 64.9058 85.1611C62.0745 74.0699 55.2109 50.7688 53.1699 48.4706C51.3778 46.4367 46.5739 45.5147 43.6119 47.413C37.3892 51.3993 30.0628 68.9872 27.1692 80.0411C24.8721 86.5729 26.3004 92.4558 26.6613 94.0354C26.4138 95.2066 26.2309 96.3929 26.1137 97.5879Z" fill="#2F80ED"/>
<path d="M42.1758 53.2549C41.992 53.0045 41.8347 52.7357 41.7063 52.4526C41.5632 52.1734 41.4687 51.8717 41.4268 51.5605C41.4882 51.7064 41.5609 51.8355 41.628 51.9757L41.8292 52.3909C41.963 52.6712 42.0788 52.9598 42.1758 53.2549Z" fill="#202327"/>
<path d="M41.1135 56.0996C42.4271 65.8619 47.6649 83.0301 50.2083 85.4594C52.4443 87.6026 64.8317 87.928 70.3322 87.6195C72.3893 87.5016 70.6899 71.6463 68.4931 71.8146C65.8602 72.0166 58.0566 72.342 57.5871 71.8146C57.1175 71.2873 51.2593 60.5936 46.8991 54.091C42.9414 48.2337 40.616 52.4079 41.1135 56.0996Z" fill="#F7A9A0"/>
<path d="M75.5479 70.7483C80.3608 70.681 81.6074 71.4047 85.6377 69.183C88.2874 67.7298 90.3501 68.7958 88.6172 71.4272C85.7775 75.7248 79.5894 77.1218 77.3031 76.9816L75.5479 70.7483Z" fill="#F7A9A0"/>
<path d="M62.4116 73.7218C62.4116 73.7218 68.0966 71.4271 73.2226 70.8492C76.761 70.4453 84.5646 70.434 90.9652 78.9676C92.48 80.9874 93.2011 84.954 89.5397 82.5527C86.9292 80.8696 85.7888 78.9732 84.0895 78.2607C84.0895 78.2607 84.4249 83.4112 82.3454 84.8587C80.5274 86.113 78.624 87.2379 76.6493 88.225C76.3838 87.9025 76.1392 87.5633 75.917 87.2095C75.917 87.2095 73.8487 88.3765 70.327 87.591L62.4116 73.7218Z" fill="#F7A9A0"/>
<path d="M76.6602 71.0068C78.1974 72.0728 81.4172 74.3731 83.3681 77.1784C85.565 80.3035 88.9581 86.9126 86.6383 88.5172C84.9613 89.6898 83.424 87.2829 83.424 87.2829C83.424 87.2829 84.2514 90.3126 82.4905 91.0364C80.8806 91.6984 79.8185 89.7628 79.8185 89.7628C79.8185 89.7628 80.003 91.6872 78.3372 92.007C76.3248 92.4109 76.2633 88.3097 73.8652 86.9575C73.3621 86.6938 76.6602 71.0068 76.6602 71.0068Z" fill="#F7A9A0"/>
<path d="M79.7179 78.9789C81.7863 81.2818 83.1064 84.1626 83.5023 87.2375C83.5023 87.3161 83.452 87.361 83.4297 87.2936C82.528 84.3874 81.2759 81.6027 79.7012 79.0013C79.7012 79.0013 79.7012 78.9676 79.7179 78.9789Z" fill="#202327"/>
<path d="M76.6375 81.2959C77.6326 82.4797 79.7232 86.2612 79.9077 89.7622C79.9077 89.8407 79.8518 89.8856 79.835 89.8127C79.0823 86.8657 77.9983 84.0141 76.604 81.3127L76.6375 81.2959Z" fill="#202327"/>
<path d="M76.4146 70.7488C77.0294 70.7488 77.6387 70.7488 78.2536 70.7488C78.8685 70.7488 79.4723 70.7488 80.0816 70.7151C80.6909 70.6814 81.2946 70.659 81.8983 70.5917C82.5039 70.5322 83.0973 70.3828 83.6591 70.1484C83.1343 70.4838 82.5463 70.7072 81.9318 70.8049C81.325 70.9186 80.7099 70.9824 80.0927 70.9956C78.8619 71.0205 77.6312 70.9379 76.4146 70.7488Z" fill="#202327"/>
<path d="M88.7964 71.1133C88.5324 71.7548 88.1535 72.3424 87.6785 72.8469C87.2079 73.3645 86.6373 73.7807 86.0015 74.07C86.253 73.8288 86.5101 73.6156 86.7505 73.3743C86.9909 73.1331 87.2257 72.903 87.4493 72.6562C87.9356 72.1624 88.3604 71.6463 88.7964 71.1133Z" fill="#202327"/>
<path d="M84.2627 72.959C85.9377 73.9223 87.4965 75.0764 88.908 76.3982C89.6162 77.067 90.2704 77.7912 90.8645 78.5639C91.4874 79.3304 91.9648 80.2052 92.2731 81.1447C92.4352 81.6388 92.466 82.1667 92.3626 82.6764C92.2949 82.9622 92.1183 83.2099 91.8707 83.3665C91.6154 83.4962 91.3251 83.5395 91.0433 83.4899C90.5433 83.3851 90.0685 83.1831 89.6458 82.8952C89.2345 82.6258 88.844 82.3258 88.4775 81.9975C87.1111 80.6559 85.6128 79.4566 84.0056 78.418L84.2515 78.1599C85.2002 79.7323 86.0155 81.382 86.6888 83.0916C87.033 83.9411 87.2859 84.8251 87.4434 85.7285C87.5245 86.182 87.5415 86.6448 87.4937 87.1031C87.4601 87.565 87.2616 87.9993 86.9347 88.3262C87.2343 87.9836 87.4061 87.5474 87.421 87.0919C87.4424 86.6419 87.4048 86.1911 87.3092 85.7509C87.1091 84.8697 86.8265 84.0093 86.4652 83.1813C85.7447 81.5207 84.9001 79.9171 83.9385 78.3843L83.564 77.7784L84.1789 78.1263C85.8191 79.1621 87.351 80.3614 88.7515 81.7058C89.0999 82.0257 89.4738 82.3165 89.8695 82.5754C90.2379 82.8431 90.656 83.0339 91.0992 83.1364C91.288 83.1727 91.4833 83.1491 91.6582 83.0691C91.7393 83.0178 91.8094 82.9506 91.8641 82.8716C91.9188 82.7925 91.9572 82.7033 91.9769 82.6091C92.0672 82.1685 92.0402 81.7118 91.8986 81.285C91.6033 80.3864 91.1593 79.5442 90.585 78.7939C90.0211 78.0214 89.3987 77.2936 88.7235 76.617C87.3585 75.2552 85.8645 74.03 84.2627 72.959Z" fill="#202327"/>
<path d="M68.6947 90.1215L68.0183 71.3768H57.9564C54.9098 66.2488 48.8224 55.9984 46.1839 52.7667C43.0927 48.9796 40.2697 50.8872 40.756 55.8525C41.874 67.2082 47.9112 84.6681 49.9851 86.6149C52.9422 89.3977 68.6947 90.1215 68.6947 90.1215Z" fill="#2F80ED"/>
<path d="M65.5642 87.9169C65.3071 86.7948 65.0443 81.9192 65.0052 80.7074C64.9661 79.4955 64.9102 74.648 64.8599 73.4137C64.8599 73.3464 64.9549 73.3239 64.9549 73.4137C65.0276 74.6424 65.4524 79.5011 65.5139 80.7074C65.5754 81.9136 65.7822 86.7611 65.6369 87.9449C65.635 87.9497 65.6323 87.9541 65.6288 87.9578C65.6252 87.9615 65.621 87.9645 65.6164 87.9666C65.6069 87.9708 65.5962 87.9711 65.5866 87.9674C65.5769 87.9636 65.5692 87.9562 65.565 87.9468C65.5608 87.9373 65.5605 87.9265 65.5642 87.9169Z" fill="#202327"/>
<path d="M61.9754 89.5888C60.3543 89.4092 58.7332 89.1904 57.1233 88.9211C55.5049 88.669 53.9032 88.3186 52.3271 87.872C51.5223 87.6575 50.7563 87.3167 50.0576 86.8621C49.4591 86.2741 48.969 85.5846 48.6098 84.8254C47.8692 83.355 47.2268 81.8369 46.6868 80.2809C45.5688 77.1952 44.6688 74.042 43.8024 70.8777C42.9359 67.7134 42.2037 64.521 41.5664 61.3398C42.4105 64.5042 43.2713 67.6629 44.1713 70.8104C45.0713 73.9579 46.016 77.0886 47.0781 80.1799C47.6061 81.7226 48.2201 83.2342 48.9172 84.7076C49.2422 85.4393 49.6904 86.1092 50.242 86.6881C50.9109 87.1308 51.6446 87.4659 52.4165 87.6812C55.5484 88.5661 58.7444 89.2039 61.9754 89.5888Z" fill="#202327"/>
<path d="M51.2207 60.4639C52.3387 62.0292 53.2722 63.6899 54.2728 65.317C55.2734 66.944 56.2293 68.5991 57.2579 70.2037L57.6492 70.7984C57.7162 70.8938 57.7833 70.9948 57.856 71.0846L57.9566 71.208C57.9566 71.2361 57.9566 71.208 57.9566 71.236C57.9566 71.2641 58.0013 71.236 58.0181 71.236C58.4429 71.2865 58.9516 71.2922 59.4156 71.3034H62.272L67.9906 71.337V71.87L67.9626 71.3988C66.0565 71.4885 64.1503 71.539 62.2441 71.5727C61.2938 71.5727 60.3379 71.5727 59.382 71.5727C58.8969 71.5765 58.4118 71.5559 57.9287 71.511C57.8904 71.5063 57.8528 71.4968 57.8169 71.4829C57.7764 71.462 57.7403 71.4334 57.7106 71.3988C57.6659 71.3483 57.6156 71.2978 57.5821 71.2529C57.5485 71.208 57.4367 71.0565 57.3641 70.9555C57.2299 70.7592 57.0957 70.5572 56.9672 70.3552C55.9554 68.7282 54.9883 67.0843 54.0325 65.4236L52.6126 62.9381C52.1989 62.1077 51.7462 61.2606 51.2207 60.4639Z" fill="#202327"/>
<path d="M50.5676 55.9405C48.2457 55.4299 46.2008 50.5295 46.0279 47.2711C46.0191 47.0428 50.1562 40.3346 50.8367 38.9201C50.9754 38.6285 58.6886 45.3552 58.6886 45.3552C58.6886 45.3552 56.3862 47.9019 55.2134 50.3782C55.1178 50.5896 52.8102 56.4332 50.5676 55.9405Z" fill="#F7A9A0"/>
<path d="M58.6886 45.3552C58.6886 45.3552 56.3862 47.9019 55.2115 50.3756C55.1906 50.4272 49.1694 49.7367 48.8147 42.4601C49.7112 40.9306 50.5606 39.4944 50.8367 38.9201C50.9776 38.6288 58.6886 45.3552 58.6886 45.3552Z" fill="#263238"/>
<path d="M47.2543 30.6603C46.3204 34.199 48.5567 44.2272 51.1286 46.3833C54.8605 49.5111 60.7739 49.5959 63.3815 45.1549C65.9085 40.8501 62.7664 27.8329 59.9097 25.8934C55.7016 23.0347 48.6323 25.4353 47.2543 30.6603Z" fill="#F7A9A0"/>
<path d="M56.8762 42.915C57.0667 43.0463 57.2693 43.2361 57.5158 43.2117C57.769 43.163 58.0089 43.0604 58.219 42.9109C58.2234 42.9088 58.2282 42.908 58.2331 42.9086C58.2379 42.9093 58.2424 42.9113 58.2461 42.9145C58.2497 42.9176 58.2524 42.9218 58.2537 42.9265C58.255 42.9312 58.2549 42.9361 58.2534 42.9408C58.1802 43.0921 58.0673 43.2207 57.9267 43.3129C57.7862 43.4052 57.6232 43.4575 57.4553 43.4644C57.3097 43.4526 57.171 43.398 57.0564 43.3075C56.9418 43.2171 56.8566 43.0947 56.8114 42.9559C56.7983 42.92 56.8472 42.8951 56.8762 42.915Z" fill="#263238"/>
<path d="M56.7652 36.5287C56.7553 36.5023 56.7204 36.5724 56.7281 36.5984C56.8946 37.2714 56.9755 38.0686 56.412 38.4253C56.3946 38.4365 56.4058 38.4699 56.4274 38.4616C57.1507 38.1954 57.034 37.1366 56.7652 36.5287Z" fill="#263238"/>
<path d="M56.0083 35.9521C54.9031 36.1077 55.2932 38.3065 56.317 38.1644C57.3408 38.0223 56.9348 35.8235 56.0083 35.9521Z" fill="#263238"/>
<path d="M60.6008 35.9169C60.6046 35.8902 60.661 35.9413 60.6639 35.9689C60.763 36.6529 60.9933 37.4211 61.649 37.5384C61.6691 37.5412 61.673 37.5781 61.6437 37.5762C60.8868 37.6128 60.5759 36.5947 60.6008 35.9169Z" fill="#263238"/>
<path d="M61.0833 35.1036C62.1647 34.8265 62.632 37.0089 61.6374 37.2664C60.6428 37.5239 60.176 35.337 61.0833 35.1036Z" fill="#263238"/>
<path d="M54.9643 35.1238C55.2455 34.9817 55.4792 34.8056 55.7434 34.6384C56.0077 34.4712 56.2937 34.3275 56.4412 33.9894C56.4724 33.8899 56.4699 33.7829 56.434 33.685C56.3981 33.5871 56.3307 33.5038 56.2425 33.4482C55.8505 33.2318 55.4307 33.3748 55.0644 33.589C54.6849 33.79 54.3945 34.1259 54.2506 34.5306C54.1036 34.9459 54.5967 35.2992 54.9643 35.1238Z" fill="#263238"/>
<path d="M61.7346 33.9121C61.4316 33.8718 61.131 33.8158 60.8338 33.7445C60.4892 33.6756 60.2058 33.6561 59.9476 33.3927C59.8819 33.3116 59.8451 33.2109 59.8429 33.1066C59.8407 33.0023 59.8733 32.9002 59.9356 32.8164C60.2224 32.4729 60.6683 32.4516 61.0828 32.5236C61.5079 32.575 61.8983 32.7839 62.1769 33.1091C62.474 33.4347 62.1469 33.952 61.7346 33.9121Z" fill="#263238"/>
<path d="M47.5774 37.2758C49.5251 37.3987 49.9214 32.6529 49.9214 32.6529C49.9214 32.6529 52.9369 32.4889 54.8844 28.6212C54.8844 28.6212 58.3804 31.4719 61.6309 31.2855C66.7329 31.0028 67.4029 24.5015 65.6994 22.9533C63.2857 20.7523 58.2494 22.8942 58.2494 22.8942C58.2494 22.8942 51.364 20.0247 48.6449 24.5827C47.713 24.5322 46.7966 24.8374 46.081 25.4366C45.3655 26.0358 44.904 26.8843 44.79 27.8106C44.1238 31.3017 46.1212 37.1819 47.5774 37.2758Z" fill="#263238"/>
<path d="M49.1582 33.1186C50.6224 33.051 52.0226 32.4988 53.1386 31.5486C53.7365 31.0293 54.2014 30.3744 54.4944 29.6387C54.7874 28.9029 54.8999 28.1078 54.8227 27.3196C54.8193 27.2391 54.943 27.2277 54.9528 27.3141C55.0778 28.1408 55.0195 28.9848 54.7818 29.7863C54.5442 30.5879 54.133 31.3273 53.5776 31.9522C53.0204 32.5388 52.319 32.9689 51.5435 33.1997C50.768 33.4305 49.9456 33.4539 49.1583 33.2675C49.1385 33.2675 49.1196 33.2597 49.1056 33.2457C49.0916 33.2318 49.0838 33.2128 49.0838 33.1931C49.0838 33.1733 49.0916 33.1544 49.1055 33.1404C49.1195 33.1264 49.1385 33.1186 49.1582 33.1186Z" fill="#263238"/>
<path d="M44.7759 25.7255C45.9138 24.5978 47.4402 24.5895 48.9148 24.8254C48.9953 24.822 48.9709 24.9782 48.8893 24.9568C48.1558 24.8376 47.4037 24.918 46.7119 25.1895C46.0201 25.461 45.4141 25.9136 44.9574 26.4999C44.0657 27.58 44.0479 29.0764 44.1906 30.4048C44.4529 32.9749 45.6587 35.3565 47.5748 37.0893C47.5816 37.0948 47.586 37.1028 47.5869 37.1114C47.5879 37.1201 47.5853 37.1288 47.5799 37.1357C47.5744 37.1425 47.5664 37.1468 47.5577 37.1478C47.549 37.1487 47.5403 37.1462 47.5335 37.1407C46.4327 36.2414 45.5271 35.1268 44.8721 33.8652C44.2172 32.6036 43.8268 31.2215 43.7247 29.8037C43.6292 28.4176 43.7334 26.7623 44.7759 25.7255Z" fill="#263238"/>
<path d="M50.3066 38.5574C50.3066 38.5574 47.8332 35.4273 46.4007 36.3272C44.9681 37.2271 46.9603 41.8566 48.7365 42.4041C48.9595 42.4898 49.1975 42.5295 49.4363 42.5207C49.675 42.512 49.9095 42.455 50.1257 42.3532C50.3418 42.2514 50.5351 42.1069 50.6939 41.9284C50.8527 41.7499 50.9737 41.5411 51.0496 41.3146L50.3066 38.5574Z" fill="#F7A9A0"/>
<path d="M46.9971 37.6369C46.9919 37.6378 46.9871 37.6403 46.9834 37.644C46.9798 37.6478 46.9774 37.6527 46.9766 37.6579C46.9759 37.6631 46.9769 37.6684 46.9794 37.6731C46.9819 37.6777 46.9858 37.6814 46.9905 37.6837C48.2369 38.1066 48.9463 39.1989 49.4642 40.3437C49.0705 39.9136 48.5672 39.6974 47.9884 40.1633C47.9576 40.1885 47.9784 40.2346 48.0248 40.2275C48.2349 40.1463 48.4651 40.1323 48.6835 40.1875C48.9019 40.2426 49.0978 40.3642 49.2442 40.5353C49.4863 40.8242 49.6972 41.1378 49.8734 41.471C49.9359 41.5752 50.1295 41.507 50.0812 41.3821L50.0691 41.3555C50.0073 39.8092 48.6728 37.7046 46.9971 37.6369Z" fill="#263238"/>
<path d="M56.6948 41.6342C57.4616 41.172 58.532 41.1023 59.2141 41.0802C59.2857 41.0562 59.3305 40.899 59.3294 40.8262C59.3325 40.8039 59.0667 39.4652 59.0667 39.4652C59.2624 39.5268 60.2479 39.7858 60.1927 39.5328C59.7131 37.4213 59.1779 35.0749 58.2543 33.0849C58.2476 33.0727 58.2369 33.0631 58.2241 33.0579C58.2112 33.0526 58.197 33.0519 58.1836 33.0558C58.1703 33.0598 58.1588 33.0682 58.1509 33.0797C58.1431 33.0912 58.1394 33.105 58.1405 33.1188C58.5226 35.1643 59.2602 37.1373 59.6754 39.1738C59.3662 39.1121 58.8548 38.9857 58.5982 39.0336C58.5302 39.0649 58.9543 40.4577 58.969 40.6755C58.969 40.6755 57.5991 40.501 56.6452 41.3569C56.3896 41.5753 56.3279 41.8528 56.6948 41.6342Z" fill="#263238"/>
<path d="M95.7708 15.1265C95.7706 17.4989 95.1112 19.8246 93.8662 21.8441C92.6213 23.8637 90.8396 25.4976 88.7202 26.5636C86.6007 27.6296 84.2268 28.0858 81.8632 27.8812C79.4996 27.6766 77.2393 26.8194 75.3345 25.4051L69.0566 27.0078L71.6681 21.168C70.749 19.4509 70.2335 17.5469 70.1609 15.6007C70.0882 13.6544 70.4603 11.7173 71.2489 9.93645C72.0375 8.15564 73.2217 6.5781 74.7116 5.32378C76.2015 4.06946 77.9578 3.17139 79.8469 2.69786C81.7361 2.22433 83.7083 2.18781 85.6137 2.59108C87.5191 2.99435 89.3074 3.82679 90.8427 5.0251C92.378 6.22341 93.6199 7.75603 94.4738 9.50642C95.3278 11.2568 95.7713 13.1789 95.7708 15.1265Z" fill="white"/>
<path d="M95.7704 15.1213C95.7697 17.4967 95.1156 19.8261 93.8796 21.8546C93.5789 22.366 93.2478 22.8588 92.888 23.3304C92.5056 23.782 92.0955 24.2094 91.6601 24.6102C90.8 25.421 89.8296 26.1061 88.7777 26.6452C87.7225 27.1838 86.597 27.5719 85.4341 27.7981C84.8503 27.9143 84.2588 27.9876 83.6643 28.0172C83.0716 28.0662 82.4758 28.0662 81.883 28.0172C79.4852 27.8311 77.1861 26.9829 75.2419 25.5671L75.4149 25.6017L69.1543 27.2505L68.647 27.3831L68.8603 26.8988L71.4487 21.0475V21.2897C70.5071 19.5393 69.981 17.5957 69.911 15.6094C69.8411 13.6231 70.2291 11.6473 71.0451 9.83496C71.8622 8.02774 73.0783 6.42926 74.602 5.1597C76.1239 3.90885 77.9093 3.01891 79.8243 2.55664C81.7392 2.09438 83.734 2.07179 85.6589 2.49059C87.5665 2.92452 89.353 3.77933 90.8876 4.99252C92.4141 6.202 93.6465 7.7418 94.4923 9.49615C95.338 11.2505 95.775 13.1737 95.7704 15.1213ZM95.7704 15.1213C95.7694 12.1927 94.7549 9.35474 92.8992 7.08917C91.0434 4.82361 88.4608 3.27008 85.5898 2.69236C83.7008 2.31634 81.751 2.37549 79.8884 2.8653C78.0317 3.34481 76.3099 4.24416 74.8557 5.49406C73.4147 6.75748 72.2659 8.31938 71.489 10.0713C70.7229 11.8183 70.3641 13.7167 70.4398 15.6228C70.5287 17.51 71.0326 19.3543 71.9156 21.0245L71.979 21.1455L71.9214 21.2666L69.2869 27.1006L68.9929 26.7547L75.2823 25.1982H75.3803L75.4552 25.2558C77.3194 26.6717 79.5413 27.5401 81.8715 27.7635C82.4472 27.8059 83.0252 27.8059 83.6009 27.7635C85.3626 27.703 87.0907 27.2646 88.6682 26.478C89.7205 25.9657 90.6917 25.3014 91.5506 24.5064C91.9858 24.1116 92.3959 23.6899 92.7785 23.2439C93.1457 22.7853 93.4863 22.306 93.7989 21.8085C95.0573 19.8026 95.7394 17.4891 95.7704 15.1213Z" fill="#263238"/>
<path d="M83.8545 16.5103V17.9227C83.8585 18.0639 83.8336 18.2043 83.7814 18.3355C83.7292 18.4667 83.6508 18.5859 83.551 18.6857C83.4511 18.7855 83.332 18.8639 83.2008 18.9161C83.0696 18.9683 82.9291 18.9932 82.788 18.9892C82.6482 18.9892 82.5098 18.9616 82.3808 18.9079C82.2517 18.8542 82.1345 18.7756 82.0359 18.6765C81.9373 18.5774 81.8593 18.4598 81.8064 18.3304C81.7534 18.2011 81.7265 18.0625 81.7273 17.9227V15.6687C81.7273 15.6687 81.7273 15.6687 81.7273 15.6226C81.7273 15.5764 81.7273 15.6226 81.7273 15.5822C81.7345 15.3026 81.8484 15.0364 82.0456 14.8381C82.2429 14.6398 82.5085 14.5244 82.788 14.5157C83.1171 14.5317 83.4459 14.4808 83.7547 14.3659C84.0635 14.251 84.3457 14.0746 84.5842 13.8474C84.8228 13.6202 85.0127 13.3469 85.1425 13.0441C85.2722 12.7413 85.3391 12.4153 85.3391 12.0858C85.3391 11.7564 85.2722 11.4304 85.1425 11.1276C85.0127 10.8248 84.8228 10.5515 84.5842 10.3243C84.3457 10.0971 84.0635 9.92066 83.7547 9.80578C83.4459 9.69091 83.1171 9.63994 82.788 9.65597C82.3669 9.65464 81.9528 9.76423 81.5875 9.97371C81.2222 10.1832 80.9185 10.4852 80.7069 10.8493C80.6359 10.9721 80.5414 11.0797 80.4287 11.1659C80.316 11.2521 80.1875 11.3152 80.0504 11.3516C79.9133 11.388 79.7703 11.397 79.6297 11.3781C79.4892 11.3592 79.3537 11.3127 79.2311 11.2413C79.1108 11.17 79.0058 11.0757 78.9221 10.9637C78.8384 10.8517 78.7776 10.7243 78.7433 10.5888C78.709 10.4532 78.7019 10.3122 78.7223 10.1739C78.7427 10.0356 78.7902 9.90268 78.8622 9.7828C79.2414 9.12978 79.7768 8.58116 80.4204 8.18619C81.064 7.79122 81.7956 7.56226 82.5496 7.51988C83.3035 7.4775 84.0562 7.62302 84.74 7.94338C85.4238 8.26373 86.0174 8.74889 86.4674 9.3553C86.9174 9.9617 87.2097 10.6704 87.3182 11.4177C87.4266 12.165 87.3478 12.9275 87.0888 13.6368C86.8298 14.3461 86.3986 14.98 85.8341 15.4816C85.2696 15.9831 84.5894 16.3366 83.8545 16.5103ZM83.8545 21.2663V21.6583C83.8577 21.799 83.8322 21.9388 83.7797 22.0693C83.7271 22.1998 83.6486 22.3183 83.5488 22.4175C83.4491 22.5167 83.3302 22.5946 83.1994 22.6465C83.0686 22.6983 82.9286 22.723 82.788 22.719C82.5067 22.719 82.2369 22.6073 82.038 22.4084C81.839 22.2094 81.7273 21.9396 81.7273 21.6583V21.2663C81.7303 20.9854 81.8428 20.7167 82.0409 20.5175C82.239 20.3183 82.5071 20.2043 82.788 20.1998C82.9285 20.1983 83.0679 20.2248 83.198 20.2779C83.328 20.3309 83.4462 20.4094 83.5456 20.5087C83.6449 20.6081 83.7234 20.7263 83.7765 20.8564C83.8295 20.9865 83.856 21.1258 83.8545 21.2663Z" fill="#2F80ED"/>
</g>
<defs>
<clipPath id="clip0_8538_211321">
<rect width="228" height="228" fill="white"/>
</clipPath>
</defs>
</svg>
