<svg width="20" height="20" viewBox="0 0 20 20" fill="none" xmlns="http://www.w3.org/2000/svg">
<g id="Home">
<mask id="mask0_7855_199832" style="mask-type:alpha" maskUnits="userSpaceOnUse" x="0" y="0" width="20" height="20">
<path id="Mask" d="M19.1667 5.95952L11.1111 0.349321C10.4444 -0.11644 9.55556 -0.11644 8.88889 0.349321L0.833333 5.95952C0.311111 6.31439 0 6.91433 0 7.54644V18.0593C0 19.1239 0.877778 20 1.94444 20H5.27778C6.96667 20 8.33333 18.636 8.33333 16.9504V16.1111C8.33333 15.9559 8.45556 15.8339 8.61111 15.8339H11.3889C11.5444 15.8339 11.6667 15.9559 11.6667 16.1111V16.9504C11.6667 18.636 13.0333 20 14.7222 20H18.0556C19.1222 20 20 19.1239 20 18.0593V7.54644C20 6.91433 19.6889 6.31439 19.1667 5.95952Z" fill="#A9B9CC"/>
</mask>
<g mask="url(#mask0_7855_199832)">
<path id="Home_2" d="M19.1667 5.95952L11.1111 0.349321C10.4444 -0.11644 9.55556 -0.11644 8.88889 0.349321L0.833333 5.95952C0.311111 6.31439 0 6.91433 0 7.54644V18.0593C0 19.1239 0.877778 20 1.94444 20H5.27778C6.96667 20 8.33333 18.636 8.33333 16.9504V16.1111C8.33333 15.9559 8.45556 15.8339 8.61111 15.8339H11.3889C11.5444 15.8339 11.6667 15.9559 11.6667 16.1111V16.9504C11.6667 18.636 13.0333 20 14.7222 20H18.0556C19.1222 20 20 19.1239 20 18.0593V7.54644C20 6.91433 19.6889 6.31439 19.1667 5.95952ZM18.3333 18.0593C18.3333 18.2146 18.2111 18.3366 18.0556 18.3366H14.7222C13.9556 18.3366 13.3333 17.7156 13.3333 16.9504V16.1111C13.3333 15.0465 12.4556 14.1704 11.3889 14.1704H8.61111C7.54445 14.1704 6.66667 15.0465 6.66667 16.1111V16.9504C6.66667 17.7156 6.04444 18.3366 5.27778 18.3366H1.94444C1.78889 18.3366 1.66667 18.2146 1.66667 18.0593V7.54644C1.66667 7.45772 1.71111 7.3679 1.78889 7.31245L9.84444 1.71223C9.94444 1.64569 10.0667 1.64569 10.1667 1.71223L18.2222 7.31245C18.3 7.3679 18.3444 7.44663 18.3444 7.54644V18.0593H18.3333Z" fill="#A9B9CC"/>
</g>
</g>
</svg>
