<svg width="24" height="24" viewBox="0 0 24 24" fill="none" xmlns="http://www.w3.org/2000/svg">
<path d="M3.11108 9.22222L12 3.11111L20.8889 9.22222V22H16.5C15 22 13.8516 20.7022 13.8516 20H10.1445C10.1445 20.6311 9 22 7.5 22H3.11108V9.22222Z" fill="#001767"/>
<path d="M21.1667 7.95952L13.1111 2.34932C12.4444 1.88356 11.5556 1.88356 10.8889 2.34932L2.83333 7.95952C2.31111 8.31439 2 8.91433 2 9.54644V20.0593C2 21.1239 2.87778 22 3.94444 22H7.27778C8.5 22 9.5 21.3366 10 20.3366H14C14.5 21.5 15.5 22 16.7222 22H20.0556C21.1222 22 22 21.1239 22 20.0593V9.54644C22 8.91433 21.6889 8.31439 21.1667 7.95952ZM20.3333 20.0593C20.3333 20.2146 20.2111 20.3366 20.0556 20.3366H3.94444C3.78889 20.3366 3.66667 20.2146 3.66667 20.0593V9.54644C3.66667 9.45772 3.71111 9.36789 3.78889 9.31245L11.8444 3.71223C11.9444 3.64569 12.0667 3.64569 12.1667 3.71223L20.2222 9.31245C20.3 9.36789 20.3444 9.44663 20.3444 9.54644V20.0593H20.3333Z" fill="#001767"/>
<rect x="8.66699" y="16" width="6.66667" height="1.66667" rx="0.833333" fill="white"/>
</svg>
