<svg width="20" height="16" viewBox="0 0 20 16" fill="none" xmlns="http://www.w3.org/2000/svg">
<g id="Chat">
<mask id="mask0_7855_199806" style="mask-type:alpha" maskUnits="userSpaceOnUse" x="0" y="0" width="20" height="16">
<path id="Mask" d="M13.2499 0.00146484H6.75085C3.03147 0.00146484 0.00195312 3.03098 0.00195312 6.75036V15.249C0.00195312 15.659 0.341889 15.999 0.751809 15.999H13.2499C16.9693 15.999 19.9988 12.9694 19.9988 9.25001V6.75041C19.9988 3.03103 16.9693 0.00146484 13.2499 0.00146484Z" fill="#A9B9CC"/>
</mask>
<g mask="url(#mask0_7855_199806)">
<g id="Dot 1">
<circle id="dot" cx="6" cy="8" r="1" fill="#A9B9CC"/>
<circle id="dot_2" cx="10" cy="8" r="1" fill="#A9B9CC"/>
<circle id="dot_3" cx="14" cy="8" r="1" fill="#A9B9CC"/>
</g>
<path id="Chat_2" d="M13.2499 0.00146484H6.75085C3.03147 0.00146484 0.00195312 3.03098 0.00195312 6.75036V15.249C0.00195312 15.659 0.341889 15.999 0.751809 15.999H13.2499C16.9693 15.999 19.9988 12.9694 19.9988 9.25001V6.75041C19.9988 3.03103 16.9693 0.00146484 13.2499 0.00146484ZM18.499 9.24996C18.499 12.1396 16.1394 14.4991 13.2499 14.4991H1.50176V6.75036C1.50176 3.85082 3.86139 1.50122 6.7509 1.50122H13.2499C16.1395 1.50122 18.4991 3.85082 18.4991 6.75036L18.499 9.24996Z" fill="#A9B9CC"/>
</g>
</g>
</svg>
