<svg width="24" height="24" viewBox="0 0 24 24" fill="none" xmlns="http://www.w3.org/2000/svg">
<path d="M15.2499 4.00146H8.75085C5.03147 4.00146 2.00195 7.03098 2.00195 10.7504V19.249C2.00195 19.659 2.34189 19.999 2.75181 19.999H15.2499C18.9693 19.999 21.9988 16.9694 21.9988 13.25V10.7504C21.9988 7.03103 18.9693 4.00146 15.2499 4.00146Z" fill="#001767"/>
<path d="M15.2499 4.00146H8.75085C5.03147 4.00146 2.00195 7.03098 2.00195 10.7504V19.249C2.00195 19.659 2.34189 19.999 2.75181 19.999H15.2499C18.9693 19.999 21.9988 16.9694 21.9988 13.25V10.7504C21.9988 7.03103 18.9693 4.00146 15.2499 4.00146ZM20.499 13.25C20.499 16.1396 18.1394 18.4991 15.2499 18.4991H3.50176V10.7504C3.50176 7.85082 5.86139 5.50122 8.7509 5.50122H15.2499C18.1395 5.50122 20.4991 7.85082 20.4991 10.7504L20.499 13.25Z" fill="#001767"/>
<circle cx="7" cy="12" r="1.5" fill="white"/>
<circle cx="12" cy="12" r="1.5" fill="white"/>
<circle cx="17" cy="12" r="1.5" fill="white"/>
</svg>
