<svg width="200" height="200" viewBox="0 0 200 200" fill="none" xmlns="http://www.w3.org/2000/svg">
<path d="M14.9023 10.6304H86.5776V104.311H14.9023V10.6304ZM84.6866 12.5214H16.7933V102.42H84.6866V12.5214Z" fill="#E2E8F0"/>
<path d="M52.4222 13.0127H50.5312V103.363H52.4222V13.0127Z" fill="#E2E8F0"/>
<path d="M13.1859 17.0815L88.291 17.0815V14.4515L13.1859 14.4515V17.0815Z" fill="#E2E8F0"/>
<path d="M13.1859 20.042L88.291 20.042V17.412L13.1859 17.412V20.042Z" fill="#E2E8F0"/>
<path d="M13.1859 23.002L88.291 23.002V20.372L13.1859 20.372V23.002Z" fill="#E2E8F0"/>
<path d="M13.1859 25.9624L88.291 25.9624V23.3324L13.1859 23.3324V25.9624Z" fill="#E2E8F0"/>
<path d="M13.1859 28.9233L88.291 28.9233V26.2933L13.1859 26.2933V28.9233Z" fill="#E2E8F0"/>
<path d="M13.1859 31.8833L88.291 31.8833V29.2533L13.1859 29.2533V31.8833Z" fill="#E2E8F0"/>
<path d="M13.1859 34.8438L88.291 34.8438V32.2137L13.1859 32.2137V34.8438Z" fill="#E2E8F0"/>
<path d="M13.1859 37.8042L88.291 37.8042V35.1742L13.1859 35.1742V37.8042Z" fill="#E2E8F0"/>
<path d="M13.1859 40.7686L88.291 40.7686V38.1385L13.1859 38.1385V40.7686Z" fill="#E2E8F0"/>
<path d="M19.2766 13.9121H18.8027V74.5761H19.2766V13.9121Z" fill="#A9B9CC"/>
<path d="M18.1973 76.7803H19.8753L19.4536 74.3677H18.6189L18.1973 76.7803Z" fill="#A9B9CC"/>
<path d="M17.5715 13.9121H17.0977V101.672H17.5715V13.9121Z" fill="#A9B9CC"/>
<path d="M16.498 103.445H18.176L17.7544 101.037H16.9154L16.498 103.445Z" fill="#A9B9CC"/>
<path d="M10.2552 15.7642L91.2246 15.7642V10.2564L10.2552 10.2564V15.7642Z" fill="#A9B9CC"/>
<path d="M160.727 128.206H119.926V184.672H160.727V128.206Z" fill="#E2E8F0"/>
<path d="M162.704 126.111H117.949V128.205H162.704V126.111Z" fill="#CBD5E0"/>
<path d="M176.779 126.111H162.703V128.205H176.779V126.111Z" fill="#CBD5E0"/>
<path d="M174.552 128.206H160.727V184.672H174.552V128.206Z" fill="#A9B9CC"/>
<path d="M156.33 154.338H124.318V136.25H156.33V154.338ZM124.416 154.24H156.232V136.348H124.416V154.24Z" fill="#CBD5E0"/>
<path d="M142.09 141.537H135.857V145.117H142.09V141.537Z" fill="#CBD5E0"/>
<path d="M143.985 144.898H137.65V141.76H143.985V144.898ZM137.748 144.8H143.887V141.854H137.748V144.8Z" fill="#CBD5E0"/>
<path d="M156.33 177.071H124.318V158.982H156.33V177.071ZM124.416 176.973H156.232V159.08H124.416V176.973Z" fill="#CBD5E0"/>
<path d="M142.09 164.269H135.857V167.85H142.09V164.269Z" fill="#CBD5E0"/>
<path d="M143.985 167.63H137.65V164.493H143.985V167.63ZM137.748 167.532H143.887V164.587H137.748V167.532Z" fill="#CBD5E0"/>
<path d="M145.659 100.088C149.973 104.292 150.679 110.799 149.773 116.502C149.749 116.631 149.549 116.596 149.549 116.474C149.549 115.176 149.588 113.89 149.585 112.607L149.518 112.435C148.361 111.674 147.403 110.646 146.725 109.438C146.008 108.026 145.725 106.434 145.176 104.959C145.125 104.818 145.278 104.861 145.376 104.932C147.988 106.861 148.824 108.936 149.573 111.705C149.557 110.256 149.405 108.812 149.118 107.391C148.553 104.759 147.435 102.151 145.545 100.202C145.474 100.127 145.584 100.021 145.659 100.088Z" fill="#A9B9CC"/>
<path d="M144.851 100.578C144.113 100.602 143.65 101.782 143.074 102.147C143.014 102.197 142.943 102.233 142.868 102.253C142.793 102.273 142.714 102.278 142.637 102.265C142.56 102.253 142.486 102.225 142.421 102.182C142.356 102.139 142.3 102.083 142.258 102.018C141.685 101.233 142.47 100.241 143.207 99.688C142.678 99.9077 142.242 100.288 141.674 100.394C141.601 100.418 141.525 100.425 141.449 100.417C141.373 100.409 141.3 100.384 141.235 100.345C141.17 100.306 141.113 100.253 141.07 100.191C141.026 100.128 140.997 100.057 140.983 99.9822C140.732 98.8958 142.097 98.4133 143.031 98.3898C142.576 98.0721 141.278 97.2132 141.968 96.7935C142.658 96.3739 144.192 97.5779 144.69 98.0015C145.419 98.5938 146.29 99.4801 146.325 100.406C146.368 101.469 145.419 100.806 144.851 100.578Z" fill="#A9B9CC"/>
<path d="M145.066 100.758C144.121 100.327 142.321 100.947 142.152 100.59C141.838 99.8603 143.289 99.3622 144.07 99.2641C143.348 99.068 141.968 98.7582 142.011 98.064C142.062 97.2129 144.129 97.9424 145.176 98.7464C146.498 99.7583 146.486 100.735 146.27 100.927C145.968 101.198 145.223 100.829 145.066 100.758Z" fill="#E2E8F0"/>
<path d="M155.445 99.6682C150.994 103.708 150.025 110.187 150.711 115.917C150.711 116.047 150.931 116.019 150.935 115.898C150.986 114.6 150.997 113.313 151.048 112.034C151.076 111.976 151.096 111.921 151.123 111.862C152.309 111.146 153.305 110.155 154.025 108.971C154.81 107.591 155.139 106.01 155.743 104.559C155.798 104.418 155.649 104.453 155.547 104.524C152.86 106.351 151.951 108.391 151.096 111.132C151.166 109.678 151.372 108.234 151.711 106.818C152.378 104.21 153.594 101.649 155.555 99.7584C155.557 99.7442 155.556 99.7297 155.551 99.7162C155.546 99.7028 155.537 99.6909 155.526 99.6818C155.515 99.6727 155.502 99.6666 155.487 99.6642C155.473 99.6618 155.459 99.6632 155.445 99.6682Z" fill="#A9B9CC"/>
<path d="M156.232 100.19C156.969 100.245 157.389 101.441 157.95 101.81C158.009 101.861 158.078 101.899 158.153 101.922C158.227 101.945 158.306 101.952 158.383 101.943C158.461 101.933 158.536 101.908 158.603 101.868C158.67 101.828 158.728 101.775 158.774 101.712C159.374 100.927 158.628 99.9231 157.911 99.3583C158.432 99.5936 158.852 99.9937 159.417 100.143C159.489 100.168 159.565 100.178 159.642 100.172C159.718 100.166 159.792 100.144 159.859 100.106C159.925 100.069 159.983 100.018 160.029 99.957C160.075 99.8956 160.107 99.8252 160.123 99.7505C160.413 98.6719 159.072 98.1385 158.138 98.0797C158.601 97.7816 159.934 96.9776 159.26 96.5109C158.585 96.0441 157.009 97.2247 156.514 97.609C155.761 98.1738 154.855 99.0288 154.789 99.9623C154.687 101.025 155.655 100.413 156.232 100.19Z" fill="#A9B9CC"/>
<path d="M156.012 100.362C156.973 99.9702 158.758 100.657 158.93 100.307C159.272 99.5898 157.84 99.0367 157.063 98.9112C157.789 98.7426 159.185 98.4837 159.17 97.7856C159.15 96.9345 157.056 97.5856 155.977 98.3504C154.62 99.3113 154.593 100.284 154.8 100.488C155.091 100.766 155.855 100.413 156.012 100.362Z" fill="#E2E8F0"/>
<path d="M150.891 110.34C150.59 112.501 150.127 114.637 149.507 116.729C149.503 116.75 149.495 116.769 149.483 116.786C149.472 116.803 149.457 116.818 149.439 116.83C149.422 116.841 149.403 116.849 149.382 116.853C149.362 116.857 149.341 116.857 149.321 116.853C149.3 116.849 149.281 116.841 149.264 116.829C149.247 116.817 149.232 116.803 149.22 116.785C149.209 116.768 149.201 116.749 149.197 116.728C149.193 116.708 149.193 116.687 149.197 116.667C149.491 114.706 150.025 112.764 150.315 110.783C150.635 108.792 150.751 106.774 150.66 104.759C150.472 101.441 149.57 97.9112 147.405 95.3148C147.358 95.2559 147.46 95.1697 147.507 95.2246C151.841 100.28 151.15 106.473 151.146 107.03C151.762 104.936 152.394 102.539 154.715 100.41C154.814 100.315 154.892 100.362 154.876 100.515C154.461 104.398 153.382 106.422 151.131 108.497C151.068 109.124 150.989 109.736 150.891 110.34Z" fill="#A9B9CC"/>
<path d="M147.364 95.9109C146.58 95.5618 145.509 96.5541 144.737 96.6247C144.649 96.6459 144.558 96.6482 144.469 96.6315C144.38 96.6149 144.296 96.5797 144.222 96.5282C144.148 96.4767 144.086 96.4101 144.039 96.3328C143.993 96.2554 143.963 96.1691 143.952 96.0796C143.76 94.9657 145.07 94.3421 146.109 94.1421C145.454 94.0989 144.811 94.2754 144.148 94.1028C144.061 94.0907 143.976 94.0597 143.902 94.012C143.827 93.9644 143.764 93.9011 143.715 93.8267C143.667 93.7522 143.636 93.6682 143.623 93.5805C143.611 93.4928 143.617 93.4034 143.642 93.3184C143.929 92.0673 145.584 92.2516 146.568 92.6987C146.255 92.1418 145.337 90.6004 146.266 90.5102C147.196 90.42 148.169 92.4712 148.482 93.1302C148.941 94.1146 149.4 95.4834 148.969 96.4482C148.486 97.5974 147.839 96.4326 147.364 95.9109Z" fill="#A9B9CC"/>
<path d="M147.494 96.2049C146.73 95.2833 144.537 95.0283 144.557 94.5616C144.596 93.6517 146.353 93.8635 147.216 94.1694C146.565 93.6007 145.29 92.6006 145.682 91.8828C146.165 91.0278 147.942 92.828 148.624 94.1851C149.483 95.899 148.985 96.907 148.659 97.0011C148.212 97.1149 147.62 96.3579 147.494 96.2049Z" fill="#E2E8F0"/>
<path d="M153.742 111.509L155.652 126.111H144.023C144.263 124.816 146.428 111.489 146.428 111.489L153.742 111.509Z" fill="#E2E8F0"/>
<path d="M20.6719 184.828C71.4959 184.584 128.504 184.58 179.328 184.828C128.504 185.076 71.4959 185.072 20.6719 184.828Z" fill="#202327"/>
<path d="M101.913 68.7513L96.5465 90.0862C96.3163 90.7064 96.6735 91.2113 97.3403 91.1969L109.382 90.9517C109.749 90.9195 110.099 90.7932 110.389 90.5876C110.68 90.382 110.901 90.1056 111.026 89.7905L116.392 68.4628C116.63 67.8353 116.273 67.3376 115.598 67.3448L103.556 67.59C103.19 67.6239 102.841 67.7508 102.551 67.9561C102.26 68.1615 102.039 68.4371 101.913 68.7513Z" fill="#A9B9CC"/>
<path d="M103.348 68.7077L97.9742 90.0426C97.744 90.6701 98.1012 91.1677 98.768 91.1533L110.81 90.9153C111.177 90.8831 111.526 90.7568 111.817 90.5512C112.108 90.3457 112.329 90.0692 112.453 89.7541L117.82 68.4192C118.058 67.7917 117.701 67.294 117.026 67.3084L104.984 67.5464C104.618 67.5799 104.271 67.7068 103.981 67.9123C103.692 68.1178 103.472 68.3935 103.348 68.7077Z" fill="#CBD5E0"/>
<path d="M105.651 70.5469C106.217 70.5469 106.675 70.1303 106.675 69.6165C106.675 69.1026 106.217 68.686 105.651 68.686C105.085 68.686 104.627 69.1026 104.627 69.6165C104.627 70.1303 105.085 70.5469 105.651 70.5469Z" fill="#202327"/>
<path d="M63.864 101.655C70.8734 114.76 86.4322 131.717 92.7668 131.71C95.7833 131.71 101.173 132.301 105.079 129.106C113.612 122.139 120.63 108.911 121.995 101.388C122.479 98.7049 108.08 93.0863 105.992 95.2862C101.118 100.443 95.5134 110.519 94.6323 110.469C91.3856 110.288 78.5734 100.847 69.6271 94.197C58.7598 86.1261 61.0698 96.4113 63.864 101.655Z" fill="#F7A9A0"/>
<path d="M122.146 87.5614C120.559 82.152 119.233 80.9907 120.559 75.776C121.432 72.35 119.4 70.381 116.772 73.1506C112.486 77.6801 112.93 85.0514 113.899 87.5758L122.146 87.5614Z" fill="#F7A9A0"/>
<path d="M121.328 103.725C121.328 103.725 123.884 96.1301 122.813 90.2085C122.074 86.119 119.367 77.3773 106.666 72.8983C103.658 71.838 98.5298 72.2636 102.761 75.6246C105.761 78.012 108.46 78.6972 109.905 80.3705C109.905 80.3705 103.459 81.6183 102.412 84.4024C101.488 86.8376 100.759 89.33 100.229 91.8602C100.717 92.0516 101.218 92.2154 101.729 92.3507C101.729 92.3507 100.832 94.9905 103.023 98.6834L121.328 103.725Z" fill="#F7A9A0"/>
<path d="M121.423 86.4072C119.574 85.0224 115.613 82.1446 111.469 80.8247C106.865 79.3821 97.5691 77.6367 96.3864 80.7381C95.537 83.0101 99.0298 83.9405 99.0298 83.9405C99.0298 83.9405 95.021 83.9405 94.7432 86.1764C94.4891 88.1887 97.2357 88.7657 97.2357 88.7657C97.2357 88.7657 94.8067 89.1624 94.9813 91.1387C95.1797 93.5189 100.236 92.2927 102.729 94.5431C103.277 95.0479 121.423 86.4072 121.423 86.4072Z" fill="#F7A9A0"/>
<path d="M110.565 85.4988C107.019 83.915 103.025 83.3514 99.1178 83.8832C99.0225 83.8832 98.9828 83.977 99.078 83.977C102.96 84.0737 106.814 84.5993 110.557 85.5421C110.557 85.5421 110.588 85.5132 110.565 85.4988Z" fill="#202327"/>
<path d="M108.834 89.6747C107.032 88.9534 101.69 87.785 97.2999 88.6866C97.2046 88.6866 97.1729 88.7803 97.2602 88.7803C101.142 88.6941 105.022 89.0086 108.826 89.718C108.826 89.718 108.834 89.6891 108.834 89.6747Z" fill="#202327"/>
<path d="M83.9676 184.653H43.966C43.6355 183.364 43.316 182.083 42.9965 180.852C42.6293 179.417 42.262 178.017 41.9279 176.655C41.8544 176.35 41.77 176.045 41.6965 175.748C41.4321 174.7 41.1738 173.683 40.9217 172.696C40.7674 172.09 40.6169 171.499 40.47 170.912C40.3231 170.324 40.1652 169.725 40.0183 169.153C39.9779 168.998 39.9412 168.848 39.9008 168.701C39.8604 168.554 39.82 168.37 39.7796 168.209C39.7392 168.047 39.6768 167.812 39.6291 167.618C39.5703 167.412 39.5226 167.206 39.4712 167.004C39.3683 166.619 39.2728 166.241 39.181 165.87C39.0378 165.322 38.902 164.786 38.7698 164.261C38.7147 164.034 38.6522 163.806 38.5972 163.582C38.5017 163.215 38.4099 162.847 38.3254 162.513C38.263 162.282 38.2079 162.054 38.1528 161.83C37.9141 160.912 37.6975 160.049 37.4918 159.26C37.4367 159.047 37.3853 158.837 37.3302 158.635C37.2458 158.268 37.1576 157.952 37.0769 157.625C37.0218 157.423 36.9704 157.225 36.9263 157.034C36.7464 156.344 36.5848 155.716 36.4489 155.161C36.4085 155.015 36.3718 154.875 36.3387 154.735C36.2469 154.368 36.1588 154.049 36.089 153.759C36.0596 153.641 36.0339 153.531 36.0046 153.428C35.9752 153.325 35.9458 153.208 35.9201 153.109C35.8944 153.009 35.8871 152.969 35.8724 152.907C35.8577 152.844 35.821 152.716 35.7989 152.635C35.7926 152.594 35.7828 152.553 35.7695 152.514C35.7071 152.275 35.6777 152.146 35.6777 152.146H74.6034C74.6034 152.146 75.885 156.553 77.9378 163.692C78.3527 165.143 78.8044 166.707 79.2855 168.37C80.6626 173.104 82.2527 178.653 83.9676 184.653Z" fill="#323A43"/>
<path d="M50.5166 184.653H49.5178C48.0489 178.533 46.6143 172.394 45.2139 166.237C44.8785 164.741 44.5468 163.244 44.2188 161.746C44.1894 161.603 44.16 161.467 44.127 161.324C44.127 161.31 44.1316 161.296 44.1402 161.285C44.1487 161.274 44.1607 161.266 44.1742 161.263C44.1877 161.26 44.202 161.261 44.2147 161.267C44.2274 161.272 44.2379 161.282 44.2445 161.294C44.2445 161.342 44.2702 161.386 44.2849 161.43C44.7365 163.039 45.1882 164.651 45.6289 166.263C47.3181 172.377 48.9302 178.51 50.5166 184.653Z" fill="#202327"/>
<path d="M73.3512 152.132L71.6326 160.732L70.2298 167.787L67.8355 179.813L67.5858 181.043L67.1745 183.096L66.866 184.653H43.9623C43.6367 183.361 43.3148 182.094 42.9965 180.852C42.6293 179.417 42.262 178.017 41.9279 176.655C41.8544 176.35 41.77 176.045 41.6965 175.748C41.4321 174.7 41.1738 173.683 40.9217 172.696C40.7674 172.09 40.6169 171.499 40.47 170.912C40.3231 170.324 40.1652 169.726 40.0183 169.153C39.9779 168.998 39.9412 168.848 39.9008 168.701C39.8604 168.554 39.82 168.37 39.7796 168.209C39.7392 168.047 39.6768 167.812 39.6291 167.618C39.5703 167.412 39.5226 167.206 39.4712 167.004C39.3683 166.619 39.2728 166.241 39.181 165.87C39.0378 165.323 38.902 164.786 38.7698 164.261C38.711 164.03 38.6522 163.806 38.5972 163.582C38.5017 163.215 38.4099 162.847 38.3254 162.513C38.263 162.282 38.2079 162.054 38.1528 161.83C37.9141 160.912 37.6975 160.049 37.4918 159.26C37.4367 159.047 37.3853 158.837 37.3302 158.635C37.2458 158.268 37.1576 157.952 37.0769 157.625C37.0218 157.424 36.9704 157.225 36.9263 157.034C36.7464 156.344 36.5848 155.716 36.4489 155.161C36.4085 155.015 36.3718 154.875 36.3387 154.735C36.2469 154.368 36.1588 154.049 36.089 153.759C36.0596 153.641 36.0339 153.531 36.0046 153.428C35.9752 153.325 35.9458 153.208 35.9201 153.109C35.8944 153.01 35.8871 152.969 35.8724 152.907C35.8577 152.844 35.821 152.716 35.7989 152.635C35.7926 152.594 35.7828 152.553 35.7695 152.514C35.7071 152.275 35.6777 152.147 35.6777 152.147L73.3512 152.132Z" fill="#202327"/>
<path d="M73.358 152.106V152.124C73.358 152.334 73.1928 154.658 72.8182 158.202C72.7117 159.234 72.5869 160.368 72.451 161.588C72.2233 163.508 71.9369 165.627 71.588 167.867C70.9895 171.774 70.2109 176.038 69.1937 180.206C68.8265 181.704 68.4593 183.191 68.0186 184.646L17.7604 184.664C17.7604 184.664 16.2915 181.895 16.4201 180.43C16.8791 174.554 20.3163 152.124 20.3163 152.124L65.8961 152.106H73.358Z" fill="#323A43"/>
<path d="M68.7601 156.733C68.705 158.533 68.6279 160.329 68.5104 162.117C68.3892 164.06 68.2129 165.995 67.9595 167.93C67.9546 168.001 67.946 168.073 67.9338 168.143C67.6951 169.957 67.4271 171.768 67.1186 173.571C66.8285 175.256 66.6155 177.07 65.87 178.627C65.5882 179.229 65.1886 179.769 64.6949 180.214C64.2412 180.627 63.6864 180.913 63.0865 181.044C62.9888 181.068 62.8894 181.086 62.789 181.095H62.7046C62.7222 181.107 62.7365 181.122 62.7462 181.141C62.7559 181.16 62.7605 181.181 62.7597 181.202C62.7376 181.807 62.7596 182.421 62.6862 183.016C62.6862 183.041 62.6862 183.067 62.6862 183.093C62.6238 183.614 62.5283 184.132 62.4328 184.65H61.5699C61.5699 184.65 61.5699 184.628 61.5699 184.62C61.7204 184.051 61.8489 183.478 61.9885 182.905C62.128 182.333 62.3337 181.749 62.4695 181.157C62.4812 181.14 62.4978 181.126 62.5173 181.117C61.9702 181.144 61.428 181.002 60.9638 180.711C60.4997 180.42 60.1357 179.994 59.921 179.49C59.6309 178.719 59.7631 177.919 59.8806 177.125C60.0385 176.097 60.1891 175.069 60.347 174.041C60.6408 172.149 61.019 170.277 61.3532 168.396L61.5074 167.541C62.1794 163.714 62.8845 159.888 63.7328 156.094C63.7622 155.937 63.7989 155.782 63.8319 155.624C63.8399 155.605 63.8542 155.588 63.8727 155.577C63.8912 155.567 63.9127 155.562 63.9338 155.565C63.955 155.568 63.9745 155.578 63.9893 155.594C64.0041 155.609 64.0134 155.629 64.0155 155.65C63.9898 155.904 63.9641 156.161 63.9348 156.414C63.7879 157.868 63.6141 159.319 63.4133 160.766C63.1709 162.462 63.002 164.17 62.7633 165.87C62.6825 166.447 62.6017 167.023 62.5173 167.603C62.1244 170.394 61.7204 173.189 61.243 175.972C61.019 177.265 60.2148 179.578 62.0729 179.982C62.4998 180.074 62.9451 180.019 63.3362 179.824C64.1624 179.413 64.7647 178.469 65.0658 177.639C65.5909 176.171 65.7782 174.525 66.0536 172.987C66.3597 171.273 66.6302 169.568 66.8652 167.871C67.17 165.738 67.4821 163.612 67.8163 161.482C67.9852 160.395 68.1566 159.31 68.3304 158.228L68.5728 156.722C68.5765 156.598 68.7601 156.627 68.7601 156.733Z" fill="#202327"/>
<path d="M28.7739 170.1C30.8682 170.078 32.9516 169.795 34.9763 169.259C35.909 169.02 36.8308 168.719 37.7488 168.422C38.6557 168.168 39.5049 167.742 40.2496 167.166C41.6598 165.95 42.3171 164.033 42.9267 162.337C43.5988 160.417 44.1423 158.454 44.5535 156.461C44.5755 156.362 44.7187 156.395 44.7187 156.487C44.7703 158.736 44.4869 160.98 43.8778 163.145C43.371 164.981 42.6917 167.034 41.2081 168.323C39.6437 169.678 37.5358 170.159 35.5235 170.397C33.2779 170.659 31.0079 170.628 28.7702 170.306C28.7509 170.296 28.7348 170.281 28.7236 170.263C28.7124 170.244 28.7067 170.223 28.707 170.202C28.7074 170.18 28.7139 170.159 28.7257 170.141C28.7376 170.123 28.7543 170.109 28.7739 170.1Z" fill="#202327"/>
<path d="M25.2914 156.531C25.1775 159.344 22.3536 175.686 22.0708 181.249C22.0231 182.244 24.0391 183.658 23.9877 184.653H23.044C23.1101 183.68 21.105 182.288 21.1674 181.315C21.5347 175.715 24.8397 159.333 25.049 156.524C25.05 156.492 25.0637 156.461 25.0871 156.439C25.1105 156.417 25.1417 156.405 25.1739 156.406C25.206 156.407 25.2364 156.421 25.2585 156.444C25.2805 156.468 25.2923 156.499 25.2914 156.531Z" fill="#202327"/>
<path d="M69.8141 119.736L93.6249 108.987C93.6249 108.987 71.0039 91.2722 62.8773 87.9415C53.7371 84.1921 53.8179 89.6858 57.3689 98.3817C60.92 107.078 69.8141 119.736 69.8141 119.736Z" fill="#2F80ED"/>
<path d="M93.6241 108.987L69.8097 119.736C69.8097 119.736 60.9192 107.078 57.3755 98.3817C53.8318 89.6858 53.7436 84.1921 62.8838 87.9415C63.3429 88.1325 63.8533 88.3675 64.4078 88.6429L65.0835 89.0101C68.1278 90.6222 72.1929 93.2956 76.3022 96.16L76.5262 96.3179C79.7651 98.5873 83.026 100.971 85.8169 103.049L86.9884 103.93C90.8956 106.85 93.6241 108.987 93.6241 108.987Z" fill="#2F80ED"/>
<path d="M93.6241 108.987L69.8097 119.736C69.8097 119.736 60.9192 107.078 57.3755 98.3817C53.8318 89.6858 53.7436 84.1921 62.8838 87.9415C63.3429 88.1325 63.8533 88.3675 64.4078 88.6429L65.0835 89.0101C68.1278 90.6222 72.1929 93.2956 76.3022 96.16L76.5262 96.3179C79.7651 98.5873 83.026 100.971 85.8169 103.049L86.9884 103.93C90.8956 106.85 93.6241 108.987 93.6241 108.987Z" fill="#2F80ED"/>
<path d="M89.1342 105.535C88.8775 105.471 88.6176 105.421 88.3556 105.384C89.0414 105.967 89.8083 106.447 90.6324 106.809L91.0364 106.982L89.1342 105.535ZM56.8809 86.9424C56.6127 87.031 56.3636 87.1693 56.1465 87.35C56.297 87.4308 56.4476 87.5042 56.6018 87.5777C57.4162 87.9649 58.2819 88.2332 59.1724 88.3746C58.4803 87.7909 57.7088 87.3087 56.8809 86.9424ZM73.2518 110.529C72.948 109.682 72.5265 108.882 71.9995 108.153C72.1658 109.95 72.7987 111.671 73.8356 113.147C73.7684 112.251 73.5717 111.369 73.2518 110.529ZM66.3039 97.1696C65.4562 97.4697 64.656 97.8902 63.9279 98.4181C64.8248 98.3443 65.7065 98.1428 66.5463 97.8195C67.3944 97.5188 68.1947 97.097 68.9222 96.5673C68.0251 96.6419 67.1434 96.8447 66.3039 97.1696Z" fill="#E2E8F0"/>
<path d="M88.367 106.269C87.4857 106.515 80.0127 109.747 78.4043 110.485C76.7958 111.223 70.1895 114.157 68.5884 115.079C68.5728 115.085 68.5604 115.098 68.5538 115.113C68.5473 115.129 68.5472 115.146 68.5535 115.162C68.5598 115.177 68.5721 115.19 68.5876 115.196C68.6031 115.203 68.6205 115.203 68.6361 115.197C70.3694 114.616 77.0419 111.657 78.6944 110.94C80.3469 110.224 87.673 106.857 88.4294 106.376C88.4919 106.335 88.4295 106.255 88.367 106.269Z" fill="#202327"/>
<path opacity="0.1" d="M76.2543 116.827L69.8095 119.735C69.8095 119.735 60.919 107.077 57.3753 98.3813C54.757 91.9659 54.0262 87.2912 57.4928 86.7881L76.2543 116.827Z" fill="#202327"/>
<path d="M75.6643 154.82L19.6774 156.289C19.6774 156.289 16.9195 153.435 17.3382 150.072C18.8842 137.649 38.6371 94.1069 46.3194 88.874C49.7603 86.5311 57.1305 84.6986 61.2287 87.7723C67.5964 92.5462 73.92 126.658 77.5298 145.911C78.5617 151.423 75.701 154.765 75.6643 154.82Z" fill="#E2E8F0"/>
<path d="M46.6572 91.6795C48.6035 94.8781 51.2805 97.6212 54.3248 99.3398C55.8635 100.21 57.5233 100.86 59.2089 100.856C60.0973 100.907 60.9772 100.66 61.7097 100.155C62.393 99.5552 62.9071 98.7866 63.2006 97.926C63.5745 96.9268 63.8045 95.8796 63.8836 94.8156C63.9884 93.6019 64.0142 92.3826 63.9608 91.1654C63.9608 91.1177 64.0232 91.125 64.0232 91.1654C64.0783 92.3222 64.2141 93.4753 64.1884 94.632C64.1836 95.6453 64.0541 96.6542 63.8029 97.6359C63.5682 98.5488 63.1441 99.4022 62.558 100.14C61.9541 100.849 61.1035 101.302 60.1784 101.407C58.4157 101.668 56.5869 101.154 54.9197 100.306C53.2608 99.4411 51.7448 98.3263 50.4249 97.0006C48.8733 95.4476 47.5714 93.6638 46.5654 91.7126C46.5287 91.6612 46.6168 91.6171 46.6572 91.6795Z" fill="#202327"/>
<path d="M47.9026 86.7402C47.9026 86.7402 50.2528 107.004 50.5172 116.408C50.7816 125.813 47.9026 179.126 47.9026 179.126C47.9026 179.126 24.9842 174.767 22.1235 174.011C19.2629 173.254 11.4961 165.734 11.4961 165.734C11.4961 165.734 29.4386 100.959 47.9026 86.7402Z" fill="#2F80ED"/>
<path d="M45.5263 94.9296C45.1403 95.7441 44.8732 96.6098 44.7331 97.5002C45.8795 96.1059 46.6449 94.4384 46.9548 92.6602C46.3738 93.3453 45.8928 94.1094 45.5263 94.9296ZM34.8768 128.171C34.4894 128.985 34.221 129.851 34.0799 130.741C34.6632 130.055 35.1444 129.288 35.5084 128.464C35.8928 127.649 36.1599 126.784 36.3016 125.894C35.7192 126.581 35.237 127.348 34.8695 128.171H34.8768ZM27.2018 163.659C26.8146 164.473 26.5463 165.339 26.405 166.23C26.9898 165.545 27.4711 164.778 27.8335 163.953C28.2194 163.138 28.4866 162.273 28.6267 161.382C28.0436 162.069 27.5614 162.836 27.1945 163.659H27.2018ZM47.748 161.235C47.3623 162.05 47.0952 162.916 46.9548 163.806C47.5365 163.119 48.0164 162.353 48.3796 161.529C48.571 161.108 48.739 160.676 48.8827 160.237C48.8827 159.917 48.9121 159.594 48.9304 159.267C48.4613 159.877 48.0622 160.537 47.7406 161.235H47.748ZM27.525 142.052C26.7112 141.664 25.8453 141.397 24.9544 141.258C26.3501 142.401 28.0195 143.161 29.7981 143.462C29.1081 142.887 28.3404 142.412 27.5177 142.052H27.525ZM36.6285 110.529C36.3247 109.682 35.9032 108.883 35.3762 108.153C35.4512 109.05 35.654 109.932 35.9785 110.772C36.2792 111.62 36.701 112.42 37.2307 113.148C37.1533 112.25 36.9481 111.368 36.6211 110.529H36.6285ZM47.6452 139.749C47.3414 138.902 46.9199 138.102 46.3929 137.373C46.4665 138.268 46.6655 139.148 46.9842 139.988C47.2849 140.836 47.7067 141.636 48.2364 142.364C48.1623 141.468 47.9607 140.588 47.6378 139.749H47.6452ZM19.7362 171.753C19.7593 172.113 19.8097 172.472 19.8868 172.825C20.1512 173.001 20.4009 173.163 20.6432 173.31C20.3971 172.758 20.0904 172.236 19.7288 171.753H19.7362ZM16.5156 153.3C16.3115 152.75 16.0659 152.216 15.7812 151.702C15.7004 151.963 15.6159 152.224 15.5352 152.477C15.6306 152.844 15.7445 153.19 15.8693 153.542C16.1731 154.389 16.5946 155.189 17.1216 155.918C17.0453 155.02 16.8387 154.138 16.5083 153.3H16.5156ZM37.7411 173.001C36.8943 173.305 36.0944 173.727 35.3652 174.253C36.2622 174.178 37.1439 173.976 37.9835 173.651C38.8317 173.351 39.6319 172.929 40.3595 172.399C39.4599 172.473 38.5756 172.676 37.7338 173.001H37.7411ZM37.1095 152.437C36.261 152.737 35.4607 153.159 34.7336 153.689C35.6291 153.612 36.5094 153.41 37.3482 153.087C38.1979 152.787 38.9995 152.365 39.7278 151.835C38.8275 151.913 37.9433 152.121 37.1022 152.451L37.1095 152.437ZM48.2254 118.535C47.3785 118.838 46.5787 119.26 45.8494 119.787C46.7461 119.712 47.6275 119.51 48.4677 119.188C49.1967 118.924 49.8928 118.576 50.5426 118.153V117.962C49.7466 118.062 48.966 118.259 48.218 118.549L48.2254 118.535Z" fill="#E2E8F0"/>
<path d="M61.2285 87.7651C63.9607 91.1656 68.0295 111.025 68.3086 113.052C68.5877 115.079 76.8392 176.754 76.8392 176.754C76.8392 176.754 81.8848 171.742 82.2741 170.1C82.6633 168.459 77.3459 138.747 74.8855 127.69C72.1093 115.204 67.8092 97.0375 64.9044 92.7337C62.8847 89.7151 61.2285 87.7651 61.2285 87.7651Z" fill="#2F80ED"/>
<path d="M66.8516 96.9824C66.668 97.0448 66.4844 97.1036 66.3044 97.1697C65.8195 97.3496 65.3472 97.5619 64.8906 97.805L65.0118 98.2677C65.5328 98.1524 66.0456 98.0028 66.5468 97.8197L67.0756 97.6067L66.8516 96.9824ZM73.7297 152.452L73.5865 152.507C73.6195 152.738 73.6526 152.969 73.6819 153.201L73.9721 153.101C74.8206 152.802 75.6209 152.38 76.348 151.849C75.451 151.924 74.5693 152.127 73.7297 152.452ZM76.2562 172.484C76.2562 172.612 76.2929 172.733 76.3076 172.851C76.542 172.713 76.7676 172.561 76.9833 172.395C76.7395 172.412 76.4968 172.441 76.2562 172.484ZM71.4823 128.171C71.0961 128.985 70.829 129.851 70.6891 130.741C71.8297 129.344 72.5888 127.675 72.8924 125.898C72.3236 126.587 71.8539 127.352 71.497 128.171H71.4823Z" fill="#E2E8F0"/>
<path d="M35.4416 97.0228C19.7501 115.968 2.19684 142.771 6.87159 149.866C12.0825 157.769 34.7255 139.676 35.3387 138.376C36.0254 136.907 42.4115 119.783 46.1865 102.693C50.3288 83.9423 39.3194 92.3297 35.4416 97.0228Z" fill="#F7A9A0"/>
<path d="M6.22929 149.684C11.205 154.295 26.2884 158.256 53.1666 157.72C56.8939 157.646 53.4962 131.277 49.5219 131.145C44.515 130.988 25.0506 131.448 23.629 131.677C11.6501 133.496 2.85635 146.553 6.22929 149.684Z" fill="#F7A9A0"/>
<path d="M42.4655 132.202C42.4655 132.202 44.1283 131.95 52.6887 129.194C58.6056 127.288 74.2448 126.43 85.2942 139.967C89.5304 145.155 87.7416 150.378 82.3839 145.785C78.6238 142.539 76.2748 139.973 74.7479 139.25C74.7479 139.25 76.1727 146.735 73.0982 149.915C71.7335 151.339 67.9138 155.133 64.5159 157.666C63.9546 157.208 63.4227 156.715 62.9235 156.19C61.6043 157.339 59.9871 158.093 58.2582 158.363C56.5294 158.634 54.7593 158.41 53.1521 157.718L42.4655 132.202Z" fill="#F7A9A0"/>
<path d="M58.6273 128.276C61.6201 129.564 67.922 132.401 72.2689 136.514C77.0955 141.08 85.1687 151.18 81.7588 154.703C79.2593 157.289 75.8412 153.706 75.8412 153.706C75.8412 153.706 78.2976 158.582 75.5262 160.428C73.0034 162.108 70.5179 159.174 70.5179 159.174C70.5179 159.174 71.507 162.389 68.7541 163.539C65.4556 164.924 63.9422 157.964 59.3905 156.472C58.3731 156.155 58.6273 128.276 58.6273 128.276Z" fill="#F7A9A0"/>
<path d="M66.5935 140.808C69.211 142.48 74.1805 147.805 75.8776 153.578C75.9129 153.71 75.8417 153.81 75.7775 153.696C73.2339 149.057 70.135 144.744 66.5493 140.853C66.5237 140.827 66.5631 140.789 66.5935 140.808Z" fill="#202327"/>
<path d="M62.1397 145.82C64.2477 147.494 69.1259 153.217 70.6433 159.119C70.6787 159.25 70.6079 159.347 70.5366 159.232C68.2357 154.47 65.4029 149.985 62.0925 145.861C62.0559 145.833 62.099 145.795 62.1397 145.82Z" fill="#202327"/>
<path d="M70.522 159.23C71.9609 160.738 74.6007 161.689 76.1334 159.804C77.3755 158.02 76.5296 155.537 75.6804 153.748L75.3715 153.15C76.2137 154.024 77.1737 154.856 78.3114 155.284C80.301 156.187 82.3252 154.727 82.3825 152.603C82.4559 149.534 80.4249 146.953 78.7832 144.522C77.3374 142.386 75.7309 140.364 73.9779 138.472C75.8018 139.712 77.5418 141.071 79.1863 142.54C80.4136 143.615 81.3917 144.955 82.6953 145.944C86.4508 148.956 88.8619 146.917 86.8242 142.626C84.2209 137.522 77.4779 132.228 72.1209 130.274C77.6368 132.186 84.3389 137.288 87.0811 142.502C87.6074 143.616 88.0726 144.885 87.7952 146.15C87.455 147.677 85.9465 148.012 84.6445 147.468C82.2559 146.575 80.7628 144.456 78.9454 142.801C77.7332 141.713 76.462 140.692 75.1375 139.744L75.3853 139.463C76.703 141.012 77.9335 142.632 79.0713 144.317C80.8782 147.049 83.77 150.696 82.2947 154.132C81.1016 156.344 78.6441 156.113 76.8804 154.758C76.4595 154.461 76.066 154.127 75.7046 153.759L75.8801 153.634C76.7491 155.511 77.564 158.026 76.2386 159.869C74.644 161.77 71.965 160.783 70.531 159.22L70.522 159.23Z" fill="#202327"/>
<path d="M14.207 136.626C15.2758 135.818 18.4719 133.22 22.9403 132.031C26.8386 130.996 37.9102 130.935 40.5995 131.158C40.6684 131.169 40.679 131.245 40.6108 131.253C38.1897 131.555 27.5296 131.742 23.3651 132.792C20.1566 133.639 17.0906 134.956 14.2664 136.698C14.2094 136.73 14.1539 136.681 14.207 136.626Z" fill="#202327"/>
<path d="M41.5845 124.197L15.8789 119.647C15.8789 119.647 33.4285 96.9125 40.4829 91.6832C48.4222 85.8077 49.6928 91.1471 48.3929 100.449C47.0929 109.751 41.5845 124.197 41.5845 124.197Z" fill="#2F80ED"/>
<path d="M36.6216 110.529C36.3179 109.682 35.8963 108.883 35.3694 108.153C35.4444 109.05 35.6472 109.932 35.9717 110.772C36.2724 111.62 36.6942 112.42 37.2239 113.148C37.1489 112.251 36.9461 111.369 36.6216 110.529ZM21.3011 112.788C21.0298 113.217 20.7845 113.662 20.5666 114.121C20.1805 114.935 19.9133 115.801 19.7734 116.691C20.3544 116.004 20.8342 115.237 21.1983 114.414C21.57 113.629 21.8332 112.796 21.9804 111.939L21.3011 112.788ZM45.5378 94.9296C45.1518 95.7441 44.8847 96.6098 44.7446 97.5002C45.891 96.1059 46.6564 94.4384 46.9663 92.6602C46.3814 93.3447 45.8968 94.1088 45.5268 94.9296H45.5378Z" fill="#E2E8F0"/>
<path d="M20.2873 115.535C21.2017 115.535 29.2402 116.849 30.9809 117.169C32.7215 117.488 39.853 118.722 41.6303 119.203C41.6448 119.207 41.6576 119.215 41.6668 119.227C41.676 119.238 41.681 119.253 41.681 119.267C41.681 119.282 41.676 119.297 41.6668 119.308C41.6576 119.32 41.6448 119.328 41.6303 119.332C39.7942 119.192 32.615 117.966 30.834 117.679C29.0529 117.393 21.1283 115.931 20.28 115.652C20.1918 115.626 20.2322 115.535 20.2873 115.535Z" fill="#202327"/>
<path d="M40.414 123.933C41.1999 124.014 41.6846 124.043 41.6846 124.043C42.5697 120.503 43.7044 116.878 44.7399 113.393C45.7939 109.831 46.9433 106.31 48.0449 102.744C48.0449 102.689 48.1441 102.715 48.1294 102.77C47.6337 104.819 47.1342 106.861 46.6165 108.895C46.7266 108.653 46.8368 108.41 46.9433 108.161C47.3325 107.298 47.7402 106.446 48.1 105.568C48.1294 105.495 48.2433 105.528 48.2175 105.605C47.9481 106.52 47.6181 107.417 47.2297 108.289C46.947 108.902 46.6275 109.486 46.297 110.07C45.9922 111.238 45.6984 112.402 45.3605 113.566C44.3323 117.124 43.4657 121.149 42.162 124.619C41.5467 124.49 40.9416 124.316 40.3516 124.098C40.3356 124.086 40.3238 124.069 40.3182 124.05C40.3125 124.031 40.3133 124.011 40.3204 123.992C40.3274 123.973 40.3404 123.957 40.3573 123.947C40.3742 123.936 40.3941 123.931 40.414 123.933Z" fill="#202327"/>
<path d="M57.6853 100.368C53.8148 100.071 49.3934 92.6126 48.3725 87.3833C48.3064 87.0161 53.4696 75.2282 54.2481 72.7862C54.406 72.2831 68.4082 81.4049 68.4082 81.4049C68.4082 81.4049 65.2648 86.0466 63.9318 90.3174C63.8253 90.681 61.4236 100.655 57.6853 100.368Z" fill="#F7A9A0"/>
<path d="M68.4082 81.4049C68.4082 81.4049 65.2648 86.0466 63.9281 90.3138C63.9061 90.4019 54.0131 90.6553 51.784 78.9702C52.8857 76.2932 53.9323 73.7777 54.2481 72.7862C54.4097 72.2831 68.4082 81.4049 68.4082 81.4049Z" fill="#202327"/>
<path d="M46.5766 60.2457C45.8716 66.18 51.7692 81.8861 56.4182 84.7872C63.1641 88.9956 72.745 87.7874 75.9508 80.0133C79.0575 72.4779 71.0154 52.1447 65.955 49.6586C58.5004 45.9937 47.6159 51.4837 46.5766 60.2457Z" fill="#F7A9A0"/>
<path d="M64.9229 77.8723C65.2608 78.0412 65.6317 78.302 66.0246 78.2065C66.423 78.0701 66.7875 77.8497 67.0932 77.5602C67.0998 77.5557 67.1075 77.5533 67.1154 77.5532C67.1234 77.5531 67.1311 77.5554 67.1378 77.5597C67.1445 77.564 67.1497 77.5702 67.1529 77.5774C67.156 77.5847 67.157 77.5927 67.1556 77.6006C67.0717 77.8619 66.9184 78.0956 66.7121 78.2767C66.5058 78.4578 66.2542 78.5794 65.9842 78.6288C65.7462 78.6428 65.5094 78.5862 65.3036 78.4659C65.0978 78.3457 64.9321 78.1673 64.8275 77.9531C64.7981 77.898 64.8715 77.8466 64.9229 77.8723Z" fill="#202327"/>
<path d="M63.2886 67.5718C63.2666 67.5314 63.2262 67.6526 63.2446 67.693C63.6669 68.7433 63.979 70.0138 63.1491 70.7189C63.1234 70.741 63.1491 70.7924 63.1821 70.774C64.2911 70.1791 63.8615 68.4935 63.2886 67.5718Z" fill="#202327"/>
<path d="M61.9336 66.8116C60.1819 67.3147 61.313 70.7813 62.9361 70.3186C64.5592 69.8559 63.4024 66.393 61.9336 66.8116Z" fill="#202327"/>
<path d="M69.3514 65.71C69.3514 65.6659 69.4542 65.7357 69.4652 65.7797C69.781 66.863 70.3282 68.0529 71.4152 68.0932C71.4482 68.0932 71.4629 68.152 71.4152 68.1557C70.1997 68.387 69.4652 66.8116 69.3514 65.71Z" fill="#202327"/>
<path d="M69.9464 64.2851C71.632 63.591 72.8842 67.0136 71.3345 67.6562C69.7848 68.2988 68.5326 64.869 69.9464 64.2851Z" fill="#202327"/>
<path d="M60.0571 65.71C60.4794 65.4162 60.8172 65.0784 61.2065 64.7479C61.5957 64.4174 62.0254 64.1199 62.1869 63.5397C62.2149 63.3717 62.1865 63.1992 62.1061 63.0491C62.0257 62.8989 61.8979 62.7796 61.7426 62.7098C61.0596 62.449 60.4133 62.7759 59.8698 63.2055C59.3018 63.6168 58.9087 64.2261 58.7681 64.9131C58.6249 65.6182 59.5025 66.0772 60.0571 65.71Z" fill="#202327"/>
<path d="M70.7285 62.2104C70.2295 62.2141 69.7306 62.192 69.2339 62.1443C68.661 62.1112 68.1983 62.1443 67.7209 61.7771C67.5962 61.6609 67.5138 61.5065 67.4865 61.3383C67.4593 61.1701 67.4888 60.9976 67.5704 60.848C67.9559 60.2274 68.672 60.0915 69.3587 60.1135C70.0578 60.1 70.7365 60.3489 71.261 60.8113C71.8155 61.2703 71.4042 62.181 70.7285 62.2104Z" fill="#202327"/>
<path d="M65.0036 74.2883C65.4146 74.6244 65.8908 74.8717 66.4021 75.0146C66.9134 75.1574 67.4488 75.1927 67.9745 75.1182C68.4355 75.0615 68.8858 74.9378 69.3112 74.751C69.3948 74.721 69.4759 74.6841 69.5535 74.6409L69.7775 74.527C69.831 74.4968 69.8732 74.45 69.8977 74.3937C69.9222 74.3374 69.9277 74.2746 69.9134 74.2149C69.9044 74.1773 69.8895 74.1413 69.8693 74.1084L69.8363 74.0129C69.5903 73.1793 69.1018 71.9491 69.1018 71.9491C69.4507 72.0005 71.2207 72.1915 71.0518 71.7655C69.6747 68.2585 68.1397 64.3586 66.0245 61.1564C66.0095 61.1371 65.9883 61.1235 65.9644 61.1179C65.9405 61.1124 65.9155 61.1153 65.8935 61.1261C65.8715 61.1368 65.8539 61.1549 65.8436 61.1771C65.8334 61.1994 65.8311 61.2245 65.8372 61.2482C67.0307 64.6744 68.8191 67.8582 70.0713 71.2844C69.5168 71.2587 68.6024 71.1743 68.1728 71.3248C68.0663 71.3946 69.1643 73.6897 69.2451 74.0717C69.2465 74.0851 69.2465 74.0986 69.2451 74.112C67.9157 74.7437 66.7296 74.6666 65.0771 74.1708C64.9743 74.1231 64.9118 74.2222 65.0036 74.2883Z" fill="#202327"/>
<path d="M68.5156 74.9126C68.1902 75.5653 67.702 76.1231 67.0981 76.5321C66.7623 76.7455 66.368 76.8483 65.9708 76.8259C65.1041 76.7708 64.9352 76.018 64.9609 75.3386C64.9774 74.9791 65.0366 74.6229 65.1372 74.2773C66.1667 74.8441 67.3505 75.0667 68.5156 74.9126Z" fill="#202327"/>
<path d="M67.0977 76.5322C66.7618 76.7456 66.3676 76.8484 65.9703 76.826C65.1036 76.7709 64.9347 76.0181 64.9604 75.3387C65.8638 75.258 66.8553 75.6876 67.0977 76.5322Z" fill="#FF98B9"/>
<path d="M48.6022 70.8688C51.7795 70.6244 51.3405 62.8606 51.3405 62.8606C51.3405 62.8606 56.1791 61.9093 58.4482 55.2125C58.4482 55.2125 64.7495 59.0263 69.9629 57.9856C78.1482 56.3675 77.7524 45.703 74.6457 43.5873C70.2422 40.5775 62.5862 45.1866 62.5862 45.1866C62.5862 45.1866 50.8001 42.1134 47.4405 50.1019C45.9221 50.2324 44.5098 50.9343 43.4891 52.066C42.4684 53.1977 41.9154 54.6746 41.9418 56.1984C41.6588 61.9948 46.2263 71.0482 48.6022 70.8688Z" fill="#323A43"/>
<path d="M50.2131 63.7885C52.5652 63.3462 54.7036 62.1346 56.292 60.3444C57.1406 59.3687 57.7433 58.204 58.0496 56.9477C58.356 55.6914 58.3571 54.38 58.0529 53.1232C58.0291 52.9938 58.2264 52.9472 58.262 53.0848C58.6522 54.3929 58.7499 55.7709 58.548 57.121C58.3461 58.4711 57.8495 59.7603 57.0936 60.897C56.326 61.9723 55.2898 62.8274 54.0885 63.377C52.8871 63.9267 51.5625 64.1516 50.2471 64.0293C50.2151 64.0338 50.1827 64.0255 50.1569 64.0061C50.1312 63.9867 50.1142 63.9578 50.1097 63.9259C50.1052 63.894 50.1135 63.8615 50.1329 63.8358C50.1523 63.81 50.1812 63.793 50.2131 63.7885Z" fill="#202327"/>
<path d="M41.4466 52.8306C43.0301 50.7482 45.4963 50.3875 47.9342 50.4335C48.0637 50.4097 48.0597 50.6678 47.9229 50.6517C46.7097 50.6259 45.5119 50.927 44.4551 51.5234C43.3982 52.1198 42.5214 52.9895 41.9163 54.0414C40.7202 55.9908 41.0319 58.4145 41.565 60.5298C42.5738 64.6258 45.0653 68.2024 48.5577 70.5683C48.57 70.5756 48.5789 70.5875 48.5824 70.6014C48.5859 70.6152 48.5838 70.6299 48.5765 70.6421C48.5692 70.6544 48.5573 70.6632 48.5434 70.6668C48.5296 70.6703 48.5149 70.6681 48.5027 70.6608C46.5181 69.4572 44.8002 67.861 43.4542 65.97C42.1082 64.0791 41.1624 61.9333 40.6748 59.664C40.205 57.4444 39.9969 54.7443 41.4466 52.8306Z" fill="#202327"/>
<path d="M53.3079 72.3201C53.3079 72.3201 48.5965 67.8217 46.4849 69.6027C44.3734 71.3837 48.6479 78.4161 51.6444 78.8971C52.0245 78.985 52.4184 78.995 52.8025 78.9265C53.1865 78.8581 53.5527 78.7126 53.879 78.4988C54.2053 78.2851 54.485 78.0074 54.7011 77.6827C54.9173 77.358 55.0655 76.9928 55.1367 76.6093L53.3079 72.3201Z" fill="#F7A9A0"/>
<path d="M47.7479 71.5855C47.7397 71.5881 47.7325 71.5932 47.7274 71.6002C47.7223 71.6071 47.7196 71.6155 47.7196 71.6241C47.7196 71.6327 47.7223 71.6411 47.7274 71.648C47.7325 71.655 47.7397 71.6601 47.7479 71.6627C49.8594 72.0629 51.2549 73.6677 52.3529 75.401C51.6184 74.7951 50.7555 74.5601 49.9255 75.4451C49.8815 75.4928 49.9255 75.5626 49.999 75.5405C50.3203 75.3615 50.6892 75.2865 51.0549 75.326C51.4206 75.3654 51.7651 75.5174 52.0407 75.7609C52.4979 76.1729 52.9102 76.632 53.2709 77.1306C53.3958 77.2849 53.6933 77.1306 53.5868 76.9397L53.5611 76.8993C53.1094 74.4132 50.4727 71.3138 47.7479 71.5855Z" fill="#202327"/>
<path d="M167.924 82.564H129.742V50.264L148.83 38.1401L167.924 50.264V82.564Z" fill="#2F80ED"/>
<path opacity="0.2" d="M167.924 82.564H129.742V50.264L148.83 38.1401L167.924 50.264V82.564Z" fill="#202327"/>
<path d="M165.768 36.604H131.893V80.0922H165.768V36.604Z" fill="#E2E8F0"/>
<path d="M146.768 62.622L139.012 54.771L141.618 52.1957L146.15 56.7825L155.561 42.0254L158.651 43.9942L146.768 62.622Z" fill="#2F80ED"/>
<path d="M167.924 58.3647V82.5638H129.742V58.3647C131.382 59.2791 132.994 60.2665 134.619 61.2174C136.243 62.1683 137.852 63.1558 139.458 64.1433C141.247 65.2313 143.036 66.3407 144.819 67.4562L144.877 67.4226C144.859 67.4226 144.847 67.4531 144.832 67.4623C146.164 68.2851 147.498 69.1131 148.833 69.9462C150.162 69.108 151.5 68.2638 152.835 67.4379C152.82 67.4379 152.807 67.4104 152.789 67.3983C152.807 67.4108 152.827 67.421 152.847 67.4287C154.629 66.3173 156.416 65.212 158.208 64.1128C159.815 63.1314 161.426 62.1582 163.042 61.193C164.681 60.2513 166.285 59.2791 167.924 58.3647Z" fill="#2F80ED"/>
<g opacity="0.2">
<path d="M167.924 58.3647C166.382 59.4467 164.813 60.4982 163.258 61.5527C161.704 62.6072 160.122 63.6373 158.543 64.6705C156.898 65.7494 155.249 66.8182 153.597 67.8767L153.448 67.9804L149.05 70.7843L148.83 70.9153L148.617 70.7843L144.225 67.9743L144.07 67.8767C142.414 66.8161 140.763 65.7454 139.117 64.6644C137.544 63.6373 135.975 62.595 134.408 61.5527C132.842 60.5104 131.284 59.4315 129.742 58.3647C131.382 59.2791 132.994 60.2665 134.619 61.2174C136.243 62.1683 137.852 63.1558 139.458 64.1433C141.247 65.2313 143.036 66.3407 144.819 67.4561C146.16 68.2831 147.498 69.1131 148.833 69.9462C150.162 69.108 151.5 68.2638 152.835 67.4379C154.617 66.3265 156.404 65.2211 158.196 64.1219C159.803 63.1406 161.414 62.1673 163.03 61.2022C164.681 60.2513 166.285 59.2791 167.924 58.3647Z" fill="#202327"/>
<path d="M144.871 67.4072C144.853 67.4072 144.84 67.4377 144.825 67.4468L144.216 67.9589C143.259 68.7665 142.277 69.5406 141.281 70.2934C140.062 71.2078 138.821 72.1221 137.572 72.9937C136.322 73.8654 135.054 74.7187 133.762 75.5447C132.47 76.3706 131.171 77.1783 129.824 77.9189C130.982 76.904 132.186 75.9561 133.402 75.0357C134.618 74.1153 135.868 73.2071 137.111 72.3324C138.355 71.4577 139.635 70.6013 140.924 69.7753C141.951 69.117 142.997 68.4678 144.06 67.8613C144.307 67.7181 144.554 67.5809 144.807 67.4407L144.871 67.4072Z" fill="#202327"/>
<path d="M167.834 77.9189C166.486 77.1783 165.179 76.3706 163.896 75.5447C162.613 74.7187 161.33 73.8593 160.08 72.9937C158.831 72.1282 157.587 71.2199 156.371 70.2934C155.381 69.5406 154.399 68.7696 153.448 67.965L152.839 67.4468C152.823 67.4468 152.811 67.4194 152.793 67.4072C152.811 67.4197 152.83 67.43 152.851 67.4377C153.104 67.5809 153.351 67.7181 153.598 67.8613C154.661 68.4709 155.701 69.117 156.734 69.7753C158.023 70.6013 159.285 71.4607 160.54 72.3324C161.796 73.204 163.033 74.1062 164.249 75.0357C165.465 75.9653 166.675 76.904 167.834 77.9189Z" fill="#202327"/>
</g>
<path d="M132.496 34.5313C132.293 32.8561 132.293 31.1625 132.496 29.4873C132.699 31.1625 132.699 32.8561 132.496 34.5313Z" fill="#202327"/>
<path d="M130.352 35.3329C129.684 34.8176 129.052 34.2575 128.459 33.6567C127.858 33.0661 127.298 32.4348 126.783 31.7671C128.112 32.8082 129.31 34.0054 130.352 35.3329Z" fill="#202327"/>
<path d="M129.403 37.4144C128.567 37.5228 127.724 37.5737 126.88 37.5668C126.037 37.5762 125.195 37.5263 124.359 37.4175C125.195 37.3075 126.037 37.2566 126.88 37.2651C127.723 37.2571 128.567 37.307 129.403 37.4144Z" fill="#202327"/>
<path d="M130.205 39.5572C129.162 40.8847 127.965 42.0828 126.639 43.1262C127.679 41.7957 128.876 40.5963 130.205 39.5542V39.5572Z" fill="#202327"/>
<path d="M164.941 34.5313C164.835 33.6944 164.785 32.8513 164.792 32.0078C164.786 31.1651 164.837 30.3229 164.947 29.4873C165.15 31.1625 165.15 32.8561 164.947 34.5313H164.941Z" fill="#202327"/>
<path d="M167.086 35.3329C168.128 34.0054 169.326 32.8082 170.655 31.7671C170.14 32.4348 169.58 33.0661 168.979 33.6567C168.386 34.2575 167.754 34.8176 167.086 35.3329Z" fill="#202327"/>
<path d="M168.033 37.4144C168.87 37.307 169.713 37.2571 170.557 37.2651C171.399 37.2565 172.242 37.3074 173.077 37.4175C172.242 37.5264 171.399 37.5763 170.557 37.5668C169.713 37.5738 168.87 37.5229 168.033 37.4144Z" fill="#202327"/>
<path d="M167.232 39.5571C168.561 40.5983 169.758 41.7967 170.798 43.126C170.131 42.6095 169.5 42.0484 168.909 41.4467C168.307 40.8561 167.747 40.2247 167.232 39.5571Z" fill="#202327"/>
<path d="M170.423 25.6773L173.253 32.2052L174.217 25.798L183.525 7.22169L170.423 25.6773Z" fill="#2F80ED"/>
<path opacity="0.1" d="M170.423 25.6773L173.253 32.2052L174.217 25.798L183.525 7.22169L170.423 25.6773Z" fill="#202327"/>
<path d="M175.764 26.4736L173.253 32.2049L174.217 25.7978L175.764 26.4736Z" fill="#202327"/>
<path d="M174.219 25.7976L183.527 7.2213L182.648 29.5856L174.219 25.7976Z" fill="#2F80ED"/>
<path d="M170.424 25.677L160.928 27.458L183.526 7.22143L170.424 25.677Z" fill="#2F80ED"/>
<path d="M98.3965 96.154C138.461 97.7566 172.114 79.8078 174.038 34.936" stroke="#2F80ED" stroke-dasharray="2 2"/>
</svg>
