<svg width="24" height="24" viewBox="0 0 24 24" fill="none" xmlns="http://www.w3.org/2000/svg">
<path d="M4 21.75C4 21.3358 4.33579 21 4.75 21H19.25C19.6642 21 20 21.3358 20 21.75C20 22.1642 19.6642 22.5 19.25 22.5H4.75C4.33579 22.5 4 22.1642 4 21.75Z" fill="#001767"/>
<path fill-rule="evenodd" clip-rule="evenodd" d="M7.43558 14.5719C7.3311 14.5392 6.95238 14.049 6.8577 13.9216C6.67487 13.6797 6.52795 13.4673 6.3745 13.1993C5.34606 11.4247 5.29056 9.19262 6.10025 7.35922C6.98503 5.35261 9.0876 3.5813 11.9509 3.53227C14.8077 3.48325 16.9919 5.36568 17.8668 7.29386C18.8528 9.46714 18.6047 11.9509 17.1747 13.8758C17.0604 14.0294 16.7078 14.4771 16.6197 14.5262L16.2475 14.1275C15.8883 13.7614 15.3562 13.415 14.8468 13.2483C13.9914 12.9705 12.9532 13.0653 12.0031 13.0719C11.089 13.0784 9.98544 12.9934 9.17902 13.2875C8.31383 13.6046 7.98081 13.964 7.43885 14.5752L7.43558 14.5719ZM19.9661 10.5423C20.1163 9.26452 19.7441 7.69256 19.2969 6.73174C18.3533 4.70552 16.7176 3.16298 14.615 2.43746C11.102 1.225 7.19398 2.60413 5.25791 5.69249C3.94217 7.79061 3.5863 10.5423 4.53638 12.8823C5.01958 14.0752 5.56481 14.8105 6.29288 15.6373C6.99156 16.4347 7.65106 17.2518 8.35627 18.0622L10.9355 21.1016C11.0857 21.2781 11.0629 21.2094 11.1379 21.4611C11.2816 21.9611 11.804 22.0362 12.3035 21.9872C12.9532 21.9219 12.8912 21.412 13.1262 21.1408C14.7424 19.2388 16.3617 17.2289 17.9844 15.3007C18.7516 14.3889 19.225 13.6176 19.6135 12.4411C19.8388 11.7613 19.8845 11.2385 19.9661 10.5423Z" fill="#001767"/>
<path fill-rule="evenodd" clip-rule="evenodd" d="M11.7094 5.70225C10.8834 5.80356 10.2729 6.23495 9.90719 6.7317C9.35869 7.47682 9.38154 8.00626 9.38481 9.05532C9.38807 9.94751 9.68191 10.6273 10.1782 11.1044C11.1413 12.0326 12.2775 11.8332 13.714 11.8332C14.1711 11.8332 14.478 11.6763 14.5923 11.2907C14.6772 11.0064 14.6151 8.93766 14.6151 8.46379C14.6119 7.55526 14.3246 6.8951 13.812 6.41796C13.3353 5.9735 12.6072 5.5944 11.7094 5.70225Z" fill="#001767"/>
</svg>
