<svg width="16" height="20" viewBox="0 0 16 20" fill="none" xmlns="http://www.w3.org/2000/svg">
<g id="Lokasi">
<path fill-rule="evenodd" clip-rule="evenodd" d="M4.48034 13.8301C4.57502 13.4314 5.18555 12.9347 5.58387 12.7713C6.13563 12.5425 6.89308 12.6079 7.56564 12.6046C8.27412 12.6013 9.01524 12.5752 9.72045 12.5948C10.4942 12.6144 11.108 13.0294 11.4541 13.5589C11.5651 13.7256 11.6239 13.7615 11.4867 13.9118L8.54837 17.4414C8.45042 17.5558 8.13373 17.9643 8.04884 18.0231C7.94763 17.9675 5.55448 15.1243 5.35859 14.8857L4.47707 13.8367L4.48034 13.8301ZM3.43558 12.5719C3.3311 12.5392 2.95238 12.049 2.8577 11.9216C2.67487 11.6797 2.52795 11.4673 2.3745 11.1993C1.34606 9.42473 1.29056 7.19262 2.10025 5.35922C2.98503 3.35261 5.0876 1.5813 7.95089 1.53227C10.8077 1.48325 12.9919 3.36568 13.8668 5.29386C14.8528 7.46714 14.6047 9.9509 13.1747 11.8758C13.0604 12.0294 12.7078 12.4771 12.6197 12.5262L12.2475 12.1275C11.8883 11.7614 11.3562 11.415 10.8468 11.2483C9.99144 10.9705 8.95321 11.0653 8.00313 11.0719C7.08897 11.0784 5.98544 10.9934 5.17902 11.2875C4.31383 11.6046 3.98081 11.964 3.43885 12.5752L3.43558 12.5719ZM15.9661 8.54235C16.1163 7.26452 15.7441 5.69256 15.2969 4.73174C14.3533 2.70552 12.7176 1.16298 10.615 0.437461C7.10203 -0.775003 3.19398 0.604135 1.25791 3.69249C-0.0578291 5.79061 -0.4137 8.54235 0.536377 10.8823C1.01958 12.0752 1.56481 12.8105 2.29288 13.6373C2.99156 14.4347 3.65106 15.2518 4.35627 16.0622L6.93552 19.1016C7.0857 19.2781 7.06285 19.2094 7.13794 19.4611C7.2816 19.9611 7.80398 20.0363 8.3035 19.9872C8.95321 19.9219 8.89118 19.412 9.12625 19.1408C10.7424 17.2388 12.3617 15.2289 13.9844 13.3007C14.7516 12.3889 15.225 11.6176 15.6135 10.4411C15.8388 9.76135 15.8845 9.23845 15.9661 8.54235Z" fill="#A9B9CC"/>
<path fill-rule="evenodd" clip-rule="evenodd" d="M9.08717 8.29719C8.91087 8.32007 7.93467 8.32661 7.78449 8.29066C7.43841 8.20896 7.19355 8.00307 7.04336 7.72854C6.87359 7.41808 6.9193 6.94093 6.9193 6.54223C6.91603 6.06181 6.96827 5.8069 7.22946 5.54219C7.77143 4.99315 8.66274 5.1925 8.96964 5.82651C9.12635 6.14679 9.08717 6.60105 9.08717 7.00303C9.08717 7.35925 9.12635 7.97038 9.08391 8.29719H9.08717ZM7.7094 3.70225C6.88339 3.80356 6.27285 4.23495 5.90719 4.7317C5.35869 5.47682 5.38155 6.00626 5.38481 7.05532C5.38807 7.94751 5.68191 8.62727 6.17817 9.10441C7.14131 10.0326 8.27748 9.8332 9.71403 9.8332C10.1711 9.8332 10.478 9.67633 10.5923 9.2907C10.6772 9.00637 10.6151 6.93766 10.6151 6.46379C10.6119 5.55526 10.3246 4.8951 9.81197 4.41796C9.3353 3.9735 8.60724 3.5944 7.7094 3.70225Z" fill="#A9B9CC"/>
</g>
</svg>
